G04 #@! TF.GenerationSoftware,KiCad,Pcbnew,(5.1.10)-1*
G04 #@! TF.CreationDate,2022-03-27T16:46:42+02:00*
G04 #@! TF.ProjectId,LaserAutoSkipper_RX_schematic,4c617365-7241-4757-946f-536b69707065,1*
G04 #@! TF.SameCoordinates,Original*
G04 #@! TF.FileFunction,Copper,L2,Bot*
G04 #@! TF.FilePolarity,Positive*
%FSLAX46Y46*%
G04 Gerber Fmt 4.6, Leading zero omitted, Abs format (unit mm)*
G04 Created by KiCad (PCBNEW (5.1.10)-1) date 2022-03-27 16:46:42*
%MOMM*%
%LPD*%
G01*
G04 APERTURE LIST*
G04 #@! TA.AperFunction,ComponentPad*
%ADD10C,1.524000*%
G04 #@! TD*
G04 #@! TA.AperFunction,ComponentPad*
%ADD11R,1.524000X1.524000*%
G04 #@! TD*
G04 #@! TA.AperFunction,ComponentPad*
%ADD12C,3.500000*%
G04 #@! TD*
G04 #@! TA.AperFunction,ComponentPad*
%ADD13O,1.700000X1.700000*%
G04 #@! TD*
G04 #@! TA.AperFunction,ComponentPad*
%ADD14R,1.700000X1.700000*%
G04 #@! TD*
G04 #@! TA.AperFunction,ViaPad*
%ADD15C,0.600000*%
G04 #@! TD*
G04 #@! TA.AperFunction,Conductor*
%ADD16C,0.200000*%
G04 #@! TD*
G04 #@! TA.AperFunction,Conductor*
%ADD17C,0.254000*%
G04 #@! TD*
G04 #@! TA.AperFunction,Conductor*
%ADD18C,0.152400*%
G04 #@! TD*
G04 APERTURE END LIST*
D10*
X60000000Y-71500000D03*
X60000000Y-69000000D03*
X60000000Y-67000000D03*
D11*
X60000000Y-64500000D03*
D12*
X57290000Y-61430000D03*
X57290000Y-74570000D03*
D13*
X93370000Y-60000000D03*
X90830000Y-60000000D03*
X88290000Y-60000000D03*
D14*
X85750000Y-60000000D03*
D10*
X129960000Y-70120000D03*
X132500000Y-70120000D03*
X129960000Y-67580000D03*
X132500000Y-67580000D03*
X129960000Y-65040000D03*
X132500000Y-65040000D03*
X129960000Y-62500000D03*
D11*
X132500000Y-62500000D03*
G04 #@! TA.AperFunction,SMDPad,CuDef*
G36*
G01*
X97950001Y-67600000D02*
X97049999Y-67600000D01*
G75*
G02*
X96800000Y-67350001I0J249999D01*
G01*
X96800000Y-66649999D01*
G75*
G02*
X97049999Y-66400000I249999J0D01*
G01*
X97950001Y-66400000D01*
G75*
G02*
X98200000Y-66649999I0J-249999D01*
G01*
X98200000Y-67350001D01*
G75*
G02*
X97950001Y-67600000I-249999J0D01*
G01*
G37*
G04 #@! TD.AperFunction*
G04 #@! TA.AperFunction,SMDPad,CuDef*
G36*
G01*
X97950001Y-69600000D02*
X97049999Y-69600000D01*
G75*
G02*
X96800000Y-69350001I0J249999D01*
G01*
X96800000Y-68649999D01*
G75*
G02*
X97049999Y-68400000I249999J0D01*
G01*
X97950001Y-68400000D01*
G75*
G02*
X98200000Y-68649999I0J-249999D01*
G01*
X98200000Y-69350001D01*
G75*
G02*
X97950001Y-69600000I-249999J0D01*
G01*
G37*
G04 #@! TD.AperFunction*
G04 #@! TA.AperFunction,SMDPad,CuDef*
G36*
G01*
X95450001Y-67600000D02*
X94549999Y-67600000D01*
G75*
G02*
X94300000Y-67350001I0J249999D01*
G01*
X94300000Y-66649999D01*
G75*
G02*
X94549999Y-66400000I249999J0D01*
G01*
X95450001Y-66400000D01*
G75*
G02*
X95700000Y-66649999I0J-249999D01*
G01*
X95700000Y-67350001D01*
G75*
G02*
X95450001Y-67600000I-249999J0D01*
G01*
G37*
G04 #@! TD.AperFunction*
G04 #@! TA.AperFunction,SMDPad,CuDef*
G36*
G01*
X95450001Y-69600000D02*
X94549999Y-69600000D01*
G75*
G02*
X94300000Y-69350001I0J249999D01*
G01*
X94300000Y-68649999D01*
G75*
G02*
X94549999Y-68400000I249999J0D01*
G01*
X95450001Y-68400000D01*
G75*
G02*
X95700000Y-68649999I0J-249999D01*
G01*
X95700000Y-69350001D01*
G75*
G02*
X95450001Y-69600000I-249999J0D01*
G01*
G37*
G04 #@! TD.AperFunction*
G04 #@! TA.AperFunction,SMDPad,CuDef*
G36*
G01*
X92950001Y-67600000D02*
X92049999Y-67600000D01*
G75*
G02*
X91800000Y-67350001I0J249999D01*
G01*
X91800000Y-66649999D01*
G75*
G02*
X92049999Y-66400000I249999J0D01*
G01*
X92950001Y-66400000D01*
G75*
G02*
X93200000Y-66649999I0J-249999D01*
G01*
X93200000Y-67350001D01*
G75*
G02*
X92950001Y-67600000I-249999J0D01*
G01*
G37*
G04 #@! TD.AperFunction*
G04 #@! TA.AperFunction,SMDPad,CuDef*
G36*
G01*
X92950001Y-69600000D02*
X92049999Y-69600000D01*
G75*
G02*
X91800000Y-69350001I0J249999D01*
G01*
X91800000Y-68649999D01*
G75*
G02*
X92049999Y-68400000I249999J0D01*
G01*
X92950001Y-68400000D01*
G75*
G02*
X93200000Y-68649999I0J-249999D01*
G01*
X93200000Y-69350001D01*
G75*
G02*
X92950001Y-69600000I-249999J0D01*
G01*
G37*
G04 #@! TD.AperFunction*
G04 #@! TA.AperFunction,SMDPad,CuDef*
G36*
G01*
X90450000Y-67600000D02*
X89549998Y-67600000D01*
G75*
G02*
X89299999Y-67350001I0J249999D01*
G01*
X89299999Y-66649999D01*
G75*
G02*
X89549998Y-66400000I249999J0D01*
G01*
X90450000Y-66400000D01*
G75*
G02*
X90699999Y-66649999I0J-249999D01*
G01*
X90699999Y-67350001D01*
G75*
G02*
X90450000Y-67600000I-249999J0D01*
G01*
G37*
G04 #@! TD.AperFunction*
G04 #@! TA.AperFunction,SMDPad,CuDef*
G36*
G01*
X90450000Y-69600000D02*
X89549998Y-69600000D01*
G75*
G02*
X89299999Y-69350001I0J249999D01*
G01*
X89299999Y-68649999D01*
G75*
G02*
X89549998Y-68400000I249999J0D01*
G01*
X90450000Y-68400000D01*
G75*
G02*
X90699999Y-68649999I0J-249999D01*
G01*
X90699999Y-69350001D01*
G75*
G02*
X90450000Y-69600000I-249999J0D01*
G01*
G37*
G04 #@! TD.AperFunction*
G04 #@! TA.AperFunction,SMDPad,CuDef*
G36*
G01*
X87950001Y-67599999D02*
X87049999Y-67599999D01*
G75*
G02*
X86800000Y-67350000I0J249999D01*
G01*
X86800000Y-66649998D01*
G75*
G02*
X87049999Y-66399999I249999J0D01*
G01*
X87950001Y-66399999D01*
G75*
G02*
X88200000Y-66649998I0J-249999D01*
G01*
X88200000Y-67350000D01*
G75*
G02*
X87950001Y-67599999I-249999J0D01*
G01*
G37*
G04 #@! TD.AperFunction*
G04 #@! TA.AperFunction,SMDPad,CuDef*
G36*
G01*
X87950001Y-69599999D02*
X87049999Y-69599999D01*
G75*
G02*
X86800000Y-69350000I0J249999D01*
G01*
X86800000Y-68649998D01*
G75*
G02*
X87049999Y-68399999I249999J0D01*
G01*
X87950001Y-68399999D01*
G75*
G02*
X88200000Y-68649998I0J-249999D01*
G01*
X88200000Y-69350000D01*
G75*
G02*
X87950001Y-69599999I-249999J0D01*
G01*
G37*
G04 #@! TD.AperFunction*
G04 #@! TA.AperFunction,SMDPad,CuDef*
G36*
G01*
X85450001Y-67599999D02*
X84549999Y-67599999D01*
G75*
G02*
X84300000Y-67350000I0J249999D01*
G01*
X84300000Y-66649998D01*
G75*
G02*
X84549999Y-66399999I249999J0D01*
G01*
X85450001Y-66399999D01*
G75*
G02*
X85700000Y-66649998I0J-249999D01*
G01*
X85700000Y-67350000D01*
G75*
G02*
X85450001Y-67599999I-249999J0D01*
G01*
G37*
G04 #@! TD.AperFunction*
G04 #@! TA.AperFunction,SMDPad,CuDef*
G36*
G01*
X85450001Y-69599999D02*
X84549999Y-69599999D01*
G75*
G02*
X84300000Y-69350000I0J249999D01*
G01*
X84300000Y-68649998D01*
G75*
G02*
X84549999Y-68399999I249999J0D01*
G01*
X85450001Y-68399999D01*
G75*
G02*
X85700000Y-68649998I0J-249999D01*
G01*
X85700000Y-69350000D01*
G75*
G02*
X85450001Y-69599999I-249999J0D01*
G01*
G37*
G04 #@! TD.AperFunction*
G04 #@! TA.AperFunction,SMDPad,CuDef*
G36*
G01*
X82950001Y-67599999D02*
X82049999Y-67599999D01*
G75*
G02*
X81800000Y-67350000I0J249999D01*
G01*
X81800000Y-66649998D01*
G75*
G02*
X82049999Y-66399999I249999J0D01*
G01*
X82950001Y-66399999D01*
G75*
G02*
X83200000Y-66649998I0J-249999D01*
G01*
X83200000Y-67350000D01*
G75*
G02*
X82950001Y-67599999I-249999J0D01*
G01*
G37*
G04 #@! TD.AperFunction*
G04 #@! TA.AperFunction,SMDPad,CuDef*
G36*
G01*
X82950001Y-69599999D02*
X82049999Y-69599999D01*
G75*
G02*
X81800000Y-69350000I0J249999D01*
G01*
X81800000Y-68649998D01*
G75*
G02*
X82049999Y-68399999I249999J0D01*
G01*
X82950001Y-68399999D01*
G75*
G02*
X83200000Y-68649998I0J-249999D01*
G01*
X83200000Y-69350000D01*
G75*
G02*
X82950001Y-69599999I-249999J0D01*
G01*
G37*
G04 #@! TD.AperFunction*
G04 #@! TA.AperFunction,SMDPad,CuDef*
G36*
G01*
X80450001Y-67599999D02*
X79549999Y-67599999D01*
G75*
G02*
X79300000Y-67350000I0J249999D01*
G01*
X79300000Y-66649998D01*
G75*
G02*
X79549999Y-66399999I249999J0D01*
G01*
X80450001Y-66399999D01*
G75*
G02*
X80700000Y-66649998I0J-249999D01*
G01*
X80700000Y-67350000D01*
G75*
G02*
X80450001Y-67599999I-249999J0D01*
G01*
G37*
G04 #@! TD.AperFunction*
G04 #@! TA.AperFunction,SMDPad,CuDef*
G36*
G01*
X80450001Y-69599999D02*
X79549999Y-69599999D01*
G75*
G02*
X79300000Y-69350000I0J249999D01*
G01*
X79300000Y-68649998D01*
G75*
G02*
X79549999Y-68399999I249999J0D01*
G01*
X80450001Y-68399999D01*
G75*
G02*
X80700000Y-68649998I0J-249999D01*
G01*
X80700000Y-69350000D01*
G75*
G02*
X80450001Y-69599999I-249999J0D01*
G01*
G37*
G04 #@! TD.AperFunction*
D15*
X104000000Y-70000000D03*
X102000000Y-68000000D03*
X104000000Y-66000000D03*
X106000000Y-68000000D03*
X109250000Y-68000000D03*
X109750000Y-62500000D03*
X89500000Y-62250000D03*
X91500000Y-72249996D03*
X92500000Y-72249996D03*
X93500000Y-72249996D03*
X94500000Y-72249996D03*
X95500000Y-72249996D03*
X96500000Y-72249996D03*
X97500000Y-73500000D03*
X98500000Y-74250000D03*
X70000000Y-70000000D03*
X97533275Y-64966725D03*
X70000000Y-66500000D03*
X97500000Y-64000000D03*
X103500000Y-71250000D03*
X93750000Y-65566725D03*
X111500000Y-64500000D03*
X110934313Y-65127460D03*
X110250000Y-65750000D03*
X128000000Y-68750000D03*
X109250000Y-71000000D03*
X109750000Y-70250000D03*
X125250000Y-67500000D03*
X110250000Y-69500000D03*
X124500000Y-66750000D03*
X100500000Y-67000000D03*
X88250000Y-64500000D03*
D16*
X91500000Y-72249996D02*
X91000004Y-71750000D01*
X82750001Y-71750000D02*
X80000000Y-68999999D01*
X91000004Y-71750000D02*
X82750001Y-71750000D01*
X84700031Y-71200030D02*
X82500000Y-68999999D01*
X91450034Y-71200030D02*
X84700031Y-71200030D01*
X92500000Y-72249996D02*
X91450034Y-71200030D01*
X86800021Y-70800020D02*
X85000000Y-68999999D01*
X92050024Y-70800020D02*
X86800021Y-70800020D01*
X93500000Y-72249996D02*
X92050024Y-70800020D01*
X88900011Y-70400010D02*
X87500000Y-68999999D01*
X92650014Y-70400010D02*
X88900011Y-70400010D01*
X94500000Y-72249996D02*
X92650014Y-70400010D01*
X95500000Y-72249996D02*
X93250004Y-70000000D01*
X90999999Y-70000000D02*
X89999999Y-69000000D01*
X93250004Y-70000000D02*
X90999999Y-70000000D01*
X93250004Y-69000000D02*
X92500000Y-69000000D01*
X96500000Y-72249996D02*
X93250004Y-69000000D01*
X97500000Y-71500000D02*
X95000000Y-69000000D01*
X97500000Y-73500000D02*
X97500000Y-71500000D01*
X98500000Y-70000000D02*
X97500000Y-69000000D01*
X98500000Y-74250000D02*
X98500000Y-70000000D01*
X75033275Y-64966725D02*
X70000000Y-70000000D01*
X81033275Y-64966725D02*
X75033275Y-64966725D01*
X82066550Y-66000000D02*
X81033275Y-64966725D01*
X90500000Y-66000000D02*
X82066550Y-66000000D01*
X91533275Y-64966725D02*
X90500000Y-66000000D01*
X97533275Y-64966725D02*
X91533275Y-64966725D01*
X72500000Y-64000000D02*
X70000000Y-66500000D01*
X80750000Y-64000000D02*
X72500000Y-64000000D01*
X82250000Y-65500000D02*
X80750000Y-64000000D01*
X90250000Y-65500000D02*
X82250000Y-65500000D01*
X91750000Y-64000000D02*
X90250000Y-65500000D01*
X97500000Y-64000000D02*
X91750000Y-64000000D01*
X97816725Y-65566725D02*
X93750000Y-65566725D01*
X103500000Y-71250000D02*
X97816725Y-65566725D01*
X126880000Y-64500000D02*
X129960000Y-67580000D01*
X111500000Y-64500000D02*
X126880000Y-64500000D01*
X125627460Y-65127460D02*
X110934313Y-65127460D01*
X129142001Y-68642001D02*
X125627460Y-65127460D01*
X131022001Y-68642001D02*
X129142001Y-68642001D01*
X132500000Y-70120000D02*
X131022001Y-68642001D01*
X110250000Y-65750000D02*
X125000000Y-65750000D01*
X125000000Y-65750000D02*
X128000000Y-68750000D01*
X129960000Y-70120000D02*
X123630000Y-70120000D01*
X123630000Y-70120000D02*
X122750000Y-71000000D01*
X109250000Y-71000000D02*
X122750000Y-71000000D01*
X122500000Y-70250000D02*
X125250000Y-67500000D01*
X109750000Y-70250000D02*
X122500000Y-70250000D01*
X121750000Y-69500000D02*
X124500000Y-66750000D01*
X110250000Y-69500000D02*
X121750000Y-69500000D01*
X91980001Y-61150001D02*
X90830000Y-60000000D01*
X95538003Y-61150001D02*
X91980001Y-61150001D01*
X100500000Y-66111998D02*
X95538003Y-61150001D01*
X100500000Y-67000000D02*
X100500000Y-66111998D01*
X88250000Y-60040000D02*
X88290000Y-60000000D01*
X88250000Y-64500000D02*
X88250000Y-60040000D01*
D17*
X84448815Y-58698815D02*
X84369463Y-58795506D01*
X84310498Y-58905820D01*
X84274188Y-59025518D01*
X84261928Y-59150000D01*
X84265000Y-59714250D01*
X84423750Y-59873000D01*
X85623000Y-59873000D01*
X85623000Y-59853000D01*
X85877000Y-59853000D01*
X85877000Y-59873000D01*
X85897000Y-59873000D01*
X85897000Y-60127000D01*
X85877000Y-60127000D01*
X85877000Y-61326250D01*
X86035750Y-61485000D01*
X86600000Y-61488072D01*
X86724482Y-61475812D01*
X86844180Y-61439502D01*
X86954494Y-61380537D01*
X87051185Y-61301185D01*
X87130537Y-61204494D01*
X87189502Y-61094180D01*
X87211513Y-61021620D01*
X87343368Y-61153475D01*
X87515001Y-61268156D01*
X87515000Y-63917049D01*
X87421414Y-64057111D01*
X87350932Y-64227271D01*
X87315000Y-64407911D01*
X87315000Y-64592089D01*
X87349395Y-64765000D01*
X82554447Y-64765000D01*
X81295258Y-63505812D01*
X81272238Y-63477762D01*
X81160320Y-63385913D01*
X81032633Y-63317663D01*
X80894085Y-63275635D01*
X80786105Y-63265000D01*
X80750000Y-63261444D01*
X80713895Y-63265000D01*
X72536105Y-63265000D01*
X72500000Y-63261444D01*
X72463895Y-63265000D01*
X72355915Y-63275635D01*
X72217367Y-63317663D01*
X72089680Y-63385913D01*
X71977762Y-63477762D01*
X71954746Y-63505807D01*
X69892485Y-65568068D01*
X69727271Y-65600932D01*
X69557111Y-65671414D01*
X69403972Y-65773738D01*
X69273738Y-65903972D01*
X69171414Y-66057111D01*
X69100932Y-66227271D01*
X69065000Y-66407911D01*
X69065000Y-66592089D01*
X69100932Y-66772729D01*
X69171414Y-66942889D01*
X69273738Y-67096028D01*
X69403972Y-67226262D01*
X69557111Y-67328586D01*
X69727271Y-67399068D01*
X69907911Y-67435000D01*
X70092089Y-67435000D01*
X70272729Y-67399068D01*
X70442889Y-67328586D01*
X70596028Y-67226262D01*
X70726262Y-67096028D01*
X70828586Y-66942889D01*
X70899068Y-66772729D01*
X70931932Y-66607515D01*
X72804447Y-64735000D01*
X74225553Y-64735000D01*
X69892486Y-69068068D01*
X69727271Y-69100932D01*
X69557111Y-69171414D01*
X69403972Y-69273738D01*
X69273738Y-69403972D01*
X69171414Y-69557111D01*
X69100932Y-69727271D01*
X69065000Y-69907911D01*
X69065000Y-70092089D01*
X69100932Y-70272729D01*
X69171414Y-70442889D01*
X69273738Y-70596028D01*
X69403972Y-70726262D01*
X69557111Y-70828586D01*
X69727271Y-70899068D01*
X69907911Y-70935000D01*
X70092089Y-70935000D01*
X70272729Y-70899068D01*
X70442889Y-70828586D01*
X70596028Y-70726262D01*
X70726262Y-70596028D01*
X70828586Y-70442889D01*
X70899068Y-70272729D01*
X70931932Y-70107514D01*
X74639447Y-66399999D01*
X78661928Y-66399999D01*
X78665000Y-66714249D01*
X78823750Y-66872999D01*
X79873000Y-66872999D01*
X79873000Y-65923749D01*
X79714250Y-65764999D01*
X79300000Y-65761927D01*
X79175518Y-65774187D01*
X79055820Y-65810497D01*
X78945506Y-65869462D01*
X78848815Y-65948814D01*
X78769463Y-66045505D01*
X78710498Y-66155819D01*
X78674188Y-66275517D01*
X78661928Y-66399999D01*
X74639447Y-66399999D01*
X75337722Y-65701725D01*
X80728829Y-65701725D01*
X80798757Y-65771653D01*
X80700000Y-65761927D01*
X80285750Y-65764999D01*
X80127000Y-65923749D01*
X80127000Y-66872999D01*
X81176250Y-66872999D01*
X81250000Y-66799249D01*
X81323750Y-66872999D01*
X82373000Y-66872999D01*
X82373000Y-66852999D01*
X82627000Y-66852999D01*
X82627000Y-66872999D01*
X83676250Y-66872999D01*
X83750000Y-66799249D01*
X83823750Y-66872999D01*
X84873000Y-66872999D01*
X84873000Y-66852999D01*
X85127000Y-66852999D01*
X85127000Y-66872999D01*
X86176250Y-66872999D01*
X86250000Y-66799249D01*
X86323750Y-66872999D01*
X87373000Y-66872999D01*
X87373000Y-66852999D01*
X87627000Y-66852999D01*
X87627000Y-66872999D01*
X88676250Y-66872999D01*
X88749999Y-66799250D01*
X88823749Y-66873000D01*
X89872999Y-66873000D01*
X89872999Y-66853000D01*
X90126999Y-66853000D01*
X90126999Y-66873000D01*
X91176249Y-66873000D01*
X91250000Y-66799250D01*
X91323750Y-66873000D01*
X92373000Y-66873000D01*
X92373000Y-65923750D01*
X92214250Y-65765000D01*
X91800000Y-65761928D01*
X91775063Y-65764384D01*
X91837722Y-65701725D01*
X92823536Y-65701725D01*
X92836048Y-65764627D01*
X92785750Y-65765000D01*
X92627000Y-65923750D01*
X92627000Y-66873000D01*
X93676250Y-66873000D01*
X93750000Y-66799250D01*
X93823750Y-66873000D01*
X94873000Y-66873000D01*
X94873000Y-66853000D01*
X95127000Y-66853000D01*
X95127000Y-66873000D01*
X96176250Y-66873000D01*
X96250000Y-66799250D01*
X96323750Y-66873000D01*
X97373000Y-66873000D01*
X97373000Y-66853000D01*
X97627000Y-66853000D01*
X97627000Y-66873000D01*
X97647000Y-66873000D01*
X97647000Y-67127000D01*
X97627000Y-67127000D01*
X97627000Y-67147000D01*
X97373000Y-67147000D01*
X97373000Y-67127000D01*
X96323750Y-67127000D01*
X96250000Y-67200750D01*
X96176250Y-67127000D01*
X95127000Y-67127000D01*
X95127000Y-67147000D01*
X94873000Y-67147000D01*
X94873000Y-67127000D01*
X93823750Y-67127000D01*
X93750000Y-67200750D01*
X93676250Y-67127000D01*
X92627000Y-67127000D01*
X92627000Y-67147000D01*
X92373000Y-67147000D01*
X92373000Y-67127000D01*
X91323750Y-67127000D01*
X91250000Y-67200751D01*
X91176249Y-67127000D01*
X90126999Y-67127000D01*
X90126999Y-67147000D01*
X89872999Y-67147000D01*
X89872999Y-67127000D01*
X88823749Y-67127000D01*
X88750000Y-67200749D01*
X88676250Y-67126999D01*
X87627000Y-67126999D01*
X87627000Y-67146999D01*
X87373000Y-67146999D01*
X87373000Y-67126999D01*
X86323750Y-67126999D01*
X86250000Y-67200749D01*
X86176250Y-67126999D01*
X85127000Y-67126999D01*
X85127000Y-67146999D01*
X84873000Y-67146999D01*
X84873000Y-67126999D01*
X83823750Y-67126999D01*
X83750000Y-67200749D01*
X83676250Y-67126999D01*
X82627000Y-67126999D01*
X82627000Y-67146999D01*
X82373000Y-67146999D01*
X82373000Y-67126999D01*
X81323750Y-67126999D01*
X81250000Y-67200749D01*
X81176250Y-67126999D01*
X80127000Y-67126999D01*
X80127000Y-67146999D01*
X79873000Y-67146999D01*
X79873000Y-67126999D01*
X78823750Y-67126999D01*
X78665000Y-67285749D01*
X78661928Y-67599999D01*
X78674188Y-67724481D01*
X78710498Y-67844179D01*
X78769463Y-67954493D01*
X78848815Y-68051184D01*
X78878276Y-68075362D01*
X78811595Y-68156612D01*
X78729528Y-68310148D01*
X78678992Y-68476744D01*
X78661928Y-68649998D01*
X78661928Y-69350000D01*
X78678992Y-69523254D01*
X78729528Y-69689850D01*
X78811595Y-69843386D01*
X78922038Y-69977961D01*
X79056613Y-70088404D01*
X79210149Y-70170471D01*
X79376745Y-70221007D01*
X79549999Y-70238071D01*
X80198626Y-70238071D01*
X82204747Y-72244193D01*
X82227763Y-72272238D01*
X82255807Y-72295253D01*
X82339681Y-72364087D01*
X82467367Y-72432337D01*
X82605916Y-72474365D01*
X82750001Y-72488556D01*
X82786106Y-72485000D01*
X90593428Y-72485000D01*
X90600932Y-72522725D01*
X90671414Y-72692885D01*
X90773738Y-72846024D01*
X90903972Y-72976258D01*
X91057111Y-73078582D01*
X91227271Y-73149064D01*
X91407911Y-73184996D01*
X91592089Y-73184996D01*
X91772729Y-73149064D01*
X91942889Y-73078582D01*
X92000000Y-73040422D01*
X92057111Y-73078582D01*
X92227271Y-73149064D01*
X92407911Y-73184996D01*
X92592089Y-73184996D01*
X92772729Y-73149064D01*
X92942889Y-73078582D01*
X93000000Y-73040422D01*
X93057111Y-73078582D01*
X93227271Y-73149064D01*
X93407911Y-73184996D01*
X93592089Y-73184996D01*
X93772729Y-73149064D01*
X93942889Y-73078582D01*
X94000000Y-73040422D01*
X94057111Y-73078582D01*
X94227271Y-73149064D01*
X94407911Y-73184996D01*
X94592089Y-73184996D01*
X94772729Y-73149064D01*
X94942889Y-73078582D01*
X95000000Y-73040422D01*
X95057111Y-73078582D01*
X95227271Y-73149064D01*
X95407911Y-73184996D01*
X95592089Y-73184996D01*
X95772729Y-73149064D01*
X95942889Y-73078582D01*
X96000000Y-73040422D01*
X96057111Y-73078582D01*
X96227271Y-73149064D01*
X96407911Y-73184996D01*
X96592089Y-73184996D01*
X96620809Y-73179283D01*
X96600932Y-73227271D01*
X96565000Y-73407911D01*
X96565000Y-73592089D01*
X96600932Y-73772729D01*
X96671414Y-73942889D01*
X96773738Y-74096028D01*
X96903972Y-74226262D01*
X97057111Y-74328586D01*
X97227271Y-74399068D01*
X97407911Y-74435000D01*
X97583481Y-74435000D01*
X97600932Y-74522729D01*
X97671414Y-74692889D01*
X97773738Y-74846028D01*
X97903972Y-74976262D01*
X98057111Y-75078586D01*
X98227271Y-75149068D01*
X98407911Y-75185000D01*
X98592089Y-75185000D01*
X98772729Y-75149068D01*
X98942889Y-75078586D01*
X99096028Y-74976262D01*
X99226262Y-74846028D01*
X99328586Y-74692889D01*
X99399068Y-74522729D01*
X99435000Y-74342089D01*
X99435000Y-74157911D01*
X99399068Y-73977271D01*
X99328586Y-73807111D01*
X99235000Y-73667049D01*
X99235000Y-70036105D01*
X99238556Y-70000000D01*
X99224365Y-69855915D01*
X99182337Y-69717366D01*
X99114087Y-69589680D01*
X99061526Y-69525635D01*
X99022238Y-69477762D01*
X98994193Y-69454746D01*
X98838072Y-69298625D01*
X98838072Y-68649999D01*
X98821008Y-68476745D01*
X98770472Y-68310149D01*
X98688405Y-68156613D01*
X98621724Y-68075363D01*
X98651185Y-68051185D01*
X98730537Y-67954494D01*
X98789502Y-67844180D01*
X98825812Y-67724482D01*
X98835605Y-67625051D01*
X102568069Y-71357515D01*
X102600932Y-71522729D01*
X102671414Y-71692889D01*
X102773738Y-71846028D01*
X102903972Y-71976262D01*
X103057111Y-72078586D01*
X103227271Y-72149068D01*
X103407911Y-72185000D01*
X103592089Y-72185000D01*
X103772729Y-72149068D01*
X103942889Y-72078586D01*
X104096028Y-71976262D01*
X104226262Y-71846028D01*
X104328586Y-71692889D01*
X104399068Y-71522729D01*
X104435000Y-71342089D01*
X104435000Y-71157911D01*
X104399068Y-70977271D01*
X104370339Y-70907911D01*
X108315000Y-70907911D01*
X108315000Y-71092089D01*
X108350932Y-71272729D01*
X108421414Y-71442889D01*
X108523738Y-71596028D01*
X108653972Y-71726262D01*
X108807111Y-71828586D01*
X108977271Y-71899068D01*
X109157911Y-71935000D01*
X109342089Y-71935000D01*
X109522729Y-71899068D01*
X109692889Y-71828586D01*
X109832951Y-71735000D01*
X122713895Y-71735000D01*
X122750000Y-71738556D01*
X122786105Y-71735000D01*
X122894085Y-71724365D01*
X123032633Y-71682337D01*
X123160320Y-71614087D01*
X123272238Y-71522238D01*
X123295258Y-71494188D01*
X123934447Y-70855000D01*
X128770955Y-70855000D01*
X128874880Y-71010535D01*
X129069465Y-71205120D01*
X129298273Y-71358005D01*
X129552510Y-71463314D01*
X129822408Y-71517000D01*
X130097592Y-71517000D01*
X130367490Y-71463314D01*
X130621727Y-71358005D01*
X130850535Y-71205120D01*
X131045120Y-71010535D01*
X131198005Y-70781727D01*
X131230000Y-70704485D01*
X131261995Y-70781727D01*
X131414880Y-71010535D01*
X131609465Y-71205120D01*
X131838273Y-71358005D01*
X132092510Y-71463314D01*
X132362408Y-71517000D01*
X132637592Y-71517000D01*
X132907490Y-71463314D01*
X133161727Y-71358005D01*
X133390535Y-71205120D01*
X133585120Y-71010535D01*
X133738005Y-70781727D01*
X133843314Y-70527490D01*
X133897000Y-70257592D01*
X133897000Y-69982408D01*
X133843314Y-69712510D01*
X133738005Y-69458273D01*
X133585120Y-69229465D01*
X133390535Y-69034880D01*
X133161727Y-68881995D01*
X133084485Y-68850000D01*
X133161727Y-68818005D01*
X133390535Y-68665120D01*
X133585120Y-68470535D01*
X133738005Y-68241727D01*
X133843314Y-67987490D01*
X133897000Y-67717592D01*
X133897000Y-67442408D01*
X133843314Y-67172510D01*
X133738005Y-66918273D01*
X133585120Y-66689465D01*
X133390535Y-66494880D01*
X133161727Y-66341995D01*
X133084485Y-66310000D01*
X133161727Y-66278005D01*
X133390535Y-66125120D01*
X133585120Y-65930535D01*
X133738005Y-65701727D01*
X133843314Y-65447490D01*
X133897000Y-65177592D01*
X133897000Y-64902408D01*
X133843314Y-64632510D01*
X133738005Y-64378273D01*
X133585120Y-64149465D01*
X133390535Y-63954880D01*
X133302535Y-63896080D01*
X133386482Y-63887812D01*
X133506180Y-63851502D01*
X133616494Y-63792537D01*
X133713185Y-63713185D01*
X133792537Y-63616494D01*
X133851502Y-63506180D01*
X133887812Y-63386482D01*
X133900072Y-63262000D01*
X133897000Y-62785750D01*
X133738250Y-62627000D01*
X132627000Y-62627000D01*
X132627000Y-62647000D01*
X132373000Y-62647000D01*
X132373000Y-62627000D01*
X132353000Y-62627000D01*
X132353000Y-62373000D01*
X132373000Y-62373000D01*
X132373000Y-61261750D01*
X132627000Y-61261750D01*
X132627000Y-62373000D01*
X133738250Y-62373000D01*
X133897000Y-62214250D01*
X133900072Y-61738000D01*
X133887812Y-61613518D01*
X133851502Y-61493820D01*
X133792537Y-61383506D01*
X133713185Y-61286815D01*
X133616494Y-61207463D01*
X133506180Y-61148498D01*
X133386482Y-61112188D01*
X133262000Y-61099928D01*
X132785750Y-61103000D01*
X132627000Y-61261750D01*
X132373000Y-61261750D01*
X132214250Y-61103000D01*
X131738000Y-61099928D01*
X131613518Y-61112188D01*
X131493820Y-61148498D01*
X131383506Y-61207463D01*
X131286815Y-61286815D01*
X131207463Y-61383506D01*
X131148498Y-61493820D01*
X131112188Y-61613518D01*
X131103920Y-61697465D01*
X131045120Y-61609465D01*
X130850535Y-61414880D01*
X130621727Y-61261995D01*
X130367490Y-61156686D01*
X130097592Y-61103000D01*
X129822408Y-61103000D01*
X129552510Y-61156686D01*
X129298273Y-61261995D01*
X129069465Y-61414880D01*
X128874880Y-61609465D01*
X128721995Y-61838273D01*
X128616686Y-62092510D01*
X128563000Y-62362408D01*
X128563000Y-62637592D01*
X128616686Y-62907490D01*
X128721995Y-63161727D01*
X128874880Y-63390535D01*
X129069465Y-63585120D01*
X129298273Y-63738005D01*
X129375515Y-63770000D01*
X129298273Y-63801995D01*
X129069465Y-63954880D01*
X128874880Y-64149465D01*
X128721995Y-64378273D01*
X128616686Y-64632510D01*
X128563000Y-64902408D01*
X128563000Y-65143554D01*
X127425259Y-64005813D01*
X127402238Y-63977762D01*
X127290320Y-63885913D01*
X127162633Y-63817663D01*
X127024085Y-63775635D01*
X126916105Y-63765000D01*
X126880000Y-63761444D01*
X126843895Y-63765000D01*
X112082951Y-63765000D01*
X111942889Y-63671414D01*
X111772729Y-63600932D01*
X111592089Y-63565000D01*
X111407911Y-63565000D01*
X111227271Y-63600932D01*
X111057111Y-63671414D01*
X110903972Y-63773738D01*
X110773738Y-63903972D01*
X110671414Y-64057111D01*
X110600932Y-64227271D01*
X110595243Y-64255871D01*
X110491424Y-64298874D01*
X110338285Y-64401198D01*
X110208051Y-64531432D01*
X110105727Y-64684571D01*
X110042165Y-64838024D01*
X109977271Y-64850932D01*
X109807111Y-64921414D01*
X109653972Y-65023738D01*
X109523738Y-65153972D01*
X109421414Y-65307111D01*
X109350932Y-65477271D01*
X109315000Y-65657911D01*
X109315000Y-65842089D01*
X109350932Y-66022729D01*
X109421414Y-66192889D01*
X109523738Y-66346028D01*
X109653972Y-66476262D01*
X109807111Y-66578586D01*
X109977271Y-66649068D01*
X110157911Y-66685000D01*
X110342089Y-66685000D01*
X110522729Y-66649068D01*
X110692889Y-66578586D01*
X110832951Y-66485000D01*
X123599395Y-66485000D01*
X123568069Y-66642485D01*
X121445554Y-68765000D01*
X110832951Y-68765000D01*
X110692889Y-68671414D01*
X110522729Y-68600932D01*
X110342089Y-68565000D01*
X110157911Y-68565000D01*
X109977271Y-68600932D01*
X109807111Y-68671414D01*
X109653972Y-68773738D01*
X109523738Y-68903972D01*
X109421414Y-69057111D01*
X109350932Y-69227271D01*
X109315000Y-69407911D01*
X109315000Y-69418146D01*
X109307111Y-69421414D01*
X109153972Y-69523738D01*
X109023738Y-69653972D01*
X108921414Y-69807111D01*
X108850932Y-69977271D01*
X108815000Y-70157911D01*
X108815000Y-70168146D01*
X108807111Y-70171414D01*
X108653972Y-70273738D01*
X108523738Y-70403972D01*
X108421414Y-70557111D01*
X108350932Y-70727271D01*
X108315000Y-70907911D01*
X104370339Y-70907911D01*
X104328586Y-70807111D01*
X104226262Y-70653972D01*
X104096028Y-70523738D01*
X103942889Y-70421414D01*
X103772729Y-70350932D01*
X103607515Y-70318069D01*
X101047880Y-67758433D01*
X101096028Y-67726262D01*
X101226262Y-67596028D01*
X101328586Y-67442889D01*
X101399068Y-67272729D01*
X101435000Y-67092089D01*
X101435000Y-66907911D01*
X101399068Y-66727271D01*
X101328586Y-66557111D01*
X101235000Y-66417049D01*
X101235000Y-66148092D01*
X101238555Y-66111997D01*
X101235000Y-66075902D01*
X101235000Y-66075893D01*
X101224365Y-65967913D01*
X101182337Y-65829365D01*
X101114087Y-65701678D01*
X101022238Y-65589760D01*
X100994193Y-65566744D01*
X96083262Y-60655814D01*
X96060241Y-60627763D01*
X95948323Y-60535914D01*
X95820636Y-60467664D01*
X95682088Y-60425636D01*
X95574108Y-60415001D01*
X95538003Y-60411445D01*
X95501898Y-60415001D01*
X94801544Y-60415001D01*
X94855000Y-60146260D01*
X94855000Y-59853740D01*
X94797932Y-59566842D01*
X94685990Y-59296589D01*
X94523475Y-59053368D01*
X94316632Y-58846525D01*
X94073411Y-58684010D01*
X94001081Y-58654050D01*
X133968015Y-58654050D01*
X134260818Y-58682760D01*
X134511708Y-58758508D01*
X134743101Y-58881542D01*
X134946190Y-59047177D01*
X135113244Y-59249111D01*
X135237889Y-59479637D01*
X135315386Y-59729990D01*
X135345951Y-60020790D01*
X135345950Y-75968015D01*
X135317240Y-76260820D01*
X135241493Y-76511706D01*
X135118458Y-76743101D01*
X134952820Y-76946193D01*
X134750888Y-77113245D01*
X134520363Y-77237889D01*
X134270009Y-77315386D01*
X133979219Y-77345950D01*
X56031985Y-77345950D01*
X55739180Y-77317240D01*
X55488294Y-77241493D01*
X55256899Y-77118458D01*
X55053807Y-76952820D01*
X54886755Y-76750888D01*
X54762111Y-76520363D01*
X54684614Y-76270009D01*
X54681419Y-76239609D01*
X55799997Y-76239609D01*
X55986073Y-76580766D01*
X56403409Y-76796513D01*
X56854815Y-76926696D01*
X57322946Y-76966313D01*
X57789811Y-76913842D01*
X58237468Y-76771297D01*
X58593927Y-76580766D01*
X58780003Y-76239609D01*
X57290000Y-74749605D01*
X55799997Y-76239609D01*
X54681419Y-76239609D01*
X54654050Y-75979219D01*
X54654050Y-74602946D01*
X54893687Y-74602946D01*
X54946158Y-75069811D01*
X55088703Y-75517468D01*
X55279234Y-75873927D01*
X55620391Y-76060003D01*
X57110395Y-74570000D01*
X57469605Y-74570000D01*
X58959609Y-76060003D01*
X59300766Y-75873927D01*
X59516513Y-75456591D01*
X59646696Y-75005185D01*
X59686313Y-74537054D01*
X59633842Y-74070189D01*
X59491297Y-73622532D01*
X59300766Y-73266073D01*
X58959609Y-73079997D01*
X57469605Y-74570000D01*
X57110395Y-74570000D01*
X55620391Y-73079997D01*
X55279234Y-73266073D01*
X55063487Y-73683409D01*
X54933304Y-74134815D01*
X54893687Y-74602946D01*
X54654050Y-74602946D01*
X54654050Y-72900391D01*
X55799997Y-72900391D01*
X57290000Y-74390395D01*
X58780003Y-72900391D01*
X58593927Y-72559234D01*
X58412736Y-72465565D01*
X59214040Y-72465565D01*
X59281020Y-72705656D01*
X59530048Y-72822756D01*
X59797135Y-72889023D01*
X60072017Y-72901910D01*
X60344133Y-72860922D01*
X60603023Y-72767636D01*
X60718980Y-72705656D01*
X60785960Y-72465565D01*
X60000000Y-71679605D01*
X59214040Y-72465565D01*
X58412736Y-72465565D01*
X58176591Y-72343487D01*
X57725185Y-72213304D01*
X57257054Y-72173687D01*
X56790189Y-72226158D01*
X56342532Y-72368703D01*
X55986073Y-72559234D01*
X55799997Y-72900391D01*
X54654050Y-72900391D01*
X54654050Y-71572017D01*
X58598090Y-71572017D01*
X58639078Y-71844133D01*
X58732364Y-72103023D01*
X58794344Y-72218980D01*
X59034435Y-72285960D01*
X59820395Y-71500000D01*
X60179605Y-71500000D01*
X60965565Y-72285960D01*
X61205656Y-72218980D01*
X61322756Y-71969952D01*
X61389023Y-71702865D01*
X61401910Y-71427983D01*
X61360922Y-71155867D01*
X61267636Y-70896977D01*
X61205656Y-70781020D01*
X60965565Y-70714040D01*
X60179605Y-71500000D01*
X59820395Y-71500000D01*
X59034435Y-70714040D01*
X58794344Y-70781020D01*
X58677244Y-71030048D01*
X58610977Y-71297135D01*
X58598090Y-71572017D01*
X54654050Y-71572017D01*
X54654050Y-63099609D01*
X55799997Y-63099609D01*
X55986073Y-63440766D01*
X56403409Y-63656513D01*
X56854815Y-63786696D01*
X57322946Y-63826313D01*
X57789811Y-63773842D01*
X57902371Y-63738000D01*
X58599928Y-63738000D01*
X58599928Y-65262000D01*
X58612188Y-65386482D01*
X58648498Y-65506180D01*
X58707463Y-65616494D01*
X58786815Y-65713185D01*
X58883506Y-65792537D01*
X58993820Y-65851502D01*
X59113518Y-65887812D01*
X59145292Y-65890941D01*
X59109465Y-65914880D01*
X58914880Y-66109465D01*
X58761995Y-66338273D01*
X58656686Y-66592510D01*
X58603000Y-66862408D01*
X58603000Y-67137592D01*
X58656686Y-67407490D01*
X58761995Y-67661727D01*
X58914880Y-67890535D01*
X59024345Y-68000000D01*
X58914880Y-68109465D01*
X58761995Y-68338273D01*
X58656686Y-68592510D01*
X58603000Y-68862408D01*
X58603000Y-69137592D01*
X58656686Y-69407490D01*
X58761995Y-69661727D01*
X58914880Y-69890535D01*
X59109465Y-70085120D01*
X59338273Y-70238005D01*
X59365401Y-70249242D01*
X59281020Y-70294344D01*
X59214040Y-70534435D01*
X60000000Y-71320395D01*
X60785960Y-70534435D01*
X60718980Y-70294344D01*
X60628467Y-70251782D01*
X60661727Y-70238005D01*
X60890535Y-70085120D01*
X61085120Y-69890535D01*
X61238005Y-69661727D01*
X61343314Y-69407490D01*
X61397000Y-69137592D01*
X61397000Y-68862408D01*
X61343314Y-68592510D01*
X61238005Y-68338273D01*
X61085120Y-68109465D01*
X60975655Y-68000000D01*
X61085120Y-67890535D01*
X61238005Y-67661727D01*
X61343314Y-67407490D01*
X61397000Y-67137592D01*
X61397000Y-66862408D01*
X61343314Y-66592510D01*
X61238005Y-66338273D01*
X61085120Y-66109465D01*
X60890535Y-65914880D01*
X60854708Y-65890941D01*
X60886482Y-65887812D01*
X61006180Y-65851502D01*
X61116494Y-65792537D01*
X61213185Y-65713185D01*
X61292537Y-65616494D01*
X61351502Y-65506180D01*
X61387812Y-65386482D01*
X61400072Y-65262000D01*
X61400072Y-63738000D01*
X61387812Y-63613518D01*
X61351502Y-63493820D01*
X61292537Y-63383506D01*
X61213185Y-63286815D01*
X61116494Y-63207463D01*
X61006180Y-63148498D01*
X60886482Y-63112188D01*
X60762000Y-63099928D01*
X59238000Y-63099928D01*
X59113518Y-63112188D01*
X58993820Y-63148498D01*
X58883506Y-63207463D01*
X58786815Y-63286815D01*
X58707463Y-63383506D01*
X58648498Y-63493820D01*
X58612188Y-63613518D01*
X58599928Y-63738000D01*
X57902371Y-63738000D01*
X58237468Y-63631297D01*
X58593927Y-63440766D01*
X58780003Y-63099609D01*
X57290000Y-61609605D01*
X55799997Y-63099609D01*
X54654050Y-63099609D01*
X54654050Y-61462946D01*
X54893687Y-61462946D01*
X54946158Y-61929811D01*
X55088703Y-62377468D01*
X55279234Y-62733927D01*
X55620391Y-62920003D01*
X57110395Y-61430000D01*
X57469605Y-61430000D01*
X58959609Y-62920003D01*
X59300766Y-62733927D01*
X59516513Y-62316591D01*
X59646696Y-61865185D01*
X59686313Y-61397054D01*
X59633842Y-60930189D01*
X59608308Y-60850000D01*
X84261928Y-60850000D01*
X84274188Y-60974482D01*
X84310498Y-61094180D01*
X84369463Y-61204494D01*
X84448815Y-61301185D01*
X84545506Y-61380537D01*
X84655820Y-61439502D01*
X84775518Y-61475812D01*
X84900000Y-61488072D01*
X85464250Y-61485000D01*
X85623000Y-61326250D01*
X85623000Y-60127000D01*
X84423750Y-60127000D01*
X84265000Y-60285750D01*
X84261928Y-60850000D01*
X59608308Y-60850000D01*
X59491297Y-60482532D01*
X59300766Y-60126073D01*
X58959609Y-59939997D01*
X57469605Y-61430000D01*
X57110395Y-61430000D01*
X55620391Y-59939997D01*
X55279234Y-60126073D01*
X55063487Y-60543409D01*
X54933304Y-60994815D01*
X54893687Y-61462946D01*
X54654050Y-61462946D01*
X54654050Y-60031985D01*
X54680680Y-59760391D01*
X55799997Y-59760391D01*
X57290000Y-61250395D01*
X58780003Y-59760391D01*
X58593927Y-59419234D01*
X58176591Y-59203487D01*
X57725185Y-59073304D01*
X57257054Y-59033687D01*
X56790189Y-59086158D01*
X56342532Y-59228703D01*
X55986073Y-59419234D01*
X55799997Y-59760391D01*
X54680680Y-59760391D01*
X54682760Y-59739182D01*
X54758508Y-59488292D01*
X54881542Y-59256899D01*
X55047177Y-59053810D01*
X55249111Y-58886756D01*
X55479637Y-58762111D01*
X55729990Y-58684614D01*
X56020780Y-58654050D01*
X84503361Y-58654050D01*
X84448815Y-58698815D01*
G04 #@! TA.AperFunction,Conductor*
D18*
G36*
X84448815Y-58698815D02*
G01*
X84369463Y-58795506D01*
X84310498Y-58905820D01*
X84274188Y-59025518D01*
X84261928Y-59150000D01*
X84265000Y-59714250D01*
X84423750Y-59873000D01*
X85623000Y-59873000D01*
X85623000Y-59853000D01*
X85877000Y-59853000D01*
X85877000Y-59873000D01*
X85897000Y-59873000D01*
X85897000Y-60127000D01*
X85877000Y-60127000D01*
X85877000Y-61326250D01*
X86035750Y-61485000D01*
X86600000Y-61488072D01*
X86724482Y-61475812D01*
X86844180Y-61439502D01*
X86954494Y-61380537D01*
X87051185Y-61301185D01*
X87130537Y-61204494D01*
X87189502Y-61094180D01*
X87211513Y-61021620D01*
X87343368Y-61153475D01*
X87515001Y-61268156D01*
X87515000Y-63917049D01*
X87421414Y-64057111D01*
X87350932Y-64227271D01*
X87315000Y-64407911D01*
X87315000Y-64592089D01*
X87349395Y-64765000D01*
X82554447Y-64765000D01*
X81295258Y-63505812D01*
X81272238Y-63477762D01*
X81160320Y-63385913D01*
X81032633Y-63317663D01*
X80894085Y-63275635D01*
X80786105Y-63265000D01*
X80750000Y-63261444D01*
X80713895Y-63265000D01*
X72536105Y-63265000D01*
X72500000Y-63261444D01*
X72463895Y-63265000D01*
X72355915Y-63275635D01*
X72217367Y-63317663D01*
X72089680Y-63385913D01*
X71977762Y-63477762D01*
X71954746Y-63505807D01*
X69892485Y-65568068D01*
X69727271Y-65600932D01*
X69557111Y-65671414D01*
X69403972Y-65773738D01*
X69273738Y-65903972D01*
X69171414Y-66057111D01*
X69100932Y-66227271D01*
X69065000Y-66407911D01*
X69065000Y-66592089D01*
X69100932Y-66772729D01*
X69171414Y-66942889D01*
X69273738Y-67096028D01*
X69403972Y-67226262D01*
X69557111Y-67328586D01*
X69727271Y-67399068D01*
X69907911Y-67435000D01*
X70092089Y-67435000D01*
X70272729Y-67399068D01*
X70442889Y-67328586D01*
X70596028Y-67226262D01*
X70726262Y-67096028D01*
X70828586Y-66942889D01*
X70899068Y-66772729D01*
X70931932Y-66607515D01*
X72804447Y-64735000D01*
X74225553Y-64735000D01*
X69892486Y-69068068D01*
X69727271Y-69100932D01*
X69557111Y-69171414D01*
X69403972Y-69273738D01*
X69273738Y-69403972D01*
X69171414Y-69557111D01*
X69100932Y-69727271D01*
X69065000Y-69907911D01*
X69065000Y-70092089D01*
X69100932Y-70272729D01*
X69171414Y-70442889D01*
X69273738Y-70596028D01*
X69403972Y-70726262D01*
X69557111Y-70828586D01*
X69727271Y-70899068D01*
X69907911Y-70935000D01*
X70092089Y-70935000D01*
X70272729Y-70899068D01*
X70442889Y-70828586D01*
X70596028Y-70726262D01*
X70726262Y-70596028D01*
X70828586Y-70442889D01*
X70899068Y-70272729D01*
X70931932Y-70107514D01*
X74639447Y-66399999D01*
X78661928Y-66399999D01*
X78665000Y-66714249D01*
X78823750Y-66872999D01*
X79873000Y-66872999D01*
X79873000Y-65923749D01*
X79714250Y-65764999D01*
X79300000Y-65761927D01*
X79175518Y-65774187D01*
X79055820Y-65810497D01*
X78945506Y-65869462D01*
X78848815Y-65948814D01*
X78769463Y-66045505D01*
X78710498Y-66155819D01*
X78674188Y-66275517D01*
X78661928Y-66399999D01*
X74639447Y-66399999D01*
X75337722Y-65701725D01*
X80728829Y-65701725D01*
X80798757Y-65771653D01*
X80700000Y-65761927D01*
X80285750Y-65764999D01*
X80127000Y-65923749D01*
X80127000Y-66872999D01*
X81176250Y-66872999D01*
X81250000Y-66799249D01*
X81323750Y-66872999D01*
X82373000Y-66872999D01*
X82373000Y-66852999D01*
X82627000Y-66852999D01*
X82627000Y-66872999D01*
X83676250Y-66872999D01*
X83750000Y-66799249D01*
X83823750Y-66872999D01*
X84873000Y-66872999D01*
X84873000Y-66852999D01*
X85127000Y-66852999D01*
X85127000Y-66872999D01*
X86176250Y-66872999D01*
X86250000Y-66799249D01*
X86323750Y-66872999D01*
X87373000Y-66872999D01*
X87373000Y-66852999D01*
X87627000Y-66852999D01*
X87627000Y-66872999D01*
X88676250Y-66872999D01*
X88749999Y-66799250D01*
X88823749Y-66873000D01*
X89872999Y-66873000D01*
X89872999Y-66853000D01*
X90126999Y-66853000D01*
X90126999Y-66873000D01*
X91176249Y-66873000D01*
X91250000Y-66799250D01*
X91323750Y-66873000D01*
X92373000Y-66873000D01*
X92373000Y-65923750D01*
X92214250Y-65765000D01*
X91800000Y-65761928D01*
X91775063Y-65764384D01*
X91837722Y-65701725D01*
X92823536Y-65701725D01*
X92836048Y-65764627D01*
X92785750Y-65765000D01*
X92627000Y-65923750D01*
X92627000Y-66873000D01*
X93676250Y-66873000D01*
X93750000Y-66799250D01*
X93823750Y-66873000D01*
X94873000Y-66873000D01*
X94873000Y-66853000D01*
X95127000Y-66853000D01*
X95127000Y-66873000D01*
X96176250Y-66873000D01*
X96250000Y-66799250D01*
X96323750Y-66873000D01*
X97373000Y-66873000D01*
X97373000Y-66853000D01*
X97627000Y-66853000D01*
X97627000Y-66873000D01*
X97647000Y-66873000D01*
X97647000Y-67127000D01*
X97627000Y-67127000D01*
X97627000Y-67147000D01*
X97373000Y-67147000D01*
X97373000Y-67127000D01*
X96323750Y-67127000D01*
X96250000Y-67200750D01*
X96176250Y-67127000D01*
X95127000Y-67127000D01*
X95127000Y-67147000D01*
X94873000Y-67147000D01*
X94873000Y-67127000D01*
X93823750Y-67127000D01*
X93750000Y-67200750D01*
X93676250Y-67127000D01*
X92627000Y-67127000D01*
X92627000Y-67147000D01*
X92373000Y-67147000D01*
X92373000Y-67127000D01*
X91323750Y-67127000D01*
X91250000Y-67200751D01*
X91176249Y-67127000D01*
X90126999Y-67127000D01*
X90126999Y-67147000D01*
X89872999Y-67147000D01*
X89872999Y-67127000D01*
X88823749Y-67127000D01*
X88750000Y-67200749D01*
X88676250Y-67126999D01*
X87627000Y-67126999D01*
X87627000Y-67146999D01*
X87373000Y-67146999D01*
X87373000Y-67126999D01*
X86323750Y-67126999D01*
X86250000Y-67200749D01*
X86176250Y-67126999D01*
X85127000Y-67126999D01*
X85127000Y-67146999D01*
X84873000Y-67146999D01*
X84873000Y-67126999D01*
X83823750Y-67126999D01*
X83750000Y-67200749D01*
X83676250Y-67126999D01*
X82627000Y-67126999D01*
X82627000Y-67146999D01*
X82373000Y-67146999D01*
X82373000Y-67126999D01*
X81323750Y-67126999D01*
X81250000Y-67200749D01*
X81176250Y-67126999D01*
X80127000Y-67126999D01*
X80127000Y-67146999D01*
X79873000Y-67146999D01*
X79873000Y-67126999D01*
X78823750Y-67126999D01*
X78665000Y-67285749D01*
X78661928Y-67599999D01*
X78674188Y-67724481D01*
X78710498Y-67844179D01*
X78769463Y-67954493D01*
X78848815Y-68051184D01*
X78878276Y-68075362D01*
X78811595Y-68156612D01*
X78729528Y-68310148D01*
X78678992Y-68476744D01*
X78661928Y-68649998D01*
X78661928Y-69350000D01*
X78678992Y-69523254D01*
X78729528Y-69689850D01*
X78811595Y-69843386D01*
X78922038Y-69977961D01*
X79056613Y-70088404D01*
X79210149Y-70170471D01*
X79376745Y-70221007D01*
X79549999Y-70238071D01*
X80198626Y-70238071D01*
X82204747Y-72244193D01*
X82227763Y-72272238D01*
X82255807Y-72295253D01*
X82339681Y-72364087D01*
X82467367Y-72432337D01*
X82605916Y-72474365D01*
X82750001Y-72488556D01*
X82786106Y-72485000D01*
X90593428Y-72485000D01*
X90600932Y-72522725D01*
X90671414Y-72692885D01*
X90773738Y-72846024D01*
X90903972Y-72976258D01*
X91057111Y-73078582D01*
X91227271Y-73149064D01*
X91407911Y-73184996D01*
X91592089Y-73184996D01*
X91772729Y-73149064D01*
X91942889Y-73078582D01*
X92000000Y-73040422D01*
X92057111Y-73078582D01*
X92227271Y-73149064D01*
X92407911Y-73184996D01*
X92592089Y-73184996D01*
X92772729Y-73149064D01*
X92942889Y-73078582D01*
X93000000Y-73040422D01*
X93057111Y-73078582D01*
X93227271Y-73149064D01*
X93407911Y-73184996D01*
X93592089Y-73184996D01*
X93772729Y-73149064D01*
X93942889Y-73078582D01*
X94000000Y-73040422D01*
X94057111Y-73078582D01*
X94227271Y-73149064D01*
X94407911Y-73184996D01*
X94592089Y-73184996D01*
X94772729Y-73149064D01*
X94942889Y-73078582D01*
X95000000Y-73040422D01*
X95057111Y-73078582D01*
X95227271Y-73149064D01*
X95407911Y-73184996D01*
X95592089Y-73184996D01*
X95772729Y-73149064D01*
X95942889Y-73078582D01*
X96000000Y-73040422D01*
X96057111Y-73078582D01*
X96227271Y-73149064D01*
X96407911Y-73184996D01*
X96592089Y-73184996D01*
X96620809Y-73179283D01*
X96600932Y-73227271D01*
X96565000Y-73407911D01*
X96565000Y-73592089D01*
X96600932Y-73772729D01*
X96671414Y-73942889D01*
X96773738Y-74096028D01*
X96903972Y-74226262D01*
X97057111Y-74328586D01*
X97227271Y-74399068D01*
X97407911Y-74435000D01*
X97583481Y-74435000D01*
X97600932Y-74522729D01*
X97671414Y-74692889D01*
X97773738Y-74846028D01*
X97903972Y-74976262D01*
X98057111Y-75078586D01*
X98227271Y-75149068D01*
X98407911Y-75185000D01*
X98592089Y-75185000D01*
X98772729Y-75149068D01*
X98942889Y-75078586D01*
X99096028Y-74976262D01*
X99226262Y-74846028D01*
X99328586Y-74692889D01*
X99399068Y-74522729D01*
X99435000Y-74342089D01*
X99435000Y-74157911D01*
X99399068Y-73977271D01*
X99328586Y-73807111D01*
X99235000Y-73667049D01*
X99235000Y-70036105D01*
X99238556Y-70000000D01*
X99224365Y-69855915D01*
X99182337Y-69717366D01*
X99114087Y-69589680D01*
X99061526Y-69525635D01*
X99022238Y-69477762D01*
X98994193Y-69454746D01*
X98838072Y-69298625D01*
X98838072Y-68649999D01*
X98821008Y-68476745D01*
X98770472Y-68310149D01*
X98688405Y-68156613D01*
X98621724Y-68075363D01*
X98651185Y-68051185D01*
X98730537Y-67954494D01*
X98789502Y-67844180D01*
X98825812Y-67724482D01*
X98835605Y-67625051D01*
X102568069Y-71357515D01*
X102600932Y-71522729D01*
X102671414Y-71692889D01*
X102773738Y-71846028D01*
X102903972Y-71976262D01*
X103057111Y-72078586D01*
X103227271Y-72149068D01*
X103407911Y-72185000D01*
X103592089Y-72185000D01*
X103772729Y-72149068D01*
X103942889Y-72078586D01*
X104096028Y-71976262D01*
X104226262Y-71846028D01*
X104328586Y-71692889D01*
X104399068Y-71522729D01*
X104435000Y-71342089D01*
X104435000Y-71157911D01*
X104399068Y-70977271D01*
X104370339Y-70907911D01*
X108315000Y-70907911D01*
X108315000Y-71092089D01*
X108350932Y-71272729D01*
X108421414Y-71442889D01*
X108523738Y-71596028D01*
X108653972Y-71726262D01*
X108807111Y-71828586D01*
X108977271Y-71899068D01*
X109157911Y-71935000D01*
X109342089Y-71935000D01*
X109522729Y-71899068D01*
X109692889Y-71828586D01*
X109832951Y-71735000D01*
X122713895Y-71735000D01*
X122750000Y-71738556D01*
X122786105Y-71735000D01*
X122894085Y-71724365D01*
X123032633Y-71682337D01*
X123160320Y-71614087D01*
X123272238Y-71522238D01*
X123295258Y-71494188D01*
X123934447Y-70855000D01*
X128770955Y-70855000D01*
X128874880Y-71010535D01*
X129069465Y-71205120D01*
X129298273Y-71358005D01*
X129552510Y-71463314D01*
X129822408Y-71517000D01*
X130097592Y-71517000D01*
X130367490Y-71463314D01*
X130621727Y-71358005D01*
X130850535Y-71205120D01*
X131045120Y-71010535D01*
X131198005Y-70781727D01*
X131230000Y-70704485D01*
X131261995Y-70781727D01*
X131414880Y-71010535D01*
X131609465Y-71205120D01*
X131838273Y-71358005D01*
X132092510Y-71463314D01*
X132362408Y-71517000D01*
X132637592Y-71517000D01*
X132907490Y-71463314D01*
X133161727Y-71358005D01*
X133390535Y-71205120D01*
X133585120Y-71010535D01*
X133738005Y-70781727D01*
X133843314Y-70527490D01*
X133897000Y-70257592D01*
X133897000Y-69982408D01*
X133843314Y-69712510D01*
X133738005Y-69458273D01*
X133585120Y-69229465D01*
X133390535Y-69034880D01*
X133161727Y-68881995D01*
X133084485Y-68850000D01*
X133161727Y-68818005D01*
X133390535Y-68665120D01*
X133585120Y-68470535D01*
X133738005Y-68241727D01*
X133843314Y-67987490D01*
X133897000Y-67717592D01*
X133897000Y-67442408D01*
X133843314Y-67172510D01*
X133738005Y-66918273D01*
X133585120Y-66689465D01*
X133390535Y-66494880D01*
X133161727Y-66341995D01*
X133084485Y-66310000D01*
X133161727Y-66278005D01*
X133390535Y-66125120D01*
X133585120Y-65930535D01*
X133738005Y-65701727D01*
X133843314Y-65447490D01*
X133897000Y-65177592D01*
X133897000Y-64902408D01*
X133843314Y-64632510D01*
X133738005Y-64378273D01*
X133585120Y-64149465D01*
X133390535Y-63954880D01*
X133302535Y-63896080D01*
X133386482Y-63887812D01*
X133506180Y-63851502D01*
X133616494Y-63792537D01*
X133713185Y-63713185D01*
X133792537Y-63616494D01*
X133851502Y-63506180D01*
X133887812Y-63386482D01*
X133900072Y-63262000D01*
X133897000Y-62785750D01*
X133738250Y-62627000D01*
X132627000Y-62627000D01*
X132627000Y-62647000D01*
X132373000Y-62647000D01*
X132373000Y-62627000D01*
X132353000Y-62627000D01*
X132353000Y-62373000D01*
X132373000Y-62373000D01*
X132373000Y-61261750D01*
X132627000Y-61261750D01*
X132627000Y-62373000D01*
X133738250Y-62373000D01*
X133897000Y-62214250D01*
X133900072Y-61738000D01*
X133887812Y-61613518D01*
X133851502Y-61493820D01*
X133792537Y-61383506D01*
X133713185Y-61286815D01*
X133616494Y-61207463D01*
X133506180Y-61148498D01*
X133386482Y-61112188D01*
X133262000Y-61099928D01*
X132785750Y-61103000D01*
X132627000Y-61261750D01*
X132373000Y-61261750D01*
X132214250Y-61103000D01*
X131738000Y-61099928D01*
X131613518Y-61112188D01*
X131493820Y-61148498D01*
X131383506Y-61207463D01*
X131286815Y-61286815D01*
X131207463Y-61383506D01*
X131148498Y-61493820D01*
X131112188Y-61613518D01*
X131103920Y-61697465D01*
X131045120Y-61609465D01*
X130850535Y-61414880D01*
X130621727Y-61261995D01*
X130367490Y-61156686D01*
X130097592Y-61103000D01*
X129822408Y-61103000D01*
X129552510Y-61156686D01*
X129298273Y-61261995D01*
X129069465Y-61414880D01*
X128874880Y-61609465D01*
X128721995Y-61838273D01*
X128616686Y-62092510D01*
X128563000Y-62362408D01*
X128563000Y-62637592D01*
X128616686Y-62907490D01*
X128721995Y-63161727D01*
X128874880Y-63390535D01*
X129069465Y-63585120D01*
X129298273Y-63738005D01*
X129375515Y-63770000D01*
X129298273Y-63801995D01*
X129069465Y-63954880D01*
X128874880Y-64149465D01*
X128721995Y-64378273D01*
X128616686Y-64632510D01*
X128563000Y-64902408D01*
X128563000Y-65143554D01*
X127425259Y-64005813D01*
X127402238Y-63977762D01*
X127290320Y-63885913D01*
X127162633Y-63817663D01*
X127024085Y-63775635D01*
X126916105Y-63765000D01*
X126880000Y-63761444D01*
X126843895Y-63765000D01*
X112082951Y-63765000D01*
X111942889Y-63671414D01*
X111772729Y-63600932D01*
X111592089Y-63565000D01*
X111407911Y-63565000D01*
X111227271Y-63600932D01*
X111057111Y-63671414D01*
X110903972Y-63773738D01*
X110773738Y-63903972D01*
X110671414Y-64057111D01*
X110600932Y-64227271D01*
X110595243Y-64255871D01*
X110491424Y-64298874D01*
X110338285Y-64401198D01*
X110208051Y-64531432D01*
X110105727Y-64684571D01*
X110042165Y-64838024D01*
X109977271Y-64850932D01*
X109807111Y-64921414D01*
X109653972Y-65023738D01*
X109523738Y-65153972D01*
X109421414Y-65307111D01*
X109350932Y-65477271D01*
X109315000Y-65657911D01*
X109315000Y-65842089D01*
X109350932Y-66022729D01*
X109421414Y-66192889D01*
X109523738Y-66346028D01*
X109653972Y-66476262D01*
X109807111Y-66578586D01*
X109977271Y-66649068D01*
X110157911Y-66685000D01*
X110342089Y-66685000D01*
X110522729Y-66649068D01*
X110692889Y-66578586D01*
X110832951Y-66485000D01*
X123599395Y-66485000D01*
X123568069Y-66642485D01*
X121445554Y-68765000D01*
X110832951Y-68765000D01*
X110692889Y-68671414D01*
X110522729Y-68600932D01*
X110342089Y-68565000D01*
X110157911Y-68565000D01*
X109977271Y-68600932D01*
X109807111Y-68671414D01*
X109653972Y-68773738D01*
X109523738Y-68903972D01*
X109421414Y-69057111D01*
X109350932Y-69227271D01*
X109315000Y-69407911D01*
X109315000Y-69418146D01*
X109307111Y-69421414D01*
X109153972Y-69523738D01*
X109023738Y-69653972D01*
X108921414Y-69807111D01*
X108850932Y-69977271D01*
X108815000Y-70157911D01*
X108815000Y-70168146D01*
X108807111Y-70171414D01*
X108653972Y-70273738D01*
X108523738Y-70403972D01*
X108421414Y-70557111D01*
X108350932Y-70727271D01*
X108315000Y-70907911D01*
X104370339Y-70907911D01*
X104328586Y-70807111D01*
X104226262Y-70653972D01*
X104096028Y-70523738D01*
X103942889Y-70421414D01*
X103772729Y-70350932D01*
X103607515Y-70318069D01*
X101047880Y-67758433D01*
X101096028Y-67726262D01*
X101226262Y-67596028D01*
X101328586Y-67442889D01*
X101399068Y-67272729D01*
X101435000Y-67092089D01*
X101435000Y-66907911D01*
X101399068Y-66727271D01*
X101328586Y-66557111D01*
X101235000Y-66417049D01*
X101235000Y-66148092D01*
X101238555Y-66111997D01*
X101235000Y-66075902D01*
X101235000Y-66075893D01*
X101224365Y-65967913D01*
X101182337Y-65829365D01*
X101114087Y-65701678D01*
X101022238Y-65589760D01*
X100994193Y-65566744D01*
X96083262Y-60655814D01*
X96060241Y-60627763D01*
X95948323Y-60535914D01*
X95820636Y-60467664D01*
X95682088Y-60425636D01*
X95574108Y-60415001D01*
X95538003Y-60411445D01*
X95501898Y-60415001D01*
X94801544Y-60415001D01*
X94855000Y-60146260D01*
X94855000Y-59853740D01*
X94797932Y-59566842D01*
X94685990Y-59296589D01*
X94523475Y-59053368D01*
X94316632Y-58846525D01*
X94073411Y-58684010D01*
X94001081Y-58654050D01*
X133968015Y-58654050D01*
X134260818Y-58682760D01*
X134511708Y-58758508D01*
X134743101Y-58881542D01*
X134946190Y-59047177D01*
X135113244Y-59249111D01*
X135237889Y-59479637D01*
X135315386Y-59729990D01*
X135345951Y-60020790D01*
X135345950Y-75968015D01*
X135317240Y-76260820D01*
X135241493Y-76511706D01*
X135118458Y-76743101D01*
X134952820Y-76946193D01*
X134750888Y-77113245D01*
X134520363Y-77237889D01*
X134270009Y-77315386D01*
X133979219Y-77345950D01*
X56031985Y-77345950D01*
X55739180Y-77317240D01*
X55488294Y-77241493D01*
X55256899Y-77118458D01*
X55053807Y-76952820D01*
X54886755Y-76750888D01*
X54762111Y-76520363D01*
X54684614Y-76270009D01*
X54681419Y-76239609D01*
X55799997Y-76239609D01*
X55986073Y-76580766D01*
X56403409Y-76796513D01*
X56854815Y-76926696D01*
X57322946Y-76966313D01*
X57789811Y-76913842D01*
X58237468Y-76771297D01*
X58593927Y-76580766D01*
X58780003Y-76239609D01*
X57290000Y-74749605D01*
X55799997Y-76239609D01*
X54681419Y-76239609D01*
X54654050Y-75979219D01*
X54654050Y-74602946D01*
X54893687Y-74602946D01*
X54946158Y-75069811D01*
X55088703Y-75517468D01*
X55279234Y-75873927D01*
X55620391Y-76060003D01*
X57110395Y-74570000D01*
X57469605Y-74570000D01*
X58959609Y-76060003D01*
X59300766Y-75873927D01*
X59516513Y-75456591D01*
X59646696Y-75005185D01*
X59686313Y-74537054D01*
X59633842Y-74070189D01*
X59491297Y-73622532D01*
X59300766Y-73266073D01*
X58959609Y-73079997D01*
X57469605Y-74570000D01*
X57110395Y-74570000D01*
X55620391Y-73079997D01*
X55279234Y-73266073D01*
X55063487Y-73683409D01*
X54933304Y-74134815D01*
X54893687Y-74602946D01*
X54654050Y-74602946D01*
X54654050Y-72900391D01*
X55799997Y-72900391D01*
X57290000Y-74390395D01*
X58780003Y-72900391D01*
X58593927Y-72559234D01*
X58412736Y-72465565D01*
X59214040Y-72465565D01*
X59281020Y-72705656D01*
X59530048Y-72822756D01*
X59797135Y-72889023D01*
X60072017Y-72901910D01*
X60344133Y-72860922D01*
X60603023Y-72767636D01*
X60718980Y-72705656D01*
X60785960Y-72465565D01*
X60000000Y-71679605D01*
X59214040Y-72465565D01*
X58412736Y-72465565D01*
X58176591Y-72343487D01*
X57725185Y-72213304D01*
X57257054Y-72173687D01*
X56790189Y-72226158D01*
X56342532Y-72368703D01*
X55986073Y-72559234D01*
X55799997Y-72900391D01*
X54654050Y-72900391D01*
X54654050Y-71572017D01*
X58598090Y-71572017D01*
X58639078Y-71844133D01*
X58732364Y-72103023D01*
X58794344Y-72218980D01*
X59034435Y-72285960D01*
X59820395Y-71500000D01*
X60179605Y-71500000D01*
X60965565Y-72285960D01*
X61205656Y-72218980D01*
X61322756Y-71969952D01*
X61389023Y-71702865D01*
X61401910Y-71427983D01*
X61360922Y-71155867D01*
X61267636Y-70896977D01*
X61205656Y-70781020D01*
X60965565Y-70714040D01*
X60179605Y-71500000D01*
X59820395Y-71500000D01*
X59034435Y-70714040D01*
X58794344Y-70781020D01*
X58677244Y-71030048D01*
X58610977Y-71297135D01*
X58598090Y-71572017D01*
X54654050Y-71572017D01*
X54654050Y-63099609D01*
X55799997Y-63099609D01*
X55986073Y-63440766D01*
X56403409Y-63656513D01*
X56854815Y-63786696D01*
X57322946Y-63826313D01*
X57789811Y-63773842D01*
X57902371Y-63738000D01*
X58599928Y-63738000D01*
X58599928Y-65262000D01*
X58612188Y-65386482D01*
X58648498Y-65506180D01*
X58707463Y-65616494D01*
X58786815Y-65713185D01*
X58883506Y-65792537D01*
X58993820Y-65851502D01*
X59113518Y-65887812D01*
X59145292Y-65890941D01*
X59109465Y-65914880D01*
X58914880Y-66109465D01*
X58761995Y-66338273D01*
X58656686Y-66592510D01*
X58603000Y-66862408D01*
X58603000Y-67137592D01*
X58656686Y-67407490D01*
X58761995Y-67661727D01*
X58914880Y-67890535D01*
X59024345Y-68000000D01*
X58914880Y-68109465D01*
X58761995Y-68338273D01*
X58656686Y-68592510D01*
X58603000Y-68862408D01*
X58603000Y-69137592D01*
X58656686Y-69407490D01*
X58761995Y-69661727D01*
X58914880Y-69890535D01*
X59109465Y-70085120D01*
X59338273Y-70238005D01*
X59365401Y-70249242D01*
X59281020Y-70294344D01*
X59214040Y-70534435D01*
X60000000Y-71320395D01*
X60785960Y-70534435D01*
X60718980Y-70294344D01*
X60628467Y-70251782D01*
X60661727Y-70238005D01*
X60890535Y-70085120D01*
X61085120Y-69890535D01*
X61238005Y-69661727D01*
X61343314Y-69407490D01*
X61397000Y-69137592D01*
X61397000Y-68862408D01*
X61343314Y-68592510D01*
X61238005Y-68338273D01*
X61085120Y-68109465D01*
X60975655Y-68000000D01*
X61085120Y-67890535D01*
X61238005Y-67661727D01*
X61343314Y-67407490D01*
X61397000Y-67137592D01*
X61397000Y-66862408D01*
X61343314Y-66592510D01*
X61238005Y-66338273D01*
X61085120Y-66109465D01*
X60890535Y-65914880D01*
X60854708Y-65890941D01*
X60886482Y-65887812D01*
X61006180Y-65851502D01*
X61116494Y-65792537D01*
X61213185Y-65713185D01*
X61292537Y-65616494D01*
X61351502Y-65506180D01*
X61387812Y-65386482D01*
X61400072Y-65262000D01*
X61400072Y-63738000D01*
X61387812Y-63613518D01*
X61351502Y-63493820D01*
X61292537Y-63383506D01*
X61213185Y-63286815D01*
X61116494Y-63207463D01*
X61006180Y-63148498D01*
X60886482Y-63112188D01*
X60762000Y-63099928D01*
X59238000Y-63099928D01*
X59113518Y-63112188D01*
X58993820Y-63148498D01*
X58883506Y-63207463D01*
X58786815Y-63286815D01*
X58707463Y-63383506D01*
X58648498Y-63493820D01*
X58612188Y-63613518D01*
X58599928Y-63738000D01*
X57902371Y-63738000D01*
X58237468Y-63631297D01*
X58593927Y-63440766D01*
X58780003Y-63099609D01*
X57290000Y-61609605D01*
X55799997Y-63099609D01*
X54654050Y-63099609D01*
X54654050Y-61462946D01*
X54893687Y-61462946D01*
X54946158Y-61929811D01*
X55088703Y-62377468D01*
X55279234Y-62733927D01*
X55620391Y-62920003D01*
X57110395Y-61430000D01*
X57469605Y-61430000D01*
X58959609Y-62920003D01*
X59300766Y-62733927D01*
X59516513Y-62316591D01*
X59646696Y-61865185D01*
X59686313Y-61397054D01*
X59633842Y-60930189D01*
X59608308Y-60850000D01*
X84261928Y-60850000D01*
X84274188Y-60974482D01*
X84310498Y-61094180D01*
X84369463Y-61204494D01*
X84448815Y-61301185D01*
X84545506Y-61380537D01*
X84655820Y-61439502D01*
X84775518Y-61475812D01*
X84900000Y-61488072D01*
X85464250Y-61485000D01*
X85623000Y-61326250D01*
X85623000Y-60127000D01*
X84423750Y-60127000D01*
X84265000Y-60285750D01*
X84261928Y-60850000D01*
X59608308Y-60850000D01*
X59491297Y-60482532D01*
X59300766Y-60126073D01*
X58959609Y-59939997D01*
X57469605Y-61430000D01*
X57110395Y-61430000D01*
X55620391Y-59939997D01*
X55279234Y-60126073D01*
X55063487Y-60543409D01*
X54933304Y-60994815D01*
X54893687Y-61462946D01*
X54654050Y-61462946D01*
X54654050Y-60031985D01*
X54680680Y-59760391D01*
X55799997Y-59760391D01*
X57290000Y-61250395D01*
X58780003Y-59760391D01*
X58593927Y-59419234D01*
X58176591Y-59203487D01*
X57725185Y-59073304D01*
X57257054Y-59033687D01*
X56790189Y-59086158D01*
X56342532Y-59228703D01*
X55986073Y-59419234D01*
X55799997Y-59760391D01*
X54680680Y-59760391D01*
X54682760Y-59739182D01*
X54758508Y-59488292D01*
X54881542Y-59256899D01*
X55047177Y-59053810D01*
X55249111Y-58886756D01*
X55479637Y-58762111D01*
X55729990Y-58684614D01*
X56020780Y-58654050D01*
X84503361Y-58654050D01*
X84448815Y-58698815D01*
G37*
G04 #@! TD.AperFunction*
D17*
X89676525Y-60946632D02*
X89883368Y-61153475D01*
X90126589Y-61315990D01*
X90396842Y-61427932D01*
X90683740Y-61485000D01*
X90976260Y-61485000D01*
X91225897Y-61435344D01*
X91434747Y-61644194D01*
X91457763Y-61672239D01*
X91569681Y-61764088D01*
X91697368Y-61832338D01*
X91793887Y-61861617D01*
X91835915Y-61874366D01*
X91980000Y-61888557D01*
X92016105Y-61885001D01*
X95233557Y-61885001D01*
X96613556Y-63265000D01*
X91786094Y-63265000D01*
X91749999Y-63261445D01*
X91713904Y-63265000D01*
X91713895Y-63265000D01*
X91605915Y-63275635D01*
X91467367Y-63317663D01*
X91339680Y-63385913D01*
X91227762Y-63477762D01*
X91204746Y-63505807D01*
X89945554Y-64765000D01*
X89150605Y-64765000D01*
X89185000Y-64592089D01*
X89185000Y-64407911D01*
X89149068Y-64227271D01*
X89078586Y-64057111D01*
X88985000Y-63917049D01*
X88985000Y-61319474D01*
X88993411Y-61315990D01*
X89236632Y-61153475D01*
X89443475Y-60946632D01*
X89560000Y-60772240D01*
X89676525Y-60946632D01*
G04 #@! TA.AperFunction,Conductor*
D18*
G36*
X89676525Y-60946632D02*
G01*
X89883368Y-61153475D01*
X90126589Y-61315990D01*
X90396842Y-61427932D01*
X90683740Y-61485000D01*
X90976260Y-61485000D01*
X91225897Y-61435344D01*
X91434747Y-61644194D01*
X91457763Y-61672239D01*
X91569681Y-61764088D01*
X91697368Y-61832338D01*
X91793887Y-61861617D01*
X91835915Y-61874366D01*
X91980000Y-61888557D01*
X92016105Y-61885001D01*
X95233557Y-61885001D01*
X96613556Y-63265000D01*
X91786094Y-63265000D01*
X91749999Y-63261445D01*
X91713904Y-63265000D01*
X91713895Y-63265000D01*
X91605915Y-63275635D01*
X91467367Y-63317663D01*
X91339680Y-63385913D01*
X91227762Y-63477762D01*
X91204746Y-63505807D01*
X89945554Y-64765000D01*
X89150605Y-64765000D01*
X89185000Y-64592089D01*
X89185000Y-64407911D01*
X89149068Y-64227271D01*
X89078586Y-64057111D01*
X88985000Y-63917049D01*
X88985000Y-61319474D01*
X88993411Y-61315990D01*
X89236632Y-61153475D01*
X89443475Y-60946632D01*
X89560000Y-60772240D01*
X89676525Y-60946632D01*
G37*
G04 #@! TD.AperFunction*
M02*
