%FSLAX45Y45*%
G04 Gerber Fmt 4.5, Leading zero omitted, Abs format (unit mm)*
G04 Created by KiCad (PCBNEW (5.1.10)-1) date 2022-03-27 16:46:44*
%MOMM*%
%LPD*%
G01*
G04 APERTURE LIST*
%TA.AperFunction,Profile*%
%ADD10C,0.038100*%
%TD*%
%ADD11C,0.200000*%
%ADD12C,0.300000*%
G04 APERTURE END LIST*
D10*
X13400000Y-5800000D02*
X5600000Y-5800000D01*
X13600000Y-7600000D02*
X13600000Y-6000000D01*
X5600000Y-7800000D02*
X13400000Y-7800000D01*
X5400000Y-6000000D02*
X5400000Y-7600000D01*
X13400000Y-5800000D02*
G75*
G02*
X13600000Y-6000000I0J-200000D01*
G01*
X13600000Y-7600000D02*
G75*
G02*
X13400000Y-7800000I-200000J0D01*
G01*
X5600000Y-7800000D02*
G75*
G02*
X5400000Y-7600000I0J200000D01*
G01*
X5400000Y-6000000D02*
G75*
G02*
X5600000Y-5800000I200000J0D01*
G01*
D11*
X6985000Y-6635000D02*
X7015000Y-6665000D01*
X7015000Y-6635000D02*
X6985000Y-6665000D01*
X6985000Y-6985000D02*
X7015000Y-7015000D01*
X7015000Y-6985000D02*
X6985000Y-7015000D01*
X8810000Y-6435000D02*
X8840000Y-6465000D01*
X8840000Y-6435000D02*
X8810000Y-6465000D01*
X8935000Y-6210000D02*
X8965000Y-6240000D01*
X8965000Y-6210000D02*
X8935000Y-6240000D01*
X9135000Y-7210000D02*
X9165000Y-7240000D01*
X9165000Y-7210000D02*
X9135000Y-7240000D01*
X9235000Y-7210000D02*
X9265000Y-7240000D01*
X9265000Y-7210000D02*
X9235000Y-7240000D01*
X9335000Y-7210000D02*
X9365000Y-7240000D01*
X9365000Y-7210000D02*
X9335000Y-7240000D01*
X9360000Y-6541672D02*
X9390000Y-6571672D01*
X9390000Y-6541672D02*
X9360000Y-6571672D01*
X9435000Y-7210000D02*
X9465000Y-7240000D01*
X9465000Y-7210000D02*
X9435000Y-7240000D01*
X9535000Y-7210000D02*
X9565000Y-7240000D01*
X9565000Y-7210000D02*
X9535000Y-7240000D01*
X9635000Y-7210000D02*
X9665000Y-7240000D01*
X9665000Y-7210000D02*
X9635000Y-7240000D01*
X9735000Y-6385000D02*
X9765000Y-6415000D01*
X9765000Y-6385000D02*
X9735000Y-6415000D01*
X9735000Y-7335000D02*
X9765000Y-7365000D01*
X9765000Y-7335000D02*
X9735000Y-7365000D01*
X9738328Y-6481672D02*
X9768328Y-6511672D01*
X9768328Y-6481672D02*
X9738328Y-6511672D01*
X9835000Y-7410000D02*
X9865000Y-7440000D01*
X9865000Y-7410000D02*
X9835000Y-7440000D01*
X10035000Y-6685000D02*
X10065000Y-6715000D01*
X10065000Y-6685000D02*
X10035000Y-6715000D01*
X10185000Y-6785000D02*
X10215000Y-6815000D01*
X10215000Y-6785000D02*
X10185000Y-6815000D01*
X10335000Y-7110000D02*
X10365000Y-7140000D01*
X10365000Y-7110000D02*
X10335000Y-7140000D01*
X10385000Y-6585000D02*
X10415000Y-6615000D01*
X10415000Y-6585000D02*
X10385000Y-6615000D01*
X10385000Y-6985000D02*
X10415000Y-7015000D01*
X10415000Y-6985000D02*
X10385000Y-7015000D01*
X10585000Y-6785000D02*
X10615000Y-6815000D01*
X10615000Y-6785000D02*
X10585000Y-6815000D01*
X10910000Y-6785000D02*
X10940000Y-6815000D01*
X10940000Y-6785000D02*
X10910000Y-6815000D01*
X10910000Y-7085000D02*
X10940000Y-7115000D01*
X10940000Y-7085000D02*
X10910000Y-7115000D01*
X10960000Y-6235000D02*
X10990000Y-6265000D01*
X10990000Y-6235000D02*
X10960000Y-6265000D01*
X10960000Y-7010000D02*
X10990000Y-7040000D01*
X10990000Y-7010000D02*
X10960000Y-7040000D01*
X11010000Y-6560000D02*
X11040000Y-6590000D01*
X11040000Y-6560000D02*
X11010000Y-6590000D01*
X11010000Y-6935000D02*
X11040000Y-6965000D01*
X11040000Y-6935000D02*
X11010000Y-6965000D01*
X11078431Y-6497746D02*
X11108431Y-6527746D01*
X11108431Y-6497746D02*
X11078431Y-6527746D01*
X11135000Y-6435000D02*
X11165000Y-6465000D01*
X11165000Y-6435000D02*
X11135000Y-6465000D01*
X12435000Y-6660000D02*
X12465000Y-6690000D01*
X12465000Y-6660000D02*
X12435000Y-6690000D01*
X12510000Y-6735000D02*
X12540000Y-6765000D01*
X12540000Y-6735000D02*
X12510000Y-6765000D01*
X12785000Y-6860000D02*
X12815000Y-6890000D01*
X12815000Y-6860000D02*
X12785000Y-6890000D01*
X13034100Y-6250000D02*
G75*
G03*
X13034100Y-6250000I-38100J0D01*
G01*
X13034100Y-6504000D02*
G75*
G03*
X13034100Y-6504000I-38100J0D01*
G01*
X13034100Y-6758000D02*
G75*
G03*
X13034100Y-6758000I-38100J0D01*
G01*
X13034100Y-7012000D02*
G75*
G03*
X13034100Y-7012000I-38100J0D01*
G01*
X13288100Y-6250000D02*
G75*
G03*
X13288100Y-6250000I-38100J0D01*
G01*
X13288100Y-6504000D02*
G75*
G03*
X13288100Y-6504000I-38100J0D01*
G01*
X13288100Y-6758000D02*
G75*
G03*
X13288100Y-6758000I-38100J0D01*
G01*
X13288100Y-7012000D02*
G75*
G03*
X13288100Y-7012000I-38100J0D01*
G01*
X6000000Y-6404000D02*
X6000000Y-6496000D01*
X5954000Y-6450000D02*
X6046000Y-6450000D01*
X6000000Y-6654000D02*
X6000000Y-6746000D01*
X5954000Y-6700000D02*
X6046000Y-6700000D01*
X6000000Y-6854000D02*
X6000000Y-6946000D01*
X5954000Y-6900000D02*
X6046000Y-6900000D01*
X6000000Y-7104000D02*
X6000000Y-7196000D01*
X5954000Y-7150000D02*
X6046000Y-7150000D01*
X8610356Y-6035356D02*
X8610356Y-5964644D01*
X8539644Y-5964644D01*
X8539644Y-6035356D01*
X8610356Y-6035356D01*
X8864356Y-6035356D02*
X8864356Y-5964644D01*
X8793644Y-5964644D01*
X8793644Y-6035356D01*
X8864356Y-6035356D01*
X9118356Y-6035356D02*
X9118356Y-5964644D01*
X9047644Y-5964644D01*
X9047644Y-6035356D01*
X9118356Y-6035356D01*
X9372356Y-6035356D02*
X9372356Y-5964644D01*
X9301644Y-5964644D01*
X9301644Y-6035356D01*
X9372356Y-6035356D01*
X5729000Y-6258000D02*
X5844000Y-6143000D01*
X5729000Y-6028000D01*
X5614000Y-6143000D01*
X5729000Y-6258000D01*
X5729000Y-7572000D02*
X5844000Y-7457000D01*
X5729000Y-7342000D01*
X5614000Y-7457000D01*
X5729000Y-7572000D01*
D12*
X5684523Y-8267619D02*
X5684523Y-7967619D01*
X5755952Y-7967619D01*
X5798809Y-7981905D01*
X5827381Y-8010476D01*
X5841666Y-8039048D01*
X5855952Y-8096191D01*
X5855952Y-8139048D01*
X5841666Y-8196191D01*
X5827381Y-8224762D01*
X5798809Y-8253334D01*
X5755952Y-8267619D01*
X5684523Y-8267619D01*
X5984523Y-8267619D02*
X5984523Y-8067619D01*
X5984523Y-8124762D02*
X5998809Y-8096191D01*
X6013095Y-8081905D01*
X6041666Y-8067619D01*
X6070238Y-8067619D01*
X6170238Y-8267619D02*
X6170238Y-8067619D01*
X6170238Y-7967619D02*
X6155952Y-7981905D01*
X6170238Y-7996191D01*
X6184523Y-7981905D01*
X6170238Y-7967619D01*
X6170238Y-7996191D01*
X6355952Y-8267619D02*
X6327381Y-8253334D01*
X6313095Y-8224762D01*
X6313095Y-7967619D01*
X6513095Y-8267619D02*
X6484523Y-8253334D01*
X6470238Y-8224762D01*
X6470238Y-7967619D01*
X6855952Y-8267619D02*
X6855952Y-7967619D01*
X6955952Y-8181905D01*
X7055952Y-7967619D01*
X7055952Y-8267619D01*
X7327381Y-8267619D02*
X7327381Y-8110476D01*
X7313095Y-8081905D01*
X7284523Y-8067619D01*
X7227381Y-8067619D01*
X7198809Y-8081905D01*
X7327381Y-8253334D02*
X7298809Y-8267619D01*
X7227381Y-8267619D01*
X7198809Y-8253334D01*
X7184523Y-8224762D01*
X7184523Y-8196191D01*
X7198809Y-8167619D01*
X7227381Y-8153334D01*
X7298809Y-8153334D01*
X7327381Y-8139048D01*
X7470238Y-8067619D02*
X7470238Y-8367619D01*
X7470238Y-8081905D02*
X7498809Y-8067619D01*
X7555952Y-8067619D01*
X7584523Y-8081905D01*
X7598809Y-8096191D01*
X7613095Y-8124762D01*
X7613095Y-8210476D01*
X7598809Y-8239048D01*
X7584523Y-8253334D01*
X7555952Y-8267619D01*
X7498809Y-8267619D01*
X7470238Y-8253334D01*
X7741666Y-8239048D02*
X7755952Y-8253334D01*
X7741666Y-8267619D01*
X7727381Y-8253334D01*
X7741666Y-8239048D01*
X7741666Y-8267619D01*
X7741666Y-8081905D02*
X7755952Y-8096191D01*
X7741666Y-8110476D01*
X7727381Y-8096191D01*
X7741666Y-8081905D01*
X7741666Y-8110476D01*
X5368095Y-8746905D02*
X5398095Y-8776905D01*
X5398095Y-8746905D02*
X5368095Y-8776905D01*
X5741666Y-8597619D02*
X5770238Y-8597619D01*
X5798809Y-8611905D01*
X5813095Y-8626191D01*
X5827381Y-8654762D01*
X5841666Y-8711905D01*
X5841666Y-8783334D01*
X5827381Y-8840477D01*
X5813095Y-8869048D01*
X5798809Y-8883334D01*
X5770238Y-8897619D01*
X5741666Y-8897619D01*
X5713095Y-8883334D01*
X5698809Y-8869048D01*
X5684523Y-8840477D01*
X5670238Y-8783334D01*
X5670238Y-8711905D01*
X5684523Y-8654762D01*
X5698809Y-8626191D01*
X5713095Y-8611905D01*
X5741666Y-8597619D01*
X5970238Y-8869048D02*
X5984523Y-8883334D01*
X5970238Y-8897619D01*
X5955952Y-8883334D01*
X5970238Y-8869048D01*
X5970238Y-8897619D01*
X6084523Y-8597619D02*
X6270238Y-8597619D01*
X6170238Y-8711905D01*
X6213095Y-8711905D01*
X6241666Y-8726191D01*
X6255952Y-8740477D01*
X6270238Y-8769048D01*
X6270238Y-8840477D01*
X6255952Y-8869048D01*
X6241666Y-8883334D01*
X6213095Y-8897619D01*
X6127381Y-8897619D01*
X6098809Y-8883334D01*
X6084523Y-8869048D01*
X6455952Y-8597619D02*
X6484523Y-8597619D01*
X6513095Y-8611905D01*
X6527381Y-8626191D01*
X6541666Y-8654762D01*
X6555952Y-8711905D01*
X6555952Y-8783334D01*
X6541666Y-8840477D01*
X6527381Y-8869048D01*
X6513095Y-8883334D01*
X6484523Y-8897619D01*
X6455952Y-8897619D01*
X6427381Y-8883334D01*
X6413095Y-8869048D01*
X6398809Y-8840477D01*
X6384523Y-8783334D01*
X6384523Y-8711905D01*
X6398809Y-8654762D01*
X6413095Y-8626191D01*
X6427381Y-8611905D01*
X6455952Y-8597619D01*
X6741666Y-8597619D02*
X6770238Y-8597619D01*
X6798809Y-8611905D01*
X6813095Y-8626191D01*
X6827381Y-8654762D01*
X6841666Y-8711905D01*
X6841666Y-8783334D01*
X6827381Y-8840477D01*
X6813095Y-8869048D01*
X6798809Y-8883334D01*
X6770238Y-8897619D01*
X6741666Y-8897619D01*
X6713095Y-8883334D01*
X6698809Y-8869048D01*
X6684523Y-8840477D01*
X6670238Y-8783334D01*
X6670238Y-8711905D01*
X6684523Y-8654762D01*
X6698809Y-8626191D01*
X6713095Y-8611905D01*
X6741666Y-8597619D01*
X6970238Y-8897619D02*
X6970238Y-8697619D01*
X6970238Y-8726191D02*
X6984523Y-8711905D01*
X7013095Y-8697619D01*
X7055952Y-8697619D01*
X7084523Y-8711905D01*
X7098809Y-8740477D01*
X7098809Y-8897619D01*
X7098809Y-8740477D02*
X7113095Y-8711905D01*
X7141666Y-8697619D01*
X7184523Y-8697619D01*
X7213095Y-8711905D01*
X7227381Y-8740477D01*
X7227381Y-8897619D01*
X7370238Y-8897619D02*
X7370238Y-8697619D01*
X7370238Y-8726191D02*
X7384523Y-8711905D01*
X7413095Y-8697619D01*
X7455952Y-8697619D01*
X7484523Y-8711905D01*
X7498809Y-8740477D01*
X7498809Y-8897619D01*
X7498809Y-8740477D02*
X7513095Y-8711905D01*
X7541666Y-8697619D01*
X7584523Y-8697619D01*
X7613095Y-8711905D01*
X7627381Y-8740477D01*
X7627381Y-8897619D01*
X8213095Y-8583334D02*
X7955952Y-8969048D01*
X8598809Y-8597619D02*
X8627381Y-8597619D01*
X8655952Y-8611905D01*
X8670238Y-8626191D01*
X8684523Y-8654762D01*
X8698809Y-8711905D01*
X8698809Y-8783334D01*
X8684523Y-8840477D01*
X8670238Y-8869048D01*
X8655952Y-8883334D01*
X8627381Y-8897619D01*
X8598809Y-8897619D01*
X8570238Y-8883334D01*
X8555952Y-8869048D01*
X8541666Y-8840477D01*
X8527381Y-8783334D01*
X8527381Y-8711905D01*
X8541666Y-8654762D01*
X8555952Y-8626191D01*
X8570238Y-8611905D01*
X8598809Y-8597619D01*
X8827381Y-8869048D02*
X8841666Y-8883334D01*
X8827381Y-8897619D01*
X8813095Y-8883334D01*
X8827381Y-8869048D01*
X8827381Y-8897619D01*
X9027381Y-8597619D02*
X9055952Y-8597619D01*
X9084523Y-8611905D01*
X9098809Y-8626191D01*
X9113095Y-8654762D01*
X9127381Y-8711905D01*
X9127381Y-8783334D01*
X9113095Y-8840477D01*
X9098809Y-8869048D01*
X9084523Y-8883334D01*
X9055952Y-8897619D01*
X9027381Y-8897619D01*
X8998809Y-8883334D01*
X8984523Y-8869048D01*
X8970238Y-8840477D01*
X8955952Y-8783334D01*
X8955952Y-8711905D01*
X8970238Y-8654762D01*
X8984523Y-8626191D01*
X8998809Y-8611905D01*
X9027381Y-8597619D01*
X9413095Y-8897619D02*
X9241666Y-8897619D01*
X9327381Y-8897619D02*
X9327381Y-8597619D01*
X9298809Y-8640477D01*
X9270238Y-8669048D01*
X9241666Y-8683334D01*
X9698809Y-8897619D02*
X9527381Y-8897619D01*
X9613095Y-8897619D02*
X9613095Y-8597619D01*
X9584523Y-8640477D01*
X9555952Y-8669048D01*
X9527381Y-8683334D01*
X9870238Y-8726191D02*
X9841666Y-8711905D01*
X9827381Y-8697619D01*
X9813095Y-8669048D01*
X9813095Y-8654762D01*
X9827381Y-8626191D01*
X9841666Y-8611905D01*
X9870238Y-8597619D01*
X9927381Y-8597619D01*
X9955952Y-8611905D01*
X9970238Y-8626191D01*
X9984523Y-8654762D01*
X9984523Y-8669048D01*
X9970238Y-8697619D01*
X9955952Y-8711905D01*
X9927381Y-8726191D01*
X9870238Y-8726191D01*
X9841666Y-8740477D01*
X9827381Y-8754762D01*
X9813095Y-8783334D01*
X9813095Y-8840477D01*
X9827381Y-8869048D01*
X9841666Y-8883334D01*
X9870238Y-8897619D01*
X9927381Y-8897619D01*
X9955952Y-8883334D01*
X9970238Y-8869048D01*
X9984523Y-8840477D01*
X9984523Y-8783334D01*
X9970238Y-8754762D01*
X9955952Y-8740477D01*
X9927381Y-8726191D01*
X10098809Y-8597619D02*
X10098809Y-8654762D01*
X10213095Y-8597619D02*
X10213095Y-8654762D01*
X10655952Y-9011905D02*
X10641666Y-8997619D01*
X10613095Y-8954762D01*
X10598809Y-8926191D01*
X10584523Y-8883334D01*
X10570238Y-8811905D01*
X10570238Y-8754762D01*
X10584523Y-8683334D01*
X10598809Y-8640477D01*
X10613095Y-8611905D01*
X10641666Y-8569048D01*
X10655952Y-8554762D01*
X10741666Y-8597619D02*
X10927381Y-8597619D01*
X10827381Y-8711905D01*
X10870238Y-8711905D01*
X10898809Y-8726191D01*
X10913095Y-8740477D01*
X10927381Y-8769048D01*
X10927381Y-8840477D01*
X10913095Y-8869048D01*
X10898809Y-8883334D01*
X10870238Y-8897619D01*
X10784523Y-8897619D01*
X10755952Y-8883334D01*
X10741666Y-8869048D01*
X11041666Y-8626191D02*
X11055952Y-8611905D01*
X11084523Y-8597619D01*
X11155952Y-8597619D01*
X11184523Y-8611905D01*
X11198809Y-8626191D01*
X11213095Y-8654762D01*
X11213095Y-8683334D01*
X11198809Y-8726191D01*
X11027381Y-8897619D01*
X11213095Y-8897619D01*
X11570238Y-8897619D02*
X11570238Y-8597619D01*
X11698809Y-8897619D02*
X11698809Y-8740477D01*
X11684523Y-8711905D01*
X11655952Y-8697619D01*
X11613095Y-8697619D01*
X11584523Y-8711905D01*
X11570238Y-8726191D01*
X11884523Y-8897619D02*
X11855952Y-8883334D01*
X11841666Y-8869048D01*
X11827381Y-8840477D01*
X11827381Y-8754762D01*
X11841666Y-8726191D01*
X11855952Y-8711905D01*
X11884523Y-8697619D01*
X11927381Y-8697619D01*
X11955952Y-8711905D01*
X11970238Y-8726191D01*
X11984523Y-8754762D01*
X11984523Y-8840477D01*
X11970238Y-8869048D01*
X11955952Y-8883334D01*
X11927381Y-8897619D01*
X11884523Y-8897619D01*
X12155952Y-8897619D02*
X12127381Y-8883334D01*
X12113095Y-8854762D01*
X12113095Y-8597619D01*
X12384523Y-8883334D02*
X12355952Y-8897619D01*
X12298809Y-8897619D01*
X12270238Y-8883334D01*
X12255952Y-8854762D01*
X12255952Y-8740477D01*
X12270238Y-8711905D01*
X12298809Y-8697619D01*
X12355952Y-8697619D01*
X12384523Y-8711905D01*
X12398809Y-8740477D01*
X12398809Y-8769048D01*
X12255952Y-8797619D01*
X12513095Y-8883334D02*
X12541666Y-8897619D01*
X12598809Y-8897619D01*
X12627381Y-8883334D01*
X12641666Y-8854762D01*
X12641666Y-8840477D01*
X12627381Y-8811905D01*
X12598809Y-8797619D01*
X12555952Y-8797619D01*
X12527381Y-8783334D01*
X12513095Y-8754762D01*
X12513095Y-8740477D01*
X12527381Y-8711905D01*
X12555952Y-8697619D01*
X12598809Y-8697619D01*
X12627381Y-8711905D01*
X12741666Y-9011905D02*
X12755952Y-8997619D01*
X12784523Y-8954762D01*
X12798809Y-8926191D01*
X12813095Y-8883334D01*
X12827381Y-8811905D01*
X12827381Y-8754762D01*
X12813095Y-8683334D01*
X12798809Y-8640477D01*
X12784523Y-8611905D01*
X12755952Y-8569048D01*
X12741666Y-8554762D01*
X5398095Y-9157905D02*
G75*
G03*
X5398095Y-9157905I-38100J0D01*
G01*
X5741666Y-8993619D02*
X5770238Y-8993619D01*
X5798809Y-9007905D01*
X5813095Y-9022191D01*
X5827381Y-9050762D01*
X5841666Y-9107905D01*
X5841666Y-9179334D01*
X5827381Y-9236477D01*
X5813095Y-9265048D01*
X5798809Y-9279334D01*
X5770238Y-9293619D01*
X5741666Y-9293619D01*
X5713095Y-9279334D01*
X5698809Y-9265048D01*
X5684523Y-9236477D01*
X5670238Y-9179334D01*
X5670238Y-9107905D01*
X5684523Y-9050762D01*
X5698809Y-9022191D01*
X5713095Y-9007905D01*
X5741666Y-8993619D01*
X5970238Y-9265048D02*
X5984523Y-9279334D01*
X5970238Y-9293619D01*
X5955952Y-9279334D01*
X5970238Y-9265048D01*
X5970238Y-9293619D01*
X6084523Y-8993619D02*
X6284523Y-8993619D01*
X6155952Y-9293619D01*
X6527381Y-8993619D02*
X6470238Y-8993619D01*
X6441666Y-9007905D01*
X6427381Y-9022191D01*
X6398809Y-9065048D01*
X6384523Y-9122191D01*
X6384523Y-9236477D01*
X6398809Y-9265048D01*
X6413095Y-9279334D01*
X6441666Y-9293619D01*
X6498809Y-9293619D01*
X6527381Y-9279334D01*
X6541666Y-9265048D01*
X6555952Y-9236477D01*
X6555952Y-9165048D01*
X6541666Y-9136477D01*
X6527381Y-9122191D01*
X6498809Y-9107905D01*
X6441666Y-9107905D01*
X6413095Y-9122191D01*
X6398809Y-9136477D01*
X6384523Y-9165048D01*
X6670238Y-9022191D02*
X6684523Y-9007905D01*
X6713095Y-8993619D01*
X6784523Y-8993619D01*
X6813095Y-9007905D01*
X6827381Y-9022191D01*
X6841666Y-9050762D01*
X6841666Y-9079334D01*
X6827381Y-9122191D01*
X6655952Y-9293619D01*
X6841666Y-9293619D01*
X6970238Y-9293619D02*
X6970238Y-9093619D01*
X6970238Y-9122191D02*
X6984523Y-9107905D01*
X7013095Y-9093619D01*
X7055952Y-9093619D01*
X7084523Y-9107905D01*
X7098809Y-9136477D01*
X7098809Y-9293619D01*
X7098809Y-9136477D02*
X7113095Y-9107905D01*
X7141666Y-9093619D01*
X7184523Y-9093619D01*
X7213095Y-9107905D01*
X7227381Y-9136477D01*
X7227381Y-9293619D01*
X7370238Y-9293619D02*
X7370238Y-9093619D01*
X7370238Y-9122191D02*
X7384523Y-9107905D01*
X7413095Y-9093619D01*
X7455952Y-9093619D01*
X7484523Y-9107905D01*
X7498809Y-9136477D01*
X7498809Y-9293619D01*
X7498809Y-9136477D02*
X7513095Y-9107905D01*
X7541666Y-9093619D01*
X7584523Y-9093619D01*
X7613095Y-9107905D01*
X7627381Y-9136477D01*
X7627381Y-9293619D01*
X8213095Y-8979334D02*
X7955952Y-9365048D01*
X8598809Y-8993619D02*
X8627381Y-8993619D01*
X8655952Y-9007905D01*
X8670238Y-9022191D01*
X8684523Y-9050762D01*
X8698809Y-9107905D01*
X8698809Y-9179334D01*
X8684523Y-9236477D01*
X8670238Y-9265048D01*
X8655952Y-9279334D01*
X8627381Y-9293619D01*
X8598809Y-9293619D01*
X8570238Y-9279334D01*
X8555952Y-9265048D01*
X8541666Y-9236477D01*
X8527381Y-9179334D01*
X8527381Y-9107905D01*
X8541666Y-9050762D01*
X8555952Y-9022191D01*
X8570238Y-9007905D01*
X8598809Y-8993619D01*
X8827381Y-9265048D02*
X8841666Y-9279334D01*
X8827381Y-9293619D01*
X8813095Y-9279334D01*
X8827381Y-9265048D01*
X8827381Y-9293619D01*
X9027381Y-8993619D02*
X9055952Y-8993619D01*
X9084523Y-9007905D01*
X9098809Y-9022191D01*
X9113095Y-9050762D01*
X9127381Y-9107905D01*
X9127381Y-9179334D01*
X9113095Y-9236477D01*
X9098809Y-9265048D01*
X9084523Y-9279334D01*
X9055952Y-9293619D01*
X9027381Y-9293619D01*
X8998809Y-9279334D01*
X8984523Y-9265048D01*
X8970238Y-9236477D01*
X8955952Y-9179334D01*
X8955952Y-9107905D01*
X8970238Y-9050762D01*
X8984523Y-9022191D01*
X8998809Y-9007905D01*
X9027381Y-8993619D01*
X9227381Y-8993619D02*
X9413095Y-8993619D01*
X9313095Y-9107905D01*
X9355952Y-9107905D01*
X9384523Y-9122191D01*
X9398809Y-9136477D01*
X9413095Y-9165048D01*
X9413095Y-9236477D01*
X9398809Y-9265048D01*
X9384523Y-9279334D01*
X9355952Y-9293619D01*
X9270238Y-9293619D01*
X9241666Y-9279334D01*
X9227381Y-9265048D01*
X9598809Y-8993619D02*
X9627381Y-8993619D01*
X9655952Y-9007905D01*
X9670238Y-9022191D01*
X9684523Y-9050762D01*
X9698809Y-9107905D01*
X9698809Y-9179334D01*
X9684523Y-9236477D01*
X9670238Y-9265048D01*
X9655952Y-9279334D01*
X9627381Y-9293619D01*
X9598809Y-9293619D01*
X9570238Y-9279334D01*
X9555952Y-9265048D01*
X9541666Y-9236477D01*
X9527381Y-9179334D01*
X9527381Y-9107905D01*
X9541666Y-9050762D01*
X9555952Y-9022191D01*
X9570238Y-9007905D01*
X9598809Y-8993619D01*
X9884523Y-8993619D02*
X9913095Y-8993619D01*
X9941666Y-9007905D01*
X9955952Y-9022191D01*
X9970238Y-9050762D01*
X9984523Y-9107905D01*
X9984523Y-9179334D01*
X9970238Y-9236477D01*
X9955952Y-9265048D01*
X9941666Y-9279334D01*
X9913095Y-9293619D01*
X9884523Y-9293619D01*
X9855952Y-9279334D01*
X9841666Y-9265048D01*
X9827381Y-9236477D01*
X9813095Y-9179334D01*
X9813095Y-9107905D01*
X9827381Y-9050762D01*
X9841666Y-9022191D01*
X9855952Y-9007905D01*
X9884523Y-8993619D01*
X10098809Y-8993619D02*
X10098809Y-9050762D01*
X10213095Y-8993619D02*
X10213095Y-9050762D01*
X10655952Y-9407905D02*
X10641666Y-9393619D01*
X10613095Y-9350762D01*
X10598809Y-9322191D01*
X10584523Y-9279334D01*
X10570238Y-9207905D01*
X10570238Y-9150762D01*
X10584523Y-9079334D01*
X10598809Y-9036477D01*
X10613095Y-9007905D01*
X10641666Y-8965048D01*
X10655952Y-8950762D01*
X10813095Y-9122191D02*
X10784523Y-9107905D01*
X10770238Y-9093619D01*
X10755952Y-9065048D01*
X10755952Y-9050762D01*
X10770238Y-9022191D01*
X10784523Y-9007905D01*
X10813095Y-8993619D01*
X10870238Y-8993619D01*
X10898809Y-9007905D01*
X10913095Y-9022191D01*
X10927381Y-9050762D01*
X10927381Y-9065048D01*
X10913095Y-9093619D01*
X10898809Y-9107905D01*
X10870238Y-9122191D01*
X10813095Y-9122191D01*
X10784523Y-9136477D01*
X10770238Y-9150762D01*
X10755952Y-9179334D01*
X10755952Y-9236477D01*
X10770238Y-9265048D01*
X10784523Y-9279334D01*
X10813095Y-9293619D01*
X10870238Y-9293619D01*
X10898809Y-9279334D01*
X10913095Y-9265048D01*
X10927381Y-9236477D01*
X10927381Y-9179334D01*
X10913095Y-9150762D01*
X10898809Y-9136477D01*
X10870238Y-9122191D01*
X11284523Y-9293619D02*
X11284523Y-8993619D01*
X11413095Y-9293619D02*
X11413095Y-9136477D01*
X11398809Y-9107905D01*
X11370238Y-9093619D01*
X11327381Y-9093619D01*
X11298809Y-9107905D01*
X11284523Y-9122191D01*
X11598809Y-9293619D02*
X11570238Y-9279334D01*
X11555952Y-9265048D01*
X11541666Y-9236477D01*
X11541666Y-9150762D01*
X11555952Y-9122191D01*
X11570238Y-9107905D01*
X11598809Y-9093619D01*
X11641666Y-9093619D01*
X11670238Y-9107905D01*
X11684523Y-9122191D01*
X11698809Y-9150762D01*
X11698809Y-9236477D01*
X11684523Y-9265048D01*
X11670238Y-9279334D01*
X11641666Y-9293619D01*
X11598809Y-9293619D01*
X11870238Y-9293619D02*
X11841666Y-9279334D01*
X11827381Y-9250762D01*
X11827381Y-8993619D01*
X12098809Y-9279334D02*
X12070238Y-9293619D01*
X12013095Y-9293619D01*
X11984523Y-9279334D01*
X11970238Y-9250762D01*
X11970238Y-9136477D01*
X11984523Y-9107905D01*
X12013095Y-9093619D01*
X12070238Y-9093619D01*
X12098809Y-9107905D01*
X12113095Y-9136477D01*
X12113095Y-9165048D01*
X11970238Y-9193619D01*
X12227381Y-9279334D02*
X12255952Y-9293619D01*
X12313095Y-9293619D01*
X12341666Y-9279334D01*
X12355952Y-9250762D01*
X12355952Y-9236477D01*
X12341666Y-9207905D01*
X12313095Y-9193619D01*
X12270238Y-9193619D01*
X12241666Y-9179334D01*
X12227381Y-9150762D01*
X12227381Y-9136477D01*
X12241666Y-9107905D01*
X12270238Y-9093619D01*
X12313095Y-9093619D01*
X12341666Y-9107905D01*
X12455952Y-9407905D02*
X12470238Y-9393619D01*
X12498809Y-9350762D01*
X12513095Y-9322191D01*
X12527381Y-9279334D01*
X12541666Y-9207905D01*
X12541666Y-9150762D01*
X12527381Y-9079334D01*
X12513095Y-9036477D01*
X12498809Y-9007905D01*
X12470238Y-8965048D01*
X12455952Y-8950762D01*
X5352095Y-9507905D02*
X5352095Y-9599905D01*
X5306095Y-9553905D02*
X5398095Y-9553905D01*
X5741666Y-9389619D02*
X5770238Y-9389619D01*
X5798809Y-9403905D01*
X5813095Y-9418191D01*
X5827381Y-9446762D01*
X5841666Y-9503905D01*
X5841666Y-9575334D01*
X5827381Y-9632477D01*
X5813095Y-9661048D01*
X5798809Y-9675334D01*
X5770238Y-9689619D01*
X5741666Y-9689619D01*
X5713095Y-9675334D01*
X5698809Y-9661048D01*
X5684523Y-9632477D01*
X5670238Y-9575334D01*
X5670238Y-9503905D01*
X5684523Y-9446762D01*
X5698809Y-9418191D01*
X5713095Y-9403905D01*
X5741666Y-9389619D01*
X5970238Y-9661048D02*
X5984523Y-9675334D01*
X5970238Y-9689619D01*
X5955952Y-9675334D01*
X5970238Y-9661048D01*
X5970238Y-9689619D01*
X6127381Y-9689619D02*
X6184523Y-9689619D01*
X6213095Y-9675334D01*
X6227381Y-9661048D01*
X6255952Y-9618191D01*
X6270238Y-9561048D01*
X6270238Y-9446762D01*
X6255952Y-9418191D01*
X6241666Y-9403905D01*
X6213095Y-9389619D01*
X6155952Y-9389619D01*
X6127381Y-9403905D01*
X6113095Y-9418191D01*
X6098809Y-9446762D01*
X6098809Y-9518191D01*
X6113095Y-9546762D01*
X6127381Y-9561048D01*
X6155952Y-9575334D01*
X6213095Y-9575334D01*
X6241666Y-9561048D01*
X6255952Y-9546762D01*
X6270238Y-9518191D01*
X6384523Y-9418191D02*
X6398809Y-9403905D01*
X6427381Y-9389619D01*
X6498809Y-9389619D01*
X6527381Y-9403905D01*
X6541666Y-9418191D01*
X6555952Y-9446762D01*
X6555952Y-9475334D01*
X6541666Y-9518191D01*
X6370238Y-9689619D01*
X6555952Y-9689619D01*
X6741666Y-9389619D02*
X6770238Y-9389619D01*
X6798809Y-9403905D01*
X6813095Y-9418191D01*
X6827381Y-9446762D01*
X6841666Y-9503905D01*
X6841666Y-9575334D01*
X6827381Y-9632477D01*
X6813095Y-9661048D01*
X6798809Y-9675334D01*
X6770238Y-9689619D01*
X6741666Y-9689619D01*
X6713095Y-9675334D01*
X6698809Y-9661048D01*
X6684523Y-9632477D01*
X6670238Y-9575334D01*
X6670238Y-9503905D01*
X6684523Y-9446762D01*
X6698809Y-9418191D01*
X6713095Y-9403905D01*
X6741666Y-9389619D01*
X6970238Y-9689619D02*
X6970238Y-9489619D01*
X6970238Y-9518191D02*
X6984523Y-9503905D01*
X7013095Y-9489619D01*
X7055952Y-9489619D01*
X7084523Y-9503905D01*
X7098809Y-9532477D01*
X7098809Y-9689619D01*
X7098809Y-9532477D02*
X7113095Y-9503905D01*
X7141666Y-9489619D01*
X7184523Y-9489619D01*
X7213095Y-9503905D01*
X7227381Y-9532477D01*
X7227381Y-9689619D01*
X7370238Y-9689619D02*
X7370238Y-9489619D01*
X7370238Y-9518191D02*
X7384523Y-9503905D01*
X7413095Y-9489619D01*
X7455952Y-9489619D01*
X7484523Y-9503905D01*
X7498809Y-9532477D01*
X7498809Y-9689619D01*
X7498809Y-9532477D02*
X7513095Y-9503905D01*
X7541666Y-9489619D01*
X7584523Y-9489619D01*
X7613095Y-9503905D01*
X7627381Y-9532477D01*
X7627381Y-9689619D01*
X8213095Y-9375334D02*
X7955952Y-9761048D01*
X8598809Y-9389619D02*
X8627381Y-9389619D01*
X8655952Y-9403905D01*
X8670238Y-9418191D01*
X8684523Y-9446762D01*
X8698809Y-9503905D01*
X8698809Y-9575334D01*
X8684523Y-9632477D01*
X8670238Y-9661048D01*
X8655952Y-9675334D01*
X8627381Y-9689619D01*
X8598809Y-9689619D01*
X8570238Y-9675334D01*
X8555952Y-9661048D01*
X8541666Y-9632477D01*
X8527381Y-9575334D01*
X8527381Y-9503905D01*
X8541666Y-9446762D01*
X8555952Y-9418191D01*
X8570238Y-9403905D01*
X8598809Y-9389619D01*
X8827381Y-9661048D02*
X8841666Y-9675334D01*
X8827381Y-9689619D01*
X8813095Y-9675334D01*
X8827381Y-9661048D01*
X8827381Y-9689619D01*
X9027381Y-9389619D02*
X9055952Y-9389619D01*
X9084523Y-9403905D01*
X9098809Y-9418191D01*
X9113095Y-9446762D01*
X9127381Y-9503905D01*
X9127381Y-9575334D01*
X9113095Y-9632477D01*
X9098809Y-9661048D01*
X9084523Y-9675334D01*
X9055952Y-9689619D01*
X9027381Y-9689619D01*
X8998809Y-9675334D01*
X8984523Y-9661048D01*
X8970238Y-9632477D01*
X8955952Y-9575334D01*
X8955952Y-9503905D01*
X8970238Y-9446762D01*
X8984523Y-9418191D01*
X8998809Y-9403905D01*
X9027381Y-9389619D01*
X9227381Y-9389619D02*
X9413095Y-9389619D01*
X9313095Y-9503905D01*
X9355952Y-9503905D01*
X9384523Y-9518191D01*
X9398809Y-9532477D01*
X9413095Y-9561048D01*
X9413095Y-9632477D01*
X9398809Y-9661048D01*
X9384523Y-9675334D01*
X9355952Y-9689619D01*
X9270238Y-9689619D01*
X9241666Y-9675334D01*
X9227381Y-9661048D01*
X9670238Y-9389619D02*
X9613095Y-9389619D01*
X9584523Y-9403905D01*
X9570238Y-9418191D01*
X9541666Y-9461048D01*
X9527381Y-9518191D01*
X9527381Y-9632477D01*
X9541666Y-9661048D01*
X9555952Y-9675334D01*
X9584523Y-9689619D01*
X9641666Y-9689619D01*
X9670238Y-9675334D01*
X9684523Y-9661048D01*
X9698809Y-9632477D01*
X9698809Y-9561048D01*
X9684523Y-9532477D01*
X9670238Y-9518191D01*
X9641666Y-9503905D01*
X9584523Y-9503905D01*
X9555952Y-9518191D01*
X9541666Y-9532477D01*
X9527381Y-9561048D01*
X9813095Y-9418191D02*
X9827381Y-9403905D01*
X9855952Y-9389619D01*
X9927381Y-9389619D01*
X9955952Y-9403905D01*
X9970238Y-9418191D01*
X9984523Y-9446762D01*
X9984523Y-9475334D01*
X9970238Y-9518191D01*
X9798809Y-9689619D01*
X9984523Y-9689619D01*
X10098809Y-9389619D02*
X10098809Y-9446762D01*
X10213095Y-9389619D02*
X10213095Y-9446762D01*
X10655952Y-9803905D02*
X10641666Y-9789619D01*
X10613095Y-9746762D01*
X10598809Y-9718191D01*
X10584523Y-9675334D01*
X10570238Y-9603905D01*
X10570238Y-9546762D01*
X10584523Y-9475334D01*
X10598809Y-9432477D01*
X10613095Y-9403905D01*
X10641666Y-9361048D01*
X10655952Y-9346762D01*
X10898809Y-9489619D02*
X10898809Y-9689619D01*
X10827381Y-9375334D02*
X10755952Y-9589619D01*
X10941666Y-9589619D01*
X11284523Y-9689619D02*
X11284523Y-9389619D01*
X11413095Y-9689619D02*
X11413095Y-9532477D01*
X11398809Y-9503905D01*
X11370238Y-9489619D01*
X11327381Y-9489619D01*
X11298809Y-9503905D01*
X11284523Y-9518191D01*
X11598809Y-9689619D02*
X11570238Y-9675334D01*
X11555952Y-9661048D01*
X11541666Y-9632477D01*
X11541666Y-9546762D01*
X11555952Y-9518191D01*
X11570238Y-9503905D01*
X11598809Y-9489619D01*
X11641666Y-9489619D01*
X11670238Y-9503905D01*
X11684523Y-9518191D01*
X11698809Y-9546762D01*
X11698809Y-9632477D01*
X11684523Y-9661048D01*
X11670238Y-9675334D01*
X11641666Y-9689619D01*
X11598809Y-9689619D01*
X11870238Y-9689619D02*
X11841666Y-9675334D01*
X11827381Y-9646762D01*
X11827381Y-9389619D01*
X12098809Y-9675334D02*
X12070238Y-9689619D01*
X12013095Y-9689619D01*
X11984523Y-9675334D01*
X11970238Y-9646762D01*
X11970238Y-9532477D01*
X11984523Y-9503905D01*
X12013095Y-9489619D01*
X12070238Y-9489619D01*
X12098809Y-9503905D01*
X12113095Y-9532477D01*
X12113095Y-9561048D01*
X11970238Y-9589619D01*
X12227381Y-9675334D02*
X12255952Y-9689619D01*
X12313095Y-9689619D01*
X12341666Y-9675334D01*
X12355952Y-9646762D01*
X12355952Y-9632477D01*
X12341666Y-9603905D01*
X12313095Y-9589619D01*
X12270238Y-9589619D01*
X12241666Y-9575334D01*
X12227381Y-9546762D01*
X12227381Y-9532477D01*
X12241666Y-9503905D01*
X12270238Y-9489619D01*
X12313095Y-9489619D01*
X12341666Y-9503905D01*
X12455952Y-9803905D02*
X12470238Y-9789619D01*
X12498809Y-9746762D01*
X12513095Y-9718191D01*
X12527381Y-9675334D01*
X12541666Y-9603905D01*
X12541666Y-9546762D01*
X12527381Y-9475334D01*
X12513095Y-9432477D01*
X12498809Y-9403905D01*
X12470238Y-9361048D01*
X12455952Y-9346762D01*
X5383451Y-9985261D02*
X5383451Y-9914549D01*
X5312739Y-9914549D01*
X5312739Y-9985261D01*
X5383451Y-9985261D01*
X5841666Y-10085619D02*
X5670238Y-10085619D01*
X5755952Y-10085619D02*
X5755952Y-9785619D01*
X5727381Y-9828477D01*
X5698809Y-9857048D01*
X5670238Y-9871334D01*
X5970238Y-10057048D02*
X5984523Y-10071334D01*
X5970238Y-10085619D01*
X5955952Y-10071334D01*
X5970238Y-10057048D01*
X5970238Y-10085619D01*
X6170238Y-9785619D02*
X6198809Y-9785619D01*
X6227381Y-9799905D01*
X6241666Y-9814191D01*
X6255952Y-9842762D01*
X6270238Y-9899905D01*
X6270238Y-9971334D01*
X6255952Y-10028477D01*
X6241666Y-10057048D01*
X6227381Y-10071334D01*
X6198809Y-10085619D01*
X6170238Y-10085619D01*
X6141666Y-10071334D01*
X6127381Y-10057048D01*
X6113095Y-10028477D01*
X6098809Y-9971334D01*
X6098809Y-9899905D01*
X6113095Y-9842762D01*
X6127381Y-9814191D01*
X6141666Y-9799905D01*
X6170238Y-9785619D01*
X6455952Y-9785619D02*
X6484523Y-9785619D01*
X6513095Y-9799905D01*
X6527381Y-9814191D01*
X6541666Y-9842762D01*
X6555952Y-9899905D01*
X6555952Y-9971334D01*
X6541666Y-10028477D01*
X6527381Y-10057048D01*
X6513095Y-10071334D01*
X6484523Y-10085619D01*
X6455952Y-10085619D01*
X6427381Y-10071334D01*
X6413095Y-10057048D01*
X6398809Y-10028477D01*
X6384523Y-9971334D01*
X6384523Y-9899905D01*
X6398809Y-9842762D01*
X6413095Y-9814191D01*
X6427381Y-9799905D01*
X6455952Y-9785619D01*
X6741666Y-9785619D02*
X6770238Y-9785619D01*
X6798809Y-9799905D01*
X6813095Y-9814191D01*
X6827381Y-9842762D01*
X6841666Y-9899905D01*
X6841666Y-9971334D01*
X6827381Y-10028477D01*
X6813095Y-10057048D01*
X6798809Y-10071334D01*
X6770238Y-10085619D01*
X6741666Y-10085619D01*
X6713095Y-10071334D01*
X6698809Y-10057048D01*
X6684523Y-10028477D01*
X6670238Y-9971334D01*
X6670238Y-9899905D01*
X6684523Y-9842762D01*
X6698809Y-9814191D01*
X6713095Y-9799905D01*
X6741666Y-9785619D01*
X6970238Y-10085619D02*
X6970238Y-9885619D01*
X6970238Y-9914191D02*
X6984523Y-9899905D01*
X7013095Y-9885619D01*
X7055952Y-9885619D01*
X7084523Y-9899905D01*
X7098809Y-9928477D01*
X7098809Y-10085619D01*
X7098809Y-9928477D02*
X7113095Y-9899905D01*
X7141666Y-9885619D01*
X7184523Y-9885619D01*
X7213095Y-9899905D01*
X7227381Y-9928477D01*
X7227381Y-10085619D01*
X7370238Y-10085619D02*
X7370238Y-9885619D01*
X7370238Y-9914191D02*
X7384523Y-9899905D01*
X7413095Y-9885619D01*
X7455952Y-9885619D01*
X7484523Y-9899905D01*
X7498809Y-9928477D01*
X7498809Y-10085619D01*
X7498809Y-9928477D02*
X7513095Y-9899905D01*
X7541666Y-9885619D01*
X7584523Y-9885619D01*
X7613095Y-9899905D01*
X7627381Y-9928477D01*
X7627381Y-10085619D01*
X8213095Y-9771334D02*
X7955952Y-10157048D01*
X8598809Y-9785619D02*
X8627381Y-9785619D01*
X8655952Y-9799905D01*
X8670238Y-9814191D01*
X8684523Y-9842762D01*
X8698809Y-9899905D01*
X8698809Y-9971334D01*
X8684523Y-10028477D01*
X8670238Y-10057048D01*
X8655952Y-10071334D01*
X8627381Y-10085619D01*
X8598809Y-10085619D01*
X8570238Y-10071334D01*
X8555952Y-10057048D01*
X8541666Y-10028477D01*
X8527381Y-9971334D01*
X8527381Y-9899905D01*
X8541666Y-9842762D01*
X8555952Y-9814191D01*
X8570238Y-9799905D01*
X8598809Y-9785619D01*
X8827381Y-10057048D02*
X8841666Y-10071334D01*
X8827381Y-10085619D01*
X8813095Y-10071334D01*
X8827381Y-10057048D01*
X8827381Y-10085619D01*
X9027381Y-9785619D02*
X9055952Y-9785619D01*
X9084523Y-9799905D01*
X9098809Y-9814191D01*
X9113095Y-9842762D01*
X9127381Y-9899905D01*
X9127381Y-9971334D01*
X9113095Y-10028477D01*
X9098809Y-10057048D01*
X9084523Y-10071334D01*
X9055952Y-10085619D01*
X9027381Y-10085619D01*
X8998809Y-10071334D01*
X8984523Y-10057048D01*
X8970238Y-10028477D01*
X8955952Y-9971334D01*
X8955952Y-9899905D01*
X8970238Y-9842762D01*
X8984523Y-9814191D01*
X8998809Y-9799905D01*
X9027381Y-9785619D01*
X9227381Y-9785619D02*
X9413095Y-9785619D01*
X9313095Y-9899905D01*
X9355952Y-9899905D01*
X9384523Y-9914191D01*
X9398809Y-9928477D01*
X9413095Y-9957048D01*
X9413095Y-10028477D01*
X9398809Y-10057048D01*
X9384523Y-10071334D01*
X9355952Y-10085619D01*
X9270238Y-10085619D01*
X9241666Y-10071334D01*
X9227381Y-10057048D01*
X9555952Y-10085619D02*
X9613095Y-10085619D01*
X9641666Y-10071334D01*
X9655952Y-10057048D01*
X9684523Y-10014191D01*
X9698809Y-9957048D01*
X9698809Y-9842762D01*
X9684523Y-9814191D01*
X9670238Y-9799905D01*
X9641666Y-9785619D01*
X9584523Y-9785619D01*
X9555952Y-9799905D01*
X9541666Y-9814191D01*
X9527381Y-9842762D01*
X9527381Y-9914191D01*
X9541666Y-9942762D01*
X9555952Y-9957048D01*
X9584523Y-9971334D01*
X9641666Y-9971334D01*
X9670238Y-9957048D01*
X9684523Y-9942762D01*
X9698809Y-9914191D01*
X9955952Y-9885619D02*
X9955952Y-10085619D01*
X9884523Y-9771334D02*
X9813095Y-9985619D01*
X9998809Y-9985619D01*
X10098809Y-9785619D02*
X10098809Y-9842762D01*
X10213095Y-9785619D02*
X10213095Y-9842762D01*
X10655952Y-10199905D02*
X10641666Y-10185619D01*
X10613095Y-10142762D01*
X10598809Y-10114191D01*
X10584523Y-10071334D01*
X10570238Y-9999905D01*
X10570238Y-9942762D01*
X10584523Y-9871334D01*
X10598809Y-9828477D01*
X10613095Y-9799905D01*
X10641666Y-9757048D01*
X10655952Y-9742762D01*
X10898809Y-9885619D02*
X10898809Y-10085619D01*
X10827381Y-9771334D02*
X10755952Y-9985619D01*
X10941666Y-9985619D01*
X11284523Y-10085619D02*
X11284523Y-9785619D01*
X11413095Y-10085619D02*
X11413095Y-9928477D01*
X11398809Y-9899905D01*
X11370238Y-9885619D01*
X11327381Y-9885619D01*
X11298809Y-9899905D01*
X11284523Y-9914191D01*
X11598809Y-10085619D02*
X11570238Y-10071334D01*
X11555952Y-10057048D01*
X11541666Y-10028477D01*
X11541666Y-9942762D01*
X11555952Y-9914191D01*
X11570238Y-9899905D01*
X11598809Y-9885619D01*
X11641666Y-9885619D01*
X11670238Y-9899905D01*
X11684523Y-9914191D01*
X11698809Y-9942762D01*
X11698809Y-10028477D01*
X11684523Y-10057048D01*
X11670238Y-10071334D01*
X11641666Y-10085619D01*
X11598809Y-10085619D01*
X11870238Y-10085619D02*
X11841666Y-10071334D01*
X11827381Y-10042762D01*
X11827381Y-9785619D01*
X12098809Y-10071334D02*
X12070238Y-10085619D01*
X12013095Y-10085619D01*
X11984523Y-10071334D01*
X11970238Y-10042762D01*
X11970238Y-9928477D01*
X11984523Y-9899905D01*
X12013095Y-9885619D01*
X12070238Y-9885619D01*
X12098809Y-9899905D01*
X12113095Y-9928477D01*
X12113095Y-9957048D01*
X11970238Y-9985619D01*
X12227381Y-10071334D02*
X12255952Y-10085619D01*
X12313095Y-10085619D01*
X12341666Y-10071334D01*
X12355952Y-10042762D01*
X12355952Y-10028477D01*
X12341666Y-9999905D01*
X12313095Y-9985619D01*
X12270238Y-9985619D01*
X12241666Y-9971334D01*
X12227381Y-9942762D01*
X12227381Y-9928477D01*
X12241666Y-9899905D01*
X12270238Y-9885619D01*
X12313095Y-9885619D01*
X12341666Y-9899905D01*
X12455952Y-10199905D02*
X12470238Y-10185619D01*
X12498809Y-10142762D01*
X12513095Y-10114191D01*
X12527381Y-10071334D01*
X12541666Y-9999905D01*
X12541666Y-9942762D01*
X12527381Y-9871334D01*
X12513095Y-9828477D01*
X12498809Y-9799905D01*
X12470238Y-9757048D01*
X12455952Y-9742762D01*
X5283095Y-10460905D02*
X5398095Y-10345905D01*
X5283095Y-10230905D01*
X5168095Y-10345905D01*
X5283095Y-10460905D01*
X5670238Y-10210191D02*
X5684523Y-10195905D01*
X5713095Y-10181619D01*
X5784523Y-10181619D01*
X5813095Y-10195905D01*
X5827381Y-10210191D01*
X5841666Y-10238762D01*
X5841666Y-10267334D01*
X5827381Y-10310191D01*
X5655952Y-10481619D01*
X5841666Y-10481619D01*
X5970238Y-10453048D02*
X5984523Y-10467334D01*
X5970238Y-10481619D01*
X5955952Y-10467334D01*
X5970238Y-10453048D01*
X5970238Y-10481619D01*
X6084523Y-10181619D02*
X6270238Y-10181619D01*
X6170238Y-10295905D01*
X6213095Y-10295905D01*
X6241666Y-10310191D01*
X6255952Y-10324477D01*
X6270238Y-10353048D01*
X6270238Y-10424477D01*
X6255952Y-10453048D01*
X6241666Y-10467334D01*
X6213095Y-10481619D01*
X6127381Y-10481619D01*
X6098809Y-10467334D01*
X6084523Y-10453048D01*
X6455952Y-10181619D02*
X6484523Y-10181619D01*
X6513095Y-10195905D01*
X6527381Y-10210191D01*
X6541666Y-10238762D01*
X6555952Y-10295905D01*
X6555952Y-10367334D01*
X6541666Y-10424477D01*
X6527381Y-10453048D01*
X6513095Y-10467334D01*
X6484523Y-10481619D01*
X6455952Y-10481619D01*
X6427381Y-10467334D01*
X6413095Y-10453048D01*
X6398809Y-10424477D01*
X6384523Y-10367334D01*
X6384523Y-10295905D01*
X6398809Y-10238762D01*
X6413095Y-10210191D01*
X6427381Y-10195905D01*
X6455952Y-10181619D01*
X6741666Y-10181619D02*
X6770238Y-10181619D01*
X6798809Y-10195905D01*
X6813095Y-10210191D01*
X6827381Y-10238762D01*
X6841666Y-10295905D01*
X6841666Y-10367334D01*
X6827381Y-10424477D01*
X6813095Y-10453048D01*
X6798809Y-10467334D01*
X6770238Y-10481619D01*
X6741666Y-10481619D01*
X6713095Y-10467334D01*
X6698809Y-10453048D01*
X6684523Y-10424477D01*
X6670238Y-10367334D01*
X6670238Y-10295905D01*
X6684523Y-10238762D01*
X6698809Y-10210191D01*
X6713095Y-10195905D01*
X6741666Y-10181619D01*
X6970238Y-10481619D02*
X6970238Y-10281619D01*
X6970238Y-10310191D02*
X6984523Y-10295905D01*
X7013095Y-10281619D01*
X7055952Y-10281619D01*
X7084523Y-10295905D01*
X7098809Y-10324477D01*
X7098809Y-10481619D01*
X7098809Y-10324477D02*
X7113095Y-10295905D01*
X7141666Y-10281619D01*
X7184523Y-10281619D01*
X7213095Y-10295905D01*
X7227381Y-10324477D01*
X7227381Y-10481619D01*
X7370238Y-10481619D02*
X7370238Y-10281619D01*
X7370238Y-10310191D02*
X7384523Y-10295905D01*
X7413095Y-10281619D01*
X7455952Y-10281619D01*
X7484523Y-10295905D01*
X7498809Y-10324477D01*
X7498809Y-10481619D01*
X7498809Y-10324477D02*
X7513095Y-10295905D01*
X7541666Y-10281619D01*
X7584523Y-10281619D01*
X7613095Y-10295905D01*
X7627381Y-10324477D01*
X7627381Y-10481619D01*
X8213095Y-10167334D02*
X7955952Y-10553048D01*
X8598809Y-10181619D02*
X8627381Y-10181619D01*
X8655952Y-10195905D01*
X8670238Y-10210191D01*
X8684523Y-10238762D01*
X8698809Y-10295905D01*
X8698809Y-10367334D01*
X8684523Y-10424477D01*
X8670238Y-10453048D01*
X8655952Y-10467334D01*
X8627381Y-10481619D01*
X8598809Y-10481619D01*
X8570238Y-10467334D01*
X8555952Y-10453048D01*
X8541666Y-10424477D01*
X8527381Y-10367334D01*
X8527381Y-10295905D01*
X8541666Y-10238762D01*
X8555952Y-10210191D01*
X8570238Y-10195905D01*
X8598809Y-10181619D01*
X8827381Y-10453048D02*
X8841666Y-10467334D01*
X8827381Y-10481619D01*
X8813095Y-10467334D01*
X8827381Y-10453048D01*
X8827381Y-10481619D01*
X9027381Y-10181619D02*
X9055952Y-10181619D01*
X9084523Y-10195905D01*
X9098809Y-10210191D01*
X9113095Y-10238762D01*
X9127381Y-10295905D01*
X9127381Y-10367334D01*
X9113095Y-10424477D01*
X9098809Y-10453048D01*
X9084523Y-10467334D01*
X9055952Y-10481619D01*
X9027381Y-10481619D01*
X8998809Y-10467334D01*
X8984523Y-10453048D01*
X8970238Y-10424477D01*
X8955952Y-10367334D01*
X8955952Y-10295905D01*
X8970238Y-10238762D01*
X8984523Y-10210191D01*
X8998809Y-10195905D01*
X9027381Y-10181619D01*
X9270238Y-10481619D02*
X9327381Y-10481619D01*
X9355952Y-10467334D01*
X9370238Y-10453048D01*
X9398809Y-10410191D01*
X9413095Y-10353048D01*
X9413095Y-10238762D01*
X9398809Y-10210191D01*
X9384523Y-10195905D01*
X9355952Y-10181619D01*
X9298809Y-10181619D01*
X9270238Y-10195905D01*
X9255952Y-10210191D01*
X9241666Y-10238762D01*
X9241666Y-10310191D01*
X9255952Y-10338762D01*
X9270238Y-10353048D01*
X9298809Y-10367334D01*
X9355952Y-10367334D01*
X9384523Y-10353048D01*
X9398809Y-10338762D01*
X9413095Y-10310191D01*
X9598809Y-10181619D02*
X9627381Y-10181619D01*
X9655952Y-10195905D01*
X9670238Y-10210191D01*
X9684523Y-10238762D01*
X9698809Y-10295905D01*
X9698809Y-10367334D01*
X9684523Y-10424477D01*
X9670238Y-10453048D01*
X9655952Y-10467334D01*
X9627381Y-10481619D01*
X9598809Y-10481619D01*
X9570238Y-10467334D01*
X9555952Y-10453048D01*
X9541666Y-10424477D01*
X9527381Y-10367334D01*
X9527381Y-10295905D01*
X9541666Y-10238762D01*
X9555952Y-10210191D01*
X9570238Y-10195905D01*
X9598809Y-10181619D01*
X9955952Y-10181619D02*
X9898809Y-10181619D01*
X9870238Y-10195905D01*
X9855952Y-10210191D01*
X9827381Y-10253048D01*
X9813095Y-10310191D01*
X9813095Y-10424477D01*
X9827381Y-10453048D01*
X9841666Y-10467334D01*
X9870238Y-10481619D01*
X9927381Y-10481619D01*
X9955952Y-10467334D01*
X9970238Y-10453048D01*
X9984523Y-10424477D01*
X9984523Y-10353048D01*
X9970238Y-10324477D01*
X9955952Y-10310191D01*
X9927381Y-10295905D01*
X9870238Y-10295905D01*
X9841666Y-10310191D01*
X9827381Y-10324477D01*
X9813095Y-10353048D01*
X10098809Y-10181619D02*
X10098809Y-10238762D01*
X10213095Y-10181619D02*
X10213095Y-10238762D01*
X10655952Y-10595905D02*
X10641666Y-10581619D01*
X10613095Y-10538762D01*
X10598809Y-10510191D01*
X10584523Y-10467334D01*
X10570238Y-10395905D01*
X10570238Y-10338762D01*
X10584523Y-10267334D01*
X10598809Y-10224477D01*
X10613095Y-10195905D01*
X10641666Y-10153048D01*
X10655952Y-10138762D01*
X10755952Y-10210191D02*
X10770238Y-10195905D01*
X10798809Y-10181619D01*
X10870238Y-10181619D01*
X10898809Y-10195905D01*
X10913095Y-10210191D01*
X10927381Y-10238762D01*
X10927381Y-10267334D01*
X10913095Y-10310191D01*
X10741666Y-10481619D01*
X10927381Y-10481619D01*
X11284523Y-10481619D02*
X11284523Y-10181619D01*
X11413095Y-10481619D02*
X11413095Y-10324477D01*
X11398809Y-10295905D01*
X11370238Y-10281619D01*
X11327381Y-10281619D01*
X11298809Y-10295905D01*
X11284523Y-10310191D01*
X11598809Y-10481619D02*
X11570238Y-10467334D01*
X11555952Y-10453048D01*
X11541666Y-10424477D01*
X11541666Y-10338762D01*
X11555952Y-10310191D01*
X11570238Y-10295905D01*
X11598809Y-10281619D01*
X11641666Y-10281619D01*
X11670238Y-10295905D01*
X11684523Y-10310191D01*
X11698809Y-10338762D01*
X11698809Y-10424477D01*
X11684523Y-10453048D01*
X11670238Y-10467334D01*
X11641666Y-10481619D01*
X11598809Y-10481619D01*
X11870238Y-10481619D02*
X11841666Y-10467334D01*
X11827381Y-10438762D01*
X11827381Y-10181619D01*
X12098809Y-10467334D02*
X12070238Y-10481619D01*
X12013095Y-10481619D01*
X11984523Y-10467334D01*
X11970238Y-10438762D01*
X11970238Y-10324477D01*
X11984523Y-10295905D01*
X12013095Y-10281619D01*
X12070238Y-10281619D01*
X12098809Y-10295905D01*
X12113095Y-10324477D01*
X12113095Y-10353048D01*
X11970238Y-10381619D01*
X12227381Y-10467334D02*
X12255952Y-10481619D01*
X12313095Y-10481619D01*
X12341666Y-10467334D01*
X12355952Y-10438762D01*
X12355952Y-10424477D01*
X12341666Y-10395905D01*
X12313095Y-10381619D01*
X12270238Y-10381619D01*
X12241666Y-10367334D01*
X12227381Y-10338762D01*
X12227381Y-10324477D01*
X12241666Y-10295905D01*
X12270238Y-10281619D01*
X12313095Y-10281619D01*
X12341666Y-10295905D01*
X12455952Y-10595905D02*
X12470238Y-10581619D01*
X12498809Y-10538762D01*
X12513095Y-10510191D01*
X12527381Y-10467334D01*
X12541666Y-10395905D01*
X12541666Y-10338762D01*
X12527381Y-10267334D01*
X12513095Y-10224477D01*
X12498809Y-10195905D01*
X12470238Y-10153048D01*
X12455952Y-10138762D01*
M02*
