G04 #@! TF.GenerationSoftware,KiCad,Pcbnew,(5.1.10)-1*
G04 #@! TF.CreationDate,2022-03-27T16:46:42+02:00*
G04 #@! TF.ProjectId,LaserAutoSkipper_RX_schematic,4c617365-7241-4757-946f-536b69707065,1*
G04 #@! TF.SameCoordinates,Original*
G04 #@! TF.FileFunction,Soldermask,Top*
G04 #@! TF.FilePolarity,Negative*
%FSLAX46Y46*%
G04 Gerber Fmt 4.6, Leading zero omitted, Abs format (unit mm)*
G04 Created by KiCad (PCBNEW (5.1.10)-1) date 2022-03-27 16:46:42*
%MOMM*%
%LPD*%
G01*
G04 APERTURE LIST*
%ADD10C,1.524000*%
%ADD11R,1.524000X1.524000*%
%ADD12C,3.500000*%
%ADD13O,1.700000X1.700000*%
%ADD14R,1.700000X1.700000*%
%ADD15C,0.152400*%
%ADD16R,1.500000X2.000000*%
%ADD17R,3.800000X2.000000*%
%ADD18R,0.600000X1.500000*%
G04 APERTURE END LIST*
D10*
X60000000Y-71500000D03*
X60000000Y-69000000D03*
X60000000Y-67000000D03*
D11*
X60000000Y-64500000D03*
D12*
X57290000Y-61430000D03*
X57290000Y-74570000D03*
D13*
X93370000Y-60000000D03*
X90830000Y-60000000D03*
X88290000Y-60000000D03*
D14*
X85750000Y-60000000D03*
G36*
G01*
X102475736Y-72525484D02*
X101538820Y-73462400D01*
G75*
G02*
X101432754Y-73462400I-53033J53033D01*
G01*
X101326688Y-73356334D01*
G75*
G02*
X101326688Y-73250268I53033J53033D01*
G01*
X102263604Y-72313352D01*
G75*
G02*
X102369670Y-72313352I53033J-53033D01*
G01*
X102475736Y-72419418D01*
G75*
G02*
X102475736Y-72525484I-53033J-53033D01*
G01*
G37*
G36*
G01*
X102122182Y-72171930D02*
X101185266Y-73108846D01*
G75*
G02*
X101079200Y-73108846I-53033J53033D01*
G01*
X100973134Y-73002780D01*
G75*
G02*
X100973134Y-72896714I53033J53033D01*
G01*
X101910050Y-71959798D01*
G75*
G02*
X102016116Y-71959798I53033J-53033D01*
G01*
X102122182Y-72065864D01*
G75*
G02*
X102122182Y-72171930I-53033J-53033D01*
G01*
G37*
G36*
G01*
X101768629Y-71818377D02*
X100831713Y-72755293D01*
G75*
G02*
X100725647Y-72755293I-53033J53033D01*
G01*
X100619581Y-72649227D01*
G75*
G02*
X100619581Y-72543161I53033J53033D01*
G01*
X101556497Y-71606245D01*
G75*
G02*
X101662563Y-71606245I53033J-53033D01*
G01*
X101768629Y-71712311D01*
G75*
G02*
X101768629Y-71818377I-53033J-53033D01*
G01*
G37*
G36*
G01*
X101415075Y-71464823D02*
X100478159Y-72401739D01*
G75*
G02*
X100372093Y-72401739I-53033J53033D01*
G01*
X100266027Y-72295673D01*
G75*
G02*
X100266027Y-72189607I53033J53033D01*
G01*
X101202943Y-71252691D01*
G75*
G02*
X101309009Y-71252691I53033J-53033D01*
G01*
X101415075Y-71358757D01*
G75*
G02*
X101415075Y-71464823I-53033J-53033D01*
G01*
G37*
G36*
G01*
X101061522Y-71111270D02*
X100124606Y-72048186D01*
G75*
G02*
X100018540Y-72048186I-53033J53033D01*
G01*
X99912474Y-71942120D01*
G75*
G02*
X99912474Y-71836054I53033J53033D01*
G01*
X100849390Y-70899138D01*
G75*
G02*
X100955456Y-70899138I53033J-53033D01*
G01*
X101061522Y-71005204D01*
G75*
G02*
X101061522Y-71111270I-53033J-53033D01*
G01*
G37*
G36*
G01*
X100707969Y-70757717D02*
X99771053Y-71694633D01*
G75*
G02*
X99664987Y-71694633I-53033J53033D01*
G01*
X99558921Y-71588567D01*
G75*
G02*
X99558921Y-71482501I53033J53033D01*
G01*
X100495837Y-70545585D01*
G75*
G02*
X100601903Y-70545585I53033J-53033D01*
G01*
X100707969Y-70651651D01*
G75*
G02*
X100707969Y-70757717I-53033J-53033D01*
G01*
G37*
G36*
G01*
X100354415Y-70404163D02*
X99417499Y-71341079D01*
G75*
G02*
X99311433Y-71341079I-53033J53033D01*
G01*
X99205367Y-71235013D01*
G75*
G02*
X99205367Y-71128947I53033J53033D01*
G01*
X100142283Y-70192031D01*
G75*
G02*
X100248349Y-70192031I53033J-53033D01*
G01*
X100354415Y-70298097D01*
G75*
G02*
X100354415Y-70404163I-53033J-53033D01*
G01*
G37*
G36*
G01*
X100000862Y-70050610D02*
X99063946Y-70987526D01*
G75*
G02*
X98957880Y-70987526I-53033J53033D01*
G01*
X98851814Y-70881460D01*
G75*
G02*
X98851814Y-70775394I53033J53033D01*
G01*
X99788730Y-69838478D01*
G75*
G02*
X99894796Y-69838478I53033J-53033D01*
G01*
X100000862Y-69944544D01*
G75*
G02*
X100000862Y-70050610I-53033J-53033D01*
G01*
G37*
G36*
G01*
X99647309Y-69697057D02*
X98710393Y-70633973D01*
G75*
G02*
X98604327Y-70633973I-53033J53033D01*
G01*
X98498261Y-70527907D01*
G75*
G02*
X98498261Y-70421841I53033J53033D01*
G01*
X99435177Y-69484925D01*
G75*
G02*
X99541243Y-69484925I53033J-53033D01*
G01*
X99647309Y-69590991D01*
G75*
G02*
X99647309Y-69697057I-53033J-53033D01*
G01*
G37*
G36*
G01*
X99293755Y-69343503D02*
X98356839Y-70280419D01*
G75*
G02*
X98250773Y-70280419I-53033J53033D01*
G01*
X98144707Y-70174353D01*
G75*
G02*
X98144707Y-70068287I53033J53033D01*
G01*
X99081623Y-69131371D01*
G75*
G02*
X99187689Y-69131371I53033J-53033D01*
G01*
X99293755Y-69237437D01*
G75*
G02*
X99293755Y-69343503I-53033J-53033D01*
G01*
G37*
G36*
G01*
X98940202Y-68989950D02*
X98003286Y-69926866D01*
G75*
G02*
X97897220Y-69926866I-53033J53033D01*
G01*
X97791154Y-69820800D01*
G75*
G02*
X97791154Y-69714734I53033J53033D01*
G01*
X98728070Y-68777818D01*
G75*
G02*
X98834136Y-68777818I53033J-53033D01*
G01*
X98940202Y-68883884D01*
G75*
G02*
X98940202Y-68989950I-53033J-53033D01*
G01*
G37*
G36*
G01*
X98586648Y-68636396D02*
X97649732Y-69573312D01*
G75*
G02*
X97543666Y-69573312I-53033J53033D01*
G01*
X97437600Y-69467246D01*
G75*
G02*
X97437600Y-69361180I53033J53033D01*
G01*
X98374516Y-68424264D01*
G75*
G02*
X98480582Y-68424264I53033J-53033D01*
G01*
X98586648Y-68530330D01*
G75*
G02*
X98586648Y-68636396I-53033J-53033D01*
G01*
G37*
G36*
G01*
X98586648Y-67469670D02*
X98480582Y-67575736D01*
G75*
G02*
X98374516Y-67575736I-53033J53033D01*
G01*
X97437600Y-66638820D01*
G75*
G02*
X97437600Y-66532754I53033J53033D01*
G01*
X97543666Y-66426688D01*
G75*
G02*
X97649732Y-66426688I53033J-53033D01*
G01*
X98586648Y-67363604D01*
G75*
G02*
X98586648Y-67469670I-53033J-53033D01*
G01*
G37*
G36*
G01*
X98940202Y-67116116D02*
X98834136Y-67222182D01*
G75*
G02*
X98728070Y-67222182I-53033J53033D01*
G01*
X97791154Y-66285266D01*
G75*
G02*
X97791154Y-66179200I53033J53033D01*
G01*
X97897220Y-66073134D01*
G75*
G02*
X98003286Y-66073134I53033J-53033D01*
G01*
X98940202Y-67010050D01*
G75*
G02*
X98940202Y-67116116I-53033J-53033D01*
G01*
G37*
G36*
G01*
X99293755Y-66762563D02*
X99187689Y-66868629D01*
G75*
G02*
X99081623Y-66868629I-53033J53033D01*
G01*
X98144707Y-65931713D01*
G75*
G02*
X98144707Y-65825647I53033J53033D01*
G01*
X98250773Y-65719581D01*
G75*
G02*
X98356839Y-65719581I53033J-53033D01*
G01*
X99293755Y-66656497D01*
G75*
G02*
X99293755Y-66762563I-53033J-53033D01*
G01*
G37*
G36*
G01*
X99647309Y-66409009D02*
X99541243Y-66515075D01*
G75*
G02*
X99435177Y-66515075I-53033J53033D01*
G01*
X98498261Y-65578159D01*
G75*
G02*
X98498261Y-65472093I53033J53033D01*
G01*
X98604327Y-65366027D01*
G75*
G02*
X98710393Y-65366027I53033J-53033D01*
G01*
X99647309Y-66302943D01*
G75*
G02*
X99647309Y-66409009I-53033J-53033D01*
G01*
G37*
G36*
G01*
X100000862Y-66055456D02*
X99894796Y-66161522D01*
G75*
G02*
X99788730Y-66161522I-53033J53033D01*
G01*
X98851814Y-65224606D01*
G75*
G02*
X98851814Y-65118540I53033J53033D01*
G01*
X98957880Y-65012474D01*
G75*
G02*
X99063946Y-65012474I53033J-53033D01*
G01*
X100000862Y-65949390D01*
G75*
G02*
X100000862Y-66055456I-53033J-53033D01*
G01*
G37*
G36*
G01*
X100354415Y-65701903D02*
X100248349Y-65807969D01*
G75*
G02*
X100142283Y-65807969I-53033J53033D01*
G01*
X99205367Y-64871053D01*
G75*
G02*
X99205367Y-64764987I53033J53033D01*
G01*
X99311433Y-64658921D01*
G75*
G02*
X99417499Y-64658921I53033J-53033D01*
G01*
X100354415Y-65595837D01*
G75*
G02*
X100354415Y-65701903I-53033J-53033D01*
G01*
G37*
G36*
G01*
X100707969Y-65348349D02*
X100601903Y-65454415D01*
G75*
G02*
X100495837Y-65454415I-53033J53033D01*
G01*
X99558921Y-64517499D01*
G75*
G02*
X99558921Y-64411433I53033J53033D01*
G01*
X99664987Y-64305367D01*
G75*
G02*
X99771053Y-64305367I53033J-53033D01*
G01*
X100707969Y-65242283D01*
G75*
G02*
X100707969Y-65348349I-53033J-53033D01*
G01*
G37*
G36*
G01*
X101061522Y-64994796D02*
X100955456Y-65100862D01*
G75*
G02*
X100849390Y-65100862I-53033J53033D01*
G01*
X99912474Y-64163946D01*
G75*
G02*
X99912474Y-64057880I53033J53033D01*
G01*
X100018540Y-63951814D01*
G75*
G02*
X100124606Y-63951814I53033J-53033D01*
G01*
X101061522Y-64888730D01*
G75*
G02*
X101061522Y-64994796I-53033J-53033D01*
G01*
G37*
G36*
G01*
X101415075Y-64641243D02*
X101309009Y-64747309D01*
G75*
G02*
X101202943Y-64747309I-53033J53033D01*
G01*
X100266027Y-63810393D01*
G75*
G02*
X100266027Y-63704327I53033J53033D01*
G01*
X100372093Y-63598261D01*
G75*
G02*
X100478159Y-63598261I53033J-53033D01*
G01*
X101415075Y-64535177D01*
G75*
G02*
X101415075Y-64641243I-53033J-53033D01*
G01*
G37*
G36*
G01*
X101768629Y-64287689D02*
X101662563Y-64393755D01*
G75*
G02*
X101556497Y-64393755I-53033J53033D01*
G01*
X100619581Y-63456839D01*
G75*
G02*
X100619581Y-63350773I53033J53033D01*
G01*
X100725647Y-63244707D01*
G75*
G02*
X100831713Y-63244707I53033J-53033D01*
G01*
X101768629Y-64181623D01*
G75*
G02*
X101768629Y-64287689I-53033J-53033D01*
G01*
G37*
G36*
G01*
X102122182Y-63934136D02*
X102016116Y-64040202D01*
G75*
G02*
X101910050Y-64040202I-53033J53033D01*
G01*
X100973134Y-63103286D01*
G75*
G02*
X100973134Y-62997220I53033J53033D01*
G01*
X101079200Y-62891154D01*
G75*
G02*
X101185266Y-62891154I53033J-53033D01*
G01*
X102122182Y-63828070D01*
G75*
G02*
X102122182Y-63934136I-53033J-53033D01*
G01*
G37*
G36*
G01*
X102475736Y-63580582D02*
X102369670Y-63686648D01*
G75*
G02*
X102263604Y-63686648I-53033J53033D01*
G01*
X101326688Y-62749732D01*
G75*
G02*
X101326688Y-62643666I53033J53033D01*
G01*
X101432754Y-62537600D01*
G75*
G02*
X101538820Y-62537600I53033J-53033D01*
G01*
X102475736Y-63474516D01*
G75*
G02*
X102475736Y-63580582I-53033J-53033D01*
G01*
G37*
G36*
G01*
X104473312Y-62749732D02*
X103536396Y-63686648D01*
G75*
G02*
X103430330Y-63686648I-53033J53033D01*
G01*
X103324264Y-63580582D01*
G75*
G02*
X103324264Y-63474516I53033J53033D01*
G01*
X104261180Y-62537600D01*
G75*
G02*
X104367246Y-62537600I53033J-53033D01*
G01*
X104473312Y-62643666D01*
G75*
G02*
X104473312Y-62749732I-53033J-53033D01*
G01*
G37*
G36*
G01*
X104826866Y-63103286D02*
X103889950Y-64040202D01*
G75*
G02*
X103783884Y-64040202I-53033J53033D01*
G01*
X103677818Y-63934136D01*
G75*
G02*
X103677818Y-63828070I53033J53033D01*
G01*
X104614734Y-62891154D01*
G75*
G02*
X104720800Y-62891154I53033J-53033D01*
G01*
X104826866Y-62997220D01*
G75*
G02*
X104826866Y-63103286I-53033J-53033D01*
G01*
G37*
G36*
G01*
X105180419Y-63456839D02*
X104243503Y-64393755D01*
G75*
G02*
X104137437Y-64393755I-53033J53033D01*
G01*
X104031371Y-64287689D01*
G75*
G02*
X104031371Y-64181623I53033J53033D01*
G01*
X104968287Y-63244707D01*
G75*
G02*
X105074353Y-63244707I53033J-53033D01*
G01*
X105180419Y-63350773D01*
G75*
G02*
X105180419Y-63456839I-53033J-53033D01*
G01*
G37*
G36*
G01*
X105533973Y-63810393D02*
X104597057Y-64747309D01*
G75*
G02*
X104490991Y-64747309I-53033J53033D01*
G01*
X104384925Y-64641243D01*
G75*
G02*
X104384925Y-64535177I53033J53033D01*
G01*
X105321841Y-63598261D01*
G75*
G02*
X105427907Y-63598261I53033J-53033D01*
G01*
X105533973Y-63704327D01*
G75*
G02*
X105533973Y-63810393I-53033J-53033D01*
G01*
G37*
G36*
G01*
X105887526Y-64163946D02*
X104950610Y-65100862D01*
G75*
G02*
X104844544Y-65100862I-53033J53033D01*
G01*
X104738478Y-64994796D01*
G75*
G02*
X104738478Y-64888730I53033J53033D01*
G01*
X105675394Y-63951814D01*
G75*
G02*
X105781460Y-63951814I53033J-53033D01*
G01*
X105887526Y-64057880D01*
G75*
G02*
X105887526Y-64163946I-53033J-53033D01*
G01*
G37*
G36*
G01*
X106241079Y-64517499D02*
X105304163Y-65454415D01*
G75*
G02*
X105198097Y-65454415I-53033J53033D01*
G01*
X105092031Y-65348349D01*
G75*
G02*
X105092031Y-65242283I53033J53033D01*
G01*
X106028947Y-64305367D01*
G75*
G02*
X106135013Y-64305367I53033J-53033D01*
G01*
X106241079Y-64411433D01*
G75*
G02*
X106241079Y-64517499I-53033J-53033D01*
G01*
G37*
G36*
G01*
X106594633Y-64871053D02*
X105657717Y-65807969D01*
G75*
G02*
X105551651Y-65807969I-53033J53033D01*
G01*
X105445585Y-65701903D01*
G75*
G02*
X105445585Y-65595837I53033J53033D01*
G01*
X106382501Y-64658921D01*
G75*
G02*
X106488567Y-64658921I53033J-53033D01*
G01*
X106594633Y-64764987D01*
G75*
G02*
X106594633Y-64871053I-53033J-53033D01*
G01*
G37*
G36*
G01*
X106948186Y-65224606D02*
X106011270Y-66161522D01*
G75*
G02*
X105905204Y-66161522I-53033J53033D01*
G01*
X105799138Y-66055456D01*
G75*
G02*
X105799138Y-65949390I53033J53033D01*
G01*
X106736054Y-65012474D01*
G75*
G02*
X106842120Y-65012474I53033J-53033D01*
G01*
X106948186Y-65118540D01*
G75*
G02*
X106948186Y-65224606I-53033J-53033D01*
G01*
G37*
G36*
G01*
X107301739Y-65578159D02*
X106364823Y-66515075D01*
G75*
G02*
X106258757Y-66515075I-53033J53033D01*
G01*
X106152691Y-66409009D01*
G75*
G02*
X106152691Y-66302943I53033J53033D01*
G01*
X107089607Y-65366027D01*
G75*
G02*
X107195673Y-65366027I53033J-53033D01*
G01*
X107301739Y-65472093D01*
G75*
G02*
X107301739Y-65578159I-53033J-53033D01*
G01*
G37*
G36*
G01*
X107655293Y-65931713D02*
X106718377Y-66868629D01*
G75*
G02*
X106612311Y-66868629I-53033J53033D01*
G01*
X106506245Y-66762563D01*
G75*
G02*
X106506245Y-66656497I53033J53033D01*
G01*
X107443161Y-65719581D01*
G75*
G02*
X107549227Y-65719581I53033J-53033D01*
G01*
X107655293Y-65825647D01*
G75*
G02*
X107655293Y-65931713I-53033J-53033D01*
G01*
G37*
G36*
G01*
X108008846Y-66285266D02*
X107071930Y-67222182D01*
G75*
G02*
X106965864Y-67222182I-53033J53033D01*
G01*
X106859798Y-67116116D01*
G75*
G02*
X106859798Y-67010050I53033J53033D01*
G01*
X107796714Y-66073134D01*
G75*
G02*
X107902780Y-66073134I53033J-53033D01*
G01*
X108008846Y-66179200D01*
G75*
G02*
X108008846Y-66285266I-53033J-53033D01*
G01*
G37*
G36*
G01*
X108362400Y-66638820D02*
X107425484Y-67575736D01*
G75*
G02*
X107319418Y-67575736I-53033J53033D01*
G01*
X107213352Y-67469670D01*
G75*
G02*
X107213352Y-67363604I53033J53033D01*
G01*
X108150268Y-66426688D01*
G75*
G02*
X108256334Y-66426688I53033J-53033D01*
G01*
X108362400Y-66532754D01*
G75*
G02*
X108362400Y-66638820I-53033J-53033D01*
G01*
G37*
G36*
G01*
X108362400Y-69467246D02*
X108256334Y-69573312D01*
G75*
G02*
X108150268Y-69573312I-53033J53033D01*
G01*
X107213352Y-68636396D01*
G75*
G02*
X107213352Y-68530330I53033J53033D01*
G01*
X107319418Y-68424264D01*
G75*
G02*
X107425484Y-68424264I53033J-53033D01*
G01*
X108362400Y-69361180D01*
G75*
G02*
X108362400Y-69467246I-53033J-53033D01*
G01*
G37*
G36*
G01*
X108008846Y-69820800D02*
X107902780Y-69926866D01*
G75*
G02*
X107796714Y-69926866I-53033J53033D01*
G01*
X106859798Y-68989950D01*
G75*
G02*
X106859798Y-68883884I53033J53033D01*
G01*
X106965864Y-68777818D01*
G75*
G02*
X107071930Y-68777818I53033J-53033D01*
G01*
X108008846Y-69714734D01*
G75*
G02*
X108008846Y-69820800I-53033J-53033D01*
G01*
G37*
G36*
G01*
X107655293Y-70174353D02*
X107549227Y-70280419D01*
G75*
G02*
X107443161Y-70280419I-53033J53033D01*
G01*
X106506245Y-69343503D01*
G75*
G02*
X106506245Y-69237437I53033J53033D01*
G01*
X106612311Y-69131371D01*
G75*
G02*
X106718377Y-69131371I53033J-53033D01*
G01*
X107655293Y-70068287D01*
G75*
G02*
X107655293Y-70174353I-53033J-53033D01*
G01*
G37*
G36*
G01*
X107301739Y-70527907D02*
X107195673Y-70633973D01*
G75*
G02*
X107089607Y-70633973I-53033J53033D01*
G01*
X106152691Y-69697057D01*
G75*
G02*
X106152691Y-69590991I53033J53033D01*
G01*
X106258757Y-69484925D01*
G75*
G02*
X106364823Y-69484925I53033J-53033D01*
G01*
X107301739Y-70421841D01*
G75*
G02*
X107301739Y-70527907I-53033J-53033D01*
G01*
G37*
G36*
G01*
X106948186Y-70881460D02*
X106842120Y-70987526D01*
G75*
G02*
X106736054Y-70987526I-53033J53033D01*
G01*
X105799138Y-70050610D01*
G75*
G02*
X105799138Y-69944544I53033J53033D01*
G01*
X105905204Y-69838478D01*
G75*
G02*
X106011270Y-69838478I53033J-53033D01*
G01*
X106948186Y-70775394D01*
G75*
G02*
X106948186Y-70881460I-53033J-53033D01*
G01*
G37*
G36*
G01*
X106594633Y-71235013D02*
X106488567Y-71341079D01*
G75*
G02*
X106382501Y-71341079I-53033J53033D01*
G01*
X105445585Y-70404163D01*
G75*
G02*
X105445585Y-70298097I53033J53033D01*
G01*
X105551651Y-70192031D01*
G75*
G02*
X105657717Y-70192031I53033J-53033D01*
G01*
X106594633Y-71128947D01*
G75*
G02*
X106594633Y-71235013I-53033J-53033D01*
G01*
G37*
G36*
G01*
X106241079Y-71588567D02*
X106135013Y-71694633D01*
G75*
G02*
X106028947Y-71694633I-53033J53033D01*
G01*
X105092031Y-70757717D01*
G75*
G02*
X105092031Y-70651651I53033J53033D01*
G01*
X105198097Y-70545585D01*
G75*
G02*
X105304163Y-70545585I53033J-53033D01*
G01*
X106241079Y-71482501D01*
G75*
G02*
X106241079Y-71588567I-53033J-53033D01*
G01*
G37*
G36*
G01*
X105887526Y-71942120D02*
X105781460Y-72048186D01*
G75*
G02*
X105675394Y-72048186I-53033J53033D01*
G01*
X104738478Y-71111270D01*
G75*
G02*
X104738478Y-71005204I53033J53033D01*
G01*
X104844544Y-70899138D01*
G75*
G02*
X104950610Y-70899138I53033J-53033D01*
G01*
X105887526Y-71836054D01*
G75*
G02*
X105887526Y-71942120I-53033J-53033D01*
G01*
G37*
G36*
G01*
X105533973Y-72295673D02*
X105427907Y-72401739D01*
G75*
G02*
X105321841Y-72401739I-53033J53033D01*
G01*
X104384925Y-71464823D01*
G75*
G02*
X104384925Y-71358757I53033J53033D01*
G01*
X104490991Y-71252691D01*
G75*
G02*
X104597057Y-71252691I53033J-53033D01*
G01*
X105533973Y-72189607D01*
G75*
G02*
X105533973Y-72295673I-53033J-53033D01*
G01*
G37*
G36*
G01*
X105180419Y-72649227D02*
X105074353Y-72755293D01*
G75*
G02*
X104968287Y-72755293I-53033J53033D01*
G01*
X104031371Y-71818377D01*
G75*
G02*
X104031371Y-71712311I53033J53033D01*
G01*
X104137437Y-71606245D01*
G75*
G02*
X104243503Y-71606245I53033J-53033D01*
G01*
X105180419Y-72543161D01*
G75*
G02*
X105180419Y-72649227I-53033J-53033D01*
G01*
G37*
G36*
G01*
X104826866Y-73002780D02*
X104720800Y-73108846D01*
G75*
G02*
X104614734Y-73108846I-53033J53033D01*
G01*
X103677818Y-72171930D01*
G75*
G02*
X103677818Y-72065864I53033J53033D01*
G01*
X103783884Y-71959798D01*
G75*
G02*
X103889950Y-71959798I53033J-53033D01*
G01*
X104826866Y-72896714D01*
G75*
G02*
X104826866Y-73002780I-53033J-53033D01*
G01*
G37*
G36*
G01*
X104473312Y-73356334D02*
X104367246Y-73462400D01*
G75*
G02*
X104261180Y-73462400I-53033J53033D01*
G01*
X103324264Y-72525484D01*
G75*
G02*
X103324264Y-72419418I53033J53033D01*
G01*
X103430330Y-72313352D01*
G75*
G02*
X103536396Y-72313352I53033J-53033D01*
G01*
X104473312Y-73250268D01*
G75*
G02*
X104473312Y-73356334I-53033J-53033D01*
G01*
G37*
D10*
X129960000Y-70120000D03*
X132500000Y-70120000D03*
X129960000Y-67580000D03*
X132500000Y-67580000D03*
X129960000Y-65040000D03*
X132500000Y-65040000D03*
X129960000Y-62500000D03*
D11*
X132500000Y-62500000D03*
G36*
G01*
X75275000Y-74125000D02*
X75275000Y-72875000D01*
G75*
G02*
X75525000Y-72625000I250000J0D01*
G01*
X76450000Y-72625000D01*
G75*
G02*
X76700000Y-72875000I0J-250000D01*
G01*
X76700000Y-74125000D01*
G75*
G02*
X76450000Y-74375000I-250000J0D01*
G01*
X75525000Y-74375000D01*
G75*
G02*
X75275000Y-74125000I0J250000D01*
G01*
G37*
G36*
G01*
X72300000Y-74125000D02*
X72300000Y-72875000D01*
G75*
G02*
X72550000Y-72625000I250000J0D01*
G01*
X73475000Y-72625000D01*
G75*
G02*
X73725000Y-72875000I0J-250000D01*
G01*
X73725000Y-74125000D01*
G75*
G02*
X73475000Y-74375000I-250000J0D01*
G01*
X72550000Y-74375000D01*
G75*
G02*
X72300000Y-74125000I0J250000D01*
G01*
G37*
G36*
G01*
X107637500Y-74375000D02*
X107637500Y-75625000D01*
G75*
G02*
X107387500Y-75875000I-250000J0D01*
G01*
X106462500Y-75875000D01*
G75*
G02*
X106212500Y-75625000I0J250000D01*
G01*
X106212500Y-74375000D01*
G75*
G02*
X106462500Y-74125000I250000J0D01*
G01*
X107387500Y-74125000D01*
G75*
G02*
X107637500Y-74375000I0J-250000D01*
G01*
G37*
G36*
G01*
X110612500Y-74375000D02*
X110612500Y-75625000D01*
G75*
G02*
X110362500Y-75875000I-250000J0D01*
G01*
X109437500Y-75875000D01*
G75*
G02*
X109187500Y-75625000I0J250000D01*
G01*
X109187500Y-74375000D01*
G75*
G02*
X109437500Y-74125000I250000J0D01*
G01*
X110362500Y-74125000D01*
G75*
G02*
X110612500Y-74375000I0J-250000D01*
G01*
G37*
G36*
G01*
X67100000Y-73049999D02*
X67100000Y-73950001D01*
G75*
G02*
X66850001Y-74200000I-249999J0D01*
G01*
X66149999Y-74200000D01*
G75*
G02*
X65900000Y-73950001I0J249999D01*
G01*
X65900000Y-73049999D01*
G75*
G02*
X66149999Y-72800000I249999J0D01*
G01*
X66850001Y-72800000D01*
G75*
G02*
X67100000Y-73049999I0J-249999D01*
G01*
G37*
G36*
G01*
X69100000Y-73049999D02*
X69100000Y-73950001D01*
G75*
G02*
X68850001Y-74200000I-249999J0D01*
G01*
X68149999Y-74200000D01*
G75*
G02*
X67900000Y-73950001I0J249999D01*
G01*
X67900000Y-73049999D01*
G75*
G02*
X68149999Y-72800000I249999J0D01*
G01*
X68850001Y-72800000D01*
G75*
G02*
X69100000Y-73049999I0J-249999D01*
G01*
G37*
D15*
G36*
X119192893Y-65878679D02*
G01*
X117778679Y-67292893D01*
X112210213Y-61724427D01*
X113624427Y-60310213D01*
X119192893Y-65878679D01*
G37*
G36*
X127589787Y-74275573D02*
G01*
X126175573Y-75689787D01*
X120607107Y-70121321D01*
X122021321Y-68707107D01*
X127589787Y-74275573D01*
G37*
D16*
X78300000Y-62350000D03*
X73700000Y-62350000D03*
X76000000Y-62350000D03*
D17*
X76000000Y-68650000D03*
D18*
X82750000Y-75825000D03*
X82750000Y-68175000D03*
X91150000Y-75825000D03*
X91150000Y-68175000D03*
G36*
G01*
X90749999Y-64800000D02*
X91650001Y-64800000D01*
G75*
G02*
X91900000Y-65049999I0J-249999D01*
G01*
X91900000Y-65750001D01*
G75*
G02*
X91650001Y-66000000I-249999J0D01*
G01*
X90749999Y-66000000D01*
G75*
G02*
X90500000Y-65750001I0J249999D01*
G01*
X90500000Y-65049999D01*
G75*
G02*
X90749999Y-64800000I249999J0D01*
G01*
G37*
G36*
G01*
X90749999Y-62800000D02*
X91650001Y-62800000D01*
G75*
G02*
X91900000Y-63049999I0J-249999D01*
G01*
X91900000Y-63750001D01*
G75*
G02*
X91650001Y-64000000I-249999J0D01*
G01*
X90749999Y-64000000D01*
G75*
G02*
X90500000Y-63750001I0J249999D01*
G01*
X90500000Y-63049999D01*
G75*
G02*
X90749999Y-62800000I249999J0D01*
G01*
G37*
G36*
G01*
X114300000Y-75450001D02*
X114300000Y-74549999D01*
G75*
G02*
X114549999Y-74300000I249999J0D01*
G01*
X115250001Y-74300000D01*
G75*
G02*
X115500000Y-74549999I0J-249999D01*
G01*
X115500000Y-75450001D01*
G75*
G02*
X115250001Y-75700000I-249999J0D01*
G01*
X114549999Y-75700000D01*
G75*
G02*
X114300000Y-75450001I0J249999D01*
G01*
G37*
G36*
G01*
X112300000Y-75450001D02*
X112300000Y-74549999D01*
G75*
G02*
X112549999Y-74300000I249999J0D01*
G01*
X113250001Y-74300000D01*
G75*
G02*
X113500000Y-74549999I0J-249999D01*
G01*
X113500000Y-75450001D01*
G75*
G02*
X113250001Y-75700000I-249999J0D01*
G01*
X112549999Y-75700000D01*
G75*
G02*
X112300000Y-75450001I0J249999D01*
G01*
G37*
G36*
G01*
X87850001Y-71400000D02*
X86949999Y-71400000D01*
G75*
G02*
X86700000Y-71150001I0J249999D01*
G01*
X86700000Y-70449999D01*
G75*
G02*
X86949999Y-70200000I249999J0D01*
G01*
X87850001Y-70200000D01*
G75*
G02*
X88100000Y-70449999I0J-249999D01*
G01*
X88100000Y-71150001D01*
G75*
G02*
X87850001Y-71400000I-249999J0D01*
G01*
G37*
G36*
G01*
X87850001Y-73400000D02*
X86949999Y-73400000D01*
G75*
G02*
X86700000Y-73150001I0J249999D01*
G01*
X86700000Y-72449999D01*
G75*
G02*
X86949999Y-72200000I249999J0D01*
G01*
X87850001Y-72200000D01*
G75*
G02*
X88100000Y-72449999I0J-249999D01*
G01*
X88100000Y-73150001D01*
G75*
G02*
X87850001Y-73400000I-249999J0D01*
G01*
G37*
G36*
G01*
X67100000Y-66049999D02*
X67100000Y-66950001D01*
G75*
G02*
X66850001Y-67200000I-249999J0D01*
G01*
X66149999Y-67200000D01*
G75*
G02*
X65900000Y-66950001I0J249999D01*
G01*
X65900000Y-66049999D01*
G75*
G02*
X66149999Y-65800000I249999J0D01*
G01*
X66850001Y-65800000D01*
G75*
G02*
X67100000Y-66049999I0J-249999D01*
G01*
G37*
G36*
G01*
X69100000Y-66049999D02*
X69100000Y-66950001D01*
G75*
G02*
X68850001Y-67200000I-249999J0D01*
G01*
X68149999Y-67200000D01*
G75*
G02*
X67900000Y-66950001I0J249999D01*
G01*
X67900000Y-66049999D01*
G75*
G02*
X68149999Y-65800000I249999J0D01*
G01*
X68850001Y-65800000D01*
G75*
G02*
X69100000Y-66049999I0J-249999D01*
G01*
G37*
G36*
G01*
X67100000Y-69549999D02*
X67100000Y-70450001D01*
G75*
G02*
X66850001Y-70700000I-249999J0D01*
G01*
X66149999Y-70700000D01*
G75*
G02*
X65900000Y-70450001I0J249999D01*
G01*
X65900000Y-69549999D01*
G75*
G02*
X66149999Y-69300000I249999J0D01*
G01*
X66850001Y-69300000D01*
G75*
G02*
X67100000Y-69549999I0J-249999D01*
G01*
G37*
G36*
G01*
X69100000Y-69549999D02*
X69100000Y-70450001D01*
G75*
G02*
X68850001Y-70700000I-249999J0D01*
G01*
X68149999Y-70700000D01*
G75*
G02*
X67900000Y-70450001I0J249999D01*
G01*
X67900000Y-69549999D01*
G75*
G02*
X68149999Y-69300000I249999J0D01*
G01*
X68850001Y-69300000D01*
G75*
G02*
X69100000Y-69549999I0J-249999D01*
G01*
G37*
G36*
G01*
X111938128Y-67602252D02*
X111602252Y-67938128D01*
G75*
G02*
X111266376Y-67938128I-167938J167938D01*
G01*
X110842112Y-67513864D01*
G75*
G02*
X110842112Y-67177988I167938J167938D01*
G01*
X111177988Y-66842112D01*
G75*
G02*
X111513864Y-66842112I167938J-167938D01*
G01*
X111938128Y-67266376D01*
G75*
G02*
X111938128Y-67602252I-167938J-167938D01*
G01*
G37*
G36*
G01*
X113157888Y-68822012D02*
X112822012Y-69157888D01*
G75*
G02*
X112486136Y-69157888I-167938J167938D01*
G01*
X112061872Y-68733624D01*
G75*
G02*
X112061872Y-68397748I167938J167938D01*
G01*
X112397748Y-68061872D01*
G75*
G02*
X112733624Y-68061872I167938J-167938D01*
G01*
X113157888Y-68486136D01*
G75*
G02*
X113157888Y-68822012I-167938J-167938D01*
G01*
G37*
G36*
G01*
X115451992Y-71787868D02*
X115787868Y-71451992D01*
G75*
G02*
X116123744Y-71451992I167938J-167938D01*
G01*
X116548008Y-71876256D01*
G75*
G02*
X116548008Y-72212132I-167938J-167938D01*
G01*
X116212132Y-72548008D01*
G75*
G02*
X115876256Y-72548008I-167938J167938D01*
G01*
X115451992Y-72123744D01*
G75*
G02*
X115451992Y-71787868I167938J167938D01*
G01*
G37*
G36*
G01*
X114232232Y-70568108D02*
X114568108Y-70232232D01*
G75*
G02*
X114903984Y-70232232I167938J-167938D01*
G01*
X115328248Y-70656496D01*
G75*
G02*
X115328248Y-70992372I-167938J-167938D01*
G01*
X114992372Y-71328248D01*
G75*
G02*
X114656496Y-71328248I-167938J167938D01*
G01*
X114232232Y-70903984D01*
G75*
G02*
X114232232Y-70568108I167938J167938D01*
G01*
G37*
G36*
G01*
X102175000Y-75262500D02*
X102175000Y-75737500D01*
G75*
G02*
X101937500Y-75975000I-237500J0D01*
G01*
X101337500Y-75975000D01*
G75*
G02*
X101100000Y-75737500I0J237500D01*
G01*
X101100000Y-75262500D01*
G75*
G02*
X101337500Y-75025000I237500J0D01*
G01*
X101937500Y-75025000D01*
G75*
G02*
X102175000Y-75262500I0J-237500D01*
G01*
G37*
G36*
G01*
X103900000Y-75262500D02*
X103900000Y-75737500D01*
G75*
G02*
X103662500Y-75975000I-237500J0D01*
G01*
X103062500Y-75975000D01*
G75*
G02*
X102825000Y-75737500I0J237500D01*
G01*
X102825000Y-75262500D01*
G75*
G02*
X103062500Y-75025000I237500J0D01*
G01*
X103662500Y-75025000D01*
G75*
G02*
X103900000Y-75262500I0J-237500D01*
G01*
G37*
G36*
G01*
X107961872Y-63397748D02*
X108297748Y-63061872D01*
G75*
G02*
X108633624Y-63061872I167938J-167938D01*
G01*
X109057888Y-63486136D01*
G75*
G02*
X109057888Y-63822012I-167938J-167938D01*
G01*
X108722012Y-64157888D01*
G75*
G02*
X108386136Y-64157888I-167938J167938D01*
G01*
X107961872Y-63733624D01*
G75*
G02*
X107961872Y-63397748I167938J167938D01*
G01*
G37*
G36*
G01*
X106742112Y-62177988D02*
X107077988Y-61842112D01*
G75*
G02*
X107413864Y-61842112I167938J-167938D01*
G01*
X107838128Y-62266376D01*
G75*
G02*
X107838128Y-62602252I-167938J-167938D01*
G01*
X107502252Y-62938128D01*
G75*
G02*
X107166376Y-62938128I-167938J167938D01*
G01*
X106742112Y-62513864D01*
G75*
G02*
X106742112Y-62177988I167938J167938D01*
G01*
G37*
G36*
G01*
X98562499Y-75262500D02*
X98562499Y-75737500D01*
G75*
G02*
X98324999Y-75975000I-237500J0D01*
G01*
X97724999Y-75975000D01*
G75*
G02*
X97487499Y-75737500I0J237500D01*
G01*
X97487499Y-75262500D01*
G75*
G02*
X97724999Y-75025000I237500J0D01*
G01*
X98324999Y-75025000D01*
G75*
G02*
X98562499Y-75262500I0J-237500D01*
G01*
G37*
G36*
G01*
X100287499Y-75262500D02*
X100287499Y-75737500D01*
G75*
G02*
X100049999Y-75975000I-237500J0D01*
G01*
X99449999Y-75975000D01*
G75*
G02*
X99212499Y-75737500I0J237500D01*
G01*
X99212499Y-75262500D01*
G75*
G02*
X99449999Y-75025000I237500J0D01*
G01*
X100049999Y-75025000D01*
G75*
G02*
X100287499Y-75262500I0J-237500D01*
G01*
G37*
G36*
G01*
X96407628Y-63828248D02*
X96071752Y-63492372D01*
G75*
G02*
X96071752Y-63156496I167938J167938D01*
G01*
X96496016Y-62732232D01*
G75*
G02*
X96831892Y-62732232I167938J-167938D01*
G01*
X97167768Y-63068108D01*
G75*
G02*
X97167768Y-63403984I-167938J-167938D01*
G01*
X96743504Y-63828248D01*
G75*
G02*
X96407628Y-63828248I-167938J167938D01*
G01*
G37*
G36*
G01*
X95187868Y-65048008D02*
X94851992Y-64712132D01*
G75*
G02*
X94851992Y-64376256I167938J167938D01*
G01*
X95276256Y-63951992D01*
G75*
G02*
X95612132Y-63951992I167938J-167938D01*
G01*
X95948008Y-64287868D01*
G75*
G02*
X95948008Y-64623744I-167938J-167938D01*
G01*
X95523744Y-65048008D01*
G75*
G02*
X95187868Y-65048008I-167938J167938D01*
G01*
G37*
G36*
G01*
X86237500Y-64312500D02*
X85762500Y-64312500D01*
G75*
G02*
X85525000Y-64075000I0J237500D01*
G01*
X85525000Y-63475000D01*
G75*
G02*
X85762500Y-63237500I237500J0D01*
G01*
X86237500Y-63237500D01*
G75*
G02*
X86475000Y-63475000I0J-237500D01*
G01*
X86475000Y-64075000D01*
G75*
G02*
X86237500Y-64312500I-237500J0D01*
G01*
G37*
G36*
G01*
X86237500Y-66037500D02*
X85762500Y-66037500D01*
G75*
G02*
X85525000Y-65800000I0J237500D01*
G01*
X85525000Y-65200000D01*
G75*
G02*
X85762500Y-64962500I237500J0D01*
G01*
X86237500Y-64962500D01*
G75*
G02*
X86475000Y-65200000I0J-237500D01*
G01*
X86475000Y-65800000D01*
G75*
G02*
X86237500Y-66037500I-237500J0D01*
G01*
G37*
G36*
G01*
X83150002Y-63037500D02*
X81849998Y-63037500D01*
G75*
G02*
X81600000Y-62787502I0J249998D01*
G01*
X81600000Y-61962498D01*
G75*
G02*
X81849998Y-61712500I249998J0D01*
G01*
X83150002Y-61712500D01*
G75*
G02*
X83400000Y-61962498I0J-249998D01*
G01*
X83400000Y-62787502D01*
G75*
G02*
X83150002Y-63037500I-249998J0D01*
G01*
G37*
G36*
G01*
X83150002Y-66162500D02*
X81849998Y-66162500D01*
G75*
G02*
X81600000Y-65912502I0J249998D01*
G01*
X81600000Y-65087498D01*
G75*
G02*
X81849998Y-64837500I249998J0D01*
G01*
X83150002Y-64837500D01*
G75*
G02*
X83400000Y-65087498I0J-249998D01*
G01*
X83400000Y-65912502D01*
G75*
G02*
X83150002Y-66162500I-249998J0D01*
G01*
G37*
G36*
G01*
X68462500Y-63150002D02*
X68462500Y-61849998D01*
G75*
G02*
X68712498Y-61600000I249998J0D01*
G01*
X69537502Y-61600000D01*
G75*
G02*
X69787500Y-61849998I0J-249998D01*
G01*
X69787500Y-63150002D01*
G75*
G02*
X69537502Y-63400000I-249998J0D01*
G01*
X68712498Y-63400000D01*
G75*
G02*
X68462500Y-63150002I0J249998D01*
G01*
G37*
G36*
G01*
X65337500Y-63150002D02*
X65337500Y-61849998D01*
G75*
G02*
X65587498Y-61600000I249998J0D01*
G01*
X66412502Y-61600000D01*
G75*
G02*
X66662500Y-61849998I0J-249998D01*
G01*
X66662500Y-63150002D01*
G75*
G02*
X66412502Y-63400000I-249998J0D01*
G01*
X65587498Y-63400000D01*
G75*
G02*
X65337500Y-63150002I0J249998D01*
G01*
G37*
D15*
G36*
X103492282Y-72278118D02*
G01*
X103492667Y-72278194D01*
X103501054Y-72280738D01*
X103501416Y-72280888D01*
X103509146Y-72285019D01*
X103509472Y-72285237D01*
X103518533Y-72292673D01*
X103518678Y-72292805D01*
X104493859Y-73267986D01*
X104493991Y-73268131D01*
X104501427Y-73277192D01*
X104501645Y-73277518D01*
X104505776Y-73285248D01*
X104505926Y-73285610D01*
X104508470Y-73293997D01*
X104508546Y-73294382D01*
X104509406Y-73303105D01*
X104509406Y-73303497D01*
X104508546Y-73312220D01*
X104508470Y-73312605D01*
X104505926Y-73320992D01*
X104505776Y-73321354D01*
X104501645Y-73329084D01*
X104501427Y-73329410D01*
X104493991Y-73338471D01*
X104493859Y-73338616D01*
X104349528Y-73482947D01*
X104349383Y-73483079D01*
X104340322Y-73490515D01*
X104339996Y-73490733D01*
X104332266Y-73494864D01*
X104331904Y-73495014D01*
X104323517Y-73497558D01*
X104323132Y-73497634D01*
X104314409Y-73498494D01*
X104314017Y-73498494D01*
X104305294Y-73497634D01*
X104304909Y-73497558D01*
X104296522Y-73495014D01*
X104296160Y-73494864D01*
X104288430Y-73490733D01*
X104288104Y-73490515D01*
X104279043Y-73483079D01*
X104278898Y-73482947D01*
X103303717Y-72507766D01*
X103303585Y-72507621D01*
X103296149Y-72498560D01*
X103295931Y-72498234D01*
X103291800Y-72490504D01*
X103291650Y-72490142D01*
X103289106Y-72481755D01*
X103289030Y-72481370D01*
X103288170Y-72472647D01*
X103288170Y-72472451D01*
X103304306Y-72472451D01*
X103305708Y-72486688D01*
X103309863Y-72500383D01*
X103316608Y-72513003D01*
X103325751Y-72524143D01*
X104262521Y-73460913D01*
X104273661Y-73470056D01*
X104286281Y-73476801D01*
X104299976Y-73480956D01*
X104314213Y-73482358D01*
X104328450Y-73480956D01*
X104342145Y-73476801D01*
X104354765Y-73470056D01*
X104365905Y-73460913D01*
X104471825Y-73354993D01*
X104480968Y-73343853D01*
X104487713Y-73331233D01*
X104491868Y-73317538D01*
X104493270Y-73303301D01*
X104491868Y-73289064D01*
X104487713Y-73275369D01*
X104480968Y-73262749D01*
X104471825Y-73251609D01*
X103535055Y-72314839D01*
X103523915Y-72305696D01*
X103511295Y-72298951D01*
X103497600Y-72294796D01*
X103483363Y-72293394D01*
X103469126Y-72294796D01*
X103455431Y-72298951D01*
X103442811Y-72305696D01*
X103431671Y-72314839D01*
X103325751Y-72420759D01*
X103316608Y-72431899D01*
X103309863Y-72444519D01*
X103305708Y-72458214D01*
X103304306Y-72472451D01*
X103288170Y-72472451D01*
X103288170Y-72472255D01*
X103289030Y-72463532D01*
X103289106Y-72463147D01*
X103291650Y-72454760D01*
X103291800Y-72454398D01*
X103295931Y-72446668D01*
X103296149Y-72446342D01*
X103303585Y-72437281D01*
X103303717Y-72437136D01*
X103448048Y-72292805D01*
X103448193Y-72292673D01*
X103457254Y-72285237D01*
X103457580Y-72285019D01*
X103465310Y-72280888D01*
X103465672Y-72280738D01*
X103474059Y-72278194D01*
X103474444Y-72278118D01*
X103483167Y-72277258D01*
X103483559Y-72277258D01*
X103492282Y-72278118D01*
G37*
G36*
X102325556Y-72278118D02*
G01*
X102325941Y-72278194D01*
X102334328Y-72280738D01*
X102334690Y-72280888D01*
X102342420Y-72285019D01*
X102342746Y-72285237D01*
X102351807Y-72292673D01*
X102351952Y-72292805D01*
X102496283Y-72437136D01*
X102496415Y-72437281D01*
X102503851Y-72446342D01*
X102504069Y-72446668D01*
X102508200Y-72454398D01*
X102508350Y-72454760D01*
X102510894Y-72463147D01*
X102510970Y-72463532D01*
X102511830Y-72472255D01*
X102511830Y-72472647D01*
X102510970Y-72481370D01*
X102510894Y-72481755D01*
X102508350Y-72490142D01*
X102508200Y-72490504D01*
X102504069Y-72498234D01*
X102503851Y-72498560D01*
X102496415Y-72507621D01*
X102496283Y-72507766D01*
X101521102Y-73482947D01*
X101520957Y-73483079D01*
X101511896Y-73490515D01*
X101511570Y-73490733D01*
X101503840Y-73494864D01*
X101503478Y-73495014D01*
X101495091Y-73497558D01*
X101494706Y-73497634D01*
X101485983Y-73498494D01*
X101485591Y-73498494D01*
X101476868Y-73497634D01*
X101476483Y-73497558D01*
X101468096Y-73495014D01*
X101467734Y-73494864D01*
X101460004Y-73490733D01*
X101459678Y-73490515D01*
X101450617Y-73483079D01*
X101450472Y-73482947D01*
X101306141Y-73338616D01*
X101306009Y-73338471D01*
X101298573Y-73329410D01*
X101298355Y-73329084D01*
X101294224Y-73321354D01*
X101294074Y-73320992D01*
X101291530Y-73312605D01*
X101291454Y-73312220D01*
X101290594Y-73303497D01*
X101290594Y-73303301D01*
X101306730Y-73303301D01*
X101308132Y-73317538D01*
X101312287Y-73331233D01*
X101319032Y-73343853D01*
X101328175Y-73354993D01*
X101434095Y-73460913D01*
X101445235Y-73470056D01*
X101457855Y-73476801D01*
X101471550Y-73480956D01*
X101485787Y-73482358D01*
X101500024Y-73480956D01*
X101513719Y-73476801D01*
X101526339Y-73470056D01*
X101537479Y-73460913D01*
X102474249Y-72524143D01*
X102483392Y-72513003D01*
X102490137Y-72500383D01*
X102494292Y-72486688D01*
X102495694Y-72472451D01*
X102494292Y-72458214D01*
X102490137Y-72444519D01*
X102483392Y-72431899D01*
X102474249Y-72420759D01*
X102368329Y-72314839D01*
X102357189Y-72305696D01*
X102344569Y-72298951D01*
X102330874Y-72294796D01*
X102316637Y-72293394D01*
X102302400Y-72294796D01*
X102288705Y-72298951D01*
X102276085Y-72305696D01*
X102264945Y-72314839D01*
X101328175Y-73251609D01*
X101319032Y-73262749D01*
X101312287Y-73275369D01*
X101308132Y-73289064D01*
X101306730Y-73303301D01*
X101290594Y-73303301D01*
X101290594Y-73303105D01*
X101291454Y-73294382D01*
X101291530Y-73293997D01*
X101294074Y-73285610D01*
X101294224Y-73285248D01*
X101298355Y-73277518D01*
X101298573Y-73277192D01*
X101306009Y-73268131D01*
X101306141Y-73267986D01*
X102281322Y-72292805D01*
X102281467Y-72292673D01*
X102290528Y-72285237D01*
X102290854Y-72285019D01*
X102298584Y-72280888D01*
X102298946Y-72280738D01*
X102307333Y-72278194D01*
X102307718Y-72278118D01*
X102316441Y-72277258D01*
X102316833Y-72277258D01*
X102325556Y-72278118D01*
G37*
G36*
X101972002Y-71924564D02*
G01*
X101972387Y-71924640D01*
X101980774Y-71927184D01*
X101981136Y-71927334D01*
X101988866Y-71931465D01*
X101989192Y-71931683D01*
X101998253Y-71939119D01*
X101998398Y-71939251D01*
X102142729Y-72083582D01*
X102142861Y-72083727D01*
X102150297Y-72092788D01*
X102150515Y-72093114D01*
X102154646Y-72100844D01*
X102154796Y-72101206D01*
X102157340Y-72109593D01*
X102157416Y-72109978D01*
X102158276Y-72118701D01*
X102158276Y-72119093D01*
X102157416Y-72127816D01*
X102157340Y-72128201D01*
X102154796Y-72136588D01*
X102154646Y-72136950D01*
X102150515Y-72144680D01*
X102150297Y-72145006D01*
X102142861Y-72154067D01*
X102142729Y-72154212D01*
X101167548Y-73129393D01*
X101167403Y-73129525D01*
X101158342Y-73136961D01*
X101158016Y-73137179D01*
X101150286Y-73141310D01*
X101149924Y-73141460D01*
X101141537Y-73144004D01*
X101141152Y-73144080D01*
X101132429Y-73144940D01*
X101132037Y-73144940D01*
X101123314Y-73144080D01*
X101122929Y-73144004D01*
X101114542Y-73141460D01*
X101114180Y-73141310D01*
X101106450Y-73137179D01*
X101106124Y-73136961D01*
X101097063Y-73129525D01*
X101096918Y-73129393D01*
X100952587Y-72985062D01*
X100952455Y-72984917D01*
X100945019Y-72975856D01*
X100944801Y-72975530D01*
X100940670Y-72967800D01*
X100940520Y-72967438D01*
X100937976Y-72959051D01*
X100937900Y-72958666D01*
X100937040Y-72949943D01*
X100937040Y-72949747D01*
X100953176Y-72949747D01*
X100954578Y-72963984D01*
X100958733Y-72977679D01*
X100965478Y-72990299D01*
X100974621Y-73001439D01*
X101080541Y-73107359D01*
X101091681Y-73116502D01*
X101104301Y-73123247D01*
X101117996Y-73127402D01*
X101132233Y-73128804D01*
X101146470Y-73127402D01*
X101160165Y-73123247D01*
X101172785Y-73116502D01*
X101183925Y-73107359D01*
X102120695Y-72170589D01*
X102129838Y-72159449D01*
X102136583Y-72146829D01*
X102140738Y-72133134D01*
X102142140Y-72118897D01*
X102140738Y-72104660D01*
X102136583Y-72090965D01*
X102129838Y-72078345D01*
X102120695Y-72067205D01*
X102014775Y-71961285D01*
X102003635Y-71952142D01*
X101991015Y-71945397D01*
X101977320Y-71941242D01*
X101963083Y-71939840D01*
X101948846Y-71941242D01*
X101935151Y-71945397D01*
X101922531Y-71952142D01*
X101911391Y-71961285D01*
X100974621Y-72898055D01*
X100965478Y-72909195D01*
X100958733Y-72921815D01*
X100954578Y-72935510D01*
X100953176Y-72949747D01*
X100937040Y-72949747D01*
X100937040Y-72949551D01*
X100937900Y-72940828D01*
X100937976Y-72940443D01*
X100940520Y-72932056D01*
X100940670Y-72931694D01*
X100944801Y-72923964D01*
X100945019Y-72923638D01*
X100952455Y-72914577D01*
X100952587Y-72914432D01*
X101927768Y-71939251D01*
X101927913Y-71939119D01*
X101936974Y-71931683D01*
X101937300Y-71931465D01*
X101945030Y-71927334D01*
X101945392Y-71927184D01*
X101953779Y-71924640D01*
X101954164Y-71924564D01*
X101962887Y-71923704D01*
X101963279Y-71923704D01*
X101972002Y-71924564D01*
G37*
G36*
X103845836Y-71924564D02*
G01*
X103846221Y-71924640D01*
X103854608Y-71927184D01*
X103854970Y-71927334D01*
X103862700Y-71931465D01*
X103863026Y-71931683D01*
X103872087Y-71939119D01*
X103872232Y-71939251D01*
X104847413Y-72914432D01*
X104847545Y-72914577D01*
X104854981Y-72923638D01*
X104855199Y-72923964D01*
X104859330Y-72931694D01*
X104859480Y-72932056D01*
X104862024Y-72940443D01*
X104862100Y-72940828D01*
X104862960Y-72949551D01*
X104862960Y-72949943D01*
X104862100Y-72958666D01*
X104862024Y-72959051D01*
X104859480Y-72967438D01*
X104859330Y-72967800D01*
X104855199Y-72975530D01*
X104854981Y-72975856D01*
X104847545Y-72984917D01*
X104847413Y-72985062D01*
X104703082Y-73129393D01*
X104702937Y-73129525D01*
X104693876Y-73136961D01*
X104693550Y-73137179D01*
X104685820Y-73141310D01*
X104685458Y-73141460D01*
X104677071Y-73144004D01*
X104676686Y-73144080D01*
X104667963Y-73144940D01*
X104667571Y-73144940D01*
X104658848Y-73144080D01*
X104658463Y-73144004D01*
X104650076Y-73141460D01*
X104649714Y-73141310D01*
X104641984Y-73137179D01*
X104641658Y-73136961D01*
X104632597Y-73129525D01*
X104632452Y-73129393D01*
X103657271Y-72154212D01*
X103657139Y-72154067D01*
X103649703Y-72145006D01*
X103649485Y-72144680D01*
X103645354Y-72136950D01*
X103645204Y-72136588D01*
X103642660Y-72128201D01*
X103642584Y-72127816D01*
X103641724Y-72119093D01*
X103641724Y-72118897D01*
X103657860Y-72118897D01*
X103659262Y-72133134D01*
X103663417Y-72146829D01*
X103670162Y-72159449D01*
X103679305Y-72170589D01*
X104616075Y-73107359D01*
X104627215Y-73116502D01*
X104639835Y-73123247D01*
X104653530Y-73127402D01*
X104667767Y-73128804D01*
X104682004Y-73127402D01*
X104695699Y-73123247D01*
X104708319Y-73116502D01*
X104719459Y-73107359D01*
X104825379Y-73001439D01*
X104834522Y-72990299D01*
X104841267Y-72977679D01*
X104845422Y-72963984D01*
X104846824Y-72949747D01*
X104845422Y-72935510D01*
X104841267Y-72921815D01*
X104834522Y-72909195D01*
X104825379Y-72898055D01*
X103888609Y-71961285D01*
X103877469Y-71952142D01*
X103864849Y-71945397D01*
X103851154Y-71941242D01*
X103836917Y-71939840D01*
X103822680Y-71941242D01*
X103808985Y-71945397D01*
X103796365Y-71952142D01*
X103785225Y-71961285D01*
X103679305Y-72067205D01*
X103670162Y-72078345D01*
X103663417Y-72090965D01*
X103659262Y-72104660D01*
X103657860Y-72118897D01*
X103641724Y-72118897D01*
X103641724Y-72118701D01*
X103642584Y-72109978D01*
X103642660Y-72109593D01*
X103645204Y-72101206D01*
X103645354Y-72100844D01*
X103649485Y-72093114D01*
X103649703Y-72092788D01*
X103657139Y-72083727D01*
X103657271Y-72083582D01*
X103801602Y-71939251D01*
X103801747Y-71939119D01*
X103810808Y-71931683D01*
X103811134Y-71931465D01*
X103818864Y-71927334D01*
X103819226Y-71927184D01*
X103827613Y-71924640D01*
X103827998Y-71924564D01*
X103836721Y-71923704D01*
X103837113Y-71923704D01*
X103845836Y-71924564D01*
G37*
G36*
X104199389Y-71571011D02*
G01*
X104199774Y-71571087D01*
X104208161Y-71573631D01*
X104208523Y-71573781D01*
X104216253Y-71577912D01*
X104216579Y-71578130D01*
X104225640Y-71585566D01*
X104225785Y-71585698D01*
X105200966Y-72560879D01*
X105201098Y-72561024D01*
X105208534Y-72570085D01*
X105208752Y-72570411D01*
X105212883Y-72578141D01*
X105213033Y-72578503D01*
X105215577Y-72586890D01*
X105215653Y-72587275D01*
X105216513Y-72595998D01*
X105216513Y-72596390D01*
X105215653Y-72605113D01*
X105215577Y-72605498D01*
X105213033Y-72613885D01*
X105212883Y-72614247D01*
X105208752Y-72621977D01*
X105208534Y-72622303D01*
X105201098Y-72631364D01*
X105200966Y-72631509D01*
X105056635Y-72775840D01*
X105056490Y-72775972D01*
X105047429Y-72783408D01*
X105047103Y-72783626D01*
X105039373Y-72787757D01*
X105039011Y-72787907D01*
X105030624Y-72790451D01*
X105030239Y-72790527D01*
X105021516Y-72791387D01*
X105021124Y-72791387D01*
X105012401Y-72790527D01*
X105012016Y-72790451D01*
X105003629Y-72787907D01*
X105003267Y-72787757D01*
X104995537Y-72783626D01*
X104995211Y-72783408D01*
X104986150Y-72775972D01*
X104986005Y-72775840D01*
X104010824Y-71800659D01*
X104010692Y-71800514D01*
X104003256Y-71791453D01*
X104003038Y-71791127D01*
X103998907Y-71783397D01*
X103998757Y-71783035D01*
X103996213Y-71774648D01*
X103996137Y-71774263D01*
X103995277Y-71765540D01*
X103995277Y-71765344D01*
X104011413Y-71765344D01*
X104012815Y-71779581D01*
X104016970Y-71793276D01*
X104023715Y-71805896D01*
X104032858Y-71817036D01*
X104969628Y-72753806D01*
X104980768Y-72762949D01*
X104993388Y-72769694D01*
X105007083Y-72773849D01*
X105021320Y-72775251D01*
X105035557Y-72773849D01*
X105049252Y-72769694D01*
X105061872Y-72762949D01*
X105073012Y-72753806D01*
X105178932Y-72647886D01*
X105188075Y-72636746D01*
X105194820Y-72624126D01*
X105198975Y-72610431D01*
X105200377Y-72596194D01*
X105198975Y-72581957D01*
X105194820Y-72568262D01*
X105188075Y-72555642D01*
X105178932Y-72544502D01*
X104242162Y-71607732D01*
X104231022Y-71598589D01*
X104218402Y-71591844D01*
X104204707Y-71587689D01*
X104190470Y-71586287D01*
X104176233Y-71587689D01*
X104162538Y-71591844D01*
X104149918Y-71598589D01*
X104138778Y-71607732D01*
X104032858Y-71713652D01*
X104023715Y-71724792D01*
X104016970Y-71737412D01*
X104012815Y-71751107D01*
X104011413Y-71765344D01*
X103995277Y-71765344D01*
X103995277Y-71765148D01*
X103996137Y-71756425D01*
X103996213Y-71756040D01*
X103998757Y-71747653D01*
X103998907Y-71747291D01*
X104003038Y-71739561D01*
X104003256Y-71739235D01*
X104010692Y-71730174D01*
X104010824Y-71730029D01*
X104155155Y-71585698D01*
X104155300Y-71585566D01*
X104164361Y-71578130D01*
X104164687Y-71577912D01*
X104172417Y-71573781D01*
X104172779Y-71573631D01*
X104181166Y-71571087D01*
X104181551Y-71571011D01*
X104190274Y-71570151D01*
X104190666Y-71570151D01*
X104199389Y-71571011D01*
G37*
G36*
X101618449Y-71571011D02*
G01*
X101618834Y-71571087D01*
X101627221Y-71573631D01*
X101627583Y-71573781D01*
X101635313Y-71577912D01*
X101635639Y-71578130D01*
X101644700Y-71585566D01*
X101644845Y-71585698D01*
X101789176Y-71730029D01*
X101789308Y-71730174D01*
X101796744Y-71739235D01*
X101796962Y-71739561D01*
X101801093Y-71747291D01*
X101801243Y-71747653D01*
X101803787Y-71756040D01*
X101803863Y-71756425D01*
X101804723Y-71765148D01*
X101804723Y-71765540D01*
X101803863Y-71774263D01*
X101803787Y-71774648D01*
X101801243Y-71783035D01*
X101801093Y-71783397D01*
X101796962Y-71791127D01*
X101796744Y-71791453D01*
X101789308Y-71800514D01*
X101789176Y-71800659D01*
X100813995Y-72775840D01*
X100813850Y-72775972D01*
X100804789Y-72783408D01*
X100804463Y-72783626D01*
X100796733Y-72787757D01*
X100796371Y-72787907D01*
X100787984Y-72790451D01*
X100787599Y-72790527D01*
X100778876Y-72791387D01*
X100778484Y-72791387D01*
X100769761Y-72790527D01*
X100769376Y-72790451D01*
X100760989Y-72787907D01*
X100760627Y-72787757D01*
X100752897Y-72783626D01*
X100752571Y-72783408D01*
X100743510Y-72775972D01*
X100743365Y-72775840D01*
X100599034Y-72631509D01*
X100598902Y-72631364D01*
X100591466Y-72622303D01*
X100591248Y-72621977D01*
X100587117Y-72614247D01*
X100586967Y-72613885D01*
X100584423Y-72605498D01*
X100584347Y-72605113D01*
X100583487Y-72596390D01*
X100583487Y-72596194D01*
X100599623Y-72596194D01*
X100601025Y-72610431D01*
X100605180Y-72624126D01*
X100611925Y-72636746D01*
X100621068Y-72647886D01*
X100726988Y-72753806D01*
X100738128Y-72762949D01*
X100750748Y-72769694D01*
X100764443Y-72773849D01*
X100778680Y-72775251D01*
X100792917Y-72773849D01*
X100806612Y-72769694D01*
X100819232Y-72762949D01*
X100830372Y-72753806D01*
X101767142Y-71817036D01*
X101776285Y-71805896D01*
X101783030Y-71793276D01*
X101787185Y-71779581D01*
X101788587Y-71765344D01*
X101787185Y-71751107D01*
X101783030Y-71737412D01*
X101776285Y-71724792D01*
X101767142Y-71713652D01*
X101661222Y-71607732D01*
X101650082Y-71598589D01*
X101637462Y-71591844D01*
X101623767Y-71587689D01*
X101609530Y-71586287D01*
X101595293Y-71587689D01*
X101581598Y-71591844D01*
X101568978Y-71598589D01*
X101557838Y-71607732D01*
X100621068Y-72544502D01*
X100611925Y-72555642D01*
X100605180Y-72568262D01*
X100601025Y-72581957D01*
X100599623Y-72596194D01*
X100583487Y-72596194D01*
X100583487Y-72595998D01*
X100584347Y-72587275D01*
X100584423Y-72586890D01*
X100586967Y-72578503D01*
X100587117Y-72578141D01*
X100591248Y-72570411D01*
X100591466Y-72570085D01*
X100598902Y-72561024D01*
X100599034Y-72560879D01*
X101574215Y-71585698D01*
X101574360Y-71585566D01*
X101583421Y-71578130D01*
X101583747Y-71577912D01*
X101591477Y-71573781D01*
X101591839Y-71573631D01*
X101600226Y-71571087D01*
X101600611Y-71571011D01*
X101609334Y-71570151D01*
X101609726Y-71570151D01*
X101618449Y-71571011D01*
G37*
G36*
X101264895Y-71217457D02*
G01*
X101265280Y-71217533D01*
X101273667Y-71220077D01*
X101274029Y-71220227D01*
X101281759Y-71224358D01*
X101282085Y-71224576D01*
X101291146Y-71232012D01*
X101291291Y-71232144D01*
X101435622Y-71376475D01*
X101435754Y-71376620D01*
X101443190Y-71385681D01*
X101443408Y-71386007D01*
X101447539Y-71393737D01*
X101447689Y-71394099D01*
X101450233Y-71402486D01*
X101450309Y-71402871D01*
X101451169Y-71411594D01*
X101451169Y-71411986D01*
X101450309Y-71420709D01*
X101450233Y-71421094D01*
X101447689Y-71429481D01*
X101447539Y-71429843D01*
X101443408Y-71437573D01*
X101443190Y-71437899D01*
X101435754Y-71446960D01*
X101435622Y-71447105D01*
X100460441Y-72422286D01*
X100460296Y-72422418D01*
X100451235Y-72429854D01*
X100450909Y-72430072D01*
X100443179Y-72434203D01*
X100442817Y-72434353D01*
X100434430Y-72436897D01*
X100434045Y-72436973D01*
X100425322Y-72437833D01*
X100424930Y-72437833D01*
X100416207Y-72436973D01*
X100415822Y-72436897D01*
X100407435Y-72434353D01*
X100407073Y-72434203D01*
X100399343Y-72430072D01*
X100399017Y-72429854D01*
X100389956Y-72422418D01*
X100389811Y-72422286D01*
X100245480Y-72277955D01*
X100245348Y-72277810D01*
X100237912Y-72268749D01*
X100237694Y-72268423D01*
X100233563Y-72260693D01*
X100233413Y-72260331D01*
X100230869Y-72251944D01*
X100230793Y-72251559D01*
X100229933Y-72242836D01*
X100229933Y-72242640D01*
X100246069Y-72242640D01*
X100247471Y-72256877D01*
X100251626Y-72270572D01*
X100258371Y-72283192D01*
X100267514Y-72294332D01*
X100373434Y-72400252D01*
X100384574Y-72409395D01*
X100397194Y-72416140D01*
X100410889Y-72420295D01*
X100425126Y-72421697D01*
X100439363Y-72420295D01*
X100453058Y-72416140D01*
X100465678Y-72409395D01*
X100476818Y-72400252D01*
X101413588Y-71463482D01*
X101422731Y-71452342D01*
X101429476Y-71439722D01*
X101433631Y-71426027D01*
X101435033Y-71411790D01*
X101433631Y-71397553D01*
X101429476Y-71383858D01*
X101422731Y-71371238D01*
X101413588Y-71360098D01*
X101307668Y-71254178D01*
X101296528Y-71245035D01*
X101283908Y-71238290D01*
X101270213Y-71234135D01*
X101255976Y-71232733D01*
X101241739Y-71234135D01*
X101228044Y-71238290D01*
X101215424Y-71245035D01*
X101204284Y-71254178D01*
X100267514Y-72190948D01*
X100258371Y-72202088D01*
X100251626Y-72214708D01*
X100247471Y-72228403D01*
X100246069Y-72242640D01*
X100229933Y-72242640D01*
X100229933Y-72242444D01*
X100230793Y-72233721D01*
X100230869Y-72233336D01*
X100233413Y-72224949D01*
X100233563Y-72224587D01*
X100237694Y-72216857D01*
X100237912Y-72216531D01*
X100245348Y-72207470D01*
X100245480Y-72207325D01*
X101220661Y-71232144D01*
X101220806Y-71232012D01*
X101229867Y-71224576D01*
X101230193Y-71224358D01*
X101237923Y-71220227D01*
X101238285Y-71220077D01*
X101246672Y-71217533D01*
X101247057Y-71217457D01*
X101255780Y-71216597D01*
X101256172Y-71216597D01*
X101264895Y-71217457D01*
G37*
G36*
X104552943Y-71217457D02*
G01*
X104553328Y-71217533D01*
X104561715Y-71220077D01*
X104562077Y-71220227D01*
X104569807Y-71224358D01*
X104570133Y-71224576D01*
X104579194Y-71232012D01*
X104579339Y-71232144D01*
X105554520Y-72207325D01*
X105554652Y-72207470D01*
X105562088Y-72216531D01*
X105562306Y-72216857D01*
X105566437Y-72224587D01*
X105566587Y-72224949D01*
X105569131Y-72233336D01*
X105569207Y-72233721D01*
X105570067Y-72242444D01*
X105570067Y-72242836D01*
X105569207Y-72251559D01*
X105569131Y-72251944D01*
X105566587Y-72260331D01*
X105566437Y-72260693D01*
X105562306Y-72268423D01*
X105562088Y-72268749D01*
X105554652Y-72277810D01*
X105554520Y-72277955D01*
X105410189Y-72422286D01*
X105410044Y-72422418D01*
X105400983Y-72429854D01*
X105400657Y-72430072D01*
X105392927Y-72434203D01*
X105392565Y-72434353D01*
X105384178Y-72436897D01*
X105383793Y-72436973D01*
X105375070Y-72437833D01*
X105374678Y-72437833D01*
X105365955Y-72436973D01*
X105365570Y-72436897D01*
X105357183Y-72434353D01*
X105356821Y-72434203D01*
X105349091Y-72430072D01*
X105348765Y-72429854D01*
X105339704Y-72422418D01*
X105339559Y-72422286D01*
X104364378Y-71447105D01*
X104364246Y-71446960D01*
X104356810Y-71437899D01*
X104356592Y-71437573D01*
X104352461Y-71429843D01*
X104352311Y-71429481D01*
X104349767Y-71421094D01*
X104349691Y-71420709D01*
X104348831Y-71411986D01*
X104348831Y-71411790D01*
X104364967Y-71411790D01*
X104366369Y-71426027D01*
X104370524Y-71439722D01*
X104377269Y-71452342D01*
X104386412Y-71463482D01*
X105323182Y-72400252D01*
X105334322Y-72409395D01*
X105346942Y-72416140D01*
X105360637Y-72420295D01*
X105374874Y-72421697D01*
X105389111Y-72420295D01*
X105402806Y-72416140D01*
X105415426Y-72409395D01*
X105426566Y-72400252D01*
X105532486Y-72294332D01*
X105541629Y-72283192D01*
X105548374Y-72270572D01*
X105552529Y-72256877D01*
X105553931Y-72242640D01*
X105552529Y-72228403D01*
X105548374Y-72214708D01*
X105541629Y-72202088D01*
X105532486Y-72190948D01*
X104595716Y-71254178D01*
X104584576Y-71245035D01*
X104571956Y-71238290D01*
X104558261Y-71234135D01*
X104544024Y-71232733D01*
X104529787Y-71234135D01*
X104516092Y-71238290D01*
X104503472Y-71245035D01*
X104492332Y-71254178D01*
X104386412Y-71360098D01*
X104377269Y-71371238D01*
X104370524Y-71383858D01*
X104366369Y-71397553D01*
X104364967Y-71411790D01*
X104348831Y-71411790D01*
X104348831Y-71411594D01*
X104349691Y-71402871D01*
X104349767Y-71402486D01*
X104352311Y-71394099D01*
X104352461Y-71393737D01*
X104356592Y-71386007D01*
X104356810Y-71385681D01*
X104364246Y-71376620D01*
X104364378Y-71376475D01*
X104508709Y-71232144D01*
X104508854Y-71232012D01*
X104517915Y-71224576D01*
X104518241Y-71224358D01*
X104525971Y-71220227D01*
X104526333Y-71220077D01*
X104534720Y-71217533D01*
X104535105Y-71217457D01*
X104543828Y-71216597D01*
X104544220Y-71216597D01*
X104552943Y-71217457D01*
G37*
G36*
X100911342Y-70863904D02*
G01*
X100911727Y-70863980D01*
X100920114Y-70866524D01*
X100920476Y-70866674D01*
X100928206Y-70870805D01*
X100928532Y-70871023D01*
X100937593Y-70878459D01*
X100937738Y-70878591D01*
X101082069Y-71022922D01*
X101082201Y-71023067D01*
X101089637Y-71032128D01*
X101089855Y-71032454D01*
X101093986Y-71040184D01*
X101094136Y-71040546D01*
X101096680Y-71048933D01*
X101096756Y-71049318D01*
X101097616Y-71058041D01*
X101097616Y-71058433D01*
X101096756Y-71067156D01*
X101096680Y-71067541D01*
X101094136Y-71075928D01*
X101093986Y-71076290D01*
X101089855Y-71084020D01*
X101089637Y-71084346D01*
X101082201Y-71093407D01*
X101082069Y-71093552D01*
X100106888Y-72068733D01*
X100106743Y-72068865D01*
X100097682Y-72076301D01*
X100097356Y-72076519D01*
X100089626Y-72080650D01*
X100089264Y-72080800D01*
X100080877Y-72083344D01*
X100080492Y-72083420D01*
X100071769Y-72084280D01*
X100071377Y-72084280D01*
X100062654Y-72083420D01*
X100062269Y-72083344D01*
X100053882Y-72080800D01*
X100053520Y-72080650D01*
X100045790Y-72076519D01*
X100045464Y-72076301D01*
X100036403Y-72068865D01*
X100036258Y-72068733D01*
X99891927Y-71924402D01*
X99891795Y-71924257D01*
X99884359Y-71915196D01*
X99884141Y-71914870D01*
X99880010Y-71907140D01*
X99879860Y-71906778D01*
X99877316Y-71898391D01*
X99877240Y-71898006D01*
X99876380Y-71889283D01*
X99876380Y-71889087D01*
X99892516Y-71889087D01*
X99893918Y-71903324D01*
X99898073Y-71917019D01*
X99904818Y-71929639D01*
X99913961Y-71940779D01*
X100019881Y-72046699D01*
X100031021Y-72055842D01*
X100043641Y-72062587D01*
X100057336Y-72066742D01*
X100071573Y-72068144D01*
X100085810Y-72066742D01*
X100099505Y-72062587D01*
X100112125Y-72055842D01*
X100123265Y-72046699D01*
X101060035Y-71109929D01*
X101069178Y-71098789D01*
X101075923Y-71086169D01*
X101080078Y-71072474D01*
X101081480Y-71058237D01*
X101080078Y-71044000D01*
X101075923Y-71030305D01*
X101069178Y-71017685D01*
X101060035Y-71006545D01*
X100954115Y-70900625D01*
X100942975Y-70891482D01*
X100930355Y-70884737D01*
X100916660Y-70880582D01*
X100902423Y-70879180D01*
X100888186Y-70880582D01*
X100874491Y-70884737D01*
X100861871Y-70891482D01*
X100850731Y-70900625D01*
X99913961Y-71837395D01*
X99904818Y-71848535D01*
X99898073Y-71861155D01*
X99893918Y-71874850D01*
X99892516Y-71889087D01*
X99876380Y-71889087D01*
X99876380Y-71888891D01*
X99877240Y-71880168D01*
X99877316Y-71879783D01*
X99879860Y-71871396D01*
X99880010Y-71871034D01*
X99884141Y-71863304D01*
X99884359Y-71862978D01*
X99891795Y-71853917D01*
X99891927Y-71853772D01*
X100867108Y-70878591D01*
X100867253Y-70878459D01*
X100876314Y-70871023D01*
X100876640Y-70870805D01*
X100884370Y-70866674D01*
X100884732Y-70866524D01*
X100893119Y-70863980D01*
X100893504Y-70863904D01*
X100902227Y-70863044D01*
X100902619Y-70863044D01*
X100911342Y-70863904D01*
G37*
G36*
X104906496Y-70863904D02*
G01*
X104906881Y-70863980D01*
X104915268Y-70866524D01*
X104915630Y-70866674D01*
X104923360Y-70870805D01*
X104923686Y-70871023D01*
X104932747Y-70878459D01*
X104932892Y-70878591D01*
X105908073Y-71853772D01*
X105908205Y-71853917D01*
X105915641Y-71862978D01*
X105915859Y-71863304D01*
X105919990Y-71871034D01*
X105920140Y-71871396D01*
X105922684Y-71879783D01*
X105922760Y-71880168D01*
X105923620Y-71888891D01*
X105923620Y-71889283D01*
X105922760Y-71898006D01*
X105922684Y-71898391D01*
X105920140Y-71906778D01*
X105919990Y-71907140D01*
X105915859Y-71914870D01*
X105915641Y-71915196D01*
X105908205Y-71924257D01*
X105908073Y-71924402D01*
X105763742Y-72068733D01*
X105763597Y-72068865D01*
X105754536Y-72076301D01*
X105754210Y-72076519D01*
X105746480Y-72080650D01*
X105746118Y-72080800D01*
X105737731Y-72083344D01*
X105737346Y-72083420D01*
X105728623Y-72084280D01*
X105728231Y-72084280D01*
X105719508Y-72083420D01*
X105719123Y-72083344D01*
X105710736Y-72080800D01*
X105710374Y-72080650D01*
X105702644Y-72076519D01*
X105702318Y-72076301D01*
X105693257Y-72068865D01*
X105693112Y-72068733D01*
X104717931Y-71093552D01*
X104717799Y-71093407D01*
X104710363Y-71084346D01*
X104710145Y-71084020D01*
X104706014Y-71076290D01*
X104705864Y-71075928D01*
X104703320Y-71067541D01*
X104703244Y-71067156D01*
X104702384Y-71058433D01*
X104702384Y-71058237D01*
X104718520Y-71058237D01*
X104719922Y-71072474D01*
X104724077Y-71086169D01*
X104730822Y-71098789D01*
X104739965Y-71109929D01*
X105676735Y-72046699D01*
X105687875Y-72055842D01*
X105700495Y-72062587D01*
X105714190Y-72066742D01*
X105728427Y-72068144D01*
X105742664Y-72066742D01*
X105756359Y-72062587D01*
X105768979Y-72055842D01*
X105780119Y-72046699D01*
X105886039Y-71940779D01*
X105895182Y-71929639D01*
X105901927Y-71917019D01*
X105906082Y-71903324D01*
X105907484Y-71889087D01*
X105906082Y-71874850D01*
X105901927Y-71861155D01*
X105895182Y-71848535D01*
X105886039Y-71837395D01*
X104949269Y-70900625D01*
X104938129Y-70891482D01*
X104925509Y-70884737D01*
X104911814Y-70880582D01*
X104897577Y-70879180D01*
X104883340Y-70880582D01*
X104869645Y-70884737D01*
X104857025Y-70891482D01*
X104845885Y-70900625D01*
X104739965Y-71006545D01*
X104730822Y-71017685D01*
X104724077Y-71030305D01*
X104719922Y-71044000D01*
X104718520Y-71058237D01*
X104702384Y-71058237D01*
X104702384Y-71058041D01*
X104703244Y-71049318D01*
X104703320Y-71048933D01*
X104705864Y-71040546D01*
X104706014Y-71040184D01*
X104710145Y-71032454D01*
X104710363Y-71032128D01*
X104717799Y-71023067D01*
X104717931Y-71022922D01*
X104862262Y-70878591D01*
X104862407Y-70878459D01*
X104871468Y-70871023D01*
X104871794Y-70870805D01*
X104879524Y-70866674D01*
X104879886Y-70866524D01*
X104888273Y-70863980D01*
X104888658Y-70863904D01*
X104897381Y-70863044D01*
X104897773Y-70863044D01*
X104906496Y-70863904D01*
G37*
G36*
X105260049Y-70510351D02*
G01*
X105260434Y-70510427D01*
X105268821Y-70512971D01*
X105269183Y-70513121D01*
X105276913Y-70517252D01*
X105277239Y-70517470D01*
X105286300Y-70524906D01*
X105286445Y-70525038D01*
X106261626Y-71500219D01*
X106261758Y-71500364D01*
X106269194Y-71509425D01*
X106269412Y-71509751D01*
X106273543Y-71517481D01*
X106273693Y-71517843D01*
X106276237Y-71526230D01*
X106276313Y-71526615D01*
X106277173Y-71535338D01*
X106277173Y-71535730D01*
X106276313Y-71544453D01*
X106276237Y-71544838D01*
X106273693Y-71553225D01*
X106273543Y-71553587D01*
X106269412Y-71561317D01*
X106269194Y-71561643D01*
X106261758Y-71570704D01*
X106261626Y-71570849D01*
X106117295Y-71715180D01*
X106117150Y-71715312D01*
X106108089Y-71722748D01*
X106107763Y-71722966D01*
X106100033Y-71727097D01*
X106099671Y-71727247D01*
X106091284Y-71729791D01*
X106090899Y-71729867D01*
X106082176Y-71730727D01*
X106081784Y-71730727D01*
X106073061Y-71729867D01*
X106072676Y-71729791D01*
X106064289Y-71727247D01*
X106063927Y-71727097D01*
X106056197Y-71722966D01*
X106055871Y-71722748D01*
X106046810Y-71715312D01*
X106046665Y-71715180D01*
X105071484Y-70739999D01*
X105071352Y-70739854D01*
X105063916Y-70730793D01*
X105063698Y-70730467D01*
X105059567Y-70722737D01*
X105059417Y-70722375D01*
X105056873Y-70713988D01*
X105056797Y-70713603D01*
X105055937Y-70704880D01*
X105055937Y-70704684D01*
X105072073Y-70704684D01*
X105073475Y-70718921D01*
X105077630Y-70732616D01*
X105084375Y-70745236D01*
X105093518Y-70756376D01*
X106030288Y-71693146D01*
X106041428Y-71702289D01*
X106054048Y-71709034D01*
X106067743Y-71713189D01*
X106081980Y-71714591D01*
X106096217Y-71713189D01*
X106109912Y-71709034D01*
X106122532Y-71702289D01*
X106133672Y-71693146D01*
X106239592Y-71587226D01*
X106248735Y-71576086D01*
X106255480Y-71563466D01*
X106259635Y-71549771D01*
X106261037Y-71535534D01*
X106259635Y-71521297D01*
X106255480Y-71507602D01*
X106248735Y-71494982D01*
X106239592Y-71483842D01*
X105302822Y-70547072D01*
X105291682Y-70537929D01*
X105279062Y-70531184D01*
X105265367Y-70527029D01*
X105251130Y-70525627D01*
X105236893Y-70527029D01*
X105223198Y-70531184D01*
X105210578Y-70537929D01*
X105199438Y-70547072D01*
X105093518Y-70652992D01*
X105084375Y-70664132D01*
X105077630Y-70676752D01*
X105073475Y-70690447D01*
X105072073Y-70704684D01*
X105055937Y-70704684D01*
X105055937Y-70704488D01*
X105056797Y-70695765D01*
X105056873Y-70695380D01*
X105059417Y-70686993D01*
X105059567Y-70686631D01*
X105063698Y-70678901D01*
X105063916Y-70678575D01*
X105071352Y-70669514D01*
X105071484Y-70669369D01*
X105215815Y-70525038D01*
X105215960Y-70524906D01*
X105225021Y-70517470D01*
X105225347Y-70517252D01*
X105233077Y-70513121D01*
X105233439Y-70512971D01*
X105241826Y-70510427D01*
X105242211Y-70510351D01*
X105250934Y-70509491D01*
X105251326Y-70509491D01*
X105260049Y-70510351D01*
G37*
G36*
X100557789Y-70510351D02*
G01*
X100558174Y-70510427D01*
X100566561Y-70512971D01*
X100566923Y-70513121D01*
X100574653Y-70517252D01*
X100574979Y-70517470D01*
X100584040Y-70524906D01*
X100584185Y-70525038D01*
X100728516Y-70669369D01*
X100728648Y-70669514D01*
X100736084Y-70678575D01*
X100736302Y-70678901D01*
X100740433Y-70686631D01*
X100740583Y-70686993D01*
X100743127Y-70695380D01*
X100743203Y-70695765D01*
X100744063Y-70704488D01*
X100744063Y-70704880D01*
X100743203Y-70713603D01*
X100743127Y-70713988D01*
X100740583Y-70722375D01*
X100740433Y-70722737D01*
X100736302Y-70730467D01*
X100736084Y-70730793D01*
X100728648Y-70739854D01*
X100728516Y-70739999D01*
X99753335Y-71715180D01*
X99753190Y-71715312D01*
X99744129Y-71722748D01*
X99743803Y-71722966D01*
X99736073Y-71727097D01*
X99735711Y-71727247D01*
X99727324Y-71729791D01*
X99726939Y-71729867D01*
X99718216Y-71730727D01*
X99717824Y-71730727D01*
X99709101Y-71729867D01*
X99708716Y-71729791D01*
X99700329Y-71727247D01*
X99699967Y-71727097D01*
X99692237Y-71722966D01*
X99691911Y-71722748D01*
X99682850Y-71715312D01*
X99682705Y-71715180D01*
X99538374Y-71570849D01*
X99538242Y-71570704D01*
X99530806Y-71561643D01*
X99530588Y-71561317D01*
X99526457Y-71553587D01*
X99526307Y-71553225D01*
X99523763Y-71544838D01*
X99523687Y-71544453D01*
X99522827Y-71535730D01*
X99522827Y-71535534D01*
X99538963Y-71535534D01*
X99540365Y-71549771D01*
X99544520Y-71563466D01*
X99551265Y-71576086D01*
X99560408Y-71587226D01*
X99666328Y-71693146D01*
X99677468Y-71702289D01*
X99690088Y-71709034D01*
X99703783Y-71713189D01*
X99718020Y-71714591D01*
X99732257Y-71713189D01*
X99745952Y-71709034D01*
X99758572Y-71702289D01*
X99769712Y-71693146D01*
X100706482Y-70756376D01*
X100715625Y-70745236D01*
X100722370Y-70732616D01*
X100726525Y-70718921D01*
X100727927Y-70704684D01*
X100726525Y-70690447D01*
X100722370Y-70676752D01*
X100715625Y-70664132D01*
X100706482Y-70652992D01*
X100600562Y-70547072D01*
X100589422Y-70537929D01*
X100576802Y-70531184D01*
X100563107Y-70527029D01*
X100548870Y-70525627D01*
X100534633Y-70527029D01*
X100520938Y-70531184D01*
X100508318Y-70537929D01*
X100497178Y-70547072D01*
X99560408Y-71483842D01*
X99551265Y-71494982D01*
X99544520Y-71507602D01*
X99540365Y-71521297D01*
X99538963Y-71535534D01*
X99522827Y-71535534D01*
X99522827Y-71535338D01*
X99523687Y-71526615D01*
X99523763Y-71526230D01*
X99526307Y-71517843D01*
X99526457Y-71517481D01*
X99530588Y-71509751D01*
X99530806Y-71509425D01*
X99538242Y-71500364D01*
X99538374Y-71500219D01*
X100513555Y-70525038D01*
X100513700Y-70524906D01*
X100522761Y-70517470D01*
X100523087Y-70517252D01*
X100530817Y-70513121D01*
X100531179Y-70512971D01*
X100539566Y-70510427D01*
X100539951Y-70510351D01*
X100548674Y-70509491D01*
X100549066Y-70509491D01*
X100557789Y-70510351D01*
G37*
G36*
X105613603Y-70156797D02*
G01*
X105613988Y-70156873D01*
X105622375Y-70159417D01*
X105622737Y-70159567D01*
X105630467Y-70163698D01*
X105630793Y-70163916D01*
X105639854Y-70171352D01*
X105639999Y-70171484D01*
X106615180Y-71146665D01*
X106615312Y-71146810D01*
X106622748Y-71155871D01*
X106622966Y-71156197D01*
X106627097Y-71163927D01*
X106627247Y-71164289D01*
X106629791Y-71172676D01*
X106629867Y-71173061D01*
X106630727Y-71181784D01*
X106630727Y-71182176D01*
X106629867Y-71190899D01*
X106629791Y-71191284D01*
X106627247Y-71199671D01*
X106627097Y-71200033D01*
X106622966Y-71207763D01*
X106622748Y-71208089D01*
X106615312Y-71217150D01*
X106615180Y-71217295D01*
X106470849Y-71361626D01*
X106470704Y-71361758D01*
X106461643Y-71369194D01*
X106461317Y-71369412D01*
X106453587Y-71373543D01*
X106453225Y-71373693D01*
X106444838Y-71376237D01*
X106444453Y-71376313D01*
X106435730Y-71377173D01*
X106435338Y-71377173D01*
X106426615Y-71376313D01*
X106426230Y-71376237D01*
X106417843Y-71373693D01*
X106417481Y-71373543D01*
X106409751Y-71369412D01*
X106409425Y-71369194D01*
X106400364Y-71361758D01*
X106400219Y-71361626D01*
X105425038Y-70386445D01*
X105424906Y-70386300D01*
X105417470Y-70377239D01*
X105417252Y-70376913D01*
X105413121Y-70369183D01*
X105412971Y-70368821D01*
X105410427Y-70360434D01*
X105410351Y-70360049D01*
X105409491Y-70351326D01*
X105409491Y-70351130D01*
X105425627Y-70351130D01*
X105427029Y-70365367D01*
X105431184Y-70379062D01*
X105437929Y-70391682D01*
X105447072Y-70402822D01*
X106383842Y-71339592D01*
X106394982Y-71348735D01*
X106407602Y-71355480D01*
X106421297Y-71359635D01*
X106435534Y-71361037D01*
X106449771Y-71359635D01*
X106463466Y-71355480D01*
X106476086Y-71348735D01*
X106487226Y-71339592D01*
X106593146Y-71233672D01*
X106602289Y-71222532D01*
X106609034Y-71209912D01*
X106613189Y-71196217D01*
X106614591Y-71181980D01*
X106613189Y-71167743D01*
X106609034Y-71154048D01*
X106602289Y-71141428D01*
X106593146Y-71130288D01*
X105656376Y-70193518D01*
X105645236Y-70184375D01*
X105632616Y-70177630D01*
X105618921Y-70173475D01*
X105604684Y-70172073D01*
X105590447Y-70173475D01*
X105576752Y-70177630D01*
X105564132Y-70184375D01*
X105552992Y-70193518D01*
X105447072Y-70299438D01*
X105437929Y-70310578D01*
X105431184Y-70323198D01*
X105427029Y-70336893D01*
X105425627Y-70351130D01*
X105409491Y-70351130D01*
X105409491Y-70350934D01*
X105410351Y-70342211D01*
X105410427Y-70341826D01*
X105412971Y-70333439D01*
X105413121Y-70333077D01*
X105417252Y-70325347D01*
X105417470Y-70325021D01*
X105424906Y-70315960D01*
X105425038Y-70315815D01*
X105569369Y-70171484D01*
X105569514Y-70171352D01*
X105578575Y-70163916D01*
X105578901Y-70163698D01*
X105586631Y-70159567D01*
X105586993Y-70159417D01*
X105595380Y-70156873D01*
X105595765Y-70156797D01*
X105604488Y-70155937D01*
X105604880Y-70155937D01*
X105613603Y-70156797D01*
G37*
G36*
X100204235Y-70156797D02*
G01*
X100204620Y-70156873D01*
X100213007Y-70159417D01*
X100213369Y-70159567D01*
X100221099Y-70163698D01*
X100221425Y-70163916D01*
X100230486Y-70171352D01*
X100230631Y-70171484D01*
X100374962Y-70315815D01*
X100375094Y-70315960D01*
X100382530Y-70325021D01*
X100382748Y-70325347D01*
X100386879Y-70333077D01*
X100387029Y-70333439D01*
X100389573Y-70341826D01*
X100389649Y-70342211D01*
X100390509Y-70350934D01*
X100390509Y-70351326D01*
X100389649Y-70360049D01*
X100389573Y-70360434D01*
X100387029Y-70368821D01*
X100386879Y-70369183D01*
X100382748Y-70376913D01*
X100382530Y-70377239D01*
X100375094Y-70386300D01*
X100374962Y-70386445D01*
X99399781Y-71361626D01*
X99399636Y-71361758D01*
X99390575Y-71369194D01*
X99390249Y-71369412D01*
X99382519Y-71373543D01*
X99382157Y-71373693D01*
X99373770Y-71376237D01*
X99373385Y-71376313D01*
X99364662Y-71377173D01*
X99364270Y-71377173D01*
X99355547Y-71376313D01*
X99355162Y-71376237D01*
X99346775Y-71373693D01*
X99346413Y-71373543D01*
X99338683Y-71369412D01*
X99338357Y-71369194D01*
X99329296Y-71361758D01*
X99329151Y-71361626D01*
X99184820Y-71217295D01*
X99184688Y-71217150D01*
X99177252Y-71208089D01*
X99177034Y-71207763D01*
X99172903Y-71200033D01*
X99172753Y-71199671D01*
X99170209Y-71191284D01*
X99170133Y-71190899D01*
X99169273Y-71182176D01*
X99169273Y-71181980D01*
X99185409Y-71181980D01*
X99186811Y-71196217D01*
X99190966Y-71209912D01*
X99197711Y-71222532D01*
X99206854Y-71233672D01*
X99312774Y-71339592D01*
X99323914Y-71348735D01*
X99336534Y-71355480D01*
X99350229Y-71359635D01*
X99364466Y-71361037D01*
X99378703Y-71359635D01*
X99392398Y-71355480D01*
X99405018Y-71348735D01*
X99416158Y-71339592D01*
X100352928Y-70402822D01*
X100362071Y-70391682D01*
X100368816Y-70379062D01*
X100372971Y-70365367D01*
X100374373Y-70351130D01*
X100372971Y-70336893D01*
X100368816Y-70323198D01*
X100362071Y-70310578D01*
X100352928Y-70299438D01*
X100247008Y-70193518D01*
X100235868Y-70184375D01*
X100223248Y-70177630D01*
X100209553Y-70173475D01*
X100195316Y-70172073D01*
X100181079Y-70173475D01*
X100167384Y-70177630D01*
X100154764Y-70184375D01*
X100143624Y-70193518D01*
X99206854Y-71130288D01*
X99197711Y-71141428D01*
X99190966Y-71154048D01*
X99186811Y-71167743D01*
X99185409Y-71181980D01*
X99169273Y-71181980D01*
X99169273Y-71181784D01*
X99170133Y-71173061D01*
X99170209Y-71172676D01*
X99172753Y-71164289D01*
X99172903Y-71163927D01*
X99177034Y-71156197D01*
X99177252Y-71155871D01*
X99184688Y-71146810D01*
X99184820Y-71146665D01*
X100160001Y-70171484D01*
X100160146Y-70171352D01*
X100169207Y-70163916D01*
X100169533Y-70163698D01*
X100177263Y-70159567D01*
X100177625Y-70159417D01*
X100186012Y-70156873D01*
X100186397Y-70156797D01*
X100195120Y-70155937D01*
X100195512Y-70155937D01*
X100204235Y-70156797D01*
G37*
G36*
X105967156Y-69803244D02*
G01*
X105967541Y-69803320D01*
X105975928Y-69805864D01*
X105976290Y-69806014D01*
X105984020Y-69810145D01*
X105984346Y-69810363D01*
X105993407Y-69817799D01*
X105993552Y-69817931D01*
X106968733Y-70793112D01*
X106968865Y-70793257D01*
X106976301Y-70802318D01*
X106976519Y-70802644D01*
X106980650Y-70810374D01*
X106980800Y-70810736D01*
X106983344Y-70819123D01*
X106983420Y-70819508D01*
X106984280Y-70828231D01*
X106984280Y-70828623D01*
X106983420Y-70837346D01*
X106983344Y-70837731D01*
X106980800Y-70846118D01*
X106980650Y-70846480D01*
X106976519Y-70854210D01*
X106976301Y-70854536D01*
X106968865Y-70863597D01*
X106968733Y-70863742D01*
X106824402Y-71008073D01*
X106824257Y-71008205D01*
X106815196Y-71015641D01*
X106814870Y-71015859D01*
X106807140Y-71019990D01*
X106806778Y-71020140D01*
X106798391Y-71022684D01*
X106798006Y-71022760D01*
X106789283Y-71023620D01*
X106788891Y-71023620D01*
X106780168Y-71022760D01*
X106779783Y-71022684D01*
X106771396Y-71020140D01*
X106771034Y-71019990D01*
X106763304Y-71015859D01*
X106762978Y-71015641D01*
X106753917Y-71008205D01*
X106753772Y-71008073D01*
X105778591Y-70032892D01*
X105778459Y-70032747D01*
X105771023Y-70023686D01*
X105770805Y-70023360D01*
X105766674Y-70015630D01*
X105766524Y-70015268D01*
X105763980Y-70006881D01*
X105763904Y-70006496D01*
X105763044Y-69997773D01*
X105763044Y-69997577D01*
X105779180Y-69997577D01*
X105780582Y-70011814D01*
X105784737Y-70025509D01*
X105791482Y-70038129D01*
X105800625Y-70049269D01*
X106737395Y-70986039D01*
X106748535Y-70995182D01*
X106761155Y-71001927D01*
X106774850Y-71006082D01*
X106789087Y-71007484D01*
X106803324Y-71006082D01*
X106817019Y-71001927D01*
X106829639Y-70995182D01*
X106840779Y-70986039D01*
X106946699Y-70880119D01*
X106955842Y-70868979D01*
X106962587Y-70856359D01*
X106966742Y-70842664D01*
X106968144Y-70828427D01*
X106966742Y-70814190D01*
X106962587Y-70800495D01*
X106955842Y-70787875D01*
X106946699Y-70776735D01*
X106009929Y-69839965D01*
X105998789Y-69830822D01*
X105986169Y-69824077D01*
X105972474Y-69819922D01*
X105958237Y-69818520D01*
X105944000Y-69819922D01*
X105930305Y-69824077D01*
X105917685Y-69830822D01*
X105906545Y-69839965D01*
X105800625Y-69945885D01*
X105791482Y-69957025D01*
X105784737Y-69969645D01*
X105780582Y-69983340D01*
X105779180Y-69997577D01*
X105763044Y-69997577D01*
X105763044Y-69997381D01*
X105763904Y-69988658D01*
X105763980Y-69988273D01*
X105766524Y-69979886D01*
X105766674Y-69979524D01*
X105770805Y-69971794D01*
X105771023Y-69971468D01*
X105778459Y-69962407D01*
X105778591Y-69962262D01*
X105922922Y-69817931D01*
X105923067Y-69817799D01*
X105932128Y-69810363D01*
X105932454Y-69810145D01*
X105940184Y-69806014D01*
X105940546Y-69805864D01*
X105948933Y-69803320D01*
X105949318Y-69803244D01*
X105958041Y-69802384D01*
X105958433Y-69802384D01*
X105967156Y-69803244D01*
G37*
G36*
X99850682Y-69803244D02*
G01*
X99851067Y-69803320D01*
X99859454Y-69805864D01*
X99859816Y-69806014D01*
X99867546Y-69810145D01*
X99867872Y-69810363D01*
X99876933Y-69817799D01*
X99877078Y-69817931D01*
X100021409Y-69962262D01*
X100021541Y-69962407D01*
X100028977Y-69971468D01*
X100029195Y-69971794D01*
X100033326Y-69979524D01*
X100033476Y-69979886D01*
X100036020Y-69988273D01*
X100036096Y-69988658D01*
X100036956Y-69997381D01*
X100036956Y-69997773D01*
X100036096Y-70006496D01*
X100036020Y-70006881D01*
X100033476Y-70015268D01*
X100033326Y-70015630D01*
X100029195Y-70023360D01*
X100028977Y-70023686D01*
X100021541Y-70032747D01*
X100021409Y-70032892D01*
X99046228Y-71008073D01*
X99046083Y-71008205D01*
X99037022Y-71015641D01*
X99036696Y-71015859D01*
X99028966Y-71019990D01*
X99028604Y-71020140D01*
X99020217Y-71022684D01*
X99019832Y-71022760D01*
X99011109Y-71023620D01*
X99010717Y-71023620D01*
X99001994Y-71022760D01*
X99001609Y-71022684D01*
X98993222Y-71020140D01*
X98992860Y-71019990D01*
X98985130Y-71015859D01*
X98984804Y-71015641D01*
X98975743Y-71008205D01*
X98975598Y-71008073D01*
X98831267Y-70863742D01*
X98831135Y-70863597D01*
X98823699Y-70854536D01*
X98823481Y-70854210D01*
X98819350Y-70846480D01*
X98819200Y-70846118D01*
X98816656Y-70837731D01*
X98816580Y-70837346D01*
X98815720Y-70828623D01*
X98815720Y-70828427D01*
X98831856Y-70828427D01*
X98833258Y-70842664D01*
X98837413Y-70856359D01*
X98844158Y-70868979D01*
X98853301Y-70880119D01*
X98959221Y-70986039D01*
X98970361Y-70995182D01*
X98982981Y-71001927D01*
X98996676Y-71006082D01*
X99010913Y-71007484D01*
X99025150Y-71006082D01*
X99038845Y-71001927D01*
X99051465Y-70995182D01*
X99062605Y-70986039D01*
X99999375Y-70049269D01*
X100008518Y-70038129D01*
X100015263Y-70025509D01*
X100019418Y-70011814D01*
X100020820Y-69997577D01*
X100019418Y-69983340D01*
X100015263Y-69969645D01*
X100008518Y-69957025D01*
X99999375Y-69945885D01*
X99893455Y-69839965D01*
X99882315Y-69830822D01*
X99869695Y-69824077D01*
X99856000Y-69819922D01*
X99841763Y-69818520D01*
X99827526Y-69819922D01*
X99813831Y-69824077D01*
X99801211Y-69830822D01*
X99790071Y-69839965D01*
X98853301Y-70776735D01*
X98844158Y-70787875D01*
X98837413Y-70800495D01*
X98833258Y-70814190D01*
X98831856Y-70828427D01*
X98815720Y-70828427D01*
X98815720Y-70828231D01*
X98816580Y-70819508D01*
X98816656Y-70819123D01*
X98819200Y-70810736D01*
X98819350Y-70810374D01*
X98823481Y-70802644D01*
X98823699Y-70802318D01*
X98831135Y-70793257D01*
X98831267Y-70793112D01*
X99806448Y-69817931D01*
X99806593Y-69817799D01*
X99815654Y-69810363D01*
X99815980Y-69810145D01*
X99823710Y-69806014D01*
X99824072Y-69805864D01*
X99832459Y-69803320D01*
X99832844Y-69803244D01*
X99841567Y-69802384D01*
X99841959Y-69802384D01*
X99850682Y-69803244D01*
G37*
G36*
X106320709Y-69449691D02*
G01*
X106321094Y-69449767D01*
X106329481Y-69452311D01*
X106329843Y-69452461D01*
X106337573Y-69456592D01*
X106337899Y-69456810D01*
X106346960Y-69464246D01*
X106347105Y-69464378D01*
X107322286Y-70439559D01*
X107322418Y-70439704D01*
X107329854Y-70448765D01*
X107330072Y-70449091D01*
X107334203Y-70456821D01*
X107334353Y-70457183D01*
X107336897Y-70465570D01*
X107336973Y-70465955D01*
X107337833Y-70474678D01*
X107337833Y-70475070D01*
X107336973Y-70483793D01*
X107336897Y-70484178D01*
X107334353Y-70492565D01*
X107334203Y-70492927D01*
X107330072Y-70500657D01*
X107329854Y-70500983D01*
X107322418Y-70510044D01*
X107322286Y-70510189D01*
X107177955Y-70654520D01*
X107177810Y-70654652D01*
X107168749Y-70662088D01*
X107168423Y-70662306D01*
X107160693Y-70666437D01*
X107160331Y-70666587D01*
X107151944Y-70669131D01*
X107151559Y-70669207D01*
X107142836Y-70670067D01*
X107142444Y-70670067D01*
X107133721Y-70669207D01*
X107133336Y-70669131D01*
X107124949Y-70666587D01*
X107124587Y-70666437D01*
X107116857Y-70662306D01*
X107116531Y-70662088D01*
X107107470Y-70654652D01*
X107107325Y-70654520D01*
X106132144Y-69679339D01*
X106132012Y-69679194D01*
X106124576Y-69670133D01*
X106124358Y-69669807D01*
X106120227Y-69662077D01*
X106120077Y-69661715D01*
X106117533Y-69653328D01*
X106117457Y-69652943D01*
X106116597Y-69644220D01*
X106116597Y-69644024D01*
X106132733Y-69644024D01*
X106134135Y-69658261D01*
X106138290Y-69671956D01*
X106145035Y-69684576D01*
X106154178Y-69695716D01*
X107090948Y-70632486D01*
X107102088Y-70641629D01*
X107114708Y-70648374D01*
X107128403Y-70652529D01*
X107142640Y-70653931D01*
X107156877Y-70652529D01*
X107170572Y-70648374D01*
X107183192Y-70641629D01*
X107194332Y-70632486D01*
X107300252Y-70526566D01*
X107309395Y-70515426D01*
X107316140Y-70502806D01*
X107320295Y-70489111D01*
X107321697Y-70474874D01*
X107320295Y-70460637D01*
X107316140Y-70446942D01*
X107309395Y-70434322D01*
X107300252Y-70423182D01*
X106363482Y-69486412D01*
X106352342Y-69477269D01*
X106339722Y-69470524D01*
X106326027Y-69466369D01*
X106311790Y-69464967D01*
X106297553Y-69466369D01*
X106283858Y-69470524D01*
X106271238Y-69477269D01*
X106260098Y-69486412D01*
X106154178Y-69592332D01*
X106145035Y-69603472D01*
X106138290Y-69616092D01*
X106134135Y-69629787D01*
X106132733Y-69644024D01*
X106116597Y-69644024D01*
X106116597Y-69643828D01*
X106117457Y-69635105D01*
X106117533Y-69634720D01*
X106120077Y-69626333D01*
X106120227Y-69625971D01*
X106124358Y-69618241D01*
X106124576Y-69617915D01*
X106132012Y-69608854D01*
X106132144Y-69608709D01*
X106276475Y-69464378D01*
X106276620Y-69464246D01*
X106285681Y-69456810D01*
X106286007Y-69456592D01*
X106293737Y-69452461D01*
X106294099Y-69452311D01*
X106302486Y-69449767D01*
X106302871Y-69449691D01*
X106311594Y-69448831D01*
X106311986Y-69448831D01*
X106320709Y-69449691D01*
G37*
G36*
X99497129Y-69449691D02*
G01*
X99497514Y-69449767D01*
X99505901Y-69452311D01*
X99506263Y-69452461D01*
X99513993Y-69456592D01*
X99514319Y-69456810D01*
X99523380Y-69464246D01*
X99523525Y-69464378D01*
X99667856Y-69608709D01*
X99667988Y-69608854D01*
X99675424Y-69617915D01*
X99675642Y-69618241D01*
X99679773Y-69625971D01*
X99679923Y-69626333D01*
X99682467Y-69634720D01*
X99682543Y-69635105D01*
X99683403Y-69643828D01*
X99683403Y-69644220D01*
X99682543Y-69652943D01*
X99682467Y-69653328D01*
X99679923Y-69661715D01*
X99679773Y-69662077D01*
X99675642Y-69669807D01*
X99675424Y-69670133D01*
X99667988Y-69679194D01*
X99667856Y-69679339D01*
X98692675Y-70654520D01*
X98692530Y-70654652D01*
X98683469Y-70662088D01*
X98683143Y-70662306D01*
X98675413Y-70666437D01*
X98675051Y-70666587D01*
X98666664Y-70669131D01*
X98666279Y-70669207D01*
X98657556Y-70670067D01*
X98657164Y-70670067D01*
X98648441Y-70669207D01*
X98648056Y-70669131D01*
X98639669Y-70666587D01*
X98639307Y-70666437D01*
X98631577Y-70662306D01*
X98631251Y-70662088D01*
X98622190Y-70654652D01*
X98622045Y-70654520D01*
X98477714Y-70510189D01*
X98477582Y-70510044D01*
X98470146Y-70500983D01*
X98469928Y-70500657D01*
X98465797Y-70492927D01*
X98465647Y-70492565D01*
X98463103Y-70484178D01*
X98463027Y-70483793D01*
X98462167Y-70475070D01*
X98462167Y-70474874D01*
X98478303Y-70474874D01*
X98479705Y-70489111D01*
X98483860Y-70502806D01*
X98490605Y-70515426D01*
X98499748Y-70526566D01*
X98605668Y-70632486D01*
X98616808Y-70641629D01*
X98629428Y-70648374D01*
X98643123Y-70652529D01*
X98657360Y-70653931D01*
X98671597Y-70652529D01*
X98685292Y-70648374D01*
X98697912Y-70641629D01*
X98709052Y-70632486D01*
X99645822Y-69695716D01*
X99654965Y-69684576D01*
X99661710Y-69671956D01*
X99665865Y-69658261D01*
X99667267Y-69644024D01*
X99665865Y-69629787D01*
X99661710Y-69616092D01*
X99654965Y-69603472D01*
X99645822Y-69592332D01*
X99539902Y-69486412D01*
X99528762Y-69477269D01*
X99516142Y-69470524D01*
X99502447Y-69466369D01*
X99488210Y-69464967D01*
X99473973Y-69466369D01*
X99460278Y-69470524D01*
X99447658Y-69477269D01*
X99436518Y-69486412D01*
X98499748Y-70423182D01*
X98490605Y-70434322D01*
X98483860Y-70446942D01*
X98479705Y-70460637D01*
X98478303Y-70474874D01*
X98462167Y-70474874D01*
X98462167Y-70474678D01*
X98463027Y-70465955D01*
X98463103Y-70465570D01*
X98465647Y-70457183D01*
X98465797Y-70456821D01*
X98469928Y-70449091D01*
X98470146Y-70448765D01*
X98477582Y-70439704D01*
X98477714Y-70439559D01*
X99452895Y-69464378D01*
X99453040Y-69464246D01*
X99462101Y-69456810D01*
X99462427Y-69456592D01*
X99470157Y-69452461D01*
X99470519Y-69452311D01*
X99478906Y-69449767D01*
X99479291Y-69449691D01*
X99488014Y-69448831D01*
X99488406Y-69448831D01*
X99497129Y-69449691D01*
G37*
G36*
X106674263Y-69096137D02*
G01*
X106674648Y-69096213D01*
X106683035Y-69098757D01*
X106683397Y-69098907D01*
X106691127Y-69103038D01*
X106691453Y-69103256D01*
X106700514Y-69110692D01*
X106700659Y-69110824D01*
X107675840Y-70086005D01*
X107675972Y-70086150D01*
X107683408Y-70095211D01*
X107683626Y-70095537D01*
X107687757Y-70103267D01*
X107687907Y-70103629D01*
X107690451Y-70112016D01*
X107690527Y-70112401D01*
X107691387Y-70121124D01*
X107691387Y-70121516D01*
X107690527Y-70130239D01*
X107690451Y-70130624D01*
X107687907Y-70139011D01*
X107687757Y-70139373D01*
X107683626Y-70147103D01*
X107683408Y-70147429D01*
X107675972Y-70156490D01*
X107675840Y-70156635D01*
X107531509Y-70300966D01*
X107531364Y-70301098D01*
X107522303Y-70308534D01*
X107521977Y-70308752D01*
X107514247Y-70312883D01*
X107513885Y-70313033D01*
X107505498Y-70315577D01*
X107505113Y-70315653D01*
X107496390Y-70316513D01*
X107495998Y-70316513D01*
X107487275Y-70315653D01*
X107486890Y-70315577D01*
X107478503Y-70313033D01*
X107478141Y-70312883D01*
X107470411Y-70308752D01*
X107470085Y-70308534D01*
X107461024Y-70301098D01*
X107460879Y-70300966D01*
X106485698Y-69325785D01*
X106485566Y-69325640D01*
X106478130Y-69316579D01*
X106477912Y-69316253D01*
X106473781Y-69308523D01*
X106473631Y-69308161D01*
X106471087Y-69299774D01*
X106471011Y-69299389D01*
X106470151Y-69290666D01*
X106470151Y-69290470D01*
X106486287Y-69290470D01*
X106487689Y-69304707D01*
X106491844Y-69318402D01*
X106498589Y-69331022D01*
X106507732Y-69342162D01*
X107444502Y-70278932D01*
X107455642Y-70288075D01*
X107468262Y-70294820D01*
X107481957Y-70298975D01*
X107496194Y-70300377D01*
X107510431Y-70298975D01*
X107524126Y-70294820D01*
X107536746Y-70288075D01*
X107547886Y-70278932D01*
X107653806Y-70173012D01*
X107662949Y-70161872D01*
X107669694Y-70149252D01*
X107673849Y-70135557D01*
X107675251Y-70121320D01*
X107673849Y-70107083D01*
X107669694Y-70093388D01*
X107662949Y-70080768D01*
X107653806Y-70069628D01*
X106717036Y-69132858D01*
X106705896Y-69123715D01*
X106693276Y-69116970D01*
X106679581Y-69112815D01*
X106665344Y-69111413D01*
X106651107Y-69112815D01*
X106637412Y-69116970D01*
X106624792Y-69123715D01*
X106613652Y-69132858D01*
X106507732Y-69238778D01*
X106498589Y-69249918D01*
X106491844Y-69262538D01*
X106487689Y-69276233D01*
X106486287Y-69290470D01*
X106470151Y-69290470D01*
X106470151Y-69290274D01*
X106471011Y-69281551D01*
X106471087Y-69281166D01*
X106473631Y-69272779D01*
X106473781Y-69272417D01*
X106477912Y-69264687D01*
X106478130Y-69264361D01*
X106485566Y-69255300D01*
X106485698Y-69255155D01*
X106630029Y-69110824D01*
X106630174Y-69110692D01*
X106639235Y-69103256D01*
X106639561Y-69103038D01*
X106647291Y-69098907D01*
X106647653Y-69098757D01*
X106656040Y-69096213D01*
X106656425Y-69096137D01*
X106665148Y-69095277D01*
X106665540Y-69095277D01*
X106674263Y-69096137D01*
G37*
G36*
X99143575Y-69096137D02*
G01*
X99143960Y-69096213D01*
X99152347Y-69098757D01*
X99152709Y-69098907D01*
X99160439Y-69103038D01*
X99160765Y-69103256D01*
X99169826Y-69110692D01*
X99169971Y-69110824D01*
X99314302Y-69255155D01*
X99314434Y-69255300D01*
X99321870Y-69264361D01*
X99322088Y-69264687D01*
X99326219Y-69272417D01*
X99326369Y-69272779D01*
X99328913Y-69281166D01*
X99328989Y-69281551D01*
X99329849Y-69290274D01*
X99329849Y-69290666D01*
X99328989Y-69299389D01*
X99328913Y-69299774D01*
X99326369Y-69308161D01*
X99326219Y-69308523D01*
X99322088Y-69316253D01*
X99321870Y-69316579D01*
X99314434Y-69325640D01*
X99314302Y-69325785D01*
X98339121Y-70300966D01*
X98338976Y-70301098D01*
X98329915Y-70308534D01*
X98329589Y-70308752D01*
X98321859Y-70312883D01*
X98321497Y-70313033D01*
X98313110Y-70315577D01*
X98312725Y-70315653D01*
X98304002Y-70316513D01*
X98303610Y-70316513D01*
X98294887Y-70315653D01*
X98294502Y-70315577D01*
X98286115Y-70313033D01*
X98285753Y-70312883D01*
X98278023Y-70308752D01*
X98277697Y-70308534D01*
X98268636Y-70301098D01*
X98268491Y-70300966D01*
X98124160Y-70156635D01*
X98124028Y-70156490D01*
X98116592Y-70147429D01*
X98116374Y-70147103D01*
X98112243Y-70139373D01*
X98112093Y-70139011D01*
X98109549Y-70130624D01*
X98109473Y-70130239D01*
X98108613Y-70121516D01*
X98108613Y-70121320D01*
X98124749Y-70121320D01*
X98126151Y-70135557D01*
X98130306Y-70149252D01*
X98137051Y-70161872D01*
X98146194Y-70173012D01*
X98252114Y-70278932D01*
X98263254Y-70288075D01*
X98275874Y-70294820D01*
X98289569Y-70298975D01*
X98303806Y-70300377D01*
X98318043Y-70298975D01*
X98331738Y-70294820D01*
X98344358Y-70288075D01*
X98355498Y-70278932D01*
X99292268Y-69342162D01*
X99301411Y-69331022D01*
X99308156Y-69318402D01*
X99312311Y-69304707D01*
X99313713Y-69290470D01*
X99312311Y-69276233D01*
X99308156Y-69262538D01*
X99301411Y-69249918D01*
X99292268Y-69238778D01*
X99186348Y-69132858D01*
X99175208Y-69123715D01*
X99162588Y-69116970D01*
X99148893Y-69112815D01*
X99134656Y-69111413D01*
X99120419Y-69112815D01*
X99106724Y-69116970D01*
X99094104Y-69123715D01*
X99082964Y-69132858D01*
X98146194Y-70069628D01*
X98137051Y-70080768D01*
X98130306Y-70093388D01*
X98126151Y-70107083D01*
X98124749Y-70121320D01*
X98108613Y-70121320D01*
X98108613Y-70121124D01*
X98109473Y-70112401D01*
X98109549Y-70112016D01*
X98112093Y-70103629D01*
X98112243Y-70103267D01*
X98116374Y-70095537D01*
X98116592Y-70095211D01*
X98124028Y-70086150D01*
X98124160Y-70086005D01*
X99099341Y-69110824D01*
X99099486Y-69110692D01*
X99108547Y-69103256D01*
X99108873Y-69103038D01*
X99116603Y-69098907D01*
X99116965Y-69098757D01*
X99125352Y-69096213D01*
X99125737Y-69096137D01*
X99134460Y-69095277D01*
X99134852Y-69095277D01*
X99143575Y-69096137D01*
G37*
G36*
X98790022Y-68742584D02*
G01*
X98790407Y-68742660D01*
X98798794Y-68745204D01*
X98799156Y-68745354D01*
X98806886Y-68749485D01*
X98807212Y-68749703D01*
X98816273Y-68757139D01*
X98816418Y-68757271D01*
X98960749Y-68901602D01*
X98960881Y-68901747D01*
X98968317Y-68910808D01*
X98968535Y-68911134D01*
X98972666Y-68918864D01*
X98972816Y-68919226D01*
X98975360Y-68927613D01*
X98975436Y-68927998D01*
X98976296Y-68936721D01*
X98976296Y-68937113D01*
X98975436Y-68945836D01*
X98975360Y-68946221D01*
X98972816Y-68954608D01*
X98972666Y-68954970D01*
X98968535Y-68962700D01*
X98968317Y-68963026D01*
X98960881Y-68972087D01*
X98960749Y-68972232D01*
X97985568Y-69947413D01*
X97985423Y-69947545D01*
X97976362Y-69954981D01*
X97976036Y-69955199D01*
X97968306Y-69959330D01*
X97967944Y-69959480D01*
X97959557Y-69962024D01*
X97959172Y-69962100D01*
X97950449Y-69962960D01*
X97950057Y-69962960D01*
X97941334Y-69962100D01*
X97940949Y-69962024D01*
X97932562Y-69959480D01*
X97932200Y-69959330D01*
X97924470Y-69955199D01*
X97924144Y-69954981D01*
X97915083Y-69947545D01*
X97914938Y-69947413D01*
X97770607Y-69803082D01*
X97770475Y-69802937D01*
X97763039Y-69793876D01*
X97762821Y-69793550D01*
X97758690Y-69785820D01*
X97758540Y-69785458D01*
X97755996Y-69777071D01*
X97755920Y-69776686D01*
X97755060Y-69767963D01*
X97755060Y-69767767D01*
X97771196Y-69767767D01*
X97772598Y-69782004D01*
X97776753Y-69795699D01*
X97783498Y-69808319D01*
X97792641Y-69819459D01*
X97898561Y-69925379D01*
X97909701Y-69934522D01*
X97922321Y-69941267D01*
X97936016Y-69945422D01*
X97950253Y-69946824D01*
X97964490Y-69945422D01*
X97978185Y-69941267D01*
X97990805Y-69934522D01*
X98001945Y-69925379D01*
X98938715Y-68988609D01*
X98947858Y-68977469D01*
X98954603Y-68964849D01*
X98958758Y-68951154D01*
X98960160Y-68936917D01*
X98958758Y-68922680D01*
X98954603Y-68908985D01*
X98947858Y-68896365D01*
X98938715Y-68885225D01*
X98832795Y-68779305D01*
X98821655Y-68770162D01*
X98809035Y-68763417D01*
X98795340Y-68759262D01*
X98781103Y-68757860D01*
X98766866Y-68759262D01*
X98753171Y-68763417D01*
X98740551Y-68770162D01*
X98729411Y-68779305D01*
X97792641Y-69716075D01*
X97783498Y-69727215D01*
X97776753Y-69739835D01*
X97772598Y-69753530D01*
X97771196Y-69767767D01*
X97755060Y-69767767D01*
X97755060Y-69767571D01*
X97755920Y-69758848D01*
X97755996Y-69758463D01*
X97758540Y-69750076D01*
X97758690Y-69749714D01*
X97762821Y-69741984D01*
X97763039Y-69741658D01*
X97770475Y-69732597D01*
X97770607Y-69732452D01*
X98745788Y-68757271D01*
X98745933Y-68757139D01*
X98754994Y-68749703D01*
X98755320Y-68749485D01*
X98763050Y-68745354D01*
X98763412Y-68745204D01*
X98771799Y-68742660D01*
X98772184Y-68742584D01*
X98780907Y-68741724D01*
X98781299Y-68741724D01*
X98790022Y-68742584D01*
G37*
G36*
X107027816Y-68742584D02*
G01*
X107028201Y-68742660D01*
X107036588Y-68745204D01*
X107036950Y-68745354D01*
X107044680Y-68749485D01*
X107045006Y-68749703D01*
X107054067Y-68757139D01*
X107054212Y-68757271D01*
X108029393Y-69732452D01*
X108029525Y-69732597D01*
X108036961Y-69741658D01*
X108037179Y-69741984D01*
X108041310Y-69749714D01*
X108041460Y-69750076D01*
X108044004Y-69758463D01*
X108044080Y-69758848D01*
X108044940Y-69767571D01*
X108044940Y-69767963D01*
X108044080Y-69776686D01*
X108044004Y-69777071D01*
X108041460Y-69785458D01*
X108041310Y-69785820D01*
X108037179Y-69793550D01*
X108036961Y-69793876D01*
X108029525Y-69802937D01*
X108029393Y-69803082D01*
X107885062Y-69947413D01*
X107884917Y-69947545D01*
X107875856Y-69954981D01*
X107875530Y-69955199D01*
X107867800Y-69959330D01*
X107867438Y-69959480D01*
X107859051Y-69962024D01*
X107858666Y-69962100D01*
X107849943Y-69962960D01*
X107849551Y-69962960D01*
X107840828Y-69962100D01*
X107840443Y-69962024D01*
X107832056Y-69959480D01*
X107831694Y-69959330D01*
X107823964Y-69955199D01*
X107823638Y-69954981D01*
X107814577Y-69947545D01*
X107814432Y-69947413D01*
X106839251Y-68972232D01*
X106839119Y-68972087D01*
X106831683Y-68963026D01*
X106831465Y-68962700D01*
X106827334Y-68954970D01*
X106827184Y-68954608D01*
X106824640Y-68946221D01*
X106824564Y-68945836D01*
X106823704Y-68937113D01*
X106823704Y-68936917D01*
X106839840Y-68936917D01*
X106841242Y-68951154D01*
X106845397Y-68964849D01*
X106852142Y-68977469D01*
X106861285Y-68988609D01*
X107798055Y-69925379D01*
X107809195Y-69934522D01*
X107821815Y-69941267D01*
X107835510Y-69945422D01*
X107849747Y-69946824D01*
X107863984Y-69945422D01*
X107877679Y-69941267D01*
X107890299Y-69934522D01*
X107901439Y-69925379D01*
X108007359Y-69819459D01*
X108016502Y-69808319D01*
X108023247Y-69795699D01*
X108027402Y-69782004D01*
X108028804Y-69767767D01*
X108027402Y-69753530D01*
X108023247Y-69739835D01*
X108016502Y-69727215D01*
X108007359Y-69716075D01*
X107070589Y-68779305D01*
X107059449Y-68770162D01*
X107046829Y-68763417D01*
X107033134Y-68759262D01*
X107018897Y-68757860D01*
X107004660Y-68759262D01*
X106990965Y-68763417D01*
X106978345Y-68770162D01*
X106967205Y-68779305D01*
X106861285Y-68885225D01*
X106852142Y-68896365D01*
X106845397Y-68908985D01*
X106841242Y-68922680D01*
X106839840Y-68936917D01*
X106823704Y-68936917D01*
X106823704Y-68936721D01*
X106824564Y-68927998D01*
X106824640Y-68927613D01*
X106827184Y-68919226D01*
X106827334Y-68918864D01*
X106831465Y-68911134D01*
X106831683Y-68910808D01*
X106839119Y-68901747D01*
X106839251Y-68901602D01*
X106983582Y-68757271D01*
X106983727Y-68757139D01*
X106992788Y-68749703D01*
X106993114Y-68749485D01*
X107000844Y-68745354D01*
X107001206Y-68745204D01*
X107009593Y-68742660D01*
X107009978Y-68742584D01*
X107018701Y-68741724D01*
X107019093Y-68741724D01*
X107027816Y-68742584D01*
G37*
G36*
X98436468Y-68389030D02*
G01*
X98436853Y-68389106D01*
X98445240Y-68391650D01*
X98445602Y-68391800D01*
X98453332Y-68395931D01*
X98453658Y-68396149D01*
X98462719Y-68403585D01*
X98462864Y-68403717D01*
X98607195Y-68548048D01*
X98607327Y-68548193D01*
X98614763Y-68557254D01*
X98614981Y-68557580D01*
X98619112Y-68565310D01*
X98619262Y-68565672D01*
X98621806Y-68574059D01*
X98621882Y-68574444D01*
X98622742Y-68583167D01*
X98622742Y-68583559D01*
X98621882Y-68592282D01*
X98621806Y-68592667D01*
X98619262Y-68601054D01*
X98619112Y-68601416D01*
X98614981Y-68609146D01*
X98614763Y-68609472D01*
X98607327Y-68618533D01*
X98607195Y-68618678D01*
X97632014Y-69593859D01*
X97631869Y-69593991D01*
X97622808Y-69601427D01*
X97622482Y-69601645D01*
X97614752Y-69605776D01*
X97614390Y-69605926D01*
X97606003Y-69608470D01*
X97605618Y-69608546D01*
X97596895Y-69609406D01*
X97596503Y-69609406D01*
X97587780Y-69608546D01*
X97587395Y-69608470D01*
X97579008Y-69605926D01*
X97578646Y-69605776D01*
X97570916Y-69601645D01*
X97570590Y-69601427D01*
X97561529Y-69593991D01*
X97561384Y-69593859D01*
X97417053Y-69449528D01*
X97416921Y-69449383D01*
X97409485Y-69440322D01*
X97409267Y-69439996D01*
X97405136Y-69432266D01*
X97404986Y-69431904D01*
X97402442Y-69423517D01*
X97402366Y-69423132D01*
X97401506Y-69414409D01*
X97401506Y-69414213D01*
X97417642Y-69414213D01*
X97419044Y-69428450D01*
X97423199Y-69442145D01*
X97429944Y-69454765D01*
X97439087Y-69465905D01*
X97545007Y-69571825D01*
X97556147Y-69580968D01*
X97568767Y-69587713D01*
X97582462Y-69591868D01*
X97596699Y-69593270D01*
X97610936Y-69591868D01*
X97624631Y-69587713D01*
X97637251Y-69580968D01*
X97648391Y-69571825D01*
X98585161Y-68635055D01*
X98594304Y-68623915D01*
X98601049Y-68611295D01*
X98605204Y-68597600D01*
X98606606Y-68583363D01*
X98605204Y-68569126D01*
X98601049Y-68555431D01*
X98594304Y-68542811D01*
X98585161Y-68531671D01*
X98479241Y-68425751D01*
X98468101Y-68416608D01*
X98455481Y-68409863D01*
X98441786Y-68405708D01*
X98427549Y-68404306D01*
X98413312Y-68405708D01*
X98399617Y-68409863D01*
X98386997Y-68416608D01*
X98375857Y-68425751D01*
X97439087Y-69362521D01*
X97429944Y-69373661D01*
X97423199Y-69386281D01*
X97419044Y-69399976D01*
X97417642Y-69414213D01*
X97401506Y-69414213D01*
X97401506Y-69414017D01*
X97402366Y-69405294D01*
X97402442Y-69404909D01*
X97404986Y-69396522D01*
X97405136Y-69396160D01*
X97409267Y-69388430D01*
X97409485Y-69388104D01*
X97416921Y-69379043D01*
X97417053Y-69378898D01*
X98392234Y-68403717D01*
X98392379Y-68403585D01*
X98401440Y-68396149D01*
X98401766Y-68395931D01*
X98409496Y-68391800D01*
X98409858Y-68391650D01*
X98418245Y-68389106D01*
X98418630Y-68389030D01*
X98427353Y-68388170D01*
X98427745Y-68388170D01*
X98436468Y-68389030D01*
G37*
G36*
X107381370Y-68389030D02*
G01*
X107381755Y-68389106D01*
X107390142Y-68391650D01*
X107390504Y-68391800D01*
X107398234Y-68395931D01*
X107398560Y-68396149D01*
X107407621Y-68403585D01*
X107407766Y-68403717D01*
X108382947Y-69378898D01*
X108383079Y-69379043D01*
X108390515Y-69388104D01*
X108390733Y-69388430D01*
X108394864Y-69396160D01*
X108395014Y-69396522D01*
X108397558Y-69404909D01*
X108397634Y-69405294D01*
X108398494Y-69414017D01*
X108398494Y-69414409D01*
X108397634Y-69423132D01*
X108397558Y-69423517D01*
X108395014Y-69431904D01*
X108394864Y-69432266D01*
X108390733Y-69439996D01*
X108390515Y-69440322D01*
X108383079Y-69449383D01*
X108382947Y-69449528D01*
X108238616Y-69593859D01*
X108238471Y-69593991D01*
X108229410Y-69601427D01*
X108229084Y-69601645D01*
X108221354Y-69605776D01*
X108220992Y-69605926D01*
X108212605Y-69608470D01*
X108212220Y-69608546D01*
X108203497Y-69609406D01*
X108203105Y-69609406D01*
X108194382Y-69608546D01*
X108193997Y-69608470D01*
X108185610Y-69605926D01*
X108185248Y-69605776D01*
X108177518Y-69601645D01*
X108177192Y-69601427D01*
X108168131Y-69593991D01*
X108167986Y-69593859D01*
X107192805Y-68618678D01*
X107192673Y-68618533D01*
X107185237Y-68609472D01*
X107185019Y-68609146D01*
X107180888Y-68601416D01*
X107180738Y-68601054D01*
X107178194Y-68592667D01*
X107178118Y-68592282D01*
X107177258Y-68583559D01*
X107177258Y-68583363D01*
X107193394Y-68583363D01*
X107194796Y-68597600D01*
X107198951Y-68611295D01*
X107205696Y-68623915D01*
X107214839Y-68635055D01*
X108151609Y-69571825D01*
X108162749Y-69580968D01*
X108175369Y-69587713D01*
X108189064Y-69591868D01*
X108203301Y-69593270D01*
X108217538Y-69591868D01*
X108231233Y-69587713D01*
X108243853Y-69580968D01*
X108254993Y-69571825D01*
X108360913Y-69465905D01*
X108370056Y-69454765D01*
X108376801Y-69442145D01*
X108380956Y-69428450D01*
X108382358Y-69414213D01*
X108380956Y-69399976D01*
X108376801Y-69386281D01*
X108370056Y-69373661D01*
X108360913Y-69362521D01*
X107424143Y-68425751D01*
X107413003Y-68416608D01*
X107400383Y-68409863D01*
X107386688Y-68405708D01*
X107372451Y-68404306D01*
X107358214Y-68405708D01*
X107344519Y-68409863D01*
X107331899Y-68416608D01*
X107320759Y-68425751D01*
X107214839Y-68531671D01*
X107205696Y-68542811D01*
X107198951Y-68555431D01*
X107194796Y-68569126D01*
X107193394Y-68583363D01*
X107177258Y-68583363D01*
X107177258Y-68583167D01*
X107178118Y-68574444D01*
X107178194Y-68574059D01*
X107180738Y-68565672D01*
X107180888Y-68565310D01*
X107185019Y-68557580D01*
X107185237Y-68557254D01*
X107192673Y-68548193D01*
X107192805Y-68548048D01*
X107337136Y-68403717D01*
X107337281Y-68403585D01*
X107346342Y-68396149D01*
X107346668Y-68395931D01*
X107354398Y-68391800D01*
X107354760Y-68391650D01*
X107363147Y-68389106D01*
X107363532Y-68389030D01*
X107372255Y-68388170D01*
X107372647Y-68388170D01*
X107381370Y-68389030D01*
G37*
G36*
X97605618Y-66391454D02*
G01*
X97606003Y-66391530D01*
X97614390Y-66394074D01*
X97614752Y-66394224D01*
X97622482Y-66398355D01*
X97622808Y-66398573D01*
X97631869Y-66406009D01*
X97632014Y-66406141D01*
X98607195Y-67381322D01*
X98607327Y-67381467D01*
X98614763Y-67390528D01*
X98614981Y-67390854D01*
X98619112Y-67398584D01*
X98619262Y-67398946D01*
X98621806Y-67407333D01*
X98621882Y-67407718D01*
X98622742Y-67416441D01*
X98622742Y-67416833D01*
X98621882Y-67425556D01*
X98621806Y-67425941D01*
X98619262Y-67434328D01*
X98619112Y-67434690D01*
X98614981Y-67442420D01*
X98614763Y-67442746D01*
X98607327Y-67451807D01*
X98607195Y-67451952D01*
X98462864Y-67596283D01*
X98462719Y-67596415D01*
X98453658Y-67603851D01*
X98453332Y-67604069D01*
X98445602Y-67608200D01*
X98445240Y-67608350D01*
X98436853Y-67610894D01*
X98436468Y-67610970D01*
X98427745Y-67611830D01*
X98427353Y-67611830D01*
X98418630Y-67610970D01*
X98418245Y-67610894D01*
X98409858Y-67608350D01*
X98409496Y-67608200D01*
X98401766Y-67604069D01*
X98401440Y-67603851D01*
X98392379Y-67596415D01*
X98392234Y-67596283D01*
X97417053Y-66621102D01*
X97416921Y-66620957D01*
X97409485Y-66611896D01*
X97409267Y-66611570D01*
X97405136Y-66603840D01*
X97404986Y-66603478D01*
X97402442Y-66595091D01*
X97402366Y-66594706D01*
X97401506Y-66585983D01*
X97401506Y-66585787D01*
X97417642Y-66585787D01*
X97419044Y-66600024D01*
X97423199Y-66613719D01*
X97429944Y-66626339D01*
X97439087Y-66637479D01*
X98375857Y-67574249D01*
X98386997Y-67583392D01*
X98399617Y-67590137D01*
X98413312Y-67594292D01*
X98427549Y-67595694D01*
X98441786Y-67594292D01*
X98455481Y-67590137D01*
X98468101Y-67583392D01*
X98479241Y-67574249D01*
X98585161Y-67468329D01*
X98594304Y-67457189D01*
X98601049Y-67444569D01*
X98605204Y-67430874D01*
X98606606Y-67416637D01*
X98605204Y-67402400D01*
X98601049Y-67388705D01*
X98594304Y-67376085D01*
X98585161Y-67364945D01*
X97648391Y-66428175D01*
X97637251Y-66419032D01*
X97624631Y-66412287D01*
X97610936Y-66408132D01*
X97596699Y-66406730D01*
X97582462Y-66408132D01*
X97568767Y-66412287D01*
X97556147Y-66419032D01*
X97545007Y-66428175D01*
X97439087Y-66534095D01*
X97429944Y-66545235D01*
X97423199Y-66557855D01*
X97419044Y-66571550D01*
X97417642Y-66585787D01*
X97401506Y-66585787D01*
X97401506Y-66585591D01*
X97402366Y-66576868D01*
X97402442Y-66576483D01*
X97404986Y-66568096D01*
X97405136Y-66567734D01*
X97409267Y-66560004D01*
X97409485Y-66559678D01*
X97416921Y-66550617D01*
X97417053Y-66550472D01*
X97561384Y-66406141D01*
X97561529Y-66406009D01*
X97570590Y-66398573D01*
X97570916Y-66398355D01*
X97578646Y-66394224D01*
X97579008Y-66394074D01*
X97587395Y-66391530D01*
X97587780Y-66391454D01*
X97596503Y-66390594D01*
X97596895Y-66390594D01*
X97605618Y-66391454D01*
G37*
G36*
X108212220Y-66391454D02*
G01*
X108212605Y-66391530D01*
X108220992Y-66394074D01*
X108221354Y-66394224D01*
X108229084Y-66398355D01*
X108229410Y-66398573D01*
X108238471Y-66406009D01*
X108238616Y-66406141D01*
X108382947Y-66550472D01*
X108383079Y-66550617D01*
X108390515Y-66559678D01*
X108390733Y-66560004D01*
X108394864Y-66567734D01*
X108395014Y-66568096D01*
X108397558Y-66576483D01*
X108397634Y-66576868D01*
X108398494Y-66585591D01*
X108398494Y-66585983D01*
X108397634Y-66594706D01*
X108397558Y-66595091D01*
X108395014Y-66603478D01*
X108394864Y-66603840D01*
X108390733Y-66611570D01*
X108390515Y-66611896D01*
X108383079Y-66620957D01*
X108382947Y-66621102D01*
X107407766Y-67596283D01*
X107407621Y-67596415D01*
X107398560Y-67603851D01*
X107398234Y-67604069D01*
X107390504Y-67608200D01*
X107390142Y-67608350D01*
X107381755Y-67610894D01*
X107381370Y-67610970D01*
X107372647Y-67611830D01*
X107372255Y-67611830D01*
X107363532Y-67610970D01*
X107363147Y-67610894D01*
X107354760Y-67608350D01*
X107354398Y-67608200D01*
X107346668Y-67604069D01*
X107346342Y-67603851D01*
X107337281Y-67596415D01*
X107337136Y-67596283D01*
X107192805Y-67451952D01*
X107192673Y-67451807D01*
X107185237Y-67442746D01*
X107185019Y-67442420D01*
X107180888Y-67434690D01*
X107180738Y-67434328D01*
X107178194Y-67425941D01*
X107178118Y-67425556D01*
X107177258Y-67416833D01*
X107177258Y-67416637D01*
X107193394Y-67416637D01*
X107194796Y-67430874D01*
X107198951Y-67444569D01*
X107205696Y-67457189D01*
X107214839Y-67468329D01*
X107320759Y-67574249D01*
X107331899Y-67583392D01*
X107344519Y-67590137D01*
X107358214Y-67594292D01*
X107372451Y-67595694D01*
X107386688Y-67594292D01*
X107400383Y-67590137D01*
X107413003Y-67583392D01*
X107424143Y-67574249D01*
X108360913Y-66637479D01*
X108370056Y-66626339D01*
X108376801Y-66613719D01*
X108380956Y-66600024D01*
X108382358Y-66585787D01*
X108380956Y-66571550D01*
X108376801Y-66557855D01*
X108370056Y-66545235D01*
X108360913Y-66534095D01*
X108254993Y-66428175D01*
X108243853Y-66419032D01*
X108231233Y-66412287D01*
X108217538Y-66408132D01*
X108203301Y-66406730D01*
X108189064Y-66408132D01*
X108175369Y-66412287D01*
X108162749Y-66419032D01*
X108151609Y-66428175D01*
X107214839Y-67364945D01*
X107205696Y-67376085D01*
X107198951Y-67388705D01*
X107194796Y-67402400D01*
X107193394Y-67416637D01*
X107177258Y-67416637D01*
X107177258Y-67416441D01*
X107178118Y-67407718D01*
X107178194Y-67407333D01*
X107180738Y-67398946D01*
X107180888Y-67398584D01*
X107185019Y-67390854D01*
X107185237Y-67390528D01*
X107192673Y-67381467D01*
X107192805Y-67381322D01*
X108167986Y-66406141D01*
X108168131Y-66406009D01*
X108177192Y-66398573D01*
X108177518Y-66398355D01*
X108185248Y-66394224D01*
X108185610Y-66394074D01*
X108193997Y-66391530D01*
X108194382Y-66391454D01*
X108203105Y-66390594D01*
X108203497Y-66390594D01*
X108212220Y-66391454D01*
G37*
G36*
X97959172Y-66037900D02*
G01*
X97959557Y-66037976D01*
X97967944Y-66040520D01*
X97968306Y-66040670D01*
X97976036Y-66044801D01*
X97976362Y-66045019D01*
X97985423Y-66052455D01*
X97985568Y-66052587D01*
X98960749Y-67027768D01*
X98960881Y-67027913D01*
X98968317Y-67036974D01*
X98968535Y-67037300D01*
X98972666Y-67045030D01*
X98972816Y-67045392D01*
X98975360Y-67053779D01*
X98975436Y-67054164D01*
X98976296Y-67062887D01*
X98976296Y-67063279D01*
X98975436Y-67072002D01*
X98975360Y-67072387D01*
X98972816Y-67080774D01*
X98972666Y-67081136D01*
X98968535Y-67088866D01*
X98968317Y-67089192D01*
X98960881Y-67098253D01*
X98960749Y-67098398D01*
X98816418Y-67242729D01*
X98816273Y-67242861D01*
X98807212Y-67250297D01*
X98806886Y-67250515D01*
X98799156Y-67254646D01*
X98798794Y-67254796D01*
X98790407Y-67257340D01*
X98790022Y-67257416D01*
X98781299Y-67258276D01*
X98780907Y-67258276D01*
X98772184Y-67257416D01*
X98771799Y-67257340D01*
X98763412Y-67254796D01*
X98763050Y-67254646D01*
X98755320Y-67250515D01*
X98754994Y-67250297D01*
X98745933Y-67242861D01*
X98745788Y-67242729D01*
X97770607Y-66267548D01*
X97770475Y-66267403D01*
X97763039Y-66258342D01*
X97762821Y-66258016D01*
X97758690Y-66250286D01*
X97758540Y-66249924D01*
X97755996Y-66241537D01*
X97755920Y-66241152D01*
X97755060Y-66232429D01*
X97755060Y-66232233D01*
X97771196Y-66232233D01*
X97772598Y-66246470D01*
X97776753Y-66260165D01*
X97783498Y-66272785D01*
X97792641Y-66283925D01*
X98729411Y-67220695D01*
X98740551Y-67229838D01*
X98753171Y-67236583D01*
X98766866Y-67240738D01*
X98781103Y-67242140D01*
X98795340Y-67240738D01*
X98809035Y-67236583D01*
X98821655Y-67229838D01*
X98832795Y-67220695D01*
X98938715Y-67114775D01*
X98947858Y-67103635D01*
X98954603Y-67091015D01*
X98958758Y-67077320D01*
X98960160Y-67063083D01*
X98958758Y-67048846D01*
X98954603Y-67035151D01*
X98947858Y-67022531D01*
X98938715Y-67011391D01*
X98001945Y-66074621D01*
X97990805Y-66065478D01*
X97978185Y-66058733D01*
X97964490Y-66054578D01*
X97950253Y-66053176D01*
X97936016Y-66054578D01*
X97922321Y-66058733D01*
X97909701Y-66065478D01*
X97898561Y-66074621D01*
X97792641Y-66180541D01*
X97783498Y-66191681D01*
X97776753Y-66204301D01*
X97772598Y-66217996D01*
X97771196Y-66232233D01*
X97755060Y-66232233D01*
X97755060Y-66232037D01*
X97755920Y-66223314D01*
X97755996Y-66222929D01*
X97758540Y-66214542D01*
X97758690Y-66214180D01*
X97762821Y-66206450D01*
X97763039Y-66206124D01*
X97770475Y-66197063D01*
X97770607Y-66196918D01*
X97914938Y-66052587D01*
X97915083Y-66052455D01*
X97924144Y-66045019D01*
X97924470Y-66044801D01*
X97932200Y-66040670D01*
X97932562Y-66040520D01*
X97940949Y-66037976D01*
X97941334Y-66037900D01*
X97950057Y-66037040D01*
X97950449Y-66037040D01*
X97959172Y-66037900D01*
G37*
G36*
X107858666Y-66037900D02*
G01*
X107859051Y-66037976D01*
X107867438Y-66040520D01*
X107867800Y-66040670D01*
X107875530Y-66044801D01*
X107875856Y-66045019D01*
X107884917Y-66052455D01*
X107885062Y-66052587D01*
X108029393Y-66196918D01*
X108029525Y-66197063D01*
X108036961Y-66206124D01*
X108037179Y-66206450D01*
X108041310Y-66214180D01*
X108041460Y-66214542D01*
X108044004Y-66222929D01*
X108044080Y-66223314D01*
X108044940Y-66232037D01*
X108044940Y-66232429D01*
X108044080Y-66241152D01*
X108044004Y-66241537D01*
X108041460Y-66249924D01*
X108041310Y-66250286D01*
X108037179Y-66258016D01*
X108036961Y-66258342D01*
X108029525Y-66267403D01*
X108029393Y-66267548D01*
X107054212Y-67242729D01*
X107054067Y-67242861D01*
X107045006Y-67250297D01*
X107044680Y-67250515D01*
X107036950Y-67254646D01*
X107036588Y-67254796D01*
X107028201Y-67257340D01*
X107027816Y-67257416D01*
X107019093Y-67258276D01*
X107018701Y-67258276D01*
X107009978Y-67257416D01*
X107009593Y-67257340D01*
X107001206Y-67254796D01*
X107000844Y-67254646D01*
X106993114Y-67250515D01*
X106992788Y-67250297D01*
X106983727Y-67242861D01*
X106983582Y-67242729D01*
X106839251Y-67098398D01*
X106839119Y-67098253D01*
X106831683Y-67089192D01*
X106831465Y-67088866D01*
X106827334Y-67081136D01*
X106827184Y-67080774D01*
X106824640Y-67072387D01*
X106824564Y-67072002D01*
X106823704Y-67063279D01*
X106823704Y-67063083D01*
X106839840Y-67063083D01*
X106841242Y-67077320D01*
X106845397Y-67091015D01*
X106852142Y-67103635D01*
X106861285Y-67114775D01*
X106967205Y-67220695D01*
X106978345Y-67229838D01*
X106990965Y-67236583D01*
X107004660Y-67240738D01*
X107018897Y-67242140D01*
X107033134Y-67240738D01*
X107046829Y-67236583D01*
X107059449Y-67229838D01*
X107070589Y-67220695D01*
X108007359Y-66283925D01*
X108016502Y-66272785D01*
X108023247Y-66260165D01*
X108027402Y-66246470D01*
X108028804Y-66232233D01*
X108027402Y-66217996D01*
X108023247Y-66204301D01*
X108016502Y-66191681D01*
X108007359Y-66180541D01*
X107901439Y-66074621D01*
X107890299Y-66065478D01*
X107877679Y-66058733D01*
X107863984Y-66054578D01*
X107849747Y-66053176D01*
X107835510Y-66054578D01*
X107821815Y-66058733D01*
X107809195Y-66065478D01*
X107798055Y-66074621D01*
X106861285Y-67011391D01*
X106852142Y-67022531D01*
X106845397Y-67035151D01*
X106841242Y-67048846D01*
X106839840Y-67063083D01*
X106823704Y-67063083D01*
X106823704Y-67062887D01*
X106824564Y-67054164D01*
X106824640Y-67053779D01*
X106827184Y-67045392D01*
X106827334Y-67045030D01*
X106831465Y-67037300D01*
X106831683Y-67036974D01*
X106839119Y-67027913D01*
X106839251Y-67027768D01*
X107814432Y-66052587D01*
X107814577Y-66052455D01*
X107823638Y-66045019D01*
X107823964Y-66044801D01*
X107831694Y-66040670D01*
X107832056Y-66040520D01*
X107840443Y-66037976D01*
X107840828Y-66037900D01*
X107849551Y-66037040D01*
X107849943Y-66037040D01*
X107858666Y-66037900D01*
G37*
G36*
X98312725Y-65684347D02*
G01*
X98313110Y-65684423D01*
X98321497Y-65686967D01*
X98321859Y-65687117D01*
X98329589Y-65691248D01*
X98329915Y-65691466D01*
X98338976Y-65698902D01*
X98339121Y-65699034D01*
X99314302Y-66674215D01*
X99314434Y-66674360D01*
X99321870Y-66683421D01*
X99322088Y-66683747D01*
X99326219Y-66691477D01*
X99326369Y-66691839D01*
X99328913Y-66700226D01*
X99328989Y-66700611D01*
X99329849Y-66709334D01*
X99329849Y-66709726D01*
X99328989Y-66718449D01*
X99328913Y-66718834D01*
X99326369Y-66727221D01*
X99326219Y-66727583D01*
X99322088Y-66735313D01*
X99321870Y-66735639D01*
X99314434Y-66744700D01*
X99314302Y-66744845D01*
X99169971Y-66889176D01*
X99169826Y-66889308D01*
X99160765Y-66896744D01*
X99160439Y-66896962D01*
X99152709Y-66901093D01*
X99152347Y-66901243D01*
X99143960Y-66903787D01*
X99143575Y-66903863D01*
X99134852Y-66904723D01*
X99134460Y-66904723D01*
X99125737Y-66903863D01*
X99125352Y-66903787D01*
X99116965Y-66901243D01*
X99116603Y-66901093D01*
X99108873Y-66896962D01*
X99108547Y-66896744D01*
X99099486Y-66889308D01*
X99099341Y-66889176D01*
X98124160Y-65913995D01*
X98124028Y-65913850D01*
X98116592Y-65904789D01*
X98116374Y-65904463D01*
X98112243Y-65896733D01*
X98112093Y-65896371D01*
X98109549Y-65887984D01*
X98109473Y-65887599D01*
X98108613Y-65878876D01*
X98108613Y-65878680D01*
X98124749Y-65878680D01*
X98126151Y-65892917D01*
X98130306Y-65906612D01*
X98137051Y-65919232D01*
X98146194Y-65930372D01*
X99082964Y-66867142D01*
X99094104Y-66876285D01*
X99106724Y-66883030D01*
X99120419Y-66887185D01*
X99134656Y-66888587D01*
X99148893Y-66887185D01*
X99162588Y-66883030D01*
X99175208Y-66876285D01*
X99186348Y-66867142D01*
X99292268Y-66761222D01*
X99301411Y-66750082D01*
X99308156Y-66737462D01*
X99312311Y-66723767D01*
X99313713Y-66709530D01*
X99312311Y-66695293D01*
X99308156Y-66681598D01*
X99301411Y-66668978D01*
X99292268Y-66657838D01*
X98355498Y-65721068D01*
X98344358Y-65711925D01*
X98331738Y-65705180D01*
X98318043Y-65701025D01*
X98303806Y-65699623D01*
X98289569Y-65701025D01*
X98275874Y-65705180D01*
X98263254Y-65711925D01*
X98252114Y-65721068D01*
X98146194Y-65826988D01*
X98137051Y-65838128D01*
X98130306Y-65850748D01*
X98126151Y-65864443D01*
X98124749Y-65878680D01*
X98108613Y-65878680D01*
X98108613Y-65878484D01*
X98109473Y-65869761D01*
X98109549Y-65869376D01*
X98112093Y-65860989D01*
X98112243Y-65860627D01*
X98116374Y-65852897D01*
X98116592Y-65852571D01*
X98124028Y-65843510D01*
X98124160Y-65843365D01*
X98268491Y-65699034D01*
X98268636Y-65698902D01*
X98277697Y-65691466D01*
X98278023Y-65691248D01*
X98285753Y-65687117D01*
X98286115Y-65686967D01*
X98294502Y-65684423D01*
X98294887Y-65684347D01*
X98303610Y-65683487D01*
X98304002Y-65683487D01*
X98312725Y-65684347D01*
G37*
G36*
X107505113Y-65684347D02*
G01*
X107505498Y-65684423D01*
X107513885Y-65686967D01*
X107514247Y-65687117D01*
X107521977Y-65691248D01*
X107522303Y-65691466D01*
X107531364Y-65698902D01*
X107531509Y-65699034D01*
X107675840Y-65843365D01*
X107675972Y-65843510D01*
X107683408Y-65852571D01*
X107683626Y-65852897D01*
X107687757Y-65860627D01*
X107687907Y-65860989D01*
X107690451Y-65869376D01*
X107690527Y-65869761D01*
X107691387Y-65878484D01*
X107691387Y-65878876D01*
X107690527Y-65887599D01*
X107690451Y-65887984D01*
X107687907Y-65896371D01*
X107687757Y-65896733D01*
X107683626Y-65904463D01*
X107683408Y-65904789D01*
X107675972Y-65913850D01*
X107675840Y-65913995D01*
X106700659Y-66889176D01*
X106700514Y-66889308D01*
X106691453Y-66896744D01*
X106691127Y-66896962D01*
X106683397Y-66901093D01*
X106683035Y-66901243D01*
X106674648Y-66903787D01*
X106674263Y-66903863D01*
X106665540Y-66904723D01*
X106665148Y-66904723D01*
X106656425Y-66903863D01*
X106656040Y-66903787D01*
X106647653Y-66901243D01*
X106647291Y-66901093D01*
X106639561Y-66896962D01*
X106639235Y-66896744D01*
X106630174Y-66889308D01*
X106630029Y-66889176D01*
X106485698Y-66744845D01*
X106485566Y-66744700D01*
X106478130Y-66735639D01*
X106477912Y-66735313D01*
X106473781Y-66727583D01*
X106473631Y-66727221D01*
X106471087Y-66718834D01*
X106471011Y-66718449D01*
X106470151Y-66709726D01*
X106470151Y-66709530D01*
X106486287Y-66709530D01*
X106487689Y-66723767D01*
X106491844Y-66737462D01*
X106498589Y-66750082D01*
X106507732Y-66761222D01*
X106613652Y-66867142D01*
X106624792Y-66876285D01*
X106637412Y-66883030D01*
X106651107Y-66887185D01*
X106665344Y-66888587D01*
X106679581Y-66887185D01*
X106693276Y-66883030D01*
X106705896Y-66876285D01*
X106717036Y-66867142D01*
X107653806Y-65930372D01*
X107662949Y-65919232D01*
X107669694Y-65906612D01*
X107673849Y-65892917D01*
X107675251Y-65878680D01*
X107673849Y-65864443D01*
X107669694Y-65850748D01*
X107662949Y-65838128D01*
X107653806Y-65826988D01*
X107547886Y-65721068D01*
X107536746Y-65711925D01*
X107524126Y-65705180D01*
X107510431Y-65701025D01*
X107496194Y-65699623D01*
X107481957Y-65701025D01*
X107468262Y-65705180D01*
X107455642Y-65711925D01*
X107444502Y-65721068D01*
X106507732Y-66657838D01*
X106498589Y-66668978D01*
X106491844Y-66681598D01*
X106487689Y-66695293D01*
X106486287Y-66709530D01*
X106470151Y-66709530D01*
X106470151Y-66709334D01*
X106471011Y-66700611D01*
X106471087Y-66700226D01*
X106473631Y-66691839D01*
X106473781Y-66691477D01*
X106477912Y-66683747D01*
X106478130Y-66683421D01*
X106485566Y-66674360D01*
X106485698Y-66674215D01*
X107460879Y-65699034D01*
X107461024Y-65698902D01*
X107470085Y-65691466D01*
X107470411Y-65691248D01*
X107478141Y-65687117D01*
X107478503Y-65686967D01*
X107486890Y-65684423D01*
X107487275Y-65684347D01*
X107495998Y-65683487D01*
X107496390Y-65683487D01*
X107505113Y-65684347D01*
G37*
G36*
X98666279Y-65330793D02*
G01*
X98666664Y-65330869D01*
X98675051Y-65333413D01*
X98675413Y-65333563D01*
X98683143Y-65337694D01*
X98683469Y-65337912D01*
X98692530Y-65345348D01*
X98692675Y-65345480D01*
X99667856Y-66320661D01*
X99667988Y-66320806D01*
X99675424Y-66329867D01*
X99675642Y-66330193D01*
X99679773Y-66337923D01*
X99679923Y-66338285D01*
X99682467Y-66346672D01*
X99682543Y-66347057D01*
X99683403Y-66355780D01*
X99683403Y-66356172D01*
X99682543Y-66364895D01*
X99682467Y-66365280D01*
X99679923Y-66373667D01*
X99679773Y-66374029D01*
X99675642Y-66381759D01*
X99675424Y-66382085D01*
X99667988Y-66391146D01*
X99667856Y-66391291D01*
X99523525Y-66535622D01*
X99523380Y-66535754D01*
X99514319Y-66543190D01*
X99513993Y-66543408D01*
X99506263Y-66547539D01*
X99505901Y-66547689D01*
X99497514Y-66550233D01*
X99497129Y-66550309D01*
X99488406Y-66551169D01*
X99488014Y-66551169D01*
X99479291Y-66550309D01*
X99478906Y-66550233D01*
X99470519Y-66547689D01*
X99470157Y-66547539D01*
X99462427Y-66543408D01*
X99462101Y-66543190D01*
X99453040Y-66535754D01*
X99452895Y-66535622D01*
X98477714Y-65560441D01*
X98477582Y-65560296D01*
X98470146Y-65551235D01*
X98469928Y-65550909D01*
X98465797Y-65543179D01*
X98465647Y-65542817D01*
X98463103Y-65534430D01*
X98463027Y-65534045D01*
X98462167Y-65525322D01*
X98462167Y-65525126D01*
X98478303Y-65525126D01*
X98479705Y-65539363D01*
X98483860Y-65553058D01*
X98490605Y-65565678D01*
X98499748Y-65576818D01*
X99436518Y-66513588D01*
X99447658Y-66522731D01*
X99460278Y-66529476D01*
X99473973Y-66533631D01*
X99488210Y-66535033D01*
X99502447Y-66533631D01*
X99516142Y-66529476D01*
X99528762Y-66522731D01*
X99539902Y-66513588D01*
X99645822Y-66407668D01*
X99654965Y-66396528D01*
X99661710Y-66383908D01*
X99665865Y-66370213D01*
X99667267Y-66355976D01*
X99665865Y-66341739D01*
X99661710Y-66328044D01*
X99654965Y-66315424D01*
X99645822Y-66304284D01*
X98709052Y-65367514D01*
X98697912Y-65358371D01*
X98685292Y-65351626D01*
X98671597Y-65347471D01*
X98657360Y-65346069D01*
X98643123Y-65347471D01*
X98629428Y-65351626D01*
X98616808Y-65358371D01*
X98605668Y-65367514D01*
X98499748Y-65473434D01*
X98490605Y-65484574D01*
X98483860Y-65497194D01*
X98479705Y-65510889D01*
X98478303Y-65525126D01*
X98462167Y-65525126D01*
X98462167Y-65524930D01*
X98463027Y-65516207D01*
X98463103Y-65515822D01*
X98465647Y-65507435D01*
X98465797Y-65507073D01*
X98469928Y-65499343D01*
X98470146Y-65499017D01*
X98477582Y-65489956D01*
X98477714Y-65489811D01*
X98622045Y-65345480D01*
X98622190Y-65345348D01*
X98631251Y-65337912D01*
X98631577Y-65337694D01*
X98639307Y-65333563D01*
X98639669Y-65333413D01*
X98648056Y-65330869D01*
X98648441Y-65330793D01*
X98657164Y-65329933D01*
X98657556Y-65329933D01*
X98666279Y-65330793D01*
G37*
G36*
X107151559Y-65330793D02*
G01*
X107151944Y-65330869D01*
X107160331Y-65333413D01*
X107160693Y-65333563D01*
X107168423Y-65337694D01*
X107168749Y-65337912D01*
X107177810Y-65345348D01*
X107177955Y-65345480D01*
X107322286Y-65489811D01*
X107322418Y-65489956D01*
X107329854Y-65499017D01*
X107330072Y-65499343D01*
X107334203Y-65507073D01*
X107334353Y-65507435D01*
X107336897Y-65515822D01*
X107336973Y-65516207D01*
X107337833Y-65524930D01*
X107337833Y-65525322D01*
X107336973Y-65534045D01*
X107336897Y-65534430D01*
X107334353Y-65542817D01*
X107334203Y-65543179D01*
X107330072Y-65550909D01*
X107329854Y-65551235D01*
X107322418Y-65560296D01*
X107322286Y-65560441D01*
X106347105Y-66535622D01*
X106346960Y-66535754D01*
X106337899Y-66543190D01*
X106337573Y-66543408D01*
X106329843Y-66547539D01*
X106329481Y-66547689D01*
X106321094Y-66550233D01*
X106320709Y-66550309D01*
X106311986Y-66551169D01*
X106311594Y-66551169D01*
X106302871Y-66550309D01*
X106302486Y-66550233D01*
X106294099Y-66547689D01*
X106293737Y-66547539D01*
X106286007Y-66543408D01*
X106285681Y-66543190D01*
X106276620Y-66535754D01*
X106276475Y-66535622D01*
X106132144Y-66391291D01*
X106132012Y-66391146D01*
X106124576Y-66382085D01*
X106124358Y-66381759D01*
X106120227Y-66374029D01*
X106120077Y-66373667D01*
X106117533Y-66365280D01*
X106117457Y-66364895D01*
X106116597Y-66356172D01*
X106116597Y-66355976D01*
X106132733Y-66355976D01*
X106134135Y-66370213D01*
X106138290Y-66383908D01*
X106145035Y-66396528D01*
X106154178Y-66407668D01*
X106260098Y-66513588D01*
X106271238Y-66522731D01*
X106283858Y-66529476D01*
X106297553Y-66533631D01*
X106311790Y-66535033D01*
X106326027Y-66533631D01*
X106339722Y-66529476D01*
X106352342Y-66522731D01*
X106363482Y-66513588D01*
X107300252Y-65576818D01*
X107309395Y-65565678D01*
X107316140Y-65553058D01*
X107320295Y-65539363D01*
X107321697Y-65525126D01*
X107320295Y-65510889D01*
X107316140Y-65497194D01*
X107309395Y-65484574D01*
X107300252Y-65473434D01*
X107194332Y-65367514D01*
X107183192Y-65358371D01*
X107170572Y-65351626D01*
X107156877Y-65347471D01*
X107142640Y-65346069D01*
X107128403Y-65347471D01*
X107114708Y-65351626D01*
X107102088Y-65358371D01*
X107090948Y-65367514D01*
X106154178Y-66304284D01*
X106145035Y-66315424D01*
X106138290Y-66328044D01*
X106134135Y-66341739D01*
X106132733Y-66355976D01*
X106116597Y-66355976D01*
X106116597Y-66355780D01*
X106117457Y-66347057D01*
X106117533Y-66346672D01*
X106120077Y-66338285D01*
X106120227Y-66337923D01*
X106124358Y-66330193D01*
X106124576Y-66329867D01*
X106132012Y-66320806D01*
X106132144Y-66320661D01*
X107107325Y-65345480D01*
X107107470Y-65345348D01*
X107116531Y-65337912D01*
X107116857Y-65337694D01*
X107124587Y-65333563D01*
X107124949Y-65333413D01*
X107133336Y-65330869D01*
X107133721Y-65330793D01*
X107142444Y-65329933D01*
X107142836Y-65329933D01*
X107151559Y-65330793D01*
G37*
G36*
X99019832Y-64977240D02*
G01*
X99020217Y-64977316D01*
X99028604Y-64979860D01*
X99028966Y-64980010D01*
X99036696Y-64984141D01*
X99037022Y-64984359D01*
X99046083Y-64991795D01*
X99046228Y-64991927D01*
X100021409Y-65967108D01*
X100021541Y-65967253D01*
X100028977Y-65976314D01*
X100029195Y-65976640D01*
X100033326Y-65984370D01*
X100033476Y-65984732D01*
X100036020Y-65993119D01*
X100036096Y-65993504D01*
X100036956Y-66002227D01*
X100036956Y-66002619D01*
X100036096Y-66011342D01*
X100036020Y-66011727D01*
X100033476Y-66020114D01*
X100033326Y-66020476D01*
X100029195Y-66028206D01*
X100028977Y-66028532D01*
X100021541Y-66037593D01*
X100021409Y-66037738D01*
X99877078Y-66182069D01*
X99876933Y-66182201D01*
X99867872Y-66189637D01*
X99867546Y-66189855D01*
X99859816Y-66193986D01*
X99859454Y-66194136D01*
X99851067Y-66196680D01*
X99850682Y-66196756D01*
X99841959Y-66197616D01*
X99841567Y-66197616D01*
X99832844Y-66196756D01*
X99832459Y-66196680D01*
X99824072Y-66194136D01*
X99823710Y-66193986D01*
X99815980Y-66189855D01*
X99815654Y-66189637D01*
X99806593Y-66182201D01*
X99806448Y-66182069D01*
X98831267Y-65206888D01*
X98831135Y-65206743D01*
X98823699Y-65197682D01*
X98823481Y-65197356D01*
X98819350Y-65189626D01*
X98819200Y-65189264D01*
X98816656Y-65180877D01*
X98816580Y-65180492D01*
X98815720Y-65171769D01*
X98815720Y-65171573D01*
X98831856Y-65171573D01*
X98833258Y-65185810D01*
X98837413Y-65199505D01*
X98844158Y-65212125D01*
X98853301Y-65223265D01*
X99790071Y-66160035D01*
X99801211Y-66169178D01*
X99813831Y-66175923D01*
X99827526Y-66180078D01*
X99841763Y-66181480D01*
X99856000Y-66180078D01*
X99869695Y-66175923D01*
X99882315Y-66169178D01*
X99893455Y-66160035D01*
X99999375Y-66054115D01*
X100008518Y-66042975D01*
X100015263Y-66030355D01*
X100019418Y-66016660D01*
X100020820Y-66002423D01*
X100019418Y-65988186D01*
X100015263Y-65974491D01*
X100008518Y-65961871D01*
X99999375Y-65950731D01*
X99062605Y-65013961D01*
X99051465Y-65004818D01*
X99038845Y-64998073D01*
X99025150Y-64993918D01*
X99010913Y-64992516D01*
X98996676Y-64993918D01*
X98982981Y-64998073D01*
X98970361Y-65004818D01*
X98959221Y-65013961D01*
X98853301Y-65119881D01*
X98844158Y-65131021D01*
X98837413Y-65143641D01*
X98833258Y-65157336D01*
X98831856Y-65171573D01*
X98815720Y-65171573D01*
X98815720Y-65171377D01*
X98816580Y-65162654D01*
X98816656Y-65162269D01*
X98819200Y-65153882D01*
X98819350Y-65153520D01*
X98823481Y-65145790D01*
X98823699Y-65145464D01*
X98831135Y-65136403D01*
X98831267Y-65136258D01*
X98975598Y-64991927D01*
X98975743Y-64991795D01*
X98984804Y-64984359D01*
X98985130Y-64984141D01*
X98992860Y-64980010D01*
X98993222Y-64979860D01*
X99001609Y-64977316D01*
X99001994Y-64977240D01*
X99010717Y-64976380D01*
X99011109Y-64976380D01*
X99019832Y-64977240D01*
G37*
G36*
X106798006Y-64977240D02*
G01*
X106798391Y-64977316D01*
X106806778Y-64979860D01*
X106807140Y-64980010D01*
X106814870Y-64984141D01*
X106815196Y-64984359D01*
X106824257Y-64991795D01*
X106824402Y-64991927D01*
X106968733Y-65136258D01*
X106968865Y-65136403D01*
X106976301Y-65145464D01*
X106976519Y-65145790D01*
X106980650Y-65153520D01*
X106980800Y-65153882D01*
X106983344Y-65162269D01*
X106983420Y-65162654D01*
X106984280Y-65171377D01*
X106984280Y-65171769D01*
X106983420Y-65180492D01*
X106983344Y-65180877D01*
X106980800Y-65189264D01*
X106980650Y-65189626D01*
X106976519Y-65197356D01*
X106976301Y-65197682D01*
X106968865Y-65206743D01*
X106968733Y-65206888D01*
X105993552Y-66182069D01*
X105993407Y-66182201D01*
X105984346Y-66189637D01*
X105984020Y-66189855D01*
X105976290Y-66193986D01*
X105975928Y-66194136D01*
X105967541Y-66196680D01*
X105967156Y-66196756D01*
X105958433Y-66197616D01*
X105958041Y-66197616D01*
X105949318Y-66196756D01*
X105948933Y-66196680D01*
X105940546Y-66194136D01*
X105940184Y-66193986D01*
X105932454Y-66189855D01*
X105932128Y-66189637D01*
X105923067Y-66182201D01*
X105922922Y-66182069D01*
X105778591Y-66037738D01*
X105778459Y-66037593D01*
X105771023Y-66028532D01*
X105770805Y-66028206D01*
X105766674Y-66020476D01*
X105766524Y-66020114D01*
X105763980Y-66011727D01*
X105763904Y-66011342D01*
X105763044Y-66002619D01*
X105763044Y-66002423D01*
X105779180Y-66002423D01*
X105780582Y-66016660D01*
X105784737Y-66030355D01*
X105791482Y-66042975D01*
X105800625Y-66054115D01*
X105906545Y-66160035D01*
X105917685Y-66169178D01*
X105930305Y-66175923D01*
X105944000Y-66180078D01*
X105958237Y-66181480D01*
X105972474Y-66180078D01*
X105986169Y-66175923D01*
X105998789Y-66169178D01*
X106009929Y-66160035D01*
X106946699Y-65223265D01*
X106955842Y-65212125D01*
X106962587Y-65199505D01*
X106966742Y-65185810D01*
X106968144Y-65171573D01*
X106966742Y-65157336D01*
X106962587Y-65143641D01*
X106955842Y-65131021D01*
X106946699Y-65119881D01*
X106840779Y-65013961D01*
X106829639Y-65004818D01*
X106817019Y-64998073D01*
X106803324Y-64993918D01*
X106789087Y-64992516D01*
X106774850Y-64993918D01*
X106761155Y-64998073D01*
X106748535Y-65004818D01*
X106737395Y-65013961D01*
X105800625Y-65950731D01*
X105791482Y-65961871D01*
X105784737Y-65974491D01*
X105780582Y-65988186D01*
X105779180Y-66002423D01*
X105763044Y-66002423D01*
X105763044Y-66002227D01*
X105763904Y-65993504D01*
X105763980Y-65993119D01*
X105766524Y-65984732D01*
X105766674Y-65984370D01*
X105770805Y-65976640D01*
X105771023Y-65976314D01*
X105778459Y-65967253D01*
X105778591Y-65967108D01*
X106753772Y-64991927D01*
X106753917Y-64991795D01*
X106762978Y-64984359D01*
X106763304Y-64984141D01*
X106771034Y-64980010D01*
X106771396Y-64979860D01*
X106779783Y-64977316D01*
X106780168Y-64977240D01*
X106788891Y-64976380D01*
X106789283Y-64976380D01*
X106798006Y-64977240D01*
G37*
G36*
X106444453Y-64623687D02*
G01*
X106444838Y-64623763D01*
X106453225Y-64626307D01*
X106453587Y-64626457D01*
X106461317Y-64630588D01*
X106461643Y-64630806D01*
X106470704Y-64638242D01*
X106470849Y-64638374D01*
X106615180Y-64782705D01*
X106615312Y-64782850D01*
X106622748Y-64791911D01*
X106622966Y-64792237D01*
X106627097Y-64799967D01*
X106627247Y-64800329D01*
X106629791Y-64808716D01*
X106629867Y-64809101D01*
X106630727Y-64817824D01*
X106630727Y-64818216D01*
X106629867Y-64826939D01*
X106629791Y-64827324D01*
X106627247Y-64835711D01*
X106627097Y-64836073D01*
X106622966Y-64843803D01*
X106622748Y-64844129D01*
X106615312Y-64853190D01*
X106615180Y-64853335D01*
X105639999Y-65828516D01*
X105639854Y-65828648D01*
X105630793Y-65836084D01*
X105630467Y-65836302D01*
X105622737Y-65840433D01*
X105622375Y-65840583D01*
X105613988Y-65843127D01*
X105613603Y-65843203D01*
X105604880Y-65844063D01*
X105604488Y-65844063D01*
X105595765Y-65843203D01*
X105595380Y-65843127D01*
X105586993Y-65840583D01*
X105586631Y-65840433D01*
X105578901Y-65836302D01*
X105578575Y-65836084D01*
X105569514Y-65828648D01*
X105569369Y-65828516D01*
X105425038Y-65684185D01*
X105424906Y-65684040D01*
X105417470Y-65674979D01*
X105417252Y-65674653D01*
X105413121Y-65666923D01*
X105412971Y-65666561D01*
X105410427Y-65658174D01*
X105410351Y-65657789D01*
X105409491Y-65649066D01*
X105409491Y-65648870D01*
X105425627Y-65648870D01*
X105427029Y-65663107D01*
X105431184Y-65676802D01*
X105437929Y-65689422D01*
X105447072Y-65700562D01*
X105552992Y-65806482D01*
X105564132Y-65815625D01*
X105576752Y-65822370D01*
X105590447Y-65826525D01*
X105604684Y-65827927D01*
X105618921Y-65826525D01*
X105632616Y-65822370D01*
X105645236Y-65815625D01*
X105656376Y-65806482D01*
X106593146Y-64869712D01*
X106602289Y-64858572D01*
X106609034Y-64845952D01*
X106613189Y-64832257D01*
X106614591Y-64818020D01*
X106613189Y-64803783D01*
X106609034Y-64790088D01*
X106602289Y-64777468D01*
X106593146Y-64766328D01*
X106487226Y-64660408D01*
X106476086Y-64651265D01*
X106463466Y-64644520D01*
X106449771Y-64640365D01*
X106435534Y-64638963D01*
X106421297Y-64640365D01*
X106407602Y-64644520D01*
X106394982Y-64651265D01*
X106383842Y-64660408D01*
X105447072Y-65597178D01*
X105437929Y-65608318D01*
X105431184Y-65620938D01*
X105427029Y-65634633D01*
X105425627Y-65648870D01*
X105409491Y-65648870D01*
X105409491Y-65648674D01*
X105410351Y-65639951D01*
X105410427Y-65639566D01*
X105412971Y-65631179D01*
X105413121Y-65630817D01*
X105417252Y-65623087D01*
X105417470Y-65622761D01*
X105424906Y-65613700D01*
X105425038Y-65613555D01*
X106400219Y-64638374D01*
X106400364Y-64638242D01*
X106409425Y-64630806D01*
X106409751Y-64630588D01*
X106417481Y-64626457D01*
X106417843Y-64626307D01*
X106426230Y-64623763D01*
X106426615Y-64623687D01*
X106435338Y-64622827D01*
X106435730Y-64622827D01*
X106444453Y-64623687D01*
G37*
G36*
X99373385Y-64623687D02*
G01*
X99373770Y-64623763D01*
X99382157Y-64626307D01*
X99382519Y-64626457D01*
X99390249Y-64630588D01*
X99390575Y-64630806D01*
X99399636Y-64638242D01*
X99399781Y-64638374D01*
X100374962Y-65613555D01*
X100375094Y-65613700D01*
X100382530Y-65622761D01*
X100382748Y-65623087D01*
X100386879Y-65630817D01*
X100387029Y-65631179D01*
X100389573Y-65639566D01*
X100389649Y-65639951D01*
X100390509Y-65648674D01*
X100390509Y-65649066D01*
X100389649Y-65657789D01*
X100389573Y-65658174D01*
X100387029Y-65666561D01*
X100386879Y-65666923D01*
X100382748Y-65674653D01*
X100382530Y-65674979D01*
X100375094Y-65684040D01*
X100374962Y-65684185D01*
X100230631Y-65828516D01*
X100230486Y-65828648D01*
X100221425Y-65836084D01*
X100221099Y-65836302D01*
X100213369Y-65840433D01*
X100213007Y-65840583D01*
X100204620Y-65843127D01*
X100204235Y-65843203D01*
X100195512Y-65844063D01*
X100195120Y-65844063D01*
X100186397Y-65843203D01*
X100186012Y-65843127D01*
X100177625Y-65840583D01*
X100177263Y-65840433D01*
X100169533Y-65836302D01*
X100169207Y-65836084D01*
X100160146Y-65828648D01*
X100160001Y-65828516D01*
X99184820Y-64853335D01*
X99184688Y-64853190D01*
X99177252Y-64844129D01*
X99177034Y-64843803D01*
X99172903Y-64836073D01*
X99172753Y-64835711D01*
X99170209Y-64827324D01*
X99170133Y-64826939D01*
X99169273Y-64818216D01*
X99169273Y-64818020D01*
X99185409Y-64818020D01*
X99186811Y-64832257D01*
X99190966Y-64845952D01*
X99197711Y-64858572D01*
X99206854Y-64869712D01*
X100143624Y-65806482D01*
X100154764Y-65815625D01*
X100167384Y-65822370D01*
X100181079Y-65826525D01*
X100195316Y-65827927D01*
X100209553Y-65826525D01*
X100223248Y-65822370D01*
X100235868Y-65815625D01*
X100247008Y-65806482D01*
X100352928Y-65700562D01*
X100362071Y-65689422D01*
X100368816Y-65676802D01*
X100372971Y-65663107D01*
X100374373Y-65648870D01*
X100372971Y-65634633D01*
X100368816Y-65620938D01*
X100362071Y-65608318D01*
X100352928Y-65597178D01*
X99416158Y-64660408D01*
X99405018Y-64651265D01*
X99392398Y-64644520D01*
X99378703Y-64640365D01*
X99364466Y-64638963D01*
X99350229Y-64640365D01*
X99336534Y-64644520D01*
X99323914Y-64651265D01*
X99312774Y-64660408D01*
X99206854Y-64766328D01*
X99197711Y-64777468D01*
X99190966Y-64790088D01*
X99186811Y-64803783D01*
X99185409Y-64818020D01*
X99169273Y-64818020D01*
X99169273Y-64817824D01*
X99170133Y-64809101D01*
X99170209Y-64808716D01*
X99172753Y-64800329D01*
X99172903Y-64799967D01*
X99177034Y-64792237D01*
X99177252Y-64791911D01*
X99184688Y-64782850D01*
X99184820Y-64782705D01*
X99329151Y-64638374D01*
X99329296Y-64638242D01*
X99338357Y-64630806D01*
X99338683Y-64630588D01*
X99346413Y-64626457D01*
X99346775Y-64626307D01*
X99355162Y-64623763D01*
X99355547Y-64623687D01*
X99364270Y-64622827D01*
X99364662Y-64622827D01*
X99373385Y-64623687D01*
G37*
G36*
X106090899Y-64270133D02*
G01*
X106091284Y-64270209D01*
X106099671Y-64272753D01*
X106100033Y-64272903D01*
X106107763Y-64277034D01*
X106108089Y-64277252D01*
X106117150Y-64284688D01*
X106117295Y-64284820D01*
X106261626Y-64429151D01*
X106261758Y-64429296D01*
X106269194Y-64438357D01*
X106269412Y-64438683D01*
X106273543Y-64446413D01*
X106273693Y-64446775D01*
X106276237Y-64455162D01*
X106276313Y-64455547D01*
X106277173Y-64464270D01*
X106277173Y-64464662D01*
X106276313Y-64473385D01*
X106276237Y-64473770D01*
X106273693Y-64482157D01*
X106273543Y-64482519D01*
X106269412Y-64490249D01*
X106269194Y-64490575D01*
X106261758Y-64499636D01*
X106261626Y-64499781D01*
X105286445Y-65474962D01*
X105286300Y-65475094D01*
X105277239Y-65482530D01*
X105276913Y-65482748D01*
X105269183Y-65486879D01*
X105268821Y-65487029D01*
X105260434Y-65489573D01*
X105260049Y-65489649D01*
X105251326Y-65490509D01*
X105250934Y-65490509D01*
X105242211Y-65489649D01*
X105241826Y-65489573D01*
X105233439Y-65487029D01*
X105233077Y-65486879D01*
X105225347Y-65482748D01*
X105225021Y-65482530D01*
X105215960Y-65475094D01*
X105215815Y-65474962D01*
X105071484Y-65330631D01*
X105071352Y-65330486D01*
X105063916Y-65321425D01*
X105063698Y-65321099D01*
X105059567Y-65313369D01*
X105059417Y-65313007D01*
X105056873Y-65304620D01*
X105056797Y-65304235D01*
X105055937Y-65295512D01*
X105055937Y-65295316D01*
X105072073Y-65295316D01*
X105073475Y-65309553D01*
X105077630Y-65323248D01*
X105084375Y-65335868D01*
X105093518Y-65347008D01*
X105199438Y-65452928D01*
X105210578Y-65462071D01*
X105223198Y-65468816D01*
X105236893Y-65472971D01*
X105251130Y-65474373D01*
X105265367Y-65472971D01*
X105279062Y-65468816D01*
X105291682Y-65462071D01*
X105302822Y-65452928D01*
X106239592Y-64516158D01*
X106248735Y-64505018D01*
X106255480Y-64492398D01*
X106259635Y-64478703D01*
X106261037Y-64464466D01*
X106259635Y-64450229D01*
X106255480Y-64436534D01*
X106248735Y-64423914D01*
X106239592Y-64412774D01*
X106133672Y-64306854D01*
X106122532Y-64297711D01*
X106109912Y-64290966D01*
X106096217Y-64286811D01*
X106081980Y-64285409D01*
X106067743Y-64286811D01*
X106054048Y-64290966D01*
X106041428Y-64297711D01*
X106030288Y-64306854D01*
X105093518Y-65243624D01*
X105084375Y-65254764D01*
X105077630Y-65267384D01*
X105073475Y-65281079D01*
X105072073Y-65295316D01*
X105055937Y-65295316D01*
X105055937Y-65295120D01*
X105056797Y-65286397D01*
X105056873Y-65286012D01*
X105059417Y-65277625D01*
X105059567Y-65277263D01*
X105063698Y-65269533D01*
X105063916Y-65269207D01*
X105071352Y-65260146D01*
X105071484Y-65260001D01*
X106046665Y-64284820D01*
X106046810Y-64284688D01*
X106055871Y-64277252D01*
X106056197Y-64277034D01*
X106063927Y-64272903D01*
X106064289Y-64272753D01*
X106072676Y-64270209D01*
X106073061Y-64270133D01*
X106081784Y-64269273D01*
X106082176Y-64269273D01*
X106090899Y-64270133D01*
G37*
G36*
X99726939Y-64270133D02*
G01*
X99727324Y-64270209D01*
X99735711Y-64272753D01*
X99736073Y-64272903D01*
X99743803Y-64277034D01*
X99744129Y-64277252D01*
X99753190Y-64284688D01*
X99753335Y-64284820D01*
X100728516Y-65260001D01*
X100728648Y-65260146D01*
X100736084Y-65269207D01*
X100736302Y-65269533D01*
X100740433Y-65277263D01*
X100740583Y-65277625D01*
X100743127Y-65286012D01*
X100743203Y-65286397D01*
X100744063Y-65295120D01*
X100744063Y-65295512D01*
X100743203Y-65304235D01*
X100743127Y-65304620D01*
X100740583Y-65313007D01*
X100740433Y-65313369D01*
X100736302Y-65321099D01*
X100736084Y-65321425D01*
X100728648Y-65330486D01*
X100728516Y-65330631D01*
X100584185Y-65474962D01*
X100584040Y-65475094D01*
X100574979Y-65482530D01*
X100574653Y-65482748D01*
X100566923Y-65486879D01*
X100566561Y-65487029D01*
X100558174Y-65489573D01*
X100557789Y-65489649D01*
X100549066Y-65490509D01*
X100548674Y-65490509D01*
X100539951Y-65489649D01*
X100539566Y-65489573D01*
X100531179Y-65487029D01*
X100530817Y-65486879D01*
X100523087Y-65482748D01*
X100522761Y-65482530D01*
X100513700Y-65475094D01*
X100513555Y-65474962D01*
X99538374Y-64499781D01*
X99538242Y-64499636D01*
X99530806Y-64490575D01*
X99530588Y-64490249D01*
X99526457Y-64482519D01*
X99526307Y-64482157D01*
X99523763Y-64473770D01*
X99523687Y-64473385D01*
X99522827Y-64464662D01*
X99522827Y-64464466D01*
X99538963Y-64464466D01*
X99540365Y-64478703D01*
X99544520Y-64492398D01*
X99551265Y-64505018D01*
X99560408Y-64516158D01*
X100497178Y-65452928D01*
X100508318Y-65462071D01*
X100520938Y-65468816D01*
X100534633Y-65472971D01*
X100548870Y-65474373D01*
X100563107Y-65472971D01*
X100576802Y-65468816D01*
X100589422Y-65462071D01*
X100600562Y-65452928D01*
X100706482Y-65347008D01*
X100715625Y-65335868D01*
X100722370Y-65323248D01*
X100726525Y-65309553D01*
X100727927Y-65295316D01*
X100726525Y-65281079D01*
X100722370Y-65267384D01*
X100715625Y-65254764D01*
X100706482Y-65243624D01*
X99769712Y-64306854D01*
X99758572Y-64297711D01*
X99745952Y-64290966D01*
X99732257Y-64286811D01*
X99718020Y-64285409D01*
X99703783Y-64286811D01*
X99690088Y-64290966D01*
X99677468Y-64297711D01*
X99666328Y-64306854D01*
X99560408Y-64412774D01*
X99551265Y-64423914D01*
X99544520Y-64436534D01*
X99540365Y-64450229D01*
X99538963Y-64464466D01*
X99522827Y-64464466D01*
X99522827Y-64464270D01*
X99523687Y-64455547D01*
X99523763Y-64455162D01*
X99526307Y-64446775D01*
X99526457Y-64446413D01*
X99530588Y-64438683D01*
X99530806Y-64438357D01*
X99538242Y-64429296D01*
X99538374Y-64429151D01*
X99682705Y-64284820D01*
X99682850Y-64284688D01*
X99691911Y-64277252D01*
X99692237Y-64277034D01*
X99699967Y-64272903D01*
X99700329Y-64272753D01*
X99708716Y-64270209D01*
X99709101Y-64270133D01*
X99717824Y-64269273D01*
X99718216Y-64269273D01*
X99726939Y-64270133D01*
G37*
G36*
X100080492Y-63916580D02*
G01*
X100080877Y-63916656D01*
X100089264Y-63919200D01*
X100089626Y-63919350D01*
X100097356Y-63923481D01*
X100097682Y-63923699D01*
X100106743Y-63931135D01*
X100106888Y-63931267D01*
X101082069Y-64906448D01*
X101082201Y-64906593D01*
X101089637Y-64915654D01*
X101089855Y-64915980D01*
X101093986Y-64923710D01*
X101094136Y-64924072D01*
X101096680Y-64932459D01*
X101096756Y-64932844D01*
X101097616Y-64941567D01*
X101097616Y-64941959D01*
X101096756Y-64950682D01*
X101096680Y-64951067D01*
X101094136Y-64959454D01*
X101093986Y-64959816D01*
X101089855Y-64967546D01*
X101089637Y-64967872D01*
X101082201Y-64976933D01*
X101082069Y-64977078D01*
X100937738Y-65121409D01*
X100937593Y-65121541D01*
X100928532Y-65128977D01*
X100928206Y-65129195D01*
X100920476Y-65133326D01*
X100920114Y-65133476D01*
X100911727Y-65136020D01*
X100911342Y-65136096D01*
X100902619Y-65136956D01*
X100902227Y-65136956D01*
X100893504Y-65136096D01*
X100893119Y-65136020D01*
X100884732Y-65133476D01*
X100884370Y-65133326D01*
X100876640Y-65129195D01*
X100876314Y-65128977D01*
X100867253Y-65121541D01*
X100867108Y-65121409D01*
X99891927Y-64146228D01*
X99891795Y-64146083D01*
X99884359Y-64137022D01*
X99884141Y-64136696D01*
X99880010Y-64128966D01*
X99879860Y-64128604D01*
X99877316Y-64120217D01*
X99877240Y-64119832D01*
X99876380Y-64111109D01*
X99876380Y-64110913D01*
X99892516Y-64110913D01*
X99893918Y-64125150D01*
X99898073Y-64138845D01*
X99904818Y-64151465D01*
X99913961Y-64162605D01*
X100850731Y-65099375D01*
X100861871Y-65108518D01*
X100874491Y-65115263D01*
X100888186Y-65119418D01*
X100902423Y-65120820D01*
X100916660Y-65119418D01*
X100930355Y-65115263D01*
X100942975Y-65108518D01*
X100954115Y-65099375D01*
X101060035Y-64993455D01*
X101069178Y-64982315D01*
X101075923Y-64969695D01*
X101080078Y-64956000D01*
X101081480Y-64941763D01*
X101080078Y-64927526D01*
X101075923Y-64913831D01*
X101069178Y-64901211D01*
X101060035Y-64890071D01*
X100123265Y-63953301D01*
X100112125Y-63944158D01*
X100099505Y-63937413D01*
X100085810Y-63933258D01*
X100071573Y-63931856D01*
X100057336Y-63933258D01*
X100043641Y-63937413D01*
X100031021Y-63944158D01*
X100019881Y-63953301D01*
X99913961Y-64059221D01*
X99904818Y-64070361D01*
X99898073Y-64082981D01*
X99893918Y-64096676D01*
X99892516Y-64110913D01*
X99876380Y-64110913D01*
X99876380Y-64110717D01*
X99877240Y-64101994D01*
X99877316Y-64101609D01*
X99879860Y-64093222D01*
X99880010Y-64092860D01*
X99884141Y-64085130D01*
X99884359Y-64084804D01*
X99891795Y-64075743D01*
X99891927Y-64075598D01*
X100036258Y-63931267D01*
X100036403Y-63931135D01*
X100045464Y-63923699D01*
X100045790Y-63923481D01*
X100053520Y-63919350D01*
X100053882Y-63919200D01*
X100062269Y-63916656D01*
X100062654Y-63916580D01*
X100071377Y-63915720D01*
X100071769Y-63915720D01*
X100080492Y-63916580D01*
G37*
G36*
X105737346Y-63916580D02*
G01*
X105737731Y-63916656D01*
X105746118Y-63919200D01*
X105746480Y-63919350D01*
X105754210Y-63923481D01*
X105754536Y-63923699D01*
X105763597Y-63931135D01*
X105763742Y-63931267D01*
X105908073Y-64075598D01*
X105908205Y-64075743D01*
X105915641Y-64084804D01*
X105915859Y-64085130D01*
X105919990Y-64092860D01*
X105920140Y-64093222D01*
X105922684Y-64101609D01*
X105922760Y-64101994D01*
X105923620Y-64110717D01*
X105923620Y-64111109D01*
X105922760Y-64119832D01*
X105922684Y-64120217D01*
X105920140Y-64128604D01*
X105919990Y-64128966D01*
X105915859Y-64136696D01*
X105915641Y-64137022D01*
X105908205Y-64146083D01*
X105908073Y-64146228D01*
X104932892Y-65121409D01*
X104932747Y-65121541D01*
X104923686Y-65128977D01*
X104923360Y-65129195D01*
X104915630Y-65133326D01*
X104915268Y-65133476D01*
X104906881Y-65136020D01*
X104906496Y-65136096D01*
X104897773Y-65136956D01*
X104897381Y-65136956D01*
X104888658Y-65136096D01*
X104888273Y-65136020D01*
X104879886Y-65133476D01*
X104879524Y-65133326D01*
X104871794Y-65129195D01*
X104871468Y-65128977D01*
X104862407Y-65121541D01*
X104862262Y-65121409D01*
X104717931Y-64977078D01*
X104717799Y-64976933D01*
X104710363Y-64967872D01*
X104710145Y-64967546D01*
X104706014Y-64959816D01*
X104705864Y-64959454D01*
X104703320Y-64951067D01*
X104703244Y-64950682D01*
X104702384Y-64941959D01*
X104702384Y-64941763D01*
X104718520Y-64941763D01*
X104719922Y-64956000D01*
X104724077Y-64969695D01*
X104730822Y-64982315D01*
X104739965Y-64993455D01*
X104845885Y-65099375D01*
X104857025Y-65108518D01*
X104869645Y-65115263D01*
X104883340Y-65119418D01*
X104897577Y-65120820D01*
X104911814Y-65119418D01*
X104925509Y-65115263D01*
X104938129Y-65108518D01*
X104949269Y-65099375D01*
X105886039Y-64162605D01*
X105895182Y-64151465D01*
X105901927Y-64138845D01*
X105906082Y-64125150D01*
X105907484Y-64110913D01*
X105906082Y-64096676D01*
X105901927Y-64082981D01*
X105895182Y-64070361D01*
X105886039Y-64059221D01*
X105780119Y-63953301D01*
X105768979Y-63944158D01*
X105756359Y-63937413D01*
X105742664Y-63933258D01*
X105728427Y-63931856D01*
X105714190Y-63933258D01*
X105700495Y-63937413D01*
X105687875Y-63944158D01*
X105676735Y-63953301D01*
X104739965Y-64890071D01*
X104730822Y-64901211D01*
X104724077Y-64913831D01*
X104719922Y-64927526D01*
X104718520Y-64941763D01*
X104702384Y-64941763D01*
X104702384Y-64941567D01*
X104703244Y-64932844D01*
X104703320Y-64932459D01*
X104705864Y-64924072D01*
X104706014Y-64923710D01*
X104710145Y-64915980D01*
X104710363Y-64915654D01*
X104717799Y-64906593D01*
X104717931Y-64906448D01*
X105693112Y-63931267D01*
X105693257Y-63931135D01*
X105702318Y-63923699D01*
X105702644Y-63923481D01*
X105710374Y-63919350D01*
X105710736Y-63919200D01*
X105719123Y-63916656D01*
X105719508Y-63916580D01*
X105728231Y-63915720D01*
X105728623Y-63915720D01*
X105737346Y-63916580D01*
G37*
G36*
X100434045Y-63563027D02*
G01*
X100434430Y-63563103D01*
X100442817Y-63565647D01*
X100443179Y-63565797D01*
X100450909Y-63569928D01*
X100451235Y-63570146D01*
X100460296Y-63577582D01*
X100460441Y-63577714D01*
X101435622Y-64552895D01*
X101435754Y-64553040D01*
X101443190Y-64562101D01*
X101443408Y-64562427D01*
X101447539Y-64570157D01*
X101447689Y-64570519D01*
X101450233Y-64578906D01*
X101450309Y-64579291D01*
X101451169Y-64588014D01*
X101451169Y-64588406D01*
X101450309Y-64597129D01*
X101450233Y-64597514D01*
X101447689Y-64605901D01*
X101447539Y-64606263D01*
X101443408Y-64613993D01*
X101443190Y-64614319D01*
X101435754Y-64623380D01*
X101435622Y-64623525D01*
X101291291Y-64767856D01*
X101291146Y-64767988D01*
X101282085Y-64775424D01*
X101281759Y-64775642D01*
X101274029Y-64779773D01*
X101273667Y-64779923D01*
X101265280Y-64782467D01*
X101264895Y-64782543D01*
X101256172Y-64783403D01*
X101255780Y-64783403D01*
X101247057Y-64782543D01*
X101246672Y-64782467D01*
X101238285Y-64779923D01*
X101237923Y-64779773D01*
X101230193Y-64775642D01*
X101229867Y-64775424D01*
X101220806Y-64767988D01*
X101220661Y-64767856D01*
X100245480Y-63792675D01*
X100245348Y-63792530D01*
X100237912Y-63783469D01*
X100237694Y-63783143D01*
X100233563Y-63775413D01*
X100233413Y-63775051D01*
X100230869Y-63766664D01*
X100230793Y-63766279D01*
X100229933Y-63757556D01*
X100229933Y-63757360D01*
X100246069Y-63757360D01*
X100247471Y-63771597D01*
X100251626Y-63785292D01*
X100258371Y-63797912D01*
X100267514Y-63809052D01*
X101204284Y-64745822D01*
X101215424Y-64754965D01*
X101228044Y-64761710D01*
X101241739Y-64765865D01*
X101255976Y-64767267D01*
X101270213Y-64765865D01*
X101283908Y-64761710D01*
X101296528Y-64754965D01*
X101307668Y-64745822D01*
X101413588Y-64639902D01*
X101422731Y-64628762D01*
X101429476Y-64616142D01*
X101433631Y-64602447D01*
X101435033Y-64588210D01*
X101433631Y-64573973D01*
X101429476Y-64560278D01*
X101422731Y-64547658D01*
X101413588Y-64536518D01*
X100476818Y-63599748D01*
X100465678Y-63590605D01*
X100453058Y-63583860D01*
X100439363Y-63579705D01*
X100425126Y-63578303D01*
X100410889Y-63579705D01*
X100397194Y-63583860D01*
X100384574Y-63590605D01*
X100373434Y-63599748D01*
X100267514Y-63705668D01*
X100258371Y-63716808D01*
X100251626Y-63729428D01*
X100247471Y-63743123D01*
X100246069Y-63757360D01*
X100229933Y-63757360D01*
X100229933Y-63757164D01*
X100230793Y-63748441D01*
X100230869Y-63748056D01*
X100233413Y-63739669D01*
X100233563Y-63739307D01*
X100237694Y-63731577D01*
X100237912Y-63731251D01*
X100245348Y-63722190D01*
X100245480Y-63722045D01*
X100389811Y-63577714D01*
X100389956Y-63577582D01*
X100399017Y-63570146D01*
X100399343Y-63569928D01*
X100407073Y-63565797D01*
X100407435Y-63565647D01*
X100415822Y-63563103D01*
X100416207Y-63563027D01*
X100424930Y-63562167D01*
X100425322Y-63562167D01*
X100434045Y-63563027D01*
G37*
G36*
X105383793Y-63563027D02*
G01*
X105384178Y-63563103D01*
X105392565Y-63565647D01*
X105392927Y-63565797D01*
X105400657Y-63569928D01*
X105400983Y-63570146D01*
X105410044Y-63577582D01*
X105410189Y-63577714D01*
X105554520Y-63722045D01*
X105554652Y-63722190D01*
X105562088Y-63731251D01*
X105562306Y-63731577D01*
X105566437Y-63739307D01*
X105566587Y-63739669D01*
X105569131Y-63748056D01*
X105569207Y-63748441D01*
X105570067Y-63757164D01*
X105570067Y-63757556D01*
X105569207Y-63766279D01*
X105569131Y-63766664D01*
X105566587Y-63775051D01*
X105566437Y-63775413D01*
X105562306Y-63783143D01*
X105562088Y-63783469D01*
X105554652Y-63792530D01*
X105554520Y-63792675D01*
X104579339Y-64767856D01*
X104579194Y-64767988D01*
X104570133Y-64775424D01*
X104569807Y-64775642D01*
X104562077Y-64779773D01*
X104561715Y-64779923D01*
X104553328Y-64782467D01*
X104552943Y-64782543D01*
X104544220Y-64783403D01*
X104543828Y-64783403D01*
X104535105Y-64782543D01*
X104534720Y-64782467D01*
X104526333Y-64779923D01*
X104525971Y-64779773D01*
X104518241Y-64775642D01*
X104517915Y-64775424D01*
X104508854Y-64767988D01*
X104508709Y-64767856D01*
X104364378Y-64623525D01*
X104364246Y-64623380D01*
X104356810Y-64614319D01*
X104356592Y-64613993D01*
X104352461Y-64606263D01*
X104352311Y-64605901D01*
X104349767Y-64597514D01*
X104349691Y-64597129D01*
X104348831Y-64588406D01*
X104348831Y-64588210D01*
X104364967Y-64588210D01*
X104366369Y-64602447D01*
X104370524Y-64616142D01*
X104377269Y-64628762D01*
X104386412Y-64639902D01*
X104492332Y-64745822D01*
X104503472Y-64754965D01*
X104516092Y-64761710D01*
X104529787Y-64765865D01*
X104544024Y-64767267D01*
X104558261Y-64765865D01*
X104571956Y-64761710D01*
X104584576Y-64754965D01*
X104595716Y-64745822D01*
X105532486Y-63809052D01*
X105541629Y-63797912D01*
X105548374Y-63785292D01*
X105552529Y-63771597D01*
X105553931Y-63757360D01*
X105552529Y-63743123D01*
X105548374Y-63729428D01*
X105541629Y-63716808D01*
X105532486Y-63705668D01*
X105426566Y-63599748D01*
X105415426Y-63590605D01*
X105402806Y-63583860D01*
X105389111Y-63579705D01*
X105374874Y-63578303D01*
X105360637Y-63579705D01*
X105346942Y-63583860D01*
X105334322Y-63590605D01*
X105323182Y-63599748D01*
X104386412Y-64536518D01*
X104377269Y-64547658D01*
X104370524Y-64560278D01*
X104366369Y-64573973D01*
X104364967Y-64588210D01*
X104348831Y-64588210D01*
X104348831Y-64588014D01*
X104349691Y-64579291D01*
X104349767Y-64578906D01*
X104352311Y-64570519D01*
X104352461Y-64570157D01*
X104356592Y-64562427D01*
X104356810Y-64562101D01*
X104364246Y-64553040D01*
X104364378Y-64552895D01*
X105339559Y-63577714D01*
X105339704Y-63577582D01*
X105348765Y-63570146D01*
X105349091Y-63569928D01*
X105356821Y-63565797D01*
X105357183Y-63565647D01*
X105365570Y-63563103D01*
X105365955Y-63563027D01*
X105374678Y-63562167D01*
X105375070Y-63562167D01*
X105383793Y-63563027D01*
G37*
G36*
X105030239Y-63209473D02*
G01*
X105030624Y-63209549D01*
X105039011Y-63212093D01*
X105039373Y-63212243D01*
X105047103Y-63216374D01*
X105047429Y-63216592D01*
X105056490Y-63224028D01*
X105056635Y-63224160D01*
X105200966Y-63368491D01*
X105201098Y-63368636D01*
X105208534Y-63377697D01*
X105208752Y-63378023D01*
X105212883Y-63385753D01*
X105213033Y-63386115D01*
X105215577Y-63394502D01*
X105215653Y-63394887D01*
X105216513Y-63403610D01*
X105216513Y-63404002D01*
X105215653Y-63412725D01*
X105215577Y-63413110D01*
X105213033Y-63421497D01*
X105212883Y-63421859D01*
X105208752Y-63429589D01*
X105208534Y-63429915D01*
X105201098Y-63438976D01*
X105200966Y-63439121D01*
X104225785Y-64414302D01*
X104225640Y-64414434D01*
X104216579Y-64421870D01*
X104216253Y-64422088D01*
X104208523Y-64426219D01*
X104208161Y-64426369D01*
X104199774Y-64428913D01*
X104199389Y-64428989D01*
X104190666Y-64429849D01*
X104190274Y-64429849D01*
X104181551Y-64428989D01*
X104181166Y-64428913D01*
X104172779Y-64426369D01*
X104172417Y-64426219D01*
X104164687Y-64422088D01*
X104164361Y-64421870D01*
X104155300Y-64414434D01*
X104155155Y-64414302D01*
X104010824Y-64269971D01*
X104010692Y-64269826D01*
X104003256Y-64260765D01*
X104003038Y-64260439D01*
X103998907Y-64252709D01*
X103998757Y-64252347D01*
X103996213Y-64243960D01*
X103996137Y-64243575D01*
X103995277Y-64234852D01*
X103995277Y-64234656D01*
X104011413Y-64234656D01*
X104012815Y-64248893D01*
X104016970Y-64262588D01*
X104023715Y-64275208D01*
X104032858Y-64286348D01*
X104138778Y-64392268D01*
X104149918Y-64401411D01*
X104162538Y-64408156D01*
X104176233Y-64412311D01*
X104190470Y-64413713D01*
X104204707Y-64412311D01*
X104218402Y-64408156D01*
X104231022Y-64401411D01*
X104242162Y-64392268D01*
X105178932Y-63455498D01*
X105188075Y-63444358D01*
X105194820Y-63431738D01*
X105198975Y-63418043D01*
X105200377Y-63403806D01*
X105198975Y-63389569D01*
X105194820Y-63375874D01*
X105188075Y-63363254D01*
X105178932Y-63352114D01*
X105073012Y-63246194D01*
X105061872Y-63237051D01*
X105049252Y-63230306D01*
X105035557Y-63226151D01*
X105021320Y-63224749D01*
X105007083Y-63226151D01*
X104993388Y-63230306D01*
X104980768Y-63237051D01*
X104969628Y-63246194D01*
X104032858Y-64182964D01*
X104023715Y-64194104D01*
X104016970Y-64206724D01*
X104012815Y-64220419D01*
X104011413Y-64234656D01*
X103995277Y-64234656D01*
X103995277Y-64234460D01*
X103996137Y-64225737D01*
X103996213Y-64225352D01*
X103998757Y-64216965D01*
X103998907Y-64216603D01*
X104003038Y-64208873D01*
X104003256Y-64208547D01*
X104010692Y-64199486D01*
X104010824Y-64199341D01*
X104986005Y-63224160D01*
X104986150Y-63224028D01*
X104995211Y-63216592D01*
X104995537Y-63216374D01*
X105003267Y-63212243D01*
X105003629Y-63212093D01*
X105012016Y-63209549D01*
X105012401Y-63209473D01*
X105021124Y-63208613D01*
X105021516Y-63208613D01*
X105030239Y-63209473D01*
G37*
G36*
X100787599Y-63209473D02*
G01*
X100787984Y-63209549D01*
X100796371Y-63212093D01*
X100796733Y-63212243D01*
X100804463Y-63216374D01*
X100804789Y-63216592D01*
X100813850Y-63224028D01*
X100813995Y-63224160D01*
X101789176Y-64199341D01*
X101789308Y-64199486D01*
X101796744Y-64208547D01*
X101796962Y-64208873D01*
X101801093Y-64216603D01*
X101801243Y-64216965D01*
X101803787Y-64225352D01*
X101803863Y-64225737D01*
X101804723Y-64234460D01*
X101804723Y-64234852D01*
X101803863Y-64243575D01*
X101803787Y-64243960D01*
X101801243Y-64252347D01*
X101801093Y-64252709D01*
X101796962Y-64260439D01*
X101796744Y-64260765D01*
X101789308Y-64269826D01*
X101789176Y-64269971D01*
X101644845Y-64414302D01*
X101644700Y-64414434D01*
X101635639Y-64421870D01*
X101635313Y-64422088D01*
X101627583Y-64426219D01*
X101627221Y-64426369D01*
X101618834Y-64428913D01*
X101618449Y-64428989D01*
X101609726Y-64429849D01*
X101609334Y-64429849D01*
X101600611Y-64428989D01*
X101600226Y-64428913D01*
X101591839Y-64426369D01*
X101591477Y-64426219D01*
X101583747Y-64422088D01*
X101583421Y-64421870D01*
X101574360Y-64414434D01*
X101574215Y-64414302D01*
X100599034Y-63439121D01*
X100598902Y-63438976D01*
X100591466Y-63429915D01*
X100591248Y-63429589D01*
X100587117Y-63421859D01*
X100586967Y-63421497D01*
X100584423Y-63413110D01*
X100584347Y-63412725D01*
X100583487Y-63404002D01*
X100583487Y-63403806D01*
X100599623Y-63403806D01*
X100601025Y-63418043D01*
X100605180Y-63431738D01*
X100611925Y-63444358D01*
X100621068Y-63455498D01*
X101557838Y-64392268D01*
X101568978Y-64401411D01*
X101581598Y-64408156D01*
X101595293Y-64412311D01*
X101609530Y-64413713D01*
X101623767Y-64412311D01*
X101637462Y-64408156D01*
X101650082Y-64401411D01*
X101661222Y-64392268D01*
X101767142Y-64286348D01*
X101776285Y-64275208D01*
X101783030Y-64262588D01*
X101787185Y-64248893D01*
X101788587Y-64234656D01*
X101787185Y-64220419D01*
X101783030Y-64206724D01*
X101776285Y-64194104D01*
X101767142Y-64182964D01*
X100830372Y-63246194D01*
X100819232Y-63237051D01*
X100806612Y-63230306D01*
X100792917Y-63226151D01*
X100778680Y-63224749D01*
X100764443Y-63226151D01*
X100750748Y-63230306D01*
X100738128Y-63237051D01*
X100726988Y-63246194D01*
X100621068Y-63352114D01*
X100611925Y-63363254D01*
X100605180Y-63375874D01*
X100601025Y-63389569D01*
X100599623Y-63403806D01*
X100583487Y-63403806D01*
X100583487Y-63403610D01*
X100584347Y-63394887D01*
X100584423Y-63394502D01*
X100586967Y-63386115D01*
X100587117Y-63385753D01*
X100591248Y-63378023D01*
X100591466Y-63377697D01*
X100598902Y-63368636D01*
X100599034Y-63368491D01*
X100743365Y-63224160D01*
X100743510Y-63224028D01*
X100752571Y-63216592D01*
X100752897Y-63216374D01*
X100760627Y-63212243D01*
X100760989Y-63212093D01*
X100769376Y-63209549D01*
X100769761Y-63209473D01*
X100778484Y-63208613D01*
X100778876Y-63208613D01*
X100787599Y-63209473D01*
G37*
G36*
X104676686Y-62855920D02*
G01*
X104677071Y-62855996D01*
X104685458Y-62858540D01*
X104685820Y-62858690D01*
X104693550Y-62862821D01*
X104693876Y-62863039D01*
X104702937Y-62870475D01*
X104703082Y-62870607D01*
X104847413Y-63014938D01*
X104847545Y-63015083D01*
X104854981Y-63024144D01*
X104855199Y-63024470D01*
X104859330Y-63032200D01*
X104859480Y-63032562D01*
X104862024Y-63040949D01*
X104862100Y-63041334D01*
X104862960Y-63050057D01*
X104862960Y-63050449D01*
X104862100Y-63059172D01*
X104862024Y-63059557D01*
X104859480Y-63067944D01*
X104859330Y-63068306D01*
X104855199Y-63076036D01*
X104854981Y-63076362D01*
X104847545Y-63085423D01*
X104847413Y-63085568D01*
X103872232Y-64060749D01*
X103872087Y-64060881D01*
X103863026Y-64068317D01*
X103862700Y-64068535D01*
X103854970Y-64072666D01*
X103854608Y-64072816D01*
X103846221Y-64075360D01*
X103845836Y-64075436D01*
X103837113Y-64076296D01*
X103836721Y-64076296D01*
X103827998Y-64075436D01*
X103827613Y-64075360D01*
X103819226Y-64072816D01*
X103818864Y-64072666D01*
X103811134Y-64068535D01*
X103810808Y-64068317D01*
X103801747Y-64060881D01*
X103801602Y-64060749D01*
X103657271Y-63916418D01*
X103657139Y-63916273D01*
X103649703Y-63907212D01*
X103649485Y-63906886D01*
X103645354Y-63899156D01*
X103645204Y-63898794D01*
X103642660Y-63890407D01*
X103642584Y-63890022D01*
X103641724Y-63881299D01*
X103641724Y-63881103D01*
X103657860Y-63881103D01*
X103659262Y-63895340D01*
X103663417Y-63909035D01*
X103670162Y-63921655D01*
X103679305Y-63932795D01*
X103785225Y-64038715D01*
X103796365Y-64047858D01*
X103808985Y-64054603D01*
X103822680Y-64058758D01*
X103836917Y-64060160D01*
X103851154Y-64058758D01*
X103864849Y-64054603D01*
X103877469Y-64047858D01*
X103888609Y-64038715D01*
X104825379Y-63101945D01*
X104834522Y-63090805D01*
X104841267Y-63078185D01*
X104845422Y-63064490D01*
X104846824Y-63050253D01*
X104845422Y-63036016D01*
X104841267Y-63022321D01*
X104834522Y-63009701D01*
X104825379Y-62998561D01*
X104719459Y-62892641D01*
X104708319Y-62883498D01*
X104695699Y-62876753D01*
X104682004Y-62872598D01*
X104667767Y-62871196D01*
X104653530Y-62872598D01*
X104639835Y-62876753D01*
X104627215Y-62883498D01*
X104616075Y-62892641D01*
X103679305Y-63829411D01*
X103670162Y-63840551D01*
X103663417Y-63853171D01*
X103659262Y-63866866D01*
X103657860Y-63881103D01*
X103641724Y-63881103D01*
X103641724Y-63880907D01*
X103642584Y-63872184D01*
X103642660Y-63871799D01*
X103645204Y-63863412D01*
X103645354Y-63863050D01*
X103649485Y-63855320D01*
X103649703Y-63854994D01*
X103657139Y-63845933D01*
X103657271Y-63845788D01*
X104632452Y-62870607D01*
X104632597Y-62870475D01*
X104641658Y-62863039D01*
X104641984Y-62862821D01*
X104649714Y-62858690D01*
X104650076Y-62858540D01*
X104658463Y-62855996D01*
X104658848Y-62855920D01*
X104667571Y-62855060D01*
X104667963Y-62855060D01*
X104676686Y-62855920D01*
G37*
G36*
X101141152Y-62855920D02*
G01*
X101141537Y-62855996D01*
X101149924Y-62858540D01*
X101150286Y-62858690D01*
X101158016Y-62862821D01*
X101158342Y-62863039D01*
X101167403Y-62870475D01*
X101167548Y-62870607D01*
X102142729Y-63845788D01*
X102142861Y-63845933D01*
X102150297Y-63854994D01*
X102150515Y-63855320D01*
X102154646Y-63863050D01*
X102154796Y-63863412D01*
X102157340Y-63871799D01*
X102157416Y-63872184D01*
X102158276Y-63880907D01*
X102158276Y-63881299D01*
X102157416Y-63890022D01*
X102157340Y-63890407D01*
X102154796Y-63898794D01*
X102154646Y-63899156D01*
X102150515Y-63906886D01*
X102150297Y-63907212D01*
X102142861Y-63916273D01*
X102142729Y-63916418D01*
X101998398Y-64060749D01*
X101998253Y-64060881D01*
X101989192Y-64068317D01*
X101988866Y-64068535D01*
X101981136Y-64072666D01*
X101980774Y-64072816D01*
X101972387Y-64075360D01*
X101972002Y-64075436D01*
X101963279Y-64076296D01*
X101962887Y-64076296D01*
X101954164Y-64075436D01*
X101953779Y-64075360D01*
X101945392Y-64072816D01*
X101945030Y-64072666D01*
X101937300Y-64068535D01*
X101936974Y-64068317D01*
X101927913Y-64060881D01*
X101927768Y-64060749D01*
X100952587Y-63085568D01*
X100952455Y-63085423D01*
X100945019Y-63076362D01*
X100944801Y-63076036D01*
X100940670Y-63068306D01*
X100940520Y-63067944D01*
X100937976Y-63059557D01*
X100937900Y-63059172D01*
X100937040Y-63050449D01*
X100937040Y-63050253D01*
X100953176Y-63050253D01*
X100954578Y-63064490D01*
X100958733Y-63078185D01*
X100965478Y-63090805D01*
X100974621Y-63101945D01*
X101911391Y-64038715D01*
X101922531Y-64047858D01*
X101935151Y-64054603D01*
X101948846Y-64058758D01*
X101963083Y-64060160D01*
X101977320Y-64058758D01*
X101991015Y-64054603D01*
X102003635Y-64047858D01*
X102014775Y-64038715D01*
X102120695Y-63932795D01*
X102129838Y-63921655D01*
X102136583Y-63909035D01*
X102140738Y-63895340D01*
X102142140Y-63881103D01*
X102140738Y-63866866D01*
X102136583Y-63853171D01*
X102129838Y-63840551D01*
X102120695Y-63829411D01*
X101183925Y-62892641D01*
X101172785Y-62883498D01*
X101160165Y-62876753D01*
X101146470Y-62872598D01*
X101132233Y-62871196D01*
X101117996Y-62872598D01*
X101104301Y-62876753D01*
X101091681Y-62883498D01*
X101080541Y-62892641D01*
X100974621Y-62998561D01*
X100965478Y-63009701D01*
X100958733Y-63022321D01*
X100954578Y-63036016D01*
X100953176Y-63050253D01*
X100937040Y-63050253D01*
X100937040Y-63050057D01*
X100937900Y-63041334D01*
X100937976Y-63040949D01*
X100940520Y-63032562D01*
X100940670Y-63032200D01*
X100944801Y-63024470D01*
X100945019Y-63024144D01*
X100952455Y-63015083D01*
X100952587Y-63014938D01*
X101096918Y-62870607D01*
X101097063Y-62870475D01*
X101106124Y-62863039D01*
X101106450Y-62862821D01*
X101114180Y-62858690D01*
X101114542Y-62858540D01*
X101122929Y-62855996D01*
X101123314Y-62855920D01*
X101132037Y-62855060D01*
X101132429Y-62855060D01*
X101141152Y-62855920D01*
G37*
G36*
X104323132Y-62502366D02*
G01*
X104323517Y-62502442D01*
X104331904Y-62504986D01*
X104332266Y-62505136D01*
X104339996Y-62509267D01*
X104340322Y-62509485D01*
X104349383Y-62516921D01*
X104349528Y-62517053D01*
X104493859Y-62661384D01*
X104493991Y-62661529D01*
X104501427Y-62670590D01*
X104501645Y-62670916D01*
X104505776Y-62678646D01*
X104505926Y-62679008D01*
X104508470Y-62687395D01*
X104508546Y-62687780D01*
X104509406Y-62696503D01*
X104509406Y-62696895D01*
X104508546Y-62705618D01*
X104508470Y-62706003D01*
X104505926Y-62714390D01*
X104505776Y-62714752D01*
X104501645Y-62722482D01*
X104501427Y-62722808D01*
X104493991Y-62731869D01*
X104493859Y-62732014D01*
X103518678Y-63707195D01*
X103518533Y-63707327D01*
X103509472Y-63714763D01*
X103509146Y-63714981D01*
X103501416Y-63719112D01*
X103501054Y-63719262D01*
X103492667Y-63721806D01*
X103492282Y-63721882D01*
X103483559Y-63722742D01*
X103483167Y-63722742D01*
X103474444Y-63721882D01*
X103474059Y-63721806D01*
X103465672Y-63719262D01*
X103465310Y-63719112D01*
X103457580Y-63714981D01*
X103457254Y-63714763D01*
X103448193Y-63707327D01*
X103448048Y-63707195D01*
X103303717Y-63562864D01*
X103303585Y-63562719D01*
X103296149Y-63553658D01*
X103295931Y-63553332D01*
X103291800Y-63545602D01*
X103291650Y-63545240D01*
X103289106Y-63536853D01*
X103289030Y-63536468D01*
X103288170Y-63527745D01*
X103288170Y-63527549D01*
X103304306Y-63527549D01*
X103305708Y-63541786D01*
X103309863Y-63555481D01*
X103316608Y-63568101D01*
X103325751Y-63579241D01*
X103431671Y-63685161D01*
X103442811Y-63694304D01*
X103455431Y-63701049D01*
X103469126Y-63705204D01*
X103483363Y-63706606D01*
X103497600Y-63705204D01*
X103511295Y-63701049D01*
X103523915Y-63694304D01*
X103535055Y-63685161D01*
X104471825Y-62748391D01*
X104480968Y-62737251D01*
X104487713Y-62724631D01*
X104491868Y-62710936D01*
X104493270Y-62696699D01*
X104491868Y-62682462D01*
X104487713Y-62668767D01*
X104480968Y-62656147D01*
X104471825Y-62645007D01*
X104365905Y-62539087D01*
X104354765Y-62529944D01*
X104342145Y-62523199D01*
X104328450Y-62519044D01*
X104314213Y-62517642D01*
X104299976Y-62519044D01*
X104286281Y-62523199D01*
X104273661Y-62529944D01*
X104262521Y-62539087D01*
X103325751Y-63475857D01*
X103316608Y-63486997D01*
X103309863Y-63499617D01*
X103305708Y-63513312D01*
X103304306Y-63527549D01*
X103288170Y-63527549D01*
X103288170Y-63527353D01*
X103289030Y-63518630D01*
X103289106Y-63518245D01*
X103291650Y-63509858D01*
X103291800Y-63509496D01*
X103295931Y-63501766D01*
X103296149Y-63501440D01*
X103303585Y-63492379D01*
X103303717Y-63492234D01*
X104278898Y-62517053D01*
X104279043Y-62516921D01*
X104288104Y-62509485D01*
X104288430Y-62509267D01*
X104296160Y-62505136D01*
X104296522Y-62504986D01*
X104304909Y-62502442D01*
X104305294Y-62502366D01*
X104314017Y-62501506D01*
X104314409Y-62501506D01*
X104323132Y-62502366D01*
G37*
G36*
X101494706Y-62502366D02*
G01*
X101495091Y-62502442D01*
X101503478Y-62504986D01*
X101503840Y-62505136D01*
X101511570Y-62509267D01*
X101511896Y-62509485D01*
X101520957Y-62516921D01*
X101521102Y-62517053D01*
X102496283Y-63492234D01*
X102496415Y-63492379D01*
X102503851Y-63501440D01*
X102504069Y-63501766D01*
X102508200Y-63509496D01*
X102508350Y-63509858D01*
X102510894Y-63518245D01*
X102510970Y-63518630D01*
X102511830Y-63527353D01*
X102511830Y-63527745D01*
X102510970Y-63536468D01*
X102510894Y-63536853D01*
X102508350Y-63545240D01*
X102508200Y-63545602D01*
X102504069Y-63553332D01*
X102503851Y-63553658D01*
X102496415Y-63562719D01*
X102496283Y-63562864D01*
X102351952Y-63707195D01*
X102351807Y-63707327D01*
X102342746Y-63714763D01*
X102342420Y-63714981D01*
X102334690Y-63719112D01*
X102334328Y-63719262D01*
X102325941Y-63721806D01*
X102325556Y-63721882D01*
X102316833Y-63722742D01*
X102316441Y-63722742D01*
X102307718Y-63721882D01*
X102307333Y-63721806D01*
X102298946Y-63719262D01*
X102298584Y-63719112D01*
X102290854Y-63714981D01*
X102290528Y-63714763D01*
X102281467Y-63707327D01*
X102281322Y-63707195D01*
X101306141Y-62732014D01*
X101306009Y-62731869D01*
X101298573Y-62722808D01*
X101298355Y-62722482D01*
X101294224Y-62714752D01*
X101294074Y-62714390D01*
X101291530Y-62706003D01*
X101291454Y-62705618D01*
X101290594Y-62696895D01*
X101290594Y-62696699D01*
X101306730Y-62696699D01*
X101308132Y-62710936D01*
X101312287Y-62724631D01*
X101319032Y-62737251D01*
X101328175Y-62748391D01*
X102264945Y-63685161D01*
X102276085Y-63694304D01*
X102288705Y-63701049D01*
X102302400Y-63705204D01*
X102316637Y-63706606D01*
X102330874Y-63705204D01*
X102344569Y-63701049D01*
X102357189Y-63694304D01*
X102368329Y-63685161D01*
X102474249Y-63579241D01*
X102483392Y-63568101D01*
X102490137Y-63555481D01*
X102494292Y-63541786D01*
X102495694Y-63527549D01*
X102494292Y-63513312D01*
X102490137Y-63499617D01*
X102483392Y-63486997D01*
X102474249Y-63475857D01*
X101537479Y-62539087D01*
X101526339Y-62529944D01*
X101513719Y-62523199D01*
X101500024Y-62519044D01*
X101485787Y-62517642D01*
X101471550Y-62519044D01*
X101457855Y-62523199D01*
X101445235Y-62529944D01*
X101434095Y-62539087D01*
X101328175Y-62645007D01*
X101319032Y-62656147D01*
X101312287Y-62668767D01*
X101308132Y-62682462D01*
X101306730Y-62696699D01*
X101290594Y-62696699D01*
X101290594Y-62696503D01*
X101291454Y-62687780D01*
X101291530Y-62687395D01*
X101294074Y-62679008D01*
X101294224Y-62678646D01*
X101298355Y-62670916D01*
X101298573Y-62670590D01*
X101306009Y-62661529D01*
X101306141Y-62661384D01*
X101450472Y-62517053D01*
X101450617Y-62516921D01*
X101459678Y-62509485D01*
X101460004Y-62509267D01*
X101467734Y-62505136D01*
X101468096Y-62504986D01*
X101476483Y-62502442D01*
X101476868Y-62502366D01*
X101485591Y-62501506D01*
X101485983Y-62501506D01*
X101494706Y-62502366D01*
G37*
M02*
