M48
; DRILL file {KiCad (5.1.10)-1} date 03/27/22 16:46:44
; FORMAT={-:-/ absolute / metric / decimal}
; #@! TF.CreationDate,2022-03-27T16:46:44+02:00
; #@! TF.GenerationSoftware,Kicad,Pcbnew,(5.1.10)-1
; #@! TF.FileFunction,Plated,1,2,PTH
FMAT,2
METRIC
T1C0.300
T2C0.762
T3C0.920
T4C1.000
T5C2.300
%
G90
G05
T1
X70.0Y-66.5
X70.0Y-70.0
X88.25Y-64.5
X89.5Y-62.25
X91.5Y-72.25
X92.5Y-72.25
X93.5Y-72.25
X93.75Y-65.567
X94.5Y-72.25
X95.5Y-72.25
X96.5Y-72.25
X97.5Y-64.0
X97.5Y-73.5
X97.533Y-64.967
X98.5Y-74.25
X100.5Y-67.0
X102.0Y-68.0
X103.5Y-71.25
X104.0Y-66.0
X104.0Y-70.0
X106.0Y-68.0
X109.25Y-68.0
X109.25Y-71.0
X109.75Y-62.5
X109.75Y-70.25
X110.25Y-65.75
X110.25Y-69.5
X110.934Y-65.127
X111.5Y-64.5
X124.5Y-66.75
X125.25Y-67.5
X128.0Y-68.75
T2
X129.96Y-62.5
X129.96Y-65.04
X129.96Y-67.58
X129.96Y-70.12
X132.5Y-62.5
X132.5Y-65.04
X132.5Y-67.58
X132.5Y-70.12
T3
X60.0Y-64.5
X60.0Y-67.0
X60.0Y-69.0
X60.0Y-71.5
T4
X85.75Y-60.0
X88.29Y-60.0
X90.83Y-60.0
X93.37Y-60.0
T5
X57.29Y-61.43
X57.29Y-74.57
T0
M30
