G04 #@! TF.GenerationSoftware,KiCad,Pcbnew,(5.1.10)-1*
G04 #@! TF.CreationDate,2022-03-27T16:46:42+02:00*
G04 #@! TF.ProjectId,LaserAutoSkipper_RX_schematic,4c617365-7241-4757-946f-536b69707065,1*
G04 #@! TF.SameCoordinates,Original*
G04 #@! TF.FileFunction,Soldermask,Bot*
G04 #@! TF.FilePolarity,Negative*
%FSLAX46Y46*%
G04 Gerber Fmt 4.6, Leading zero omitted, Abs format (unit mm)*
G04 Created by KiCad (PCBNEW (5.1.10)-1) date 2022-03-27 16:46:42*
%MOMM*%
%LPD*%
G01*
G04 APERTURE LIST*
%ADD10C,1.524000*%
%ADD11R,1.524000X1.524000*%
%ADD12C,3.500000*%
%ADD13O,1.700000X1.700000*%
%ADD14R,1.700000X1.700000*%
G04 APERTURE END LIST*
D10*
X60000000Y-71500000D03*
X60000000Y-69000000D03*
X60000000Y-67000000D03*
D11*
X60000000Y-64500000D03*
D12*
X57290000Y-61430000D03*
X57290000Y-74570000D03*
D13*
X93370000Y-60000000D03*
X90830000Y-60000000D03*
X88290000Y-60000000D03*
D14*
X85750000Y-60000000D03*
D10*
X129960000Y-70120000D03*
X132500000Y-70120000D03*
X129960000Y-67580000D03*
X132500000Y-67580000D03*
X129960000Y-65040000D03*
X132500000Y-65040000D03*
X129960000Y-62500000D03*
D11*
X132500000Y-62500000D03*
G36*
G01*
X97950001Y-67600000D02*
X97049999Y-67600000D01*
G75*
G02*
X96800000Y-67350001I0J249999D01*
G01*
X96800000Y-66649999D01*
G75*
G02*
X97049999Y-66400000I249999J0D01*
G01*
X97950001Y-66400000D01*
G75*
G02*
X98200000Y-66649999I0J-249999D01*
G01*
X98200000Y-67350001D01*
G75*
G02*
X97950001Y-67600000I-249999J0D01*
G01*
G37*
G36*
G01*
X97950001Y-69600000D02*
X97049999Y-69600000D01*
G75*
G02*
X96800000Y-69350001I0J249999D01*
G01*
X96800000Y-68649999D01*
G75*
G02*
X97049999Y-68400000I249999J0D01*
G01*
X97950001Y-68400000D01*
G75*
G02*
X98200000Y-68649999I0J-249999D01*
G01*
X98200000Y-69350001D01*
G75*
G02*
X97950001Y-69600000I-249999J0D01*
G01*
G37*
G36*
G01*
X95450001Y-67600000D02*
X94549999Y-67600000D01*
G75*
G02*
X94300000Y-67350001I0J249999D01*
G01*
X94300000Y-66649999D01*
G75*
G02*
X94549999Y-66400000I249999J0D01*
G01*
X95450001Y-66400000D01*
G75*
G02*
X95700000Y-66649999I0J-249999D01*
G01*
X95700000Y-67350001D01*
G75*
G02*
X95450001Y-67600000I-249999J0D01*
G01*
G37*
G36*
G01*
X95450001Y-69600000D02*
X94549999Y-69600000D01*
G75*
G02*
X94300000Y-69350001I0J249999D01*
G01*
X94300000Y-68649999D01*
G75*
G02*
X94549999Y-68400000I249999J0D01*
G01*
X95450001Y-68400000D01*
G75*
G02*
X95700000Y-68649999I0J-249999D01*
G01*
X95700000Y-69350001D01*
G75*
G02*
X95450001Y-69600000I-249999J0D01*
G01*
G37*
G36*
G01*
X92950001Y-67600000D02*
X92049999Y-67600000D01*
G75*
G02*
X91800000Y-67350001I0J249999D01*
G01*
X91800000Y-66649999D01*
G75*
G02*
X92049999Y-66400000I249999J0D01*
G01*
X92950001Y-66400000D01*
G75*
G02*
X93200000Y-66649999I0J-249999D01*
G01*
X93200000Y-67350001D01*
G75*
G02*
X92950001Y-67600000I-249999J0D01*
G01*
G37*
G36*
G01*
X92950001Y-69600000D02*
X92049999Y-69600000D01*
G75*
G02*
X91800000Y-69350001I0J249999D01*
G01*
X91800000Y-68649999D01*
G75*
G02*
X92049999Y-68400000I249999J0D01*
G01*
X92950001Y-68400000D01*
G75*
G02*
X93200000Y-68649999I0J-249999D01*
G01*
X93200000Y-69350001D01*
G75*
G02*
X92950001Y-69600000I-249999J0D01*
G01*
G37*
G36*
G01*
X90450000Y-67600000D02*
X89549998Y-67600000D01*
G75*
G02*
X89299999Y-67350001I0J249999D01*
G01*
X89299999Y-66649999D01*
G75*
G02*
X89549998Y-66400000I249999J0D01*
G01*
X90450000Y-66400000D01*
G75*
G02*
X90699999Y-66649999I0J-249999D01*
G01*
X90699999Y-67350001D01*
G75*
G02*
X90450000Y-67600000I-249999J0D01*
G01*
G37*
G36*
G01*
X90450000Y-69600000D02*
X89549998Y-69600000D01*
G75*
G02*
X89299999Y-69350001I0J249999D01*
G01*
X89299999Y-68649999D01*
G75*
G02*
X89549998Y-68400000I249999J0D01*
G01*
X90450000Y-68400000D01*
G75*
G02*
X90699999Y-68649999I0J-249999D01*
G01*
X90699999Y-69350001D01*
G75*
G02*
X90450000Y-69600000I-249999J0D01*
G01*
G37*
G36*
G01*
X87950001Y-67599999D02*
X87049999Y-67599999D01*
G75*
G02*
X86800000Y-67350000I0J249999D01*
G01*
X86800000Y-66649998D01*
G75*
G02*
X87049999Y-66399999I249999J0D01*
G01*
X87950001Y-66399999D01*
G75*
G02*
X88200000Y-66649998I0J-249999D01*
G01*
X88200000Y-67350000D01*
G75*
G02*
X87950001Y-67599999I-249999J0D01*
G01*
G37*
G36*
G01*
X87950001Y-69599999D02*
X87049999Y-69599999D01*
G75*
G02*
X86800000Y-69350000I0J249999D01*
G01*
X86800000Y-68649998D01*
G75*
G02*
X87049999Y-68399999I249999J0D01*
G01*
X87950001Y-68399999D01*
G75*
G02*
X88200000Y-68649998I0J-249999D01*
G01*
X88200000Y-69350000D01*
G75*
G02*
X87950001Y-69599999I-249999J0D01*
G01*
G37*
G36*
G01*
X85450001Y-67599999D02*
X84549999Y-67599999D01*
G75*
G02*
X84300000Y-67350000I0J249999D01*
G01*
X84300000Y-66649998D01*
G75*
G02*
X84549999Y-66399999I249999J0D01*
G01*
X85450001Y-66399999D01*
G75*
G02*
X85700000Y-66649998I0J-249999D01*
G01*
X85700000Y-67350000D01*
G75*
G02*
X85450001Y-67599999I-249999J0D01*
G01*
G37*
G36*
G01*
X85450001Y-69599999D02*
X84549999Y-69599999D01*
G75*
G02*
X84300000Y-69350000I0J249999D01*
G01*
X84300000Y-68649998D01*
G75*
G02*
X84549999Y-68399999I249999J0D01*
G01*
X85450001Y-68399999D01*
G75*
G02*
X85700000Y-68649998I0J-249999D01*
G01*
X85700000Y-69350000D01*
G75*
G02*
X85450001Y-69599999I-249999J0D01*
G01*
G37*
G36*
G01*
X82950001Y-67599999D02*
X82049999Y-67599999D01*
G75*
G02*
X81800000Y-67350000I0J249999D01*
G01*
X81800000Y-66649998D01*
G75*
G02*
X82049999Y-66399999I249999J0D01*
G01*
X82950001Y-66399999D01*
G75*
G02*
X83200000Y-66649998I0J-249999D01*
G01*
X83200000Y-67350000D01*
G75*
G02*
X82950001Y-67599999I-249999J0D01*
G01*
G37*
G36*
G01*
X82950001Y-69599999D02*
X82049999Y-69599999D01*
G75*
G02*
X81800000Y-69350000I0J249999D01*
G01*
X81800000Y-68649998D01*
G75*
G02*
X82049999Y-68399999I249999J0D01*
G01*
X82950001Y-68399999D01*
G75*
G02*
X83200000Y-68649998I0J-249999D01*
G01*
X83200000Y-69350000D01*
G75*
G02*
X82950001Y-69599999I-249999J0D01*
G01*
G37*
G36*
G01*
X80450001Y-67599999D02*
X79549999Y-67599999D01*
G75*
G02*
X79300000Y-67350000I0J249999D01*
G01*
X79300000Y-66649998D01*
G75*
G02*
X79549999Y-66399999I249999J0D01*
G01*
X80450001Y-66399999D01*
G75*
G02*
X80700000Y-66649998I0J-249999D01*
G01*
X80700000Y-67350000D01*
G75*
G02*
X80450001Y-67599999I-249999J0D01*
G01*
G37*
G36*
G01*
X80450001Y-69599999D02*
X79549999Y-69599999D01*
G75*
G02*
X79300000Y-69350000I0J249999D01*
G01*
X79300000Y-68649998D01*
G75*
G02*
X79549999Y-68399999I249999J0D01*
G01*
X80450001Y-68399999D01*
G75*
G02*
X80700000Y-68649998I0J-249999D01*
G01*
X80700000Y-69350000D01*
G75*
G02*
X80450001Y-69599999I-249999J0D01*
G01*
G37*
M02*
