%FSLAX45Y45*%
G04 Gerber Fmt 4.5, Leading zero omitted, Abs format (unit mm)*
G04 Created by KiCad (PCBNEW (5.1.10)-1) date 2022-03-27 16:46:44*
%MOMM*%
%LPD*%
G01*
G04 APERTURE LIST*
%TA.AperFunction,Profile*%
%ADD10C,0.038100*%
%TD*%
%ADD11C,0.200000*%
%ADD12C,0.300000*%
G04 APERTURE END LIST*
D10*
X13400000Y-5800000D02*
X5600000Y-5800000D01*
X13600000Y-7600000D02*
X13600000Y-6000000D01*
X5600000Y-7800000D02*
X13400000Y-7800000D01*
X5400000Y-6000000D02*
X5400000Y-7600000D01*
X13400000Y-5800000D02*
G75*
G02*
X13600000Y-6000000I0J-200000D01*
G01*
X13600000Y-7600000D02*
G75*
G02*
X13400000Y-7800000I-200000J0D01*
G01*
X5600000Y-7800000D02*
G75*
G02*
X5400000Y-7600000I0J200000D01*
G01*
X5400000Y-6000000D02*
G75*
G02*
X5600000Y-5800000I200000J0D01*
G01*
D11*
D12*
X5684523Y-8267619D02*
X5684523Y-7967619D01*
X5755952Y-7967619D01*
X5798809Y-7981905D01*
X5827381Y-8010476D01*
X5841666Y-8039048D01*
X5855952Y-8096191D01*
X5855952Y-8139048D01*
X5841666Y-8196191D01*
X5827381Y-8224762D01*
X5798809Y-8253334D01*
X5755952Y-8267619D01*
X5684523Y-8267619D01*
X5984523Y-8267619D02*
X5984523Y-8067619D01*
X5984523Y-8124762D02*
X5998809Y-8096191D01*
X6013095Y-8081905D01*
X6041666Y-8067619D01*
X6070238Y-8067619D01*
X6170238Y-8267619D02*
X6170238Y-8067619D01*
X6170238Y-7967619D02*
X6155952Y-7981905D01*
X6170238Y-7996191D01*
X6184523Y-7981905D01*
X6170238Y-7967619D01*
X6170238Y-7996191D01*
X6355952Y-8267619D02*
X6327381Y-8253334D01*
X6313095Y-8224762D01*
X6313095Y-7967619D01*
X6513095Y-8267619D02*
X6484523Y-8253334D01*
X6470238Y-8224762D01*
X6470238Y-7967619D01*
X6855952Y-8267619D02*
X6855952Y-7967619D01*
X6955952Y-8181905D01*
X7055952Y-7967619D01*
X7055952Y-8267619D01*
X7327381Y-8267619D02*
X7327381Y-8110476D01*
X7313095Y-8081905D01*
X7284523Y-8067619D01*
X7227381Y-8067619D01*
X7198809Y-8081905D01*
X7327381Y-8253334D02*
X7298809Y-8267619D01*
X7227381Y-8267619D01*
X7198809Y-8253334D01*
X7184523Y-8224762D01*
X7184523Y-8196191D01*
X7198809Y-8167619D01*
X7227381Y-8153334D01*
X7298809Y-8153334D01*
X7327381Y-8139048D01*
X7470238Y-8067619D02*
X7470238Y-8367619D01*
X7470238Y-8081905D02*
X7498809Y-8067619D01*
X7555952Y-8067619D01*
X7584523Y-8081905D01*
X7598809Y-8096191D01*
X7613095Y-8124762D01*
X7613095Y-8210476D01*
X7598809Y-8239048D01*
X7584523Y-8253334D01*
X7555952Y-8267619D01*
X7498809Y-8267619D01*
X7470238Y-8253334D01*
X7741666Y-8239048D02*
X7755952Y-8253334D01*
X7741666Y-8267619D01*
X7727381Y-8253334D01*
X7741666Y-8239048D01*
X7741666Y-8267619D01*
X7741666Y-8081905D02*
X7755952Y-8096191D01*
X7741666Y-8110476D01*
X7727381Y-8096191D01*
X7741666Y-8081905D01*
X7741666Y-8110476D01*
M02*
