G04 #@! TF.GenerationSoftware,KiCad,Pcbnew,(5.1.10)-1*
G04 #@! TF.CreationDate,2022-03-27T16:46:42+02:00*
G04 #@! TF.ProjectId,LaserAutoSkipper_RX_schematic,4c617365-7241-4757-946f-536b69707065,1*
G04 #@! TF.SameCoordinates,Original*
G04 #@! TF.FileFunction,Paste,Top*
G04 #@! TF.FilePolarity,Positive*
%FSLAX46Y46*%
G04 Gerber Fmt 4.6, Leading zero omitted, Abs format (unit mm)*
G04 Created by KiCad (PCBNEW (5.1.10)-1) date 2022-03-27 16:46:42*
%MOMM*%
%LPD*%
G01*
G04 APERTURE LIST*
%ADD10C,0.152400*%
%ADD11R,1.500000X2.000000*%
%ADD12R,3.800000X2.000000*%
%ADD13R,0.600000X1.500000*%
G04 APERTURE END LIST*
G36*
G01*
X102475736Y-72525484D02*
X101538820Y-73462400D01*
G75*
G02*
X101432754Y-73462400I-53033J53033D01*
G01*
X101326688Y-73356334D01*
G75*
G02*
X101326688Y-73250268I53033J53033D01*
G01*
X102263604Y-72313352D01*
G75*
G02*
X102369670Y-72313352I53033J-53033D01*
G01*
X102475736Y-72419418D01*
G75*
G02*
X102475736Y-72525484I-53033J-53033D01*
G01*
G37*
G36*
G01*
X102122182Y-72171930D02*
X101185266Y-73108846D01*
G75*
G02*
X101079200Y-73108846I-53033J53033D01*
G01*
X100973134Y-73002780D01*
G75*
G02*
X100973134Y-72896714I53033J53033D01*
G01*
X101910050Y-71959798D01*
G75*
G02*
X102016116Y-71959798I53033J-53033D01*
G01*
X102122182Y-72065864D01*
G75*
G02*
X102122182Y-72171930I-53033J-53033D01*
G01*
G37*
G36*
G01*
X101768629Y-71818377D02*
X100831713Y-72755293D01*
G75*
G02*
X100725647Y-72755293I-53033J53033D01*
G01*
X100619581Y-72649227D01*
G75*
G02*
X100619581Y-72543161I53033J53033D01*
G01*
X101556497Y-71606245D01*
G75*
G02*
X101662563Y-71606245I53033J-53033D01*
G01*
X101768629Y-71712311D01*
G75*
G02*
X101768629Y-71818377I-53033J-53033D01*
G01*
G37*
G36*
G01*
X101415075Y-71464823D02*
X100478159Y-72401739D01*
G75*
G02*
X100372093Y-72401739I-53033J53033D01*
G01*
X100266027Y-72295673D01*
G75*
G02*
X100266027Y-72189607I53033J53033D01*
G01*
X101202943Y-71252691D01*
G75*
G02*
X101309009Y-71252691I53033J-53033D01*
G01*
X101415075Y-71358757D01*
G75*
G02*
X101415075Y-71464823I-53033J-53033D01*
G01*
G37*
G36*
G01*
X101061522Y-71111270D02*
X100124606Y-72048186D01*
G75*
G02*
X100018540Y-72048186I-53033J53033D01*
G01*
X99912474Y-71942120D01*
G75*
G02*
X99912474Y-71836054I53033J53033D01*
G01*
X100849390Y-70899138D01*
G75*
G02*
X100955456Y-70899138I53033J-53033D01*
G01*
X101061522Y-71005204D01*
G75*
G02*
X101061522Y-71111270I-53033J-53033D01*
G01*
G37*
G36*
G01*
X100707969Y-70757717D02*
X99771053Y-71694633D01*
G75*
G02*
X99664987Y-71694633I-53033J53033D01*
G01*
X99558921Y-71588567D01*
G75*
G02*
X99558921Y-71482501I53033J53033D01*
G01*
X100495837Y-70545585D01*
G75*
G02*
X100601903Y-70545585I53033J-53033D01*
G01*
X100707969Y-70651651D01*
G75*
G02*
X100707969Y-70757717I-53033J-53033D01*
G01*
G37*
G36*
G01*
X100354415Y-70404163D02*
X99417499Y-71341079D01*
G75*
G02*
X99311433Y-71341079I-53033J53033D01*
G01*
X99205367Y-71235013D01*
G75*
G02*
X99205367Y-71128947I53033J53033D01*
G01*
X100142283Y-70192031D01*
G75*
G02*
X100248349Y-70192031I53033J-53033D01*
G01*
X100354415Y-70298097D01*
G75*
G02*
X100354415Y-70404163I-53033J-53033D01*
G01*
G37*
G36*
G01*
X100000862Y-70050610D02*
X99063946Y-70987526D01*
G75*
G02*
X98957880Y-70987526I-53033J53033D01*
G01*
X98851814Y-70881460D01*
G75*
G02*
X98851814Y-70775394I53033J53033D01*
G01*
X99788730Y-69838478D01*
G75*
G02*
X99894796Y-69838478I53033J-53033D01*
G01*
X100000862Y-69944544D01*
G75*
G02*
X100000862Y-70050610I-53033J-53033D01*
G01*
G37*
G36*
G01*
X99647309Y-69697057D02*
X98710393Y-70633973D01*
G75*
G02*
X98604327Y-70633973I-53033J53033D01*
G01*
X98498261Y-70527907D01*
G75*
G02*
X98498261Y-70421841I53033J53033D01*
G01*
X99435177Y-69484925D01*
G75*
G02*
X99541243Y-69484925I53033J-53033D01*
G01*
X99647309Y-69590991D01*
G75*
G02*
X99647309Y-69697057I-53033J-53033D01*
G01*
G37*
G36*
G01*
X99293755Y-69343503D02*
X98356839Y-70280419D01*
G75*
G02*
X98250773Y-70280419I-53033J53033D01*
G01*
X98144707Y-70174353D01*
G75*
G02*
X98144707Y-70068287I53033J53033D01*
G01*
X99081623Y-69131371D01*
G75*
G02*
X99187689Y-69131371I53033J-53033D01*
G01*
X99293755Y-69237437D01*
G75*
G02*
X99293755Y-69343503I-53033J-53033D01*
G01*
G37*
G36*
G01*
X98940202Y-68989950D02*
X98003286Y-69926866D01*
G75*
G02*
X97897220Y-69926866I-53033J53033D01*
G01*
X97791154Y-69820800D01*
G75*
G02*
X97791154Y-69714734I53033J53033D01*
G01*
X98728070Y-68777818D01*
G75*
G02*
X98834136Y-68777818I53033J-53033D01*
G01*
X98940202Y-68883884D01*
G75*
G02*
X98940202Y-68989950I-53033J-53033D01*
G01*
G37*
G36*
G01*
X98586648Y-68636396D02*
X97649732Y-69573312D01*
G75*
G02*
X97543666Y-69573312I-53033J53033D01*
G01*
X97437600Y-69467246D01*
G75*
G02*
X97437600Y-69361180I53033J53033D01*
G01*
X98374516Y-68424264D01*
G75*
G02*
X98480582Y-68424264I53033J-53033D01*
G01*
X98586648Y-68530330D01*
G75*
G02*
X98586648Y-68636396I-53033J-53033D01*
G01*
G37*
G36*
G01*
X98586648Y-67469670D02*
X98480582Y-67575736D01*
G75*
G02*
X98374516Y-67575736I-53033J53033D01*
G01*
X97437600Y-66638820D01*
G75*
G02*
X97437600Y-66532754I53033J53033D01*
G01*
X97543666Y-66426688D01*
G75*
G02*
X97649732Y-66426688I53033J-53033D01*
G01*
X98586648Y-67363604D01*
G75*
G02*
X98586648Y-67469670I-53033J-53033D01*
G01*
G37*
G36*
G01*
X98940202Y-67116116D02*
X98834136Y-67222182D01*
G75*
G02*
X98728070Y-67222182I-53033J53033D01*
G01*
X97791154Y-66285266D01*
G75*
G02*
X97791154Y-66179200I53033J53033D01*
G01*
X97897220Y-66073134D01*
G75*
G02*
X98003286Y-66073134I53033J-53033D01*
G01*
X98940202Y-67010050D01*
G75*
G02*
X98940202Y-67116116I-53033J-53033D01*
G01*
G37*
G36*
G01*
X99293755Y-66762563D02*
X99187689Y-66868629D01*
G75*
G02*
X99081623Y-66868629I-53033J53033D01*
G01*
X98144707Y-65931713D01*
G75*
G02*
X98144707Y-65825647I53033J53033D01*
G01*
X98250773Y-65719581D01*
G75*
G02*
X98356839Y-65719581I53033J-53033D01*
G01*
X99293755Y-66656497D01*
G75*
G02*
X99293755Y-66762563I-53033J-53033D01*
G01*
G37*
G36*
G01*
X99647309Y-66409009D02*
X99541243Y-66515075D01*
G75*
G02*
X99435177Y-66515075I-53033J53033D01*
G01*
X98498261Y-65578159D01*
G75*
G02*
X98498261Y-65472093I53033J53033D01*
G01*
X98604327Y-65366027D01*
G75*
G02*
X98710393Y-65366027I53033J-53033D01*
G01*
X99647309Y-66302943D01*
G75*
G02*
X99647309Y-66409009I-53033J-53033D01*
G01*
G37*
G36*
G01*
X100000862Y-66055456D02*
X99894796Y-66161522D01*
G75*
G02*
X99788730Y-66161522I-53033J53033D01*
G01*
X98851814Y-65224606D01*
G75*
G02*
X98851814Y-65118540I53033J53033D01*
G01*
X98957880Y-65012474D01*
G75*
G02*
X99063946Y-65012474I53033J-53033D01*
G01*
X100000862Y-65949390D01*
G75*
G02*
X100000862Y-66055456I-53033J-53033D01*
G01*
G37*
G36*
G01*
X100354415Y-65701903D02*
X100248349Y-65807969D01*
G75*
G02*
X100142283Y-65807969I-53033J53033D01*
G01*
X99205367Y-64871053D01*
G75*
G02*
X99205367Y-64764987I53033J53033D01*
G01*
X99311433Y-64658921D01*
G75*
G02*
X99417499Y-64658921I53033J-53033D01*
G01*
X100354415Y-65595837D01*
G75*
G02*
X100354415Y-65701903I-53033J-53033D01*
G01*
G37*
G36*
G01*
X100707969Y-65348349D02*
X100601903Y-65454415D01*
G75*
G02*
X100495837Y-65454415I-53033J53033D01*
G01*
X99558921Y-64517499D01*
G75*
G02*
X99558921Y-64411433I53033J53033D01*
G01*
X99664987Y-64305367D01*
G75*
G02*
X99771053Y-64305367I53033J-53033D01*
G01*
X100707969Y-65242283D01*
G75*
G02*
X100707969Y-65348349I-53033J-53033D01*
G01*
G37*
G36*
G01*
X101061522Y-64994796D02*
X100955456Y-65100862D01*
G75*
G02*
X100849390Y-65100862I-53033J53033D01*
G01*
X99912474Y-64163946D01*
G75*
G02*
X99912474Y-64057880I53033J53033D01*
G01*
X100018540Y-63951814D01*
G75*
G02*
X100124606Y-63951814I53033J-53033D01*
G01*
X101061522Y-64888730D01*
G75*
G02*
X101061522Y-64994796I-53033J-53033D01*
G01*
G37*
G36*
G01*
X101415075Y-64641243D02*
X101309009Y-64747309D01*
G75*
G02*
X101202943Y-64747309I-53033J53033D01*
G01*
X100266027Y-63810393D01*
G75*
G02*
X100266027Y-63704327I53033J53033D01*
G01*
X100372093Y-63598261D01*
G75*
G02*
X100478159Y-63598261I53033J-53033D01*
G01*
X101415075Y-64535177D01*
G75*
G02*
X101415075Y-64641243I-53033J-53033D01*
G01*
G37*
G36*
G01*
X101768629Y-64287689D02*
X101662563Y-64393755D01*
G75*
G02*
X101556497Y-64393755I-53033J53033D01*
G01*
X100619581Y-63456839D01*
G75*
G02*
X100619581Y-63350773I53033J53033D01*
G01*
X100725647Y-63244707D01*
G75*
G02*
X100831713Y-63244707I53033J-53033D01*
G01*
X101768629Y-64181623D01*
G75*
G02*
X101768629Y-64287689I-53033J-53033D01*
G01*
G37*
G36*
G01*
X102122182Y-63934136D02*
X102016116Y-64040202D01*
G75*
G02*
X101910050Y-64040202I-53033J53033D01*
G01*
X100973134Y-63103286D01*
G75*
G02*
X100973134Y-62997220I53033J53033D01*
G01*
X101079200Y-62891154D01*
G75*
G02*
X101185266Y-62891154I53033J-53033D01*
G01*
X102122182Y-63828070D01*
G75*
G02*
X102122182Y-63934136I-53033J-53033D01*
G01*
G37*
G36*
G01*
X102475736Y-63580582D02*
X102369670Y-63686648D01*
G75*
G02*
X102263604Y-63686648I-53033J53033D01*
G01*
X101326688Y-62749732D01*
G75*
G02*
X101326688Y-62643666I53033J53033D01*
G01*
X101432754Y-62537600D01*
G75*
G02*
X101538820Y-62537600I53033J-53033D01*
G01*
X102475736Y-63474516D01*
G75*
G02*
X102475736Y-63580582I-53033J-53033D01*
G01*
G37*
G36*
G01*
X104473312Y-62749732D02*
X103536396Y-63686648D01*
G75*
G02*
X103430330Y-63686648I-53033J53033D01*
G01*
X103324264Y-63580582D01*
G75*
G02*
X103324264Y-63474516I53033J53033D01*
G01*
X104261180Y-62537600D01*
G75*
G02*
X104367246Y-62537600I53033J-53033D01*
G01*
X104473312Y-62643666D01*
G75*
G02*
X104473312Y-62749732I-53033J-53033D01*
G01*
G37*
G36*
G01*
X104826866Y-63103286D02*
X103889950Y-64040202D01*
G75*
G02*
X103783884Y-64040202I-53033J53033D01*
G01*
X103677818Y-63934136D01*
G75*
G02*
X103677818Y-63828070I53033J53033D01*
G01*
X104614734Y-62891154D01*
G75*
G02*
X104720800Y-62891154I53033J-53033D01*
G01*
X104826866Y-62997220D01*
G75*
G02*
X104826866Y-63103286I-53033J-53033D01*
G01*
G37*
G36*
G01*
X105180419Y-63456839D02*
X104243503Y-64393755D01*
G75*
G02*
X104137437Y-64393755I-53033J53033D01*
G01*
X104031371Y-64287689D01*
G75*
G02*
X104031371Y-64181623I53033J53033D01*
G01*
X104968287Y-63244707D01*
G75*
G02*
X105074353Y-63244707I53033J-53033D01*
G01*
X105180419Y-63350773D01*
G75*
G02*
X105180419Y-63456839I-53033J-53033D01*
G01*
G37*
G36*
G01*
X105533973Y-63810393D02*
X104597057Y-64747309D01*
G75*
G02*
X104490991Y-64747309I-53033J53033D01*
G01*
X104384925Y-64641243D01*
G75*
G02*
X104384925Y-64535177I53033J53033D01*
G01*
X105321841Y-63598261D01*
G75*
G02*
X105427907Y-63598261I53033J-53033D01*
G01*
X105533973Y-63704327D01*
G75*
G02*
X105533973Y-63810393I-53033J-53033D01*
G01*
G37*
G36*
G01*
X105887526Y-64163946D02*
X104950610Y-65100862D01*
G75*
G02*
X104844544Y-65100862I-53033J53033D01*
G01*
X104738478Y-64994796D01*
G75*
G02*
X104738478Y-64888730I53033J53033D01*
G01*
X105675394Y-63951814D01*
G75*
G02*
X105781460Y-63951814I53033J-53033D01*
G01*
X105887526Y-64057880D01*
G75*
G02*
X105887526Y-64163946I-53033J-53033D01*
G01*
G37*
G36*
G01*
X106241079Y-64517499D02*
X105304163Y-65454415D01*
G75*
G02*
X105198097Y-65454415I-53033J53033D01*
G01*
X105092031Y-65348349D01*
G75*
G02*
X105092031Y-65242283I53033J53033D01*
G01*
X106028947Y-64305367D01*
G75*
G02*
X106135013Y-64305367I53033J-53033D01*
G01*
X106241079Y-64411433D01*
G75*
G02*
X106241079Y-64517499I-53033J-53033D01*
G01*
G37*
G36*
G01*
X106594633Y-64871053D02*
X105657717Y-65807969D01*
G75*
G02*
X105551651Y-65807969I-53033J53033D01*
G01*
X105445585Y-65701903D01*
G75*
G02*
X105445585Y-65595837I53033J53033D01*
G01*
X106382501Y-64658921D01*
G75*
G02*
X106488567Y-64658921I53033J-53033D01*
G01*
X106594633Y-64764987D01*
G75*
G02*
X106594633Y-64871053I-53033J-53033D01*
G01*
G37*
G36*
G01*
X106948186Y-65224606D02*
X106011270Y-66161522D01*
G75*
G02*
X105905204Y-66161522I-53033J53033D01*
G01*
X105799138Y-66055456D01*
G75*
G02*
X105799138Y-65949390I53033J53033D01*
G01*
X106736054Y-65012474D01*
G75*
G02*
X106842120Y-65012474I53033J-53033D01*
G01*
X106948186Y-65118540D01*
G75*
G02*
X106948186Y-65224606I-53033J-53033D01*
G01*
G37*
G36*
G01*
X107301739Y-65578159D02*
X106364823Y-66515075D01*
G75*
G02*
X106258757Y-66515075I-53033J53033D01*
G01*
X106152691Y-66409009D01*
G75*
G02*
X106152691Y-66302943I53033J53033D01*
G01*
X107089607Y-65366027D01*
G75*
G02*
X107195673Y-65366027I53033J-53033D01*
G01*
X107301739Y-65472093D01*
G75*
G02*
X107301739Y-65578159I-53033J-53033D01*
G01*
G37*
G36*
G01*
X107655293Y-65931713D02*
X106718377Y-66868629D01*
G75*
G02*
X106612311Y-66868629I-53033J53033D01*
G01*
X106506245Y-66762563D01*
G75*
G02*
X106506245Y-66656497I53033J53033D01*
G01*
X107443161Y-65719581D01*
G75*
G02*
X107549227Y-65719581I53033J-53033D01*
G01*
X107655293Y-65825647D01*
G75*
G02*
X107655293Y-65931713I-53033J-53033D01*
G01*
G37*
G36*
G01*
X108008846Y-66285266D02*
X107071930Y-67222182D01*
G75*
G02*
X106965864Y-67222182I-53033J53033D01*
G01*
X106859798Y-67116116D01*
G75*
G02*
X106859798Y-67010050I53033J53033D01*
G01*
X107796714Y-66073134D01*
G75*
G02*
X107902780Y-66073134I53033J-53033D01*
G01*
X108008846Y-66179200D01*
G75*
G02*
X108008846Y-66285266I-53033J-53033D01*
G01*
G37*
G36*
G01*
X108362400Y-66638820D02*
X107425484Y-67575736D01*
G75*
G02*
X107319418Y-67575736I-53033J53033D01*
G01*
X107213352Y-67469670D01*
G75*
G02*
X107213352Y-67363604I53033J53033D01*
G01*
X108150268Y-66426688D01*
G75*
G02*
X108256334Y-66426688I53033J-53033D01*
G01*
X108362400Y-66532754D01*
G75*
G02*
X108362400Y-66638820I-53033J-53033D01*
G01*
G37*
G36*
G01*
X108362400Y-69467246D02*
X108256334Y-69573312D01*
G75*
G02*
X108150268Y-69573312I-53033J53033D01*
G01*
X107213352Y-68636396D01*
G75*
G02*
X107213352Y-68530330I53033J53033D01*
G01*
X107319418Y-68424264D01*
G75*
G02*
X107425484Y-68424264I53033J-53033D01*
G01*
X108362400Y-69361180D01*
G75*
G02*
X108362400Y-69467246I-53033J-53033D01*
G01*
G37*
G36*
G01*
X108008846Y-69820800D02*
X107902780Y-69926866D01*
G75*
G02*
X107796714Y-69926866I-53033J53033D01*
G01*
X106859798Y-68989950D01*
G75*
G02*
X106859798Y-68883884I53033J53033D01*
G01*
X106965864Y-68777818D01*
G75*
G02*
X107071930Y-68777818I53033J-53033D01*
G01*
X108008846Y-69714734D01*
G75*
G02*
X108008846Y-69820800I-53033J-53033D01*
G01*
G37*
G36*
G01*
X107655293Y-70174353D02*
X107549227Y-70280419D01*
G75*
G02*
X107443161Y-70280419I-53033J53033D01*
G01*
X106506245Y-69343503D01*
G75*
G02*
X106506245Y-69237437I53033J53033D01*
G01*
X106612311Y-69131371D01*
G75*
G02*
X106718377Y-69131371I53033J-53033D01*
G01*
X107655293Y-70068287D01*
G75*
G02*
X107655293Y-70174353I-53033J-53033D01*
G01*
G37*
G36*
G01*
X107301739Y-70527907D02*
X107195673Y-70633973D01*
G75*
G02*
X107089607Y-70633973I-53033J53033D01*
G01*
X106152691Y-69697057D01*
G75*
G02*
X106152691Y-69590991I53033J53033D01*
G01*
X106258757Y-69484925D01*
G75*
G02*
X106364823Y-69484925I53033J-53033D01*
G01*
X107301739Y-70421841D01*
G75*
G02*
X107301739Y-70527907I-53033J-53033D01*
G01*
G37*
G36*
G01*
X106948186Y-70881460D02*
X106842120Y-70987526D01*
G75*
G02*
X106736054Y-70987526I-53033J53033D01*
G01*
X105799138Y-70050610D01*
G75*
G02*
X105799138Y-69944544I53033J53033D01*
G01*
X105905204Y-69838478D01*
G75*
G02*
X106011270Y-69838478I53033J-53033D01*
G01*
X106948186Y-70775394D01*
G75*
G02*
X106948186Y-70881460I-53033J-53033D01*
G01*
G37*
G36*
G01*
X106594633Y-71235013D02*
X106488567Y-71341079D01*
G75*
G02*
X106382501Y-71341079I-53033J53033D01*
G01*
X105445585Y-70404163D01*
G75*
G02*
X105445585Y-70298097I53033J53033D01*
G01*
X105551651Y-70192031D01*
G75*
G02*
X105657717Y-70192031I53033J-53033D01*
G01*
X106594633Y-71128947D01*
G75*
G02*
X106594633Y-71235013I-53033J-53033D01*
G01*
G37*
G36*
G01*
X106241079Y-71588567D02*
X106135013Y-71694633D01*
G75*
G02*
X106028947Y-71694633I-53033J53033D01*
G01*
X105092031Y-70757717D01*
G75*
G02*
X105092031Y-70651651I53033J53033D01*
G01*
X105198097Y-70545585D01*
G75*
G02*
X105304163Y-70545585I53033J-53033D01*
G01*
X106241079Y-71482501D01*
G75*
G02*
X106241079Y-71588567I-53033J-53033D01*
G01*
G37*
G36*
G01*
X105887526Y-71942120D02*
X105781460Y-72048186D01*
G75*
G02*
X105675394Y-72048186I-53033J53033D01*
G01*
X104738478Y-71111270D01*
G75*
G02*
X104738478Y-71005204I53033J53033D01*
G01*
X104844544Y-70899138D01*
G75*
G02*
X104950610Y-70899138I53033J-53033D01*
G01*
X105887526Y-71836054D01*
G75*
G02*
X105887526Y-71942120I-53033J-53033D01*
G01*
G37*
G36*
G01*
X105533973Y-72295673D02*
X105427907Y-72401739D01*
G75*
G02*
X105321841Y-72401739I-53033J53033D01*
G01*
X104384925Y-71464823D01*
G75*
G02*
X104384925Y-71358757I53033J53033D01*
G01*
X104490991Y-71252691D01*
G75*
G02*
X104597057Y-71252691I53033J-53033D01*
G01*
X105533973Y-72189607D01*
G75*
G02*
X105533973Y-72295673I-53033J-53033D01*
G01*
G37*
G36*
G01*
X105180419Y-72649227D02*
X105074353Y-72755293D01*
G75*
G02*
X104968287Y-72755293I-53033J53033D01*
G01*
X104031371Y-71818377D01*
G75*
G02*
X104031371Y-71712311I53033J53033D01*
G01*
X104137437Y-71606245D01*
G75*
G02*
X104243503Y-71606245I53033J-53033D01*
G01*
X105180419Y-72543161D01*
G75*
G02*
X105180419Y-72649227I-53033J-53033D01*
G01*
G37*
G36*
G01*
X104826866Y-73002780D02*
X104720800Y-73108846D01*
G75*
G02*
X104614734Y-73108846I-53033J53033D01*
G01*
X103677818Y-72171930D01*
G75*
G02*
X103677818Y-72065864I53033J53033D01*
G01*
X103783884Y-71959798D01*
G75*
G02*
X103889950Y-71959798I53033J-53033D01*
G01*
X104826866Y-72896714D01*
G75*
G02*
X104826866Y-73002780I-53033J-53033D01*
G01*
G37*
G36*
G01*
X104473312Y-73356334D02*
X104367246Y-73462400D01*
G75*
G02*
X104261180Y-73462400I-53033J53033D01*
G01*
X103324264Y-72525484D01*
G75*
G02*
X103324264Y-72419418I53033J53033D01*
G01*
X103430330Y-72313352D01*
G75*
G02*
X103536396Y-72313352I53033J-53033D01*
G01*
X104473312Y-73250268D01*
G75*
G02*
X104473312Y-73356334I-53033J-53033D01*
G01*
G37*
G36*
G01*
X75275000Y-74125000D02*
X75275000Y-72875000D01*
G75*
G02*
X75525000Y-72625000I250000J0D01*
G01*
X76450000Y-72625000D01*
G75*
G02*
X76700000Y-72875000I0J-250000D01*
G01*
X76700000Y-74125000D01*
G75*
G02*
X76450000Y-74375000I-250000J0D01*
G01*
X75525000Y-74375000D01*
G75*
G02*
X75275000Y-74125000I0J250000D01*
G01*
G37*
G36*
G01*
X72300000Y-74125000D02*
X72300000Y-72875000D01*
G75*
G02*
X72550000Y-72625000I250000J0D01*
G01*
X73475000Y-72625000D01*
G75*
G02*
X73725000Y-72875000I0J-250000D01*
G01*
X73725000Y-74125000D01*
G75*
G02*
X73475000Y-74375000I-250000J0D01*
G01*
X72550000Y-74375000D01*
G75*
G02*
X72300000Y-74125000I0J250000D01*
G01*
G37*
G36*
G01*
X107637500Y-74375000D02*
X107637500Y-75625000D01*
G75*
G02*
X107387500Y-75875000I-250000J0D01*
G01*
X106462500Y-75875000D01*
G75*
G02*
X106212500Y-75625000I0J250000D01*
G01*
X106212500Y-74375000D01*
G75*
G02*
X106462500Y-74125000I250000J0D01*
G01*
X107387500Y-74125000D01*
G75*
G02*
X107637500Y-74375000I0J-250000D01*
G01*
G37*
G36*
G01*
X110612500Y-74375000D02*
X110612500Y-75625000D01*
G75*
G02*
X110362500Y-75875000I-250000J0D01*
G01*
X109437500Y-75875000D01*
G75*
G02*
X109187500Y-75625000I0J250000D01*
G01*
X109187500Y-74375000D01*
G75*
G02*
X109437500Y-74125000I250000J0D01*
G01*
X110362500Y-74125000D01*
G75*
G02*
X110612500Y-74375000I0J-250000D01*
G01*
G37*
G36*
G01*
X67100000Y-73049999D02*
X67100000Y-73950001D01*
G75*
G02*
X66850001Y-74200000I-249999J0D01*
G01*
X66149999Y-74200000D01*
G75*
G02*
X65900000Y-73950001I0J249999D01*
G01*
X65900000Y-73049999D01*
G75*
G02*
X66149999Y-72800000I249999J0D01*
G01*
X66850001Y-72800000D01*
G75*
G02*
X67100000Y-73049999I0J-249999D01*
G01*
G37*
G36*
G01*
X69100000Y-73049999D02*
X69100000Y-73950001D01*
G75*
G02*
X68850001Y-74200000I-249999J0D01*
G01*
X68149999Y-74200000D01*
G75*
G02*
X67900000Y-73950001I0J249999D01*
G01*
X67900000Y-73049999D01*
G75*
G02*
X68149999Y-72800000I249999J0D01*
G01*
X68850001Y-72800000D01*
G75*
G02*
X69100000Y-73049999I0J-249999D01*
G01*
G37*
D10*
G36*
X119192893Y-65878679D02*
G01*
X117778679Y-67292893D01*
X112210213Y-61724427D01*
X113624427Y-60310213D01*
X119192893Y-65878679D01*
G37*
G36*
X127589787Y-74275573D02*
G01*
X126175573Y-75689787D01*
X120607107Y-70121321D01*
X122021321Y-68707107D01*
X127589787Y-74275573D01*
G37*
D11*
X78300000Y-62350000D03*
X73700000Y-62350000D03*
X76000000Y-62350000D03*
D12*
X76000000Y-68650000D03*
D13*
X82750000Y-75825000D03*
X82750000Y-68175000D03*
X91150000Y-75825000D03*
X91150000Y-68175000D03*
G36*
G01*
X90749999Y-64800000D02*
X91650001Y-64800000D01*
G75*
G02*
X91900000Y-65049999I0J-249999D01*
G01*
X91900000Y-65750001D01*
G75*
G02*
X91650001Y-66000000I-249999J0D01*
G01*
X90749999Y-66000000D01*
G75*
G02*
X90500000Y-65750001I0J249999D01*
G01*
X90500000Y-65049999D01*
G75*
G02*
X90749999Y-64800000I249999J0D01*
G01*
G37*
G36*
G01*
X90749999Y-62800000D02*
X91650001Y-62800000D01*
G75*
G02*
X91900000Y-63049999I0J-249999D01*
G01*
X91900000Y-63750001D01*
G75*
G02*
X91650001Y-64000000I-249999J0D01*
G01*
X90749999Y-64000000D01*
G75*
G02*
X90500000Y-63750001I0J249999D01*
G01*
X90500000Y-63049999D01*
G75*
G02*
X90749999Y-62800000I249999J0D01*
G01*
G37*
G36*
G01*
X114300000Y-75450001D02*
X114300000Y-74549999D01*
G75*
G02*
X114549999Y-74300000I249999J0D01*
G01*
X115250001Y-74300000D01*
G75*
G02*
X115500000Y-74549999I0J-249999D01*
G01*
X115500000Y-75450001D01*
G75*
G02*
X115250001Y-75700000I-249999J0D01*
G01*
X114549999Y-75700000D01*
G75*
G02*
X114300000Y-75450001I0J249999D01*
G01*
G37*
G36*
G01*
X112300000Y-75450001D02*
X112300000Y-74549999D01*
G75*
G02*
X112549999Y-74300000I249999J0D01*
G01*
X113250001Y-74300000D01*
G75*
G02*
X113500000Y-74549999I0J-249999D01*
G01*
X113500000Y-75450001D01*
G75*
G02*
X113250001Y-75700000I-249999J0D01*
G01*
X112549999Y-75700000D01*
G75*
G02*
X112300000Y-75450001I0J249999D01*
G01*
G37*
G36*
G01*
X87850001Y-71400000D02*
X86949999Y-71400000D01*
G75*
G02*
X86700000Y-71150001I0J249999D01*
G01*
X86700000Y-70449999D01*
G75*
G02*
X86949999Y-70200000I249999J0D01*
G01*
X87850001Y-70200000D01*
G75*
G02*
X88100000Y-70449999I0J-249999D01*
G01*
X88100000Y-71150001D01*
G75*
G02*
X87850001Y-71400000I-249999J0D01*
G01*
G37*
G36*
G01*
X87850001Y-73400000D02*
X86949999Y-73400000D01*
G75*
G02*
X86700000Y-73150001I0J249999D01*
G01*
X86700000Y-72449999D01*
G75*
G02*
X86949999Y-72200000I249999J0D01*
G01*
X87850001Y-72200000D01*
G75*
G02*
X88100000Y-72449999I0J-249999D01*
G01*
X88100000Y-73150001D01*
G75*
G02*
X87850001Y-73400000I-249999J0D01*
G01*
G37*
G36*
G01*
X67100000Y-66049999D02*
X67100000Y-66950001D01*
G75*
G02*
X66850001Y-67200000I-249999J0D01*
G01*
X66149999Y-67200000D01*
G75*
G02*
X65900000Y-66950001I0J249999D01*
G01*
X65900000Y-66049999D01*
G75*
G02*
X66149999Y-65800000I249999J0D01*
G01*
X66850001Y-65800000D01*
G75*
G02*
X67100000Y-66049999I0J-249999D01*
G01*
G37*
G36*
G01*
X69100000Y-66049999D02*
X69100000Y-66950001D01*
G75*
G02*
X68850001Y-67200000I-249999J0D01*
G01*
X68149999Y-67200000D01*
G75*
G02*
X67900000Y-66950001I0J249999D01*
G01*
X67900000Y-66049999D01*
G75*
G02*
X68149999Y-65800000I249999J0D01*
G01*
X68850001Y-65800000D01*
G75*
G02*
X69100000Y-66049999I0J-249999D01*
G01*
G37*
G36*
G01*
X67100000Y-69549999D02*
X67100000Y-70450001D01*
G75*
G02*
X66850001Y-70700000I-249999J0D01*
G01*
X66149999Y-70700000D01*
G75*
G02*
X65900000Y-70450001I0J249999D01*
G01*
X65900000Y-69549999D01*
G75*
G02*
X66149999Y-69300000I249999J0D01*
G01*
X66850001Y-69300000D01*
G75*
G02*
X67100000Y-69549999I0J-249999D01*
G01*
G37*
G36*
G01*
X69100000Y-69549999D02*
X69100000Y-70450001D01*
G75*
G02*
X68850001Y-70700000I-249999J0D01*
G01*
X68149999Y-70700000D01*
G75*
G02*
X67900000Y-70450001I0J249999D01*
G01*
X67900000Y-69549999D01*
G75*
G02*
X68149999Y-69300000I249999J0D01*
G01*
X68850001Y-69300000D01*
G75*
G02*
X69100000Y-69549999I0J-249999D01*
G01*
G37*
G36*
G01*
X111938128Y-67602252D02*
X111602252Y-67938128D01*
G75*
G02*
X111266376Y-67938128I-167938J167938D01*
G01*
X110842112Y-67513864D01*
G75*
G02*
X110842112Y-67177988I167938J167938D01*
G01*
X111177988Y-66842112D01*
G75*
G02*
X111513864Y-66842112I167938J-167938D01*
G01*
X111938128Y-67266376D01*
G75*
G02*
X111938128Y-67602252I-167938J-167938D01*
G01*
G37*
G36*
G01*
X113157888Y-68822012D02*
X112822012Y-69157888D01*
G75*
G02*
X112486136Y-69157888I-167938J167938D01*
G01*
X112061872Y-68733624D01*
G75*
G02*
X112061872Y-68397748I167938J167938D01*
G01*
X112397748Y-68061872D01*
G75*
G02*
X112733624Y-68061872I167938J-167938D01*
G01*
X113157888Y-68486136D01*
G75*
G02*
X113157888Y-68822012I-167938J-167938D01*
G01*
G37*
G36*
G01*
X115451992Y-71787868D02*
X115787868Y-71451992D01*
G75*
G02*
X116123744Y-71451992I167938J-167938D01*
G01*
X116548008Y-71876256D01*
G75*
G02*
X116548008Y-72212132I-167938J-167938D01*
G01*
X116212132Y-72548008D01*
G75*
G02*
X115876256Y-72548008I-167938J167938D01*
G01*
X115451992Y-72123744D01*
G75*
G02*
X115451992Y-71787868I167938J167938D01*
G01*
G37*
G36*
G01*
X114232232Y-70568108D02*
X114568108Y-70232232D01*
G75*
G02*
X114903984Y-70232232I167938J-167938D01*
G01*
X115328248Y-70656496D01*
G75*
G02*
X115328248Y-70992372I-167938J-167938D01*
G01*
X114992372Y-71328248D01*
G75*
G02*
X114656496Y-71328248I-167938J167938D01*
G01*
X114232232Y-70903984D01*
G75*
G02*
X114232232Y-70568108I167938J167938D01*
G01*
G37*
G36*
G01*
X102175000Y-75262500D02*
X102175000Y-75737500D01*
G75*
G02*
X101937500Y-75975000I-237500J0D01*
G01*
X101337500Y-75975000D01*
G75*
G02*
X101100000Y-75737500I0J237500D01*
G01*
X101100000Y-75262500D01*
G75*
G02*
X101337500Y-75025000I237500J0D01*
G01*
X101937500Y-75025000D01*
G75*
G02*
X102175000Y-75262500I0J-237500D01*
G01*
G37*
G36*
G01*
X103900000Y-75262500D02*
X103900000Y-75737500D01*
G75*
G02*
X103662500Y-75975000I-237500J0D01*
G01*
X103062500Y-75975000D01*
G75*
G02*
X102825000Y-75737500I0J237500D01*
G01*
X102825000Y-75262500D01*
G75*
G02*
X103062500Y-75025000I237500J0D01*
G01*
X103662500Y-75025000D01*
G75*
G02*
X103900000Y-75262500I0J-237500D01*
G01*
G37*
G36*
G01*
X107961872Y-63397748D02*
X108297748Y-63061872D01*
G75*
G02*
X108633624Y-63061872I167938J-167938D01*
G01*
X109057888Y-63486136D01*
G75*
G02*
X109057888Y-63822012I-167938J-167938D01*
G01*
X108722012Y-64157888D01*
G75*
G02*
X108386136Y-64157888I-167938J167938D01*
G01*
X107961872Y-63733624D01*
G75*
G02*
X107961872Y-63397748I167938J167938D01*
G01*
G37*
G36*
G01*
X106742112Y-62177988D02*
X107077988Y-61842112D01*
G75*
G02*
X107413864Y-61842112I167938J-167938D01*
G01*
X107838128Y-62266376D01*
G75*
G02*
X107838128Y-62602252I-167938J-167938D01*
G01*
X107502252Y-62938128D01*
G75*
G02*
X107166376Y-62938128I-167938J167938D01*
G01*
X106742112Y-62513864D01*
G75*
G02*
X106742112Y-62177988I167938J167938D01*
G01*
G37*
G36*
G01*
X98562499Y-75262500D02*
X98562499Y-75737500D01*
G75*
G02*
X98324999Y-75975000I-237500J0D01*
G01*
X97724999Y-75975000D01*
G75*
G02*
X97487499Y-75737500I0J237500D01*
G01*
X97487499Y-75262500D01*
G75*
G02*
X97724999Y-75025000I237500J0D01*
G01*
X98324999Y-75025000D01*
G75*
G02*
X98562499Y-75262500I0J-237500D01*
G01*
G37*
G36*
G01*
X100287499Y-75262500D02*
X100287499Y-75737500D01*
G75*
G02*
X100049999Y-75975000I-237500J0D01*
G01*
X99449999Y-75975000D01*
G75*
G02*
X99212499Y-75737500I0J237500D01*
G01*
X99212499Y-75262500D01*
G75*
G02*
X99449999Y-75025000I237500J0D01*
G01*
X100049999Y-75025000D01*
G75*
G02*
X100287499Y-75262500I0J-237500D01*
G01*
G37*
G36*
G01*
X96407628Y-63828248D02*
X96071752Y-63492372D01*
G75*
G02*
X96071752Y-63156496I167938J167938D01*
G01*
X96496016Y-62732232D01*
G75*
G02*
X96831892Y-62732232I167938J-167938D01*
G01*
X97167768Y-63068108D01*
G75*
G02*
X97167768Y-63403984I-167938J-167938D01*
G01*
X96743504Y-63828248D01*
G75*
G02*
X96407628Y-63828248I-167938J167938D01*
G01*
G37*
G36*
G01*
X95187868Y-65048008D02*
X94851992Y-64712132D01*
G75*
G02*
X94851992Y-64376256I167938J167938D01*
G01*
X95276256Y-63951992D01*
G75*
G02*
X95612132Y-63951992I167938J-167938D01*
G01*
X95948008Y-64287868D01*
G75*
G02*
X95948008Y-64623744I-167938J-167938D01*
G01*
X95523744Y-65048008D01*
G75*
G02*
X95187868Y-65048008I-167938J167938D01*
G01*
G37*
G36*
G01*
X86237500Y-64312500D02*
X85762500Y-64312500D01*
G75*
G02*
X85525000Y-64075000I0J237500D01*
G01*
X85525000Y-63475000D01*
G75*
G02*
X85762500Y-63237500I237500J0D01*
G01*
X86237500Y-63237500D01*
G75*
G02*
X86475000Y-63475000I0J-237500D01*
G01*
X86475000Y-64075000D01*
G75*
G02*
X86237500Y-64312500I-237500J0D01*
G01*
G37*
G36*
G01*
X86237500Y-66037500D02*
X85762500Y-66037500D01*
G75*
G02*
X85525000Y-65800000I0J237500D01*
G01*
X85525000Y-65200000D01*
G75*
G02*
X85762500Y-64962500I237500J0D01*
G01*
X86237500Y-64962500D01*
G75*
G02*
X86475000Y-65200000I0J-237500D01*
G01*
X86475000Y-65800000D01*
G75*
G02*
X86237500Y-66037500I-237500J0D01*
G01*
G37*
G36*
G01*
X83150002Y-63037500D02*
X81849998Y-63037500D01*
G75*
G02*
X81600000Y-62787502I0J249998D01*
G01*
X81600000Y-61962498D01*
G75*
G02*
X81849998Y-61712500I249998J0D01*
G01*
X83150002Y-61712500D01*
G75*
G02*
X83400000Y-61962498I0J-249998D01*
G01*
X83400000Y-62787502D01*
G75*
G02*
X83150002Y-63037500I-249998J0D01*
G01*
G37*
G36*
G01*
X83150002Y-66162500D02*
X81849998Y-66162500D01*
G75*
G02*
X81600000Y-65912502I0J249998D01*
G01*
X81600000Y-65087498D01*
G75*
G02*
X81849998Y-64837500I249998J0D01*
G01*
X83150002Y-64837500D01*
G75*
G02*
X83400000Y-65087498I0J-249998D01*
G01*
X83400000Y-65912502D01*
G75*
G02*
X83150002Y-66162500I-249998J0D01*
G01*
G37*
G36*
G01*
X68462500Y-63150002D02*
X68462500Y-61849998D01*
G75*
G02*
X68712498Y-61600000I249998J0D01*
G01*
X69537502Y-61600000D01*
G75*
G02*
X69787500Y-61849998I0J-249998D01*
G01*
X69787500Y-63150002D01*
G75*
G02*
X69537502Y-63400000I-249998J0D01*
G01*
X68712498Y-63400000D01*
G75*
G02*
X68462500Y-63150002I0J249998D01*
G01*
G37*
G36*
G01*
X65337500Y-63150002D02*
X65337500Y-61849998D01*
G75*
G02*
X65587498Y-61600000I249998J0D01*
G01*
X66412502Y-61600000D01*
G75*
G02*
X66662500Y-61849998I0J-249998D01*
G01*
X66662500Y-63150002D01*
G75*
G02*
X66412502Y-63400000I-249998J0D01*
G01*
X65587498Y-63400000D01*
G75*
G02*
X65337500Y-63150002I0J249998D01*
G01*
G37*
M02*
