G04 #@! TF.GenerationSoftware,KiCad,Pcbnew,(5.1.10)-1*
G04 #@! TF.CreationDate,2022-05-27T15:53:32+02:00*
G04 #@! TF.ProjectId,USB_RemoteControl_schematic,5553425f-5265-46d6-9f74-65436f6e7472,1*
G04 #@! TF.SameCoordinates,Original*
G04 #@! TF.FileFunction,Copper,L1,Top*
G04 #@! TF.FilePolarity,Positive*
%FSLAX46Y46*%
G04 Gerber Fmt 4.6, Leading zero omitted, Abs format (unit mm)*
G04 Created by KiCad (PCBNEW (5.1.10)-1) date 2022-05-27 15:53:32*
%MOMM*%
%LPD*%
G01*
G04 APERTURE LIST*
G04 #@! TA.AperFunction,ComponentPad*
%ADD10C,3.500000*%
G04 #@! TD*
G04 #@! TA.AperFunction,ComponentPad*
%ADD11C,1.524000*%
G04 #@! TD*
G04 #@! TA.AperFunction,ComponentPad*
%ADD12R,1.524000X1.524000*%
G04 #@! TD*
G04 #@! TA.AperFunction,SMDPad,CuDef*
%ADD13R,2.000000X4.500000*%
G04 #@! TD*
G04 #@! TA.AperFunction,SMDPad,CuDef*
%ADD14R,0.600000X1.500000*%
G04 #@! TD*
G04 #@! TA.AperFunction,ComponentPad*
%ADD15O,1.700000X1.700000*%
G04 #@! TD*
G04 #@! TA.AperFunction,ComponentPad*
%ADD16R,1.700000X1.700000*%
G04 #@! TD*
G04 #@! TA.AperFunction,ViaPad*
%ADD17C,0.600000*%
G04 #@! TD*
G04 #@! TA.AperFunction,Conductor*
%ADD18C,0.300000*%
G04 #@! TD*
G04 #@! TA.AperFunction,Conductor*
%ADD19C,0.150000*%
G04 #@! TD*
G04 #@! TA.AperFunction,Conductor*
%ADD20C,0.254000*%
G04 #@! TD*
G04 #@! TA.AperFunction,Conductor*
%ADD21C,0.152400*%
G04 #@! TD*
G04 APERTURE END LIST*
D10*
X103790000Y-118430000D03*
D11*
X106500000Y-124000000D03*
D12*
X106500000Y-128500000D03*
D10*
X103790000Y-131570000D03*
D11*
X106500000Y-126000000D03*
X106500000Y-121500000D03*
G04 #@! TA.AperFunction,SMDPad,CuDef*
G36*
G01*
X141049999Y-118725000D02*
X141950001Y-118725000D01*
G75*
G02*
X142200000Y-118974999I0J-249999D01*
G01*
X142200000Y-119625001D01*
G75*
G02*
X141950001Y-119875000I-249999J0D01*
G01*
X141049999Y-119875000D01*
G75*
G02*
X140800000Y-119625001I0J249999D01*
G01*
X140800000Y-118974999D01*
G75*
G02*
X141049999Y-118725000I249999J0D01*
G01*
G37*
G04 #@! TD.AperFunction*
G04 #@! TA.AperFunction,SMDPad,CuDef*
G36*
G01*
X141049999Y-116675000D02*
X141950001Y-116675000D01*
G75*
G02*
X142200000Y-116924999I0J-249999D01*
G01*
X142200000Y-117575001D01*
G75*
G02*
X141950001Y-117825000I-249999J0D01*
G01*
X141049999Y-117825000D01*
G75*
G02*
X140800000Y-117575001I0J249999D01*
G01*
X140800000Y-116924999D01*
G75*
G02*
X141049999Y-116675000I249999J0D01*
G01*
G37*
G04 #@! TD.AperFunction*
G04 #@! TA.AperFunction,SMDPad,CuDef*
G36*
G01*
X136549999Y-118725000D02*
X137450001Y-118725000D01*
G75*
G02*
X137700000Y-118974999I0J-249999D01*
G01*
X137700000Y-119625001D01*
G75*
G02*
X137450001Y-119875000I-249999J0D01*
G01*
X136549999Y-119875000D01*
G75*
G02*
X136300000Y-119625001I0J249999D01*
G01*
X136300000Y-118974999D01*
G75*
G02*
X136549999Y-118725000I249999J0D01*
G01*
G37*
G04 #@! TD.AperFunction*
G04 #@! TA.AperFunction,SMDPad,CuDef*
G36*
G01*
X136549999Y-116675000D02*
X137450001Y-116675000D01*
G75*
G02*
X137700000Y-116924999I0J-249999D01*
G01*
X137700000Y-117575001D01*
G75*
G02*
X137450001Y-117825000I-249999J0D01*
G01*
X136549999Y-117825000D01*
G75*
G02*
X136300000Y-117575001I0J249999D01*
G01*
X136300000Y-116924999D01*
G75*
G02*
X136549999Y-116675000I249999J0D01*
G01*
G37*
G04 #@! TD.AperFunction*
G04 #@! TA.AperFunction,SMDPad,CuDef*
G36*
G01*
X129799999Y-118675000D02*
X130700001Y-118675000D01*
G75*
G02*
X130950000Y-118924999I0J-249999D01*
G01*
X130950000Y-119575001D01*
G75*
G02*
X130700001Y-119825000I-249999J0D01*
G01*
X129799999Y-119825000D01*
G75*
G02*
X129550000Y-119575001I0J249999D01*
G01*
X129550000Y-118924999D01*
G75*
G02*
X129799999Y-118675000I249999J0D01*
G01*
G37*
G04 #@! TD.AperFunction*
G04 #@! TA.AperFunction,SMDPad,CuDef*
G36*
G01*
X129799999Y-116625000D02*
X130700001Y-116625000D01*
G75*
G02*
X130950000Y-116874999I0J-249999D01*
G01*
X130950000Y-117525001D01*
G75*
G02*
X130700001Y-117775000I-249999J0D01*
G01*
X129799999Y-117775000D01*
G75*
G02*
X129550000Y-117525001I0J249999D01*
G01*
X129550000Y-116874999D01*
G75*
G02*
X129799999Y-116625000I249999J0D01*
G01*
G37*
G04 #@! TD.AperFunction*
G04 #@! TA.AperFunction,SMDPad,CuDef*
G36*
G01*
X132049999Y-118675000D02*
X132950001Y-118675000D01*
G75*
G02*
X133200000Y-118924999I0J-249999D01*
G01*
X133200000Y-119575001D01*
G75*
G02*
X132950001Y-119825000I-249999J0D01*
G01*
X132049999Y-119825000D01*
G75*
G02*
X131800000Y-119575001I0J249999D01*
G01*
X131800000Y-118924999D01*
G75*
G02*
X132049999Y-118675000I249999J0D01*
G01*
G37*
G04 #@! TD.AperFunction*
G04 #@! TA.AperFunction,SMDPad,CuDef*
G36*
G01*
X132049999Y-116625000D02*
X132950001Y-116625000D01*
G75*
G02*
X133200000Y-116874999I0J-249999D01*
G01*
X133200000Y-117525001D01*
G75*
G02*
X132950001Y-117775000I-249999J0D01*
G01*
X132049999Y-117775000D01*
G75*
G02*
X131800000Y-117525001I0J249999D01*
G01*
X131800000Y-116874999D01*
G75*
G02*
X132049999Y-116625000I249999J0D01*
G01*
G37*
G04 #@! TD.AperFunction*
G04 #@! TA.AperFunction,SMDPad,CuDef*
G36*
G01*
X118987500Y-117787501D02*
X118512500Y-117787501D01*
G75*
G02*
X118275000Y-117550001I0J237500D01*
G01*
X118275000Y-116950001D01*
G75*
G02*
X118512500Y-116712501I237500J0D01*
G01*
X118987500Y-116712501D01*
G75*
G02*
X119225000Y-116950001I0J-237500D01*
G01*
X119225000Y-117550001D01*
G75*
G02*
X118987500Y-117787501I-237500J0D01*
G01*
G37*
G04 #@! TD.AperFunction*
G04 #@! TA.AperFunction,SMDPad,CuDef*
G36*
G01*
X118987500Y-119512501D02*
X118512500Y-119512501D01*
G75*
G02*
X118275000Y-119275001I0J237500D01*
G01*
X118275000Y-118675001D01*
G75*
G02*
X118512500Y-118437501I237500J0D01*
G01*
X118987500Y-118437501D01*
G75*
G02*
X119225000Y-118675001I0J-237500D01*
G01*
X119225000Y-119275001D01*
G75*
G02*
X118987500Y-119512501I-237500J0D01*
G01*
G37*
G04 #@! TD.AperFunction*
G04 #@! TA.AperFunction,SMDPad,CuDef*
G36*
G01*
X109487500Y-117562499D02*
X109012500Y-117562499D01*
G75*
G02*
X108775000Y-117324999I0J237500D01*
G01*
X108775000Y-116724999D01*
G75*
G02*
X109012500Y-116487499I237500J0D01*
G01*
X109487500Y-116487499D01*
G75*
G02*
X109725000Y-116724999I0J-237500D01*
G01*
X109725000Y-117324999D01*
G75*
G02*
X109487500Y-117562499I-237500J0D01*
G01*
G37*
G04 #@! TD.AperFunction*
G04 #@! TA.AperFunction,SMDPad,CuDef*
G36*
G01*
X109487500Y-119287499D02*
X109012500Y-119287499D01*
G75*
G02*
X108775000Y-119049999I0J237500D01*
G01*
X108775000Y-118449999D01*
G75*
G02*
X109012500Y-118212499I237500J0D01*
G01*
X109487500Y-118212499D01*
G75*
G02*
X109725000Y-118449999I0J-237500D01*
G01*
X109725000Y-119049999D01*
G75*
G02*
X109487500Y-119287499I-237500J0D01*
G01*
G37*
G04 #@! TD.AperFunction*
G04 #@! TA.AperFunction,SMDPad,CuDef*
G36*
G01*
X118012500Y-129687501D02*
X118487500Y-129687501D01*
G75*
G02*
X118725000Y-129925001I0J-237500D01*
G01*
X118725000Y-130525001D01*
G75*
G02*
X118487500Y-130762501I-237500J0D01*
G01*
X118012500Y-130762501D01*
G75*
G02*
X117775000Y-130525001I0J237500D01*
G01*
X117775000Y-129925001D01*
G75*
G02*
X118012500Y-129687501I237500J0D01*
G01*
G37*
G04 #@! TD.AperFunction*
G04 #@! TA.AperFunction,SMDPad,CuDef*
G36*
G01*
X118012500Y-127962501D02*
X118487500Y-127962501D01*
G75*
G02*
X118725000Y-128200001I0J-237500D01*
G01*
X118725000Y-128800001D01*
G75*
G02*
X118487500Y-129037501I-237500J0D01*
G01*
X118012500Y-129037501D01*
G75*
G02*
X117775000Y-128800001I0J237500D01*
G01*
X117775000Y-128200001D01*
G75*
G02*
X118012500Y-127962501I237500J0D01*
G01*
G37*
G04 #@! TD.AperFunction*
G04 #@! TA.AperFunction,SMDPad,CuDef*
G36*
G01*
X109012500Y-129212499D02*
X109487500Y-129212499D01*
G75*
G02*
X109725000Y-129449999I0J-237500D01*
G01*
X109725000Y-130049999D01*
G75*
G02*
X109487500Y-130287499I-237500J0D01*
G01*
X109012500Y-130287499D01*
G75*
G02*
X108775000Y-130049999I0J237500D01*
G01*
X108775000Y-129449999D01*
G75*
G02*
X109012500Y-129212499I237500J0D01*
G01*
G37*
G04 #@! TD.AperFunction*
G04 #@! TA.AperFunction,SMDPad,CuDef*
G36*
G01*
X109012500Y-127487499D02*
X109487500Y-127487499D01*
G75*
G02*
X109725000Y-127724999I0J-237500D01*
G01*
X109725000Y-128324999D01*
G75*
G02*
X109487500Y-128562499I-237500J0D01*
G01*
X109012500Y-128562499D01*
G75*
G02*
X108775000Y-128324999I0J237500D01*
G01*
X108775000Y-127724999D01*
G75*
G02*
X109012500Y-127487499I237500J0D01*
G01*
G37*
G04 #@! TD.AperFunction*
D13*
X124000000Y-120250000D03*
X124000000Y-128750000D03*
G04 #@! TA.AperFunction,SMDPad,CuDef*
G36*
G01*
X116900000Y-127250000D02*
X116900000Y-128575000D01*
G75*
G02*
X116825000Y-128650000I-75000J0D01*
G01*
X116675000Y-128650000D01*
G75*
G02*
X116600000Y-128575000I0J75000D01*
G01*
X116600000Y-127250000D01*
G75*
G02*
X116675000Y-127175000I75000J0D01*
G01*
X116825000Y-127175000D01*
G75*
G02*
X116900000Y-127250000I0J-75000D01*
G01*
G37*
G04 #@! TD.AperFunction*
G04 #@! TA.AperFunction,SMDPad,CuDef*
G36*
G01*
X116400000Y-127250000D02*
X116400000Y-128575000D01*
G75*
G02*
X116325000Y-128650000I-75000J0D01*
G01*
X116175000Y-128650000D01*
G75*
G02*
X116100000Y-128575000I0J75000D01*
G01*
X116100000Y-127250000D01*
G75*
G02*
X116175000Y-127175000I75000J0D01*
G01*
X116325000Y-127175000D01*
G75*
G02*
X116400000Y-127250000I0J-75000D01*
G01*
G37*
G04 #@! TD.AperFunction*
G04 #@! TA.AperFunction,SMDPad,CuDef*
G36*
G01*
X115900000Y-127250000D02*
X115900000Y-128575000D01*
G75*
G02*
X115825000Y-128650000I-75000J0D01*
G01*
X115675000Y-128650000D01*
G75*
G02*
X115600000Y-128575000I0J75000D01*
G01*
X115600000Y-127250000D01*
G75*
G02*
X115675000Y-127175000I75000J0D01*
G01*
X115825000Y-127175000D01*
G75*
G02*
X115900000Y-127250000I0J-75000D01*
G01*
G37*
G04 #@! TD.AperFunction*
G04 #@! TA.AperFunction,SMDPad,CuDef*
G36*
G01*
X115400000Y-127250000D02*
X115400000Y-128575000D01*
G75*
G02*
X115325000Y-128650000I-75000J0D01*
G01*
X115175000Y-128650000D01*
G75*
G02*
X115100000Y-128575000I0J75000D01*
G01*
X115100000Y-127250000D01*
G75*
G02*
X115175000Y-127175000I75000J0D01*
G01*
X115325000Y-127175000D01*
G75*
G02*
X115400000Y-127250000I0J-75000D01*
G01*
G37*
G04 #@! TD.AperFunction*
G04 #@! TA.AperFunction,SMDPad,CuDef*
G36*
G01*
X114900000Y-127250000D02*
X114900000Y-128575000D01*
G75*
G02*
X114825000Y-128650000I-75000J0D01*
G01*
X114675000Y-128650000D01*
G75*
G02*
X114600000Y-128575000I0J75000D01*
G01*
X114600000Y-127250000D01*
G75*
G02*
X114675000Y-127175000I75000J0D01*
G01*
X114825000Y-127175000D01*
G75*
G02*
X114900000Y-127250000I0J-75000D01*
G01*
G37*
G04 #@! TD.AperFunction*
G04 #@! TA.AperFunction,SMDPad,CuDef*
G36*
G01*
X114400000Y-127250000D02*
X114400000Y-128575000D01*
G75*
G02*
X114325000Y-128650000I-75000J0D01*
G01*
X114175000Y-128650000D01*
G75*
G02*
X114100000Y-128575000I0J75000D01*
G01*
X114100000Y-127250000D01*
G75*
G02*
X114175000Y-127175000I75000J0D01*
G01*
X114325000Y-127175000D01*
G75*
G02*
X114400000Y-127250000I0J-75000D01*
G01*
G37*
G04 #@! TD.AperFunction*
G04 #@! TA.AperFunction,SMDPad,CuDef*
G36*
G01*
X113900000Y-127250000D02*
X113900000Y-128575000D01*
G75*
G02*
X113825000Y-128650000I-75000J0D01*
G01*
X113675000Y-128650000D01*
G75*
G02*
X113600000Y-128575000I0J75000D01*
G01*
X113600000Y-127250000D01*
G75*
G02*
X113675000Y-127175000I75000J0D01*
G01*
X113825000Y-127175000D01*
G75*
G02*
X113900000Y-127250000I0J-75000D01*
G01*
G37*
G04 #@! TD.AperFunction*
G04 #@! TA.AperFunction,SMDPad,CuDef*
G36*
G01*
X113400000Y-127250000D02*
X113400000Y-128575000D01*
G75*
G02*
X113325000Y-128650000I-75000J0D01*
G01*
X113175000Y-128650000D01*
G75*
G02*
X113100000Y-128575000I0J75000D01*
G01*
X113100000Y-127250000D01*
G75*
G02*
X113175000Y-127175000I75000J0D01*
G01*
X113325000Y-127175000D01*
G75*
G02*
X113400000Y-127250000I0J-75000D01*
G01*
G37*
G04 #@! TD.AperFunction*
G04 #@! TA.AperFunction,SMDPad,CuDef*
G36*
G01*
X112900000Y-127250000D02*
X112900000Y-128575000D01*
G75*
G02*
X112825000Y-128650000I-75000J0D01*
G01*
X112675000Y-128650000D01*
G75*
G02*
X112600000Y-128575000I0J75000D01*
G01*
X112600000Y-127250000D01*
G75*
G02*
X112675000Y-127175000I75000J0D01*
G01*
X112825000Y-127175000D01*
G75*
G02*
X112900000Y-127250000I0J-75000D01*
G01*
G37*
G04 #@! TD.AperFunction*
G04 #@! TA.AperFunction,SMDPad,CuDef*
G36*
G01*
X112400000Y-127250000D02*
X112400000Y-128575000D01*
G75*
G02*
X112325000Y-128650000I-75000J0D01*
G01*
X112175000Y-128650000D01*
G75*
G02*
X112100000Y-128575000I0J75000D01*
G01*
X112100000Y-127250000D01*
G75*
G02*
X112175000Y-127175000I75000J0D01*
G01*
X112325000Y-127175000D01*
G75*
G02*
X112400000Y-127250000I0J-75000D01*
G01*
G37*
G04 #@! TD.AperFunction*
G04 #@! TA.AperFunction,SMDPad,CuDef*
G36*
G01*
X111900000Y-127250000D02*
X111900000Y-128575000D01*
G75*
G02*
X111825000Y-128650000I-75000J0D01*
G01*
X111675000Y-128650000D01*
G75*
G02*
X111600000Y-128575000I0J75000D01*
G01*
X111600000Y-127250000D01*
G75*
G02*
X111675000Y-127175000I75000J0D01*
G01*
X111825000Y-127175000D01*
G75*
G02*
X111900000Y-127250000I0J-75000D01*
G01*
G37*
G04 #@! TD.AperFunction*
G04 #@! TA.AperFunction,SMDPad,CuDef*
G36*
G01*
X111400000Y-127250000D02*
X111400000Y-128575000D01*
G75*
G02*
X111325000Y-128650000I-75000J0D01*
G01*
X111175000Y-128650000D01*
G75*
G02*
X111100000Y-128575000I0J75000D01*
G01*
X111100000Y-127250000D01*
G75*
G02*
X111175000Y-127175000I75000J0D01*
G01*
X111325000Y-127175000D01*
G75*
G02*
X111400000Y-127250000I0J-75000D01*
G01*
G37*
G04 #@! TD.AperFunction*
G04 #@! TA.AperFunction,SMDPad,CuDef*
G36*
G01*
X110575000Y-126425000D02*
X110575000Y-126575000D01*
G75*
G02*
X110500000Y-126650000I-75000J0D01*
G01*
X109175000Y-126650000D01*
G75*
G02*
X109100000Y-126575000I0J75000D01*
G01*
X109100000Y-126425000D01*
G75*
G02*
X109175000Y-126350000I75000J0D01*
G01*
X110500000Y-126350000D01*
G75*
G02*
X110575000Y-126425000I0J-75000D01*
G01*
G37*
G04 #@! TD.AperFunction*
G04 #@! TA.AperFunction,SMDPad,CuDef*
G36*
G01*
X110575000Y-125925000D02*
X110575000Y-126075000D01*
G75*
G02*
X110500000Y-126150000I-75000J0D01*
G01*
X109175000Y-126150000D01*
G75*
G02*
X109100000Y-126075000I0J75000D01*
G01*
X109100000Y-125925000D01*
G75*
G02*
X109175000Y-125850000I75000J0D01*
G01*
X110500000Y-125850000D01*
G75*
G02*
X110575000Y-125925000I0J-75000D01*
G01*
G37*
G04 #@! TD.AperFunction*
G04 #@! TA.AperFunction,SMDPad,CuDef*
G36*
G01*
X110575000Y-125425000D02*
X110575000Y-125575000D01*
G75*
G02*
X110500000Y-125650000I-75000J0D01*
G01*
X109175000Y-125650000D01*
G75*
G02*
X109100000Y-125575000I0J75000D01*
G01*
X109100000Y-125425000D01*
G75*
G02*
X109175000Y-125350000I75000J0D01*
G01*
X110500000Y-125350000D01*
G75*
G02*
X110575000Y-125425000I0J-75000D01*
G01*
G37*
G04 #@! TD.AperFunction*
G04 #@! TA.AperFunction,SMDPad,CuDef*
G36*
G01*
X110575000Y-124925000D02*
X110575000Y-125075000D01*
G75*
G02*
X110500000Y-125150000I-75000J0D01*
G01*
X109175000Y-125150000D01*
G75*
G02*
X109100000Y-125075000I0J75000D01*
G01*
X109100000Y-124925000D01*
G75*
G02*
X109175000Y-124850000I75000J0D01*
G01*
X110500000Y-124850000D01*
G75*
G02*
X110575000Y-124925000I0J-75000D01*
G01*
G37*
G04 #@! TD.AperFunction*
G04 #@! TA.AperFunction,SMDPad,CuDef*
G36*
G01*
X110575000Y-124425000D02*
X110575000Y-124575000D01*
G75*
G02*
X110500000Y-124650000I-75000J0D01*
G01*
X109175000Y-124650000D01*
G75*
G02*
X109100000Y-124575000I0J75000D01*
G01*
X109100000Y-124425000D01*
G75*
G02*
X109175000Y-124350000I75000J0D01*
G01*
X110500000Y-124350000D01*
G75*
G02*
X110575000Y-124425000I0J-75000D01*
G01*
G37*
G04 #@! TD.AperFunction*
G04 #@! TA.AperFunction,SMDPad,CuDef*
G36*
G01*
X110575000Y-123925000D02*
X110575000Y-124075000D01*
G75*
G02*
X110500000Y-124150000I-75000J0D01*
G01*
X109175000Y-124150000D01*
G75*
G02*
X109100000Y-124075000I0J75000D01*
G01*
X109100000Y-123925000D01*
G75*
G02*
X109175000Y-123850000I75000J0D01*
G01*
X110500000Y-123850000D01*
G75*
G02*
X110575000Y-123925000I0J-75000D01*
G01*
G37*
G04 #@! TD.AperFunction*
G04 #@! TA.AperFunction,SMDPad,CuDef*
G36*
G01*
X110575000Y-123425000D02*
X110575000Y-123575000D01*
G75*
G02*
X110500000Y-123650000I-75000J0D01*
G01*
X109175000Y-123650000D01*
G75*
G02*
X109100000Y-123575000I0J75000D01*
G01*
X109100000Y-123425000D01*
G75*
G02*
X109175000Y-123350000I75000J0D01*
G01*
X110500000Y-123350000D01*
G75*
G02*
X110575000Y-123425000I0J-75000D01*
G01*
G37*
G04 #@! TD.AperFunction*
G04 #@! TA.AperFunction,SMDPad,CuDef*
G36*
G01*
X110575000Y-122925000D02*
X110575000Y-123075000D01*
G75*
G02*
X110500000Y-123150000I-75000J0D01*
G01*
X109175000Y-123150000D01*
G75*
G02*
X109100000Y-123075000I0J75000D01*
G01*
X109100000Y-122925000D01*
G75*
G02*
X109175000Y-122850000I75000J0D01*
G01*
X110500000Y-122850000D01*
G75*
G02*
X110575000Y-122925000I0J-75000D01*
G01*
G37*
G04 #@! TD.AperFunction*
G04 #@! TA.AperFunction,SMDPad,CuDef*
G36*
G01*
X110575000Y-122425000D02*
X110575000Y-122575000D01*
G75*
G02*
X110500000Y-122650000I-75000J0D01*
G01*
X109175000Y-122650000D01*
G75*
G02*
X109100000Y-122575000I0J75000D01*
G01*
X109100000Y-122425000D01*
G75*
G02*
X109175000Y-122350000I75000J0D01*
G01*
X110500000Y-122350000D01*
G75*
G02*
X110575000Y-122425000I0J-75000D01*
G01*
G37*
G04 #@! TD.AperFunction*
G04 #@! TA.AperFunction,SMDPad,CuDef*
G36*
G01*
X110575000Y-121925000D02*
X110575000Y-122075000D01*
G75*
G02*
X110500000Y-122150000I-75000J0D01*
G01*
X109175000Y-122150000D01*
G75*
G02*
X109100000Y-122075000I0J75000D01*
G01*
X109100000Y-121925000D01*
G75*
G02*
X109175000Y-121850000I75000J0D01*
G01*
X110500000Y-121850000D01*
G75*
G02*
X110575000Y-121925000I0J-75000D01*
G01*
G37*
G04 #@! TD.AperFunction*
G04 #@! TA.AperFunction,SMDPad,CuDef*
G36*
G01*
X110575000Y-121425000D02*
X110575000Y-121575000D01*
G75*
G02*
X110500000Y-121650000I-75000J0D01*
G01*
X109175000Y-121650000D01*
G75*
G02*
X109100000Y-121575000I0J75000D01*
G01*
X109100000Y-121425000D01*
G75*
G02*
X109175000Y-121350000I75000J0D01*
G01*
X110500000Y-121350000D01*
G75*
G02*
X110575000Y-121425000I0J-75000D01*
G01*
G37*
G04 #@! TD.AperFunction*
G04 #@! TA.AperFunction,SMDPad,CuDef*
G36*
G01*
X110575000Y-120925000D02*
X110575000Y-121075000D01*
G75*
G02*
X110500000Y-121150000I-75000J0D01*
G01*
X109175000Y-121150000D01*
G75*
G02*
X109100000Y-121075000I0J75000D01*
G01*
X109100000Y-120925000D01*
G75*
G02*
X109175000Y-120850000I75000J0D01*
G01*
X110500000Y-120850000D01*
G75*
G02*
X110575000Y-120925000I0J-75000D01*
G01*
G37*
G04 #@! TD.AperFunction*
G04 #@! TA.AperFunction,SMDPad,CuDef*
G36*
G01*
X111400000Y-118925000D02*
X111400000Y-120250000D01*
G75*
G02*
X111325000Y-120325000I-75000J0D01*
G01*
X111175000Y-120325000D01*
G75*
G02*
X111100000Y-120250000I0J75000D01*
G01*
X111100000Y-118925000D01*
G75*
G02*
X111175000Y-118850000I75000J0D01*
G01*
X111325000Y-118850000D01*
G75*
G02*
X111400000Y-118925000I0J-75000D01*
G01*
G37*
G04 #@! TD.AperFunction*
G04 #@! TA.AperFunction,SMDPad,CuDef*
G36*
G01*
X111900000Y-118925000D02*
X111900000Y-120250000D01*
G75*
G02*
X111825000Y-120325000I-75000J0D01*
G01*
X111675000Y-120325000D01*
G75*
G02*
X111600000Y-120250000I0J75000D01*
G01*
X111600000Y-118925000D01*
G75*
G02*
X111675000Y-118850000I75000J0D01*
G01*
X111825000Y-118850000D01*
G75*
G02*
X111900000Y-118925000I0J-75000D01*
G01*
G37*
G04 #@! TD.AperFunction*
G04 #@! TA.AperFunction,SMDPad,CuDef*
G36*
G01*
X112400000Y-118925000D02*
X112400000Y-120250000D01*
G75*
G02*
X112325000Y-120325000I-75000J0D01*
G01*
X112175000Y-120325000D01*
G75*
G02*
X112100000Y-120250000I0J75000D01*
G01*
X112100000Y-118925000D01*
G75*
G02*
X112175000Y-118850000I75000J0D01*
G01*
X112325000Y-118850000D01*
G75*
G02*
X112400000Y-118925000I0J-75000D01*
G01*
G37*
G04 #@! TD.AperFunction*
G04 #@! TA.AperFunction,SMDPad,CuDef*
G36*
G01*
X112900000Y-118925000D02*
X112900000Y-120250000D01*
G75*
G02*
X112825000Y-120325000I-75000J0D01*
G01*
X112675000Y-120325000D01*
G75*
G02*
X112600000Y-120250000I0J75000D01*
G01*
X112600000Y-118925000D01*
G75*
G02*
X112675000Y-118850000I75000J0D01*
G01*
X112825000Y-118850000D01*
G75*
G02*
X112900000Y-118925000I0J-75000D01*
G01*
G37*
G04 #@! TD.AperFunction*
G04 #@! TA.AperFunction,SMDPad,CuDef*
G36*
G01*
X113400000Y-118925000D02*
X113400000Y-120250000D01*
G75*
G02*
X113325000Y-120325000I-75000J0D01*
G01*
X113175000Y-120325000D01*
G75*
G02*
X113100000Y-120250000I0J75000D01*
G01*
X113100000Y-118925000D01*
G75*
G02*
X113175000Y-118850000I75000J0D01*
G01*
X113325000Y-118850000D01*
G75*
G02*
X113400000Y-118925000I0J-75000D01*
G01*
G37*
G04 #@! TD.AperFunction*
G04 #@! TA.AperFunction,SMDPad,CuDef*
G36*
G01*
X113900000Y-118925000D02*
X113900000Y-120250000D01*
G75*
G02*
X113825000Y-120325000I-75000J0D01*
G01*
X113675000Y-120325000D01*
G75*
G02*
X113600000Y-120250000I0J75000D01*
G01*
X113600000Y-118925000D01*
G75*
G02*
X113675000Y-118850000I75000J0D01*
G01*
X113825000Y-118850000D01*
G75*
G02*
X113900000Y-118925000I0J-75000D01*
G01*
G37*
G04 #@! TD.AperFunction*
G04 #@! TA.AperFunction,SMDPad,CuDef*
G36*
G01*
X114400000Y-118925000D02*
X114400000Y-120250000D01*
G75*
G02*
X114325000Y-120325000I-75000J0D01*
G01*
X114175000Y-120325000D01*
G75*
G02*
X114100000Y-120250000I0J75000D01*
G01*
X114100000Y-118925000D01*
G75*
G02*
X114175000Y-118850000I75000J0D01*
G01*
X114325000Y-118850000D01*
G75*
G02*
X114400000Y-118925000I0J-75000D01*
G01*
G37*
G04 #@! TD.AperFunction*
G04 #@! TA.AperFunction,SMDPad,CuDef*
G36*
G01*
X114900000Y-118925000D02*
X114900000Y-120250000D01*
G75*
G02*
X114825000Y-120325000I-75000J0D01*
G01*
X114675000Y-120325000D01*
G75*
G02*
X114600000Y-120250000I0J75000D01*
G01*
X114600000Y-118925000D01*
G75*
G02*
X114675000Y-118850000I75000J0D01*
G01*
X114825000Y-118850000D01*
G75*
G02*
X114900000Y-118925000I0J-75000D01*
G01*
G37*
G04 #@! TD.AperFunction*
G04 #@! TA.AperFunction,SMDPad,CuDef*
G36*
G01*
X115400000Y-118925000D02*
X115400000Y-120250000D01*
G75*
G02*
X115325000Y-120325000I-75000J0D01*
G01*
X115175000Y-120325000D01*
G75*
G02*
X115100000Y-120250000I0J75000D01*
G01*
X115100000Y-118925000D01*
G75*
G02*
X115175000Y-118850000I75000J0D01*
G01*
X115325000Y-118850000D01*
G75*
G02*
X115400000Y-118925000I0J-75000D01*
G01*
G37*
G04 #@! TD.AperFunction*
G04 #@! TA.AperFunction,SMDPad,CuDef*
G36*
G01*
X115900000Y-118925000D02*
X115900000Y-120250000D01*
G75*
G02*
X115825000Y-120325000I-75000J0D01*
G01*
X115675000Y-120325000D01*
G75*
G02*
X115600000Y-120250000I0J75000D01*
G01*
X115600000Y-118925000D01*
G75*
G02*
X115675000Y-118850000I75000J0D01*
G01*
X115825000Y-118850000D01*
G75*
G02*
X115900000Y-118925000I0J-75000D01*
G01*
G37*
G04 #@! TD.AperFunction*
G04 #@! TA.AperFunction,SMDPad,CuDef*
G36*
G01*
X116400000Y-118925000D02*
X116400000Y-120250000D01*
G75*
G02*
X116325000Y-120325000I-75000J0D01*
G01*
X116175000Y-120325000D01*
G75*
G02*
X116100000Y-120250000I0J75000D01*
G01*
X116100000Y-118925000D01*
G75*
G02*
X116175000Y-118850000I75000J0D01*
G01*
X116325000Y-118850000D01*
G75*
G02*
X116400000Y-118925000I0J-75000D01*
G01*
G37*
G04 #@! TD.AperFunction*
G04 #@! TA.AperFunction,SMDPad,CuDef*
G36*
G01*
X116900000Y-118925000D02*
X116900000Y-120250000D01*
G75*
G02*
X116825000Y-120325000I-75000J0D01*
G01*
X116675000Y-120325000D01*
G75*
G02*
X116600000Y-120250000I0J75000D01*
G01*
X116600000Y-118925000D01*
G75*
G02*
X116675000Y-118850000I75000J0D01*
G01*
X116825000Y-118850000D01*
G75*
G02*
X116900000Y-118925000I0J-75000D01*
G01*
G37*
G04 #@! TD.AperFunction*
G04 #@! TA.AperFunction,SMDPad,CuDef*
G36*
G01*
X118900000Y-120925000D02*
X118900000Y-121075000D01*
G75*
G02*
X118825000Y-121150000I-75000J0D01*
G01*
X117500000Y-121150000D01*
G75*
G02*
X117425000Y-121075000I0J75000D01*
G01*
X117425000Y-120925000D01*
G75*
G02*
X117500000Y-120850000I75000J0D01*
G01*
X118825000Y-120850000D01*
G75*
G02*
X118900000Y-120925000I0J-75000D01*
G01*
G37*
G04 #@! TD.AperFunction*
G04 #@! TA.AperFunction,SMDPad,CuDef*
G36*
G01*
X118900000Y-121425000D02*
X118900000Y-121575000D01*
G75*
G02*
X118825000Y-121650000I-75000J0D01*
G01*
X117500000Y-121650000D01*
G75*
G02*
X117425000Y-121575000I0J75000D01*
G01*
X117425000Y-121425000D01*
G75*
G02*
X117500000Y-121350000I75000J0D01*
G01*
X118825000Y-121350000D01*
G75*
G02*
X118900000Y-121425000I0J-75000D01*
G01*
G37*
G04 #@! TD.AperFunction*
G04 #@! TA.AperFunction,SMDPad,CuDef*
G36*
G01*
X118900000Y-121925000D02*
X118900000Y-122075000D01*
G75*
G02*
X118825000Y-122150000I-75000J0D01*
G01*
X117500000Y-122150000D01*
G75*
G02*
X117425000Y-122075000I0J75000D01*
G01*
X117425000Y-121925000D01*
G75*
G02*
X117500000Y-121850000I75000J0D01*
G01*
X118825000Y-121850000D01*
G75*
G02*
X118900000Y-121925000I0J-75000D01*
G01*
G37*
G04 #@! TD.AperFunction*
G04 #@! TA.AperFunction,SMDPad,CuDef*
G36*
G01*
X118900000Y-122425000D02*
X118900000Y-122575000D01*
G75*
G02*
X118825000Y-122650000I-75000J0D01*
G01*
X117500000Y-122650000D01*
G75*
G02*
X117425000Y-122575000I0J75000D01*
G01*
X117425000Y-122425000D01*
G75*
G02*
X117500000Y-122350000I75000J0D01*
G01*
X118825000Y-122350000D01*
G75*
G02*
X118900000Y-122425000I0J-75000D01*
G01*
G37*
G04 #@! TD.AperFunction*
G04 #@! TA.AperFunction,SMDPad,CuDef*
G36*
G01*
X118900000Y-122925000D02*
X118900000Y-123075000D01*
G75*
G02*
X118825000Y-123150000I-75000J0D01*
G01*
X117500000Y-123150000D01*
G75*
G02*
X117425000Y-123075000I0J75000D01*
G01*
X117425000Y-122925000D01*
G75*
G02*
X117500000Y-122850000I75000J0D01*
G01*
X118825000Y-122850000D01*
G75*
G02*
X118900000Y-122925000I0J-75000D01*
G01*
G37*
G04 #@! TD.AperFunction*
G04 #@! TA.AperFunction,SMDPad,CuDef*
G36*
G01*
X118900000Y-123425000D02*
X118900000Y-123575000D01*
G75*
G02*
X118825000Y-123650000I-75000J0D01*
G01*
X117500000Y-123650000D01*
G75*
G02*
X117425000Y-123575000I0J75000D01*
G01*
X117425000Y-123425000D01*
G75*
G02*
X117500000Y-123350000I75000J0D01*
G01*
X118825000Y-123350000D01*
G75*
G02*
X118900000Y-123425000I0J-75000D01*
G01*
G37*
G04 #@! TD.AperFunction*
G04 #@! TA.AperFunction,SMDPad,CuDef*
G36*
G01*
X118900000Y-123925000D02*
X118900000Y-124075000D01*
G75*
G02*
X118825000Y-124150000I-75000J0D01*
G01*
X117500000Y-124150000D01*
G75*
G02*
X117425000Y-124075000I0J75000D01*
G01*
X117425000Y-123925000D01*
G75*
G02*
X117500000Y-123850000I75000J0D01*
G01*
X118825000Y-123850000D01*
G75*
G02*
X118900000Y-123925000I0J-75000D01*
G01*
G37*
G04 #@! TD.AperFunction*
G04 #@! TA.AperFunction,SMDPad,CuDef*
G36*
G01*
X118900000Y-124425000D02*
X118900000Y-124575000D01*
G75*
G02*
X118825000Y-124650000I-75000J0D01*
G01*
X117500000Y-124650000D01*
G75*
G02*
X117425000Y-124575000I0J75000D01*
G01*
X117425000Y-124425000D01*
G75*
G02*
X117500000Y-124350000I75000J0D01*
G01*
X118825000Y-124350000D01*
G75*
G02*
X118900000Y-124425000I0J-75000D01*
G01*
G37*
G04 #@! TD.AperFunction*
G04 #@! TA.AperFunction,SMDPad,CuDef*
G36*
G01*
X118900000Y-124925000D02*
X118900000Y-125075000D01*
G75*
G02*
X118825000Y-125150000I-75000J0D01*
G01*
X117500000Y-125150000D01*
G75*
G02*
X117425000Y-125075000I0J75000D01*
G01*
X117425000Y-124925000D01*
G75*
G02*
X117500000Y-124850000I75000J0D01*
G01*
X118825000Y-124850000D01*
G75*
G02*
X118900000Y-124925000I0J-75000D01*
G01*
G37*
G04 #@! TD.AperFunction*
G04 #@! TA.AperFunction,SMDPad,CuDef*
G36*
G01*
X118900000Y-125425000D02*
X118900000Y-125575000D01*
G75*
G02*
X118825000Y-125650000I-75000J0D01*
G01*
X117500000Y-125650000D01*
G75*
G02*
X117425000Y-125575000I0J75000D01*
G01*
X117425000Y-125425000D01*
G75*
G02*
X117500000Y-125350000I75000J0D01*
G01*
X118825000Y-125350000D01*
G75*
G02*
X118900000Y-125425000I0J-75000D01*
G01*
G37*
G04 #@! TD.AperFunction*
G04 #@! TA.AperFunction,SMDPad,CuDef*
G36*
G01*
X118900000Y-125925000D02*
X118900000Y-126075000D01*
G75*
G02*
X118825000Y-126150000I-75000J0D01*
G01*
X117500000Y-126150000D01*
G75*
G02*
X117425000Y-126075000I0J75000D01*
G01*
X117425000Y-125925000D01*
G75*
G02*
X117500000Y-125850000I75000J0D01*
G01*
X118825000Y-125850000D01*
G75*
G02*
X118900000Y-125925000I0J-75000D01*
G01*
G37*
G04 #@! TD.AperFunction*
G04 #@! TA.AperFunction,SMDPad,CuDef*
G36*
G01*
X118900000Y-126425000D02*
X118900000Y-126575000D01*
G75*
G02*
X118825000Y-126650000I-75000J0D01*
G01*
X117500000Y-126650000D01*
G75*
G02*
X117425000Y-126575000I0J75000D01*
G01*
X117425000Y-126425000D01*
G75*
G02*
X117500000Y-126350000I75000J0D01*
G01*
X118825000Y-126350000D01*
G75*
G02*
X118900000Y-126425000I0J-75000D01*
G01*
G37*
G04 #@! TD.AperFunction*
D14*
X141000000Y-133825000D03*
X141000000Y-126175000D03*
X137000000Y-133825000D03*
X137000000Y-126175000D03*
X129000000Y-126175000D03*
X129000000Y-133825000D03*
X133000000Y-133825000D03*
X133000000Y-126175000D03*
G04 #@! TA.AperFunction,SMDPad,CuDef*
G36*
G01*
X138799999Y-118650000D02*
X139700001Y-118650000D01*
G75*
G02*
X139950000Y-118899999I0J-249999D01*
G01*
X139950000Y-119600001D01*
G75*
G02*
X139700001Y-119850000I-249999J0D01*
G01*
X138799999Y-119850000D01*
G75*
G02*
X138550000Y-119600001I0J249999D01*
G01*
X138550000Y-118899999D01*
G75*
G02*
X138799999Y-118650000I249999J0D01*
G01*
G37*
G04 #@! TD.AperFunction*
G04 #@! TA.AperFunction,SMDPad,CuDef*
G36*
G01*
X138799999Y-116650000D02*
X139700001Y-116650000D01*
G75*
G02*
X139950000Y-116899999I0J-249999D01*
G01*
X139950000Y-117600001D01*
G75*
G02*
X139700001Y-117850000I-249999J0D01*
G01*
X138799999Y-117850000D01*
G75*
G02*
X138550000Y-117600001I0J249999D01*
G01*
X138550000Y-116899999D01*
G75*
G02*
X138799999Y-116650000I249999J0D01*
G01*
G37*
G04 #@! TD.AperFunction*
G04 #@! TA.AperFunction,SMDPad,CuDef*
G36*
G01*
X134299999Y-118650000D02*
X135200001Y-118650000D01*
G75*
G02*
X135450000Y-118899999I0J-249999D01*
G01*
X135450000Y-119600001D01*
G75*
G02*
X135200001Y-119850000I-249999J0D01*
G01*
X134299999Y-119850000D01*
G75*
G02*
X134050000Y-119600001I0J249999D01*
G01*
X134050000Y-118899999D01*
G75*
G02*
X134299999Y-118650000I249999J0D01*
G01*
G37*
G04 #@! TD.AperFunction*
G04 #@! TA.AperFunction,SMDPad,CuDef*
G36*
G01*
X134299999Y-116650000D02*
X135200001Y-116650000D01*
G75*
G02*
X135450000Y-116899999I0J-249999D01*
G01*
X135450000Y-117600001D01*
G75*
G02*
X135200001Y-117850000I-249999J0D01*
G01*
X134299999Y-117850000D01*
G75*
G02*
X134050000Y-117600001I0J249999D01*
G01*
X134050000Y-116899999D01*
G75*
G02*
X134299999Y-116650000I249999J0D01*
G01*
G37*
G04 #@! TD.AperFunction*
G04 #@! TA.AperFunction,SMDPad,CuDef*
G36*
G01*
X127549999Y-118650000D02*
X128450001Y-118650000D01*
G75*
G02*
X128700000Y-118899999I0J-249999D01*
G01*
X128700000Y-119600001D01*
G75*
G02*
X128450001Y-119850000I-249999J0D01*
G01*
X127549999Y-119850000D01*
G75*
G02*
X127300000Y-119600001I0J249999D01*
G01*
X127300000Y-118899999D01*
G75*
G02*
X127549999Y-118650000I249999J0D01*
G01*
G37*
G04 #@! TD.AperFunction*
G04 #@! TA.AperFunction,SMDPad,CuDef*
G36*
G01*
X127549999Y-116650000D02*
X128450001Y-116650000D01*
G75*
G02*
X128700000Y-116899999I0J-249999D01*
G01*
X128700000Y-117600001D01*
G75*
G02*
X128450001Y-117850000I-249999J0D01*
G01*
X127549999Y-117850000D01*
G75*
G02*
X127300000Y-117600001I0J249999D01*
G01*
X127300000Y-116899999D01*
G75*
G02*
X127549999Y-116650000I249999J0D01*
G01*
G37*
G04 #@! TD.AperFunction*
D15*
X118620000Y-133000000D03*
X116080000Y-133000000D03*
X113540000Y-133000000D03*
D16*
X111000000Y-133000000D03*
G04 #@! TA.AperFunction,SMDPad,CuDef*
G36*
G01*
X120487500Y-122037501D02*
X120012500Y-122037501D01*
G75*
G02*
X119775000Y-121800001I0J237500D01*
G01*
X119775000Y-121200001D01*
G75*
G02*
X120012500Y-120962501I237500J0D01*
G01*
X120487500Y-120962501D01*
G75*
G02*
X120725000Y-121200001I0J-237500D01*
G01*
X120725000Y-121800001D01*
G75*
G02*
X120487500Y-122037501I-237500J0D01*
G01*
G37*
G04 #@! TD.AperFunction*
G04 #@! TA.AperFunction,SMDPad,CuDef*
G36*
G01*
X120487500Y-123762501D02*
X120012500Y-123762501D01*
G75*
G02*
X119775000Y-123525001I0J237500D01*
G01*
X119775000Y-122925001D01*
G75*
G02*
X120012500Y-122687501I237500J0D01*
G01*
X120487500Y-122687501D01*
G75*
G02*
X120725000Y-122925001I0J-237500D01*
G01*
X120725000Y-123525001D01*
G75*
G02*
X120487500Y-123762501I-237500J0D01*
G01*
G37*
G04 #@! TD.AperFunction*
G04 #@! TA.AperFunction,SMDPad,CuDef*
G36*
G01*
X120012500Y-126437500D02*
X120487500Y-126437500D01*
G75*
G02*
X120725000Y-126675000I0J-237500D01*
G01*
X120725000Y-127275000D01*
G75*
G02*
X120487500Y-127512500I-237500J0D01*
G01*
X120012500Y-127512500D01*
G75*
G02*
X119775000Y-127275000I0J237500D01*
G01*
X119775000Y-126675000D01*
G75*
G02*
X120012500Y-126437500I237500J0D01*
G01*
G37*
G04 #@! TD.AperFunction*
G04 #@! TA.AperFunction,SMDPad,CuDef*
G36*
G01*
X120012500Y-124712500D02*
X120487500Y-124712500D01*
G75*
G02*
X120725000Y-124950000I0J-237500D01*
G01*
X120725000Y-125550000D01*
G75*
G02*
X120487500Y-125787500I-237500J0D01*
G01*
X120012500Y-125787500D01*
G75*
G02*
X119775000Y-125550000I0J237500D01*
G01*
X119775000Y-124950000D01*
G75*
G02*
X120012500Y-124712500I237500J0D01*
G01*
G37*
G04 #@! TD.AperFunction*
D17*
X113750000Y-126000000D03*
X140500000Y-115750000D03*
X120750000Y-119500000D03*
X113750000Y-123750000D03*
X105000000Y-127000000D03*
X120750000Y-116250000D03*
X116750000Y-117000000D03*
X121750000Y-122250000D03*
X102750000Y-123000000D03*
X107250000Y-133750000D03*
X121500000Y-132250000D03*
X121250000Y-128500000D03*
X140500000Y-121500000D03*
X138750000Y-125750000D03*
X116000000Y-126250000D03*
X108250000Y-126250000D03*
X138000000Y-121000000D03*
X134000000Y-121000000D03*
X110750000Y-118250000D03*
X111500000Y-125750000D03*
X125500000Y-133750000D03*
X110750000Y-131000000D03*
X116500000Y-121750000D03*
X107718413Y-120968413D03*
X108000000Y-123000000D03*
X114750000Y-129750000D03*
X129000000Y-127500000D03*
X116750000Y-123500000D03*
X133000000Y-124750000D03*
X127250000Y-116000000D03*
X129750000Y-115675000D03*
X125750000Y-120750000D03*
X127000000Y-129750000D03*
X114750000Y-131750000D03*
X113250000Y-131000000D03*
X132500000Y-120750000D03*
D18*
X114650001Y-122849999D02*
X113750000Y-123750000D01*
X117062001Y-122849999D02*
X114650001Y-122849999D01*
X117212002Y-123000000D02*
X117062001Y-122849999D01*
X118162500Y-123000000D02*
X117212002Y-123000000D01*
X116250000Y-126500000D02*
X116000000Y-126250000D01*
X116250000Y-127912500D02*
X116250000Y-126500000D01*
X108500000Y-126000000D02*
X108250000Y-126250000D01*
X109837500Y-126000000D02*
X108500000Y-126000000D01*
X111750000Y-119587500D02*
X111750000Y-120500000D01*
X113750000Y-122500000D02*
X113750000Y-123750000D01*
X111750000Y-120500000D02*
X113750000Y-122500000D01*
X138050010Y-120949990D02*
X138000000Y-121000000D01*
X138050010Y-118300010D02*
X138050010Y-120949990D01*
X137000000Y-117250000D02*
X138050010Y-118300010D01*
X133550010Y-120550010D02*
X134000000Y-121000000D01*
X133550010Y-118250010D02*
X133550010Y-120550010D01*
X132500000Y-117200000D02*
X133550010Y-118250010D01*
X140924264Y-121500000D02*
X140500000Y-121500000D01*
X142550010Y-119874254D02*
X140924264Y-121500000D01*
X142550010Y-117600010D02*
X142550010Y-119874254D01*
X142200000Y-117250000D02*
X142550010Y-117600010D01*
X141500000Y-117250000D02*
X142200000Y-117250000D01*
X110250001Y-118749999D02*
X110750000Y-118250000D01*
X109250000Y-118749999D02*
X110250001Y-118749999D01*
X111087502Y-119587500D02*
X110250001Y-118749999D01*
X111250000Y-119587500D02*
X111087502Y-119587500D01*
X110750000Y-126500000D02*
X111500000Y-125750000D01*
X109837500Y-126500000D02*
X110750000Y-126500000D01*
X109250000Y-128024999D02*
X109725001Y-128024999D01*
X110750000Y-127000000D02*
X110750000Y-126500000D01*
X116750000Y-127912500D02*
X117587500Y-127912500D01*
X118162500Y-127337500D02*
X118162500Y-126500000D01*
X117587500Y-127912500D02*
X118162500Y-127337500D01*
X117662499Y-127912500D02*
X118250000Y-128500001D01*
X117587500Y-127912500D02*
X117662499Y-127912500D01*
X117424990Y-131804990D02*
X118620000Y-133000000D01*
X117424990Y-129325011D02*
X117424990Y-131804990D01*
X118250000Y-128500001D02*
X117424990Y-129325011D01*
X128925000Y-133750000D02*
X129000000Y-133825000D01*
X125500000Y-133750000D02*
X128925000Y-133750000D01*
X119370000Y-133750000D02*
X118620000Y-133000000D01*
X125500000Y-133750000D02*
X119370000Y-133750000D01*
X111249990Y-125499990D02*
X111249990Y-119587500D01*
X111500000Y-125750000D02*
X111249990Y-125499990D01*
X120475001Y-117250000D02*
X118750000Y-118975001D01*
X128000000Y-117250000D02*
X120475001Y-117250000D01*
X118162500Y-122500000D02*
X119250000Y-122500000D01*
X119250000Y-119475001D02*
X118750000Y-118975001D01*
X119250000Y-122500000D02*
X119250000Y-119475001D01*
X118024999Y-118250000D02*
X118750000Y-118975001D01*
X110750000Y-118250000D02*
X118024999Y-118250000D01*
X109250000Y-128024999D02*
X109774999Y-128024999D01*
X110750000Y-128500000D02*
X110000000Y-127750000D01*
X110750000Y-131000000D02*
X110750000Y-128500000D01*
X110000000Y-127750000D02*
X110750000Y-127000000D01*
X109725001Y-128024999D02*
X110000000Y-127750000D01*
D19*
X119500000Y-124500000D02*
X120250000Y-125250000D01*
X118162500Y-124500000D02*
X119500000Y-124500000D01*
X120250000Y-125250000D02*
X123250000Y-125250000D01*
X124000000Y-126000000D02*
X124000000Y-128750000D01*
X123250000Y-125250000D02*
X124000000Y-126000000D01*
X119475001Y-124000000D02*
X118162500Y-124000000D01*
X120250000Y-123225001D02*
X119475001Y-124000000D01*
X120250000Y-123225001D02*
X120250000Y-123000000D01*
X120250000Y-123225001D02*
X123524999Y-123225001D01*
X124000000Y-122750000D02*
X124000000Y-120250000D01*
X123524999Y-123225001D02*
X124000000Y-122750000D01*
X116750000Y-122000000D02*
X118162500Y-122000000D01*
X116500000Y-121750000D02*
X116750000Y-122000000D01*
X108505012Y-125000000D02*
X109837500Y-125000000D01*
X107649990Y-124144978D02*
X108505012Y-125000000D01*
X107649990Y-123649990D02*
X107649990Y-124144978D01*
X107250000Y-123250000D02*
X107649990Y-123649990D01*
X107250000Y-122898998D02*
X107250000Y-123250000D01*
X107718413Y-122430585D02*
X107250000Y-122898998D01*
X107718413Y-120968413D02*
X107718413Y-122430585D01*
X108000000Y-124000000D02*
X108000000Y-123000000D01*
X108500000Y-124500000D02*
X108000000Y-124000000D01*
X109837500Y-124500000D02*
X108500000Y-124500000D01*
X114750000Y-127912500D02*
X114750000Y-129750000D01*
X129000000Y-127500000D02*
X129000000Y-126175000D01*
X116750000Y-123500000D02*
X118162500Y-123500000D01*
X133000000Y-124750000D02*
X133000000Y-126175000D01*
X114954999Y-134125001D02*
X116080000Y-133000000D01*
X108949003Y-134125001D02*
X114954999Y-134125001D01*
X107537001Y-132712999D02*
X108949003Y-134125001D01*
X107537001Y-125962999D02*
X107537001Y-132712999D01*
X108000000Y-125500000D02*
X107537001Y-125962999D01*
X109837500Y-125500000D02*
X108000000Y-125500000D01*
X111250000Y-130710000D02*
X113540000Y-133000000D01*
X111250000Y-127912500D02*
X111250000Y-130710000D01*
X134800000Y-119300000D02*
X134750000Y-119250000D01*
X137000000Y-119300000D02*
X134800000Y-119300000D01*
X139300000Y-119300000D02*
X139250000Y-119250000D01*
X141500000Y-119300000D02*
X139300000Y-119300000D01*
X134750000Y-117250000D02*
X133750000Y-116250000D01*
X133750000Y-116250000D02*
X129000000Y-116250000D01*
X127500000Y-116250000D02*
X127250000Y-116000000D01*
X129000000Y-116250000D02*
X127500000Y-116250000D01*
X137675000Y-115675000D02*
X129750000Y-115675000D01*
X139250000Y-117250000D02*
X137675000Y-115675000D01*
X131575000Y-120750000D02*
X125750000Y-120750000D01*
X137000000Y-126175000D02*
X131575000Y-120750000D01*
X127000000Y-129750000D02*
X139000000Y-129750000D01*
X141000000Y-127750000D02*
X141000000Y-126175000D01*
X139000000Y-129750000D02*
X141000000Y-127750000D01*
X114250000Y-128650000D02*
X114250000Y-127912500D01*
X114174999Y-128725001D02*
X114250000Y-128650000D01*
X114174999Y-131174999D02*
X114174999Y-128725001D01*
X114750000Y-131750000D02*
X114174999Y-131174999D01*
X113750000Y-127912500D02*
X113750000Y-129000000D01*
X113250000Y-129500000D02*
X113250000Y-131000000D01*
X113750000Y-129000000D02*
X113250000Y-129500000D01*
X132500000Y-120750000D02*
X132500000Y-119250000D01*
X130250000Y-119250000D02*
X128000000Y-119250000D01*
D20*
X133672038Y-120227962D02*
X133806613Y-120338405D01*
X133960149Y-120420472D01*
X134126745Y-120471008D01*
X134299999Y-120488072D01*
X135200001Y-120488072D01*
X135373255Y-120471008D01*
X135539851Y-120420472D01*
X135693387Y-120338405D01*
X135827962Y-120227962D01*
X135864742Y-120183146D01*
X135922038Y-120252962D01*
X136056613Y-120363405D01*
X136210149Y-120445472D01*
X136376745Y-120496008D01*
X136549999Y-120513072D01*
X137450001Y-120513072D01*
X137623255Y-120496008D01*
X137789851Y-120445472D01*
X137943387Y-120363405D01*
X138077962Y-120252962D01*
X138135258Y-120183146D01*
X138172038Y-120227962D01*
X138306613Y-120338405D01*
X138460149Y-120420472D01*
X138626745Y-120471008D01*
X138799999Y-120488072D01*
X139700001Y-120488072D01*
X139873255Y-120471008D01*
X140039851Y-120420472D01*
X140193387Y-120338405D01*
X140327962Y-120227962D01*
X140364742Y-120183146D01*
X140422038Y-120252962D01*
X140556613Y-120363405D01*
X140710149Y-120445472D01*
X140876745Y-120496008D01*
X141049999Y-120513072D01*
X141950001Y-120513072D01*
X142123255Y-120496008D01*
X142289851Y-120445472D01*
X142345951Y-120415486D01*
X142345950Y-134345950D01*
X141936556Y-134345950D01*
X141935000Y-134110750D01*
X141776250Y-133952000D01*
X141127000Y-133952000D01*
X141127000Y-133972000D01*
X140873000Y-133972000D01*
X140873000Y-133952000D01*
X140223750Y-133952000D01*
X140065000Y-134110750D01*
X140063444Y-134345950D01*
X137936556Y-134345950D01*
X137935000Y-134110750D01*
X137776250Y-133952000D01*
X137127000Y-133952000D01*
X137127000Y-133972000D01*
X136873000Y-133972000D01*
X136873000Y-133952000D01*
X136223750Y-133952000D01*
X136065000Y-134110750D01*
X136063444Y-134345950D01*
X133936556Y-134345950D01*
X133935000Y-134110750D01*
X133776250Y-133952000D01*
X133127000Y-133952000D01*
X133127000Y-133972000D01*
X132873000Y-133972000D01*
X132873000Y-133952000D01*
X132223750Y-133952000D01*
X132065000Y-134110750D01*
X132063444Y-134345950D01*
X129938072Y-134345950D01*
X129938072Y-133075000D01*
X132061928Y-133075000D01*
X132065000Y-133539250D01*
X132223750Y-133698000D01*
X132873000Y-133698000D01*
X132873000Y-132598750D01*
X133127000Y-132598750D01*
X133127000Y-133698000D01*
X133776250Y-133698000D01*
X133935000Y-133539250D01*
X133938072Y-133075000D01*
X136061928Y-133075000D01*
X136065000Y-133539250D01*
X136223750Y-133698000D01*
X136873000Y-133698000D01*
X136873000Y-132598750D01*
X137127000Y-132598750D01*
X137127000Y-133698000D01*
X137776250Y-133698000D01*
X137935000Y-133539250D01*
X137938072Y-133075000D01*
X140061928Y-133075000D01*
X140065000Y-133539250D01*
X140223750Y-133698000D01*
X140873000Y-133698000D01*
X140873000Y-132598750D01*
X141127000Y-132598750D01*
X141127000Y-133698000D01*
X141776250Y-133698000D01*
X141935000Y-133539250D01*
X141938072Y-133075000D01*
X141925812Y-132950518D01*
X141889502Y-132830820D01*
X141830537Y-132720506D01*
X141751185Y-132623815D01*
X141654494Y-132544463D01*
X141544180Y-132485498D01*
X141424482Y-132449188D01*
X141300000Y-132436928D01*
X141285750Y-132440000D01*
X141127000Y-132598750D01*
X140873000Y-132598750D01*
X140714250Y-132440000D01*
X140700000Y-132436928D01*
X140575518Y-132449188D01*
X140455820Y-132485498D01*
X140345506Y-132544463D01*
X140248815Y-132623815D01*
X140169463Y-132720506D01*
X140110498Y-132830820D01*
X140074188Y-132950518D01*
X140061928Y-133075000D01*
X137938072Y-133075000D01*
X137925812Y-132950518D01*
X137889502Y-132830820D01*
X137830537Y-132720506D01*
X137751185Y-132623815D01*
X137654494Y-132544463D01*
X137544180Y-132485498D01*
X137424482Y-132449188D01*
X137300000Y-132436928D01*
X137285750Y-132440000D01*
X137127000Y-132598750D01*
X136873000Y-132598750D01*
X136714250Y-132440000D01*
X136700000Y-132436928D01*
X136575518Y-132449188D01*
X136455820Y-132485498D01*
X136345506Y-132544463D01*
X136248815Y-132623815D01*
X136169463Y-132720506D01*
X136110498Y-132830820D01*
X136074188Y-132950518D01*
X136061928Y-133075000D01*
X133938072Y-133075000D01*
X133925812Y-132950518D01*
X133889502Y-132830820D01*
X133830537Y-132720506D01*
X133751185Y-132623815D01*
X133654494Y-132544463D01*
X133544180Y-132485498D01*
X133424482Y-132449188D01*
X133300000Y-132436928D01*
X133285750Y-132440000D01*
X133127000Y-132598750D01*
X132873000Y-132598750D01*
X132714250Y-132440000D01*
X132700000Y-132436928D01*
X132575518Y-132449188D01*
X132455820Y-132485498D01*
X132345506Y-132544463D01*
X132248815Y-132623815D01*
X132169463Y-132720506D01*
X132110498Y-132830820D01*
X132074188Y-132950518D01*
X132061928Y-133075000D01*
X129938072Y-133075000D01*
X129925812Y-132950518D01*
X129889502Y-132830820D01*
X129830537Y-132720506D01*
X129751185Y-132623815D01*
X129654494Y-132544463D01*
X129544180Y-132485498D01*
X129424482Y-132449188D01*
X129300000Y-132436928D01*
X128700000Y-132436928D01*
X128575518Y-132449188D01*
X128455820Y-132485498D01*
X128345506Y-132544463D01*
X128248815Y-132623815D01*
X128169463Y-132720506D01*
X128110498Y-132830820D01*
X128074188Y-132950518D01*
X128072762Y-132965000D01*
X126008120Y-132965000D01*
X125942889Y-132921414D01*
X125772729Y-132850932D01*
X125592089Y-132815000D01*
X125407911Y-132815000D01*
X125227271Y-132850932D01*
X125057111Y-132921414D01*
X124991880Y-132965000D01*
X120105000Y-132965000D01*
X120105000Y-132853740D01*
X120047932Y-132566842D01*
X119935990Y-132296589D01*
X119773475Y-132053368D01*
X119566632Y-131846525D01*
X119323411Y-131684010D01*
X119053158Y-131572068D01*
X118766260Y-131515000D01*
X118473740Y-131515000D01*
X118283082Y-131552925D01*
X118209990Y-131479833D01*
X118209990Y-130352001D01*
X118377000Y-130352001D01*
X118377000Y-131238751D01*
X118535750Y-131397501D01*
X118725000Y-131400573D01*
X118849482Y-131388313D01*
X118969180Y-131352003D01*
X119079494Y-131293038D01*
X119176185Y-131213686D01*
X119255537Y-131116995D01*
X119314502Y-131006681D01*
X119350812Y-130886983D01*
X119363072Y-130762501D01*
X119360000Y-130510751D01*
X119201250Y-130352001D01*
X118377000Y-130352001D01*
X118209990Y-130352001D01*
X118209990Y-130078001D01*
X118377000Y-130078001D01*
X118377000Y-130098001D01*
X119201250Y-130098001D01*
X119360000Y-129939251D01*
X119363072Y-129687501D01*
X119350812Y-129563019D01*
X119314502Y-129443321D01*
X119255537Y-129333007D01*
X119216226Y-129285107D01*
X119296423Y-129135068D01*
X119346248Y-128970817D01*
X119363072Y-128800001D01*
X119363072Y-128200001D01*
X119346248Y-128029185D01*
X119327229Y-127966486D01*
X119420506Y-128043037D01*
X119530820Y-128102002D01*
X119650518Y-128138312D01*
X119775000Y-128150572D01*
X119964250Y-128147500D01*
X120123000Y-127988750D01*
X120123000Y-127102000D01*
X120377000Y-127102000D01*
X120377000Y-127988750D01*
X120535750Y-128147500D01*
X120725000Y-128150572D01*
X120849482Y-128138312D01*
X120969180Y-128102002D01*
X121079494Y-128043037D01*
X121176185Y-127963685D01*
X121255537Y-127866994D01*
X121314502Y-127756680D01*
X121350812Y-127636982D01*
X121363072Y-127512500D01*
X121360000Y-127260750D01*
X121201250Y-127102000D01*
X120377000Y-127102000D01*
X120123000Y-127102000D01*
X120103000Y-127102000D01*
X120103000Y-126848000D01*
X120123000Y-126848000D01*
X120123000Y-126828000D01*
X120377000Y-126828000D01*
X120377000Y-126848000D01*
X121201250Y-126848000D01*
X121360000Y-126689250D01*
X121363072Y-126437500D01*
X121350812Y-126313018D01*
X121314502Y-126193320D01*
X121255537Y-126083006D01*
X121216226Y-126035106D01*
X121256371Y-125960000D01*
X122663210Y-125960000D01*
X122645506Y-125969463D01*
X122548815Y-126048815D01*
X122469463Y-126145506D01*
X122410498Y-126255820D01*
X122374188Y-126375518D01*
X122361928Y-126500000D01*
X122361928Y-131000000D01*
X122374188Y-131124482D01*
X122410498Y-131244180D01*
X122469463Y-131354494D01*
X122548815Y-131451185D01*
X122645506Y-131530537D01*
X122755820Y-131589502D01*
X122875518Y-131625812D01*
X123000000Y-131638072D01*
X125000000Y-131638072D01*
X125124482Y-131625812D01*
X125244180Y-131589502D01*
X125354494Y-131530537D01*
X125451185Y-131451185D01*
X125530537Y-131354494D01*
X125589502Y-131244180D01*
X125625812Y-131124482D01*
X125638072Y-131000000D01*
X125638072Y-129657911D01*
X126065000Y-129657911D01*
X126065000Y-129842089D01*
X126100932Y-130022729D01*
X126171414Y-130192889D01*
X126273738Y-130346028D01*
X126403972Y-130476262D01*
X126557111Y-130578586D01*
X126727271Y-130649068D01*
X126907911Y-130685000D01*
X127092089Y-130685000D01*
X127272729Y-130649068D01*
X127442889Y-130578586D01*
X127596028Y-130476262D01*
X127612290Y-130460000D01*
X138965125Y-130460000D01*
X139000000Y-130463435D01*
X139034875Y-130460000D01*
X139034877Y-130460000D01*
X139139184Y-130449727D01*
X139273020Y-130409128D01*
X139396363Y-130343200D01*
X139504475Y-130254475D01*
X139526712Y-130227379D01*
X141477389Y-128276703D01*
X141504474Y-128254475D01*
X141526704Y-128227388D01*
X141526707Y-128227385D01*
X141593199Y-128146364D01*
X141593201Y-128146362D01*
X141659128Y-128023020D01*
X141699727Y-127889184D01*
X141710000Y-127784877D01*
X141710000Y-127784876D01*
X141713435Y-127750001D01*
X141710000Y-127715126D01*
X141710000Y-127409985D01*
X141751185Y-127376185D01*
X141830537Y-127279494D01*
X141889502Y-127169180D01*
X141925812Y-127049482D01*
X141938072Y-126925000D01*
X141938072Y-125425000D01*
X141925812Y-125300518D01*
X141889502Y-125180820D01*
X141830537Y-125070506D01*
X141751185Y-124973815D01*
X141654494Y-124894463D01*
X141544180Y-124835498D01*
X141424482Y-124799188D01*
X141300000Y-124786928D01*
X140700000Y-124786928D01*
X140575518Y-124799188D01*
X140455820Y-124835498D01*
X140345506Y-124894463D01*
X140248815Y-124973815D01*
X140169463Y-125070506D01*
X140110498Y-125180820D01*
X140074188Y-125300518D01*
X140061928Y-125425000D01*
X140061928Y-126925000D01*
X140074188Y-127049482D01*
X140110498Y-127169180D01*
X140169463Y-127279494D01*
X140248815Y-127376185D01*
X140290000Y-127409985D01*
X140290000Y-127455908D01*
X138705909Y-129040000D01*
X127612290Y-129040000D01*
X127596028Y-129023738D01*
X127442889Y-128921414D01*
X127272729Y-128850932D01*
X127092089Y-128815000D01*
X126907911Y-128815000D01*
X126727271Y-128850932D01*
X126557111Y-128921414D01*
X126403972Y-129023738D01*
X126273738Y-129153972D01*
X126171414Y-129307111D01*
X126100932Y-129477271D01*
X126065000Y-129657911D01*
X125638072Y-129657911D01*
X125638072Y-126500000D01*
X125625812Y-126375518D01*
X125589502Y-126255820D01*
X125530537Y-126145506D01*
X125451185Y-126048815D01*
X125354494Y-125969463D01*
X125244180Y-125910498D01*
X125124482Y-125874188D01*
X125000000Y-125861928D01*
X124699837Y-125861928D01*
X124699727Y-125860816D01*
X124659128Y-125726980D01*
X124593200Y-125603637D01*
X124527039Y-125523020D01*
X124526707Y-125522615D01*
X124526704Y-125522612D01*
X124504474Y-125495525D01*
X124477388Y-125473297D01*
X124429091Y-125425000D01*
X128061928Y-125425000D01*
X128061928Y-126925000D01*
X128074188Y-127049482D01*
X128110498Y-127169180D01*
X128118665Y-127184459D01*
X128100932Y-127227271D01*
X128065000Y-127407911D01*
X128065000Y-127592089D01*
X128100932Y-127772729D01*
X128171414Y-127942889D01*
X128273738Y-128096028D01*
X128403972Y-128226262D01*
X128557111Y-128328586D01*
X128727271Y-128399068D01*
X128907911Y-128435000D01*
X129092089Y-128435000D01*
X129272729Y-128399068D01*
X129442889Y-128328586D01*
X129596028Y-128226262D01*
X129726262Y-128096028D01*
X129828586Y-127942889D01*
X129899068Y-127772729D01*
X129935000Y-127592089D01*
X129935000Y-127407911D01*
X129899068Y-127227271D01*
X129881335Y-127184459D01*
X129889502Y-127169180D01*
X129925812Y-127049482D01*
X129938072Y-126925000D01*
X129938072Y-125425000D01*
X132061928Y-125425000D01*
X132061928Y-126925000D01*
X132074188Y-127049482D01*
X132110498Y-127169180D01*
X132169463Y-127279494D01*
X132248815Y-127376185D01*
X132345506Y-127455537D01*
X132455820Y-127514502D01*
X132575518Y-127550812D01*
X132700000Y-127563072D01*
X133300000Y-127563072D01*
X133424482Y-127550812D01*
X133544180Y-127514502D01*
X133654494Y-127455537D01*
X133751185Y-127376185D01*
X133830537Y-127279494D01*
X133889502Y-127169180D01*
X133925812Y-127049482D01*
X133938072Y-126925000D01*
X133938072Y-125425000D01*
X133925812Y-125300518D01*
X133889502Y-125180820D01*
X133857998Y-125121881D01*
X133899068Y-125022729D01*
X133935000Y-124842089D01*
X133935000Y-124657911D01*
X133899068Y-124477271D01*
X133828586Y-124307111D01*
X133726262Y-124153972D01*
X133596028Y-124023738D01*
X133442889Y-123921414D01*
X133272729Y-123850932D01*
X133092089Y-123815000D01*
X132907911Y-123815000D01*
X132727271Y-123850932D01*
X132557111Y-123921414D01*
X132403972Y-124023738D01*
X132273738Y-124153972D01*
X132171414Y-124307111D01*
X132100932Y-124477271D01*
X132065000Y-124657911D01*
X132065000Y-124842089D01*
X132100932Y-125022729D01*
X132142002Y-125121881D01*
X132110498Y-125180820D01*
X132074188Y-125300518D01*
X132061928Y-125425000D01*
X129938072Y-125425000D01*
X129925812Y-125300518D01*
X129889502Y-125180820D01*
X129830537Y-125070506D01*
X129751185Y-124973815D01*
X129654494Y-124894463D01*
X129544180Y-124835498D01*
X129424482Y-124799188D01*
X129300000Y-124786928D01*
X128700000Y-124786928D01*
X128575518Y-124799188D01*
X128455820Y-124835498D01*
X128345506Y-124894463D01*
X128248815Y-124973815D01*
X128169463Y-125070506D01*
X128110498Y-125180820D01*
X128074188Y-125300518D01*
X128061928Y-125425000D01*
X124429091Y-125425000D01*
X123776712Y-124772621D01*
X123754475Y-124745525D01*
X123646363Y-124656800D01*
X123523020Y-124590872D01*
X123389184Y-124550273D01*
X123284877Y-124540000D01*
X123284875Y-124540000D01*
X123250000Y-124536565D01*
X123215125Y-124540000D01*
X121256371Y-124540000D01*
X121215512Y-124463558D01*
X121106623Y-124330877D01*
X120992844Y-124237501D01*
X121106623Y-124144124D01*
X121215512Y-124011443D01*
X121256371Y-123935001D01*
X123490124Y-123935001D01*
X123524999Y-123938436D01*
X123559874Y-123935001D01*
X123559876Y-123935001D01*
X123664183Y-123924728D01*
X123798019Y-123884129D01*
X123921362Y-123818201D01*
X124029474Y-123729476D01*
X124051712Y-123702379D01*
X124477378Y-123276712D01*
X124504474Y-123254475D01*
X124593200Y-123146363D01*
X124597632Y-123138072D01*
X125000000Y-123138072D01*
X125124482Y-123125812D01*
X125244180Y-123089502D01*
X125354494Y-123030537D01*
X125451185Y-122951185D01*
X125530537Y-122854494D01*
X125589502Y-122744180D01*
X125625812Y-122624482D01*
X125638072Y-122500000D01*
X125638072Y-121681054D01*
X125657911Y-121685000D01*
X125842089Y-121685000D01*
X126022729Y-121649068D01*
X126192889Y-121578586D01*
X126346028Y-121476262D01*
X126362290Y-121460000D01*
X131280909Y-121460000D01*
X136061928Y-126241019D01*
X136061928Y-126925000D01*
X136074188Y-127049482D01*
X136110498Y-127169180D01*
X136169463Y-127279494D01*
X136248815Y-127376185D01*
X136345506Y-127455537D01*
X136455820Y-127514502D01*
X136575518Y-127550812D01*
X136700000Y-127563072D01*
X137300000Y-127563072D01*
X137424482Y-127550812D01*
X137544180Y-127514502D01*
X137654494Y-127455537D01*
X137751185Y-127376185D01*
X137830537Y-127279494D01*
X137889502Y-127169180D01*
X137925812Y-127049482D01*
X137938072Y-126925000D01*
X137938072Y-125425000D01*
X137925812Y-125300518D01*
X137889502Y-125180820D01*
X137830537Y-125070506D01*
X137751185Y-124973815D01*
X137654494Y-124894463D01*
X137544180Y-124835498D01*
X137424482Y-124799188D01*
X137300000Y-124786928D01*
X136700000Y-124786928D01*
X136623549Y-124794458D01*
X133200691Y-121371600D01*
X133226262Y-121346028D01*
X133328586Y-121192889D01*
X133399068Y-121022729D01*
X133435000Y-120842089D01*
X133435000Y-120657911D01*
X133399068Y-120477271D01*
X133351530Y-120362504D01*
X133443387Y-120313405D01*
X133577962Y-120202962D01*
X133614742Y-120158146D01*
X133672038Y-120227962D01*
G04 #@! TA.AperFunction,Conductor*
D21*
G36*
X133672038Y-120227962D02*
G01*
X133806613Y-120338405D01*
X133960149Y-120420472D01*
X134126745Y-120471008D01*
X134299999Y-120488072D01*
X135200001Y-120488072D01*
X135373255Y-120471008D01*
X135539851Y-120420472D01*
X135693387Y-120338405D01*
X135827962Y-120227962D01*
X135864742Y-120183146D01*
X135922038Y-120252962D01*
X136056613Y-120363405D01*
X136210149Y-120445472D01*
X136376745Y-120496008D01*
X136549999Y-120513072D01*
X137450001Y-120513072D01*
X137623255Y-120496008D01*
X137789851Y-120445472D01*
X137943387Y-120363405D01*
X138077962Y-120252962D01*
X138135258Y-120183146D01*
X138172038Y-120227962D01*
X138306613Y-120338405D01*
X138460149Y-120420472D01*
X138626745Y-120471008D01*
X138799999Y-120488072D01*
X139700001Y-120488072D01*
X139873255Y-120471008D01*
X140039851Y-120420472D01*
X140193387Y-120338405D01*
X140327962Y-120227962D01*
X140364742Y-120183146D01*
X140422038Y-120252962D01*
X140556613Y-120363405D01*
X140710149Y-120445472D01*
X140876745Y-120496008D01*
X141049999Y-120513072D01*
X141950001Y-120513072D01*
X142123255Y-120496008D01*
X142289851Y-120445472D01*
X142345951Y-120415486D01*
X142345950Y-134345950D01*
X141936556Y-134345950D01*
X141935000Y-134110750D01*
X141776250Y-133952000D01*
X141127000Y-133952000D01*
X141127000Y-133972000D01*
X140873000Y-133972000D01*
X140873000Y-133952000D01*
X140223750Y-133952000D01*
X140065000Y-134110750D01*
X140063444Y-134345950D01*
X137936556Y-134345950D01*
X137935000Y-134110750D01*
X137776250Y-133952000D01*
X137127000Y-133952000D01*
X137127000Y-133972000D01*
X136873000Y-133972000D01*
X136873000Y-133952000D01*
X136223750Y-133952000D01*
X136065000Y-134110750D01*
X136063444Y-134345950D01*
X133936556Y-134345950D01*
X133935000Y-134110750D01*
X133776250Y-133952000D01*
X133127000Y-133952000D01*
X133127000Y-133972000D01*
X132873000Y-133972000D01*
X132873000Y-133952000D01*
X132223750Y-133952000D01*
X132065000Y-134110750D01*
X132063444Y-134345950D01*
X129938072Y-134345950D01*
X129938072Y-133075000D01*
X132061928Y-133075000D01*
X132065000Y-133539250D01*
X132223750Y-133698000D01*
X132873000Y-133698000D01*
X132873000Y-132598750D01*
X133127000Y-132598750D01*
X133127000Y-133698000D01*
X133776250Y-133698000D01*
X133935000Y-133539250D01*
X133938072Y-133075000D01*
X136061928Y-133075000D01*
X136065000Y-133539250D01*
X136223750Y-133698000D01*
X136873000Y-133698000D01*
X136873000Y-132598750D01*
X137127000Y-132598750D01*
X137127000Y-133698000D01*
X137776250Y-133698000D01*
X137935000Y-133539250D01*
X137938072Y-133075000D01*
X140061928Y-133075000D01*
X140065000Y-133539250D01*
X140223750Y-133698000D01*
X140873000Y-133698000D01*
X140873000Y-132598750D01*
X141127000Y-132598750D01*
X141127000Y-133698000D01*
X141776250Y-133698000D01*
X141935000Y-133539250D01*
X141938072Y-133075000D01*
X141925812Y-132950518D01*
X141889502Y-132830820D01*
X141830537Y-132720506D01*
X141751185Y-132623815D01*
X141654494Y-132544463D01*
X141544180Y-132485498D01*
X141424482Y-132449188D01*
X141300000Y-132436928D01*
X141285750Y-132440000D01*
X141127000Y-132598750D01*
X140873000Y-132598750D01*
X140714250Y-132440000D01*
X140700000Y-132436928D01*
X140575518Y-132449188D01*
X140455820Y-132485498D01*
X140345506Y-132544463D01*
X140248815Y-132623815D01*
X140169463Y-132720506D01*
X140110498Y-132830820D01*
X140074188Y-132950518D01*
X140061928Y-133075000D01*
X137938072Y-133075000D01*
X137925812Y-132950518D01*
X137889502Y-132830820D01*
X137830537Y-132720506D01*
X137751185Y-132623815D01*
X137654494Y-132544463D01*
X137544180Y-132485498D01*
X137424482Y-132449188D01*
X137300000Y-132436928D01*
X137285750Y-132440000D01*
X137127000Y-132598750D01*
X136873000Y-132598750D01*
X136714250Y-132440000D01*
X136700000Y-132436928D01*
X136575518Y-132449188D01*
X136455820Y-132485498D01*
X136345506Y-132544463D01*
X136248815Y-132623815D01*
X136169463Y-132720506D01*
X136110498Y-132830820D01*
X136074188Y-132950518D01*
X136061928Y-133075000D01*
X133938072Y-133075000D01*
X133925812Y-132950518D01*
X133889502Y-132830820D01*
X133830537Y-132720506D01*
X133751185Y-132623815D01*
X133654494Y-132544463D01*
X133544180Y-132485498D01*
X133424482Y-132449188D01*
X133300000Y-132436928D01*
X133285750Y-132440000D01*
X133127000Y-132598750D01*
X132873000Y-132598750D01*
X132714250Y-132440000D01*
X132700000Y-132436928D01*
X132575518Y-132449188D01*
X132455820Y-132485498D01*
X132345506Y-132544463D01*
X132248815Y-132623815D01*
X132169463Y-132720506D01*
X132110498Y-132830820D01*
X132074188Y-132950518D01*
X132061928Y-133075000D01*
X129938072Y-133075000D01*
X129925812Y-132950518D01*
X129889502Y-132830820D01*
X129830537Y-132720506D01*
X129751185Y-132623815D01*
X129654494Y-132544463D01*
X129544180Y-132485498D01*
X129424482Y-132449188D01*
X129300000Y-132436928D01*
X128700000Y-132436928D01*
X128575518Y-132449188D01*
X128455820Y-132485498D01*
X128345506Y-132544463D01*
X128248815Y-132623815D01*
X128169463Y-132720506D01*
X128110498Y-132830820D01*
X128074188Y-132950518D01*
X128072762Y-132965000D01*
X126008120Y-132965000D01*
X125942889Y-132921414D01*
X125772729Y-132850932D01*
X125592089Y-132815000D01*
X125407911Y-132815000D01*
X125227271Y-132850932D01*
X125057111Y-132921414D01*
X124991880Y-132965000D01*
X120105000Y-132965000D01*
X120105000Y-132853740D01*
X120047932Y-132566842D01*
X119935990Y-132296589D01*
X119773475Y-132053368D01*
X119566632Y-131846525D01*
X119323411Y-131684010D01*
X119053158Y-131572068D01*
X118766260Y-131515000D01*
X118473740Y-131515000D01*
X118283082Y-131552925D01*
X118209990Y-131479833D01*
X118209990Y-130352001D01*
X118377000Y-130352001D01*
X118377000Y-131238751D01*
X118535750Y-131397501D01*
X118725000Y-131400573D01*
X118849482Y-131388313D01*
X118969180Y-131352003D01*
X119079494Y-131293038D01*
X119176185Y-131213686D01*
X119255537Y-131116995D01*
X119314502Y-131006681D01*
X119350812Y-130886983D01*
X119363072Y-130762501D01*
X119360000Y-130510751D01*
X119201250Y-130352001D01*
X118377000Y-130352001D01*
X118209990Y-130352001D01*
X118209990Y-130078001D01*
X118377000Y-130078001D01*
X118377000Y-130098001D01*
X119201250Y-130098001D01*
X119360000Y-129939251D01*
X119363072Y-129687501D01*
X119350812Y-129563019D01*
X119314502Y-129443321D01*
X119255537Y-129333007D01*
X119216226Y-129285107D01*
X119296423Y-129135068D01*
X119346248Y-128970817D01*
X119363072Y-128800001D01*
X119363072Y-128200001D01*
X119346248Y-128029185D01*
X119327229Y-127966486D01*
X119420506Y-128043037D01*
X119530820Y-128102002D01*
X119650518Y-128138312D01*
X119775000Y-128150572D01*
X119964250Y-128147500D01*
X120123000Y-127988750D01*
X120123000Y-127102000D01*
X120377000Y-127102000D01*
X120377000Y-127988750D01*
X120535750Y-128147500D01*
X120725000Y-128150572D01*
X120849482Y-128138312D01*
X120969180Y-128102002D01*
X121079494Y-128043037D01*
X121176185Y-127963685D01*
X121255537Y-127866994D01*
X121314502Y-127756680D01*
X121350812Y-127636982D01*
X121363072Y-127512500D01*
X121360000Y-127260750D01*
X121201250Y-127102000D01*
X120377000Y-127102000D01*
X120123000Y-127102000D01*
X120103000Y-127102000D01*
X120103000Y-126848000D01*
X120123000Y-126848000D01*
X120123000Y-126828000D01*
X120377000Y-126828000D01*
X120377000Y-126848000D01*
X121201250Y-126848000D01*
X121360000Y-126689250D01*
X121363072Y-126437500D01*
X121350812Y-126313018D01*
X121314502Y-126193320D01*
X121255537Y-126083006D01*
X121216226Y-126035106D01*
X121256371Y-125960000D01*
X122663210Y-125960000D01*
X122645506Y-125969463D01*
X122548815Y-126048815D01*
X122469463Y-126145506D01*
X122410498Y-126255820D01*
X122374188Y-126375518D01*
X122361928Y-126500000D01*
X122361928Y-131000000D01*
X122374188Y-131124482D01*
X122410498Y-131244180D01*
X122469463Y-131354494D01*
X122548815Y-131451185D01*
X122645506Y-131530537D01*
X122755820Y-131589502D01*
X122875518Y-131625812D01*
X123000000Y-131638072D01*
X125000000Y-131638072D01*
X125124482Y-131625812D01*
X125244180Y-131589502D01*
X125354494Y-131530537D01*
X125451185Y-131451185D01*
X125530537Y-131354494D01*
X125589502Y-131244180D01*
X125625812Y-131124482D01*
X125638072Y-131000000D01*
X125638072Y-129657911D01*
X126065000Y-129657911D01*
X126065000Y-129842089D01*
X126100932Y-130022729D01*
X126171414Y-130192889D01*
X126273738Y-130346028D01*
X126403972Y-130476262D01*
X126557111Y-130578586D01*
X126727271Y-130649068D01*
X126907911Y-130685000D01*
X127092089Y-130685000D01*
X127272729Y-130649068D01*
X127442889Y-130578586D01*
X127596028Y-130476262D01*
X127612290Y-130460000D01*
X138965125Y-130460000D01*
X139000000Y-130463435D01*
X139034875Y-130460000D01*
X139034877Y-130460000D01*
X139139184Y-130449727D01*
X139273020Y-130409128D01*
X139396363Y-130343200D01*
X139504475Y-130254475D01*
X139526712Y-130227379D01*
X141477389Y-128276703D01*
X141504474Y-128254475D01*
X141526704Y-128227388D01*
X141526707Y-128227385D01*
X141593199Y-128146364D01*
X141593201Y-128146362D01*
X141659128Y-128023020D01*
X141699727Y-127889184D01*
X141710000Y-127784877D01*
X141710000Y-127784876D01*
X141713435Y-127750001D01*
X141710000Y-127715126D01*
X141710000Y-127409985D01*
X141751185Y-127376185D01*
X141830537Y-127279494D01*
X141889502Y-127169180D01*
X141925812Y-127049482D01*
X141938072Y-126925000D01*
X141938072Y-125425000D01*
X141925812Y-125300518D01*
X141889502Y-125180820D01*
X141830537Y-125070506D01*
X141751185Y-124973815D01*
X141654494Y-124894463D01*
X141544180Y-124835498D01*
X141424482Y-124799188D01*
X141300000Y-124786928D01*
X140700000Y-124786928D01*
X140575518Y-124799188D01*
X140455820Y-124835498D01*
X140345506Y-124894463D01*
X140248815Y-124973815D01*
X140169463Y-125070506D01*
X140110498Y-125180820D01*
X140074188Y-125300518D01*
X140061928Y-125425000D01*
X140061928Y-126925000D01*
X140074188Y-127049482D01*
X140110498Y-127169180D01*
X140169463Y-127279494D01*
X140248815Y-127376185D01*
X140290000Y-127409985D01*
X140290000Y-127455908D01*
X138705909Y-129040000D01*
X127612290Y-129040000D01*
X127596028Y-129023738D01*
X127442889Y-128921414D01*
X127272729Y-128850932D01*
X127092089Y-128815000D01*
X126907911Y-128815000D01*
X126727271Y-128850932D01*
X126557111Y-128921414D01*
X126403972Y-129023738D01*
X126273738Y-129153972D01*
X126171414Y-129307111D01*
X126100932Y-129477271D01*
X126065000Y-129657911D01*
X125638072Y-129657911D01*
X125638072Y-126500000D01*
X125625812Y-126375518D01*
X125589502Y-126255820D01*
X125530537Y-126145506D01*
X125451185Y-126048815D01*
X125354494Y-125969463D01*
X125244180Y-125910498D01*
X125124482Y-125874188D01*
X125000000Y-125861928D01*
X124699837Y-125861928D01*
X124699727Y-125860816D01*
X124659128Y-125726980D01*
X124593200Y-125603637D01*
X124527039Y-125523020D01*
X124526707Y-125522615D01*
X124526704Y-125522612D01*
X124504474Y-125495525D01*
X124477388Y-125473297D01*
X124429091Y-125425000D01*
X128061928Y-125425000D01*
X128061928Y-126925000D01*
X128074188Y-127049482D01*
X128110498Y-127169180D01*
X128118665Y-127184459D01*
X128100932Y-127227271D01*
X128065000Y-127407911D01*
X128065000Y-127592089D01*
X128100932Y-127772729D01*
X128171414Y-127942889D01*
X128273738Y-128096028D01*
X128403972Y-128226262D01*
X128557111Y-128328586D01*
X128727271Y-128399068D01*
X128907911Y-128435000D01*
X129092089Y-128435000D01*
X129272729Y-128399068D01*
X129442889Y-128328586D01*
X129596028Y-128226262D01*
X129726262Y-128096028D01*
X129828586Y-127942889D01*
X129899068Y-127772729D01*
X129935000Y-127592089D01*
X129935000Y-127407911D01*
X129899068Y-127227271D01*
X129881335Y-127184459D01*
X129889502Y-127169180D01*
X129925812Y-127049482D01*
X129938072Y-126925000D01*
X129938072Y-125425000D01*
X132061928Y-125425000D01*
X132061928Y-126925000D01*
X132074188Y-127049482D01*
X132110498Y-127169180D01*
X132169463Y-127279494D01*
X132248815Y-127376185D01*
X132345506Y-127455537D01*
X132455820Y-127514502D01*
X132575518Y-127550812D01*
X132700000Y-127563072D01*
X133300000Y-127563072D01*
X133424482Y-127550812D01*
X133544180Y-127514502D01*
X133654494Y-127455537D01*
X133751185Y-127376185D01*
X133830537Y-127279494D01*
X133889502Y-127169180D01*
X133925812Y-127049482D01*
X133938072Y-126925000D01*
X133938072Y-125425000D01*
X133925812Y-125300518D01*
X133889502Y-125180820D01*
X133857998Y-125121881D01*
X133899068Y-125022729D01*
X133935000Y-124842089D01*
X133935000Y-124657911D01*
X133899068Y-124477271D01*
X133828586Y-124307111D01*
X133726262Y-124153972D01*
X133596028Y-124023738D01*
X133442889Y-123921414D01*
X133272729Y-123850932D01*
X133092089Y-123815000D01*
X132907911Y-123815000D01*
X132727271Y-123850932D01*
X132557111Y-123921414D01*
X132403972Y-124023738D01*
X132273738Y-124153972D01*
X132171414Y-124307111D01*
X132100932Y-124477271D01*
X132065000Y-124657911D01*
X132065000Y-124842089D01*
X132100932Y-125022729D01*
X132142002Y-125121881D01*
X132110498Y-125180820D01*
X132074188Y-125300518D01*
X132061928Y-125425000D01*
X129938072Y-125425000D01*
X129925812Y-125300518D01*
X129889502Y-125180820D01*
X129830537Y-125070506D01*
X129751185Y-124973815D01*
X129654494Y-124894463D01*
X129544180Y-124835498D01*
X129424482Y-124799188D01*
X129300000Y-124786928D01*
X128700000Y-124786928D01*
X128575518Y-124799188D01*
X128455820Y-124835498D01*
X128345506Y-124894463D01*
X128248815Y-124973815D01*
X128169463Y-125070506D01*
X128110498Y-125180820D01*
X128074188Y-125300518D01*
X128061928Y-125425000D01*
X124429091Y-125425000D01*
X123776712Y-124772621D01*
X123754475Y-124745525D01*
X123646363Y-124656800D01*
X123523020Y-124590872D01*
X123389184Y-124550273D01*
X123284877Y-124540000D01*
X123284875Y-124540000D01*
X123250000Y-124536565D01*
X123215125Y-124540000D01*
X121256371Y-124540000D01*
X121215512Y-124463558D01*
X121106623Y-124330877D01*
X120992844Y-124237501D01*
X121106623Y-124144124D01*
X121215512Y-124011443D01*
X121256371Y-123935001D01*
X123490124Y-123935001D01*
X123524999Y-123938436D01*
X123559874Y-123935001D01*
X123559876Y-123935001D01*
X123664183Y-123924728D01*
X123798019Y-123884129D01*
X123921362Y-123818201D01*
X124029474Y-123729476D01*
X124051712Y-123702379D01*
X124477378Y-123276712D01*
X124504474Y-123254475D01*
X124593200Y-123146363D01*
X124597632Y-123138072D01*
X125000000Y-123138072D01*
X125124482Y-123125812D01*
X125244180Y-123089502D01*
X125354494Y-123030537D01*
X125451185Y-122951185D01*
X125530537Y-122854494D01*
X125589502Y-122744180D01*
X125625812Y-122624482D01*
X125638072Y-122500000D01*
X125638072Y-121681054D01*
X125657911Y-121685000D01*
X125842089Y-121685000D01*
X126022729Y-121649068D01*
X126192889Y-121578586D01*
X126346028Y-121476262D01*
X126362290Y-121460000D01*
X131280909Y-121460000D01*
X136061928Y-126241019D01*
X136061928Y-126925000D01*
X136074188Y-127049482D01*
X136110498Y-127169180D01*
X136169463Y-127279494D01*
X136248815Y-127376185D01*
X136345506Y-127455537D01*
X136455820Y-127514502D01*
X136575518Y-127550812D01*
X136700000Y-127563072D01*
X137300000Y-127563072D01*
X137424482Y-127550812D01*
X137544180Y-127514502D01*
X137654494Y-127455537D01*
X137751185Y-127376185D01*
X137830537Y-127279494D01*
X137889502Y-127169180D01*
X137925812Y-127049482D01*
X137938072Y-126925000D01*
X137938072Y-125425000D01*
X137925812Y-125300518D01*
X137889502Y-125180820D01*
X137830537Y-125070506D01*
X137751185Y-124973815D01*
X137654494Y-124894463D01*
X137544180Y-124835498D01*
X137424482Y-124799188D01*
X137300000Y-124786928D01*
X136700000Y-124786928D01*
X136623549Y-124794458D01*
X133200691Y-121371600D01*
X133226262Y-121346028D01*
X133328586Y-121192889D01*
X133399068Y-121022729D01*
X133435000Y-120842089D01*
X133435000Y-120657911D01*
X133399068Y-120477271D01*
X133351530Y-120362504D01*
X133443387Y-120313405D01*
X133577962Y-120202962D01*
X133614742Y-120158146D01*
X133672038Y-120227962D01*
G37*
G04 #@! TD.AperFunction*
D20*
X126350932Y-115727271D02*
X126315000Y-115907911D01*
X126315000Y-116092089D01*
X126350932Y-116272729D01*
X126421414Y-116442889D01*
X126436188Y-116465000D01*
X120513557Y-116465000D01*
X120475001Y-116461203D01*
X120436445Y-116465000D01*
X120436440Y-116465000D01*
X120396027Y-116468980D01*
X120321114Y-116476358D01*
X120173141Y-116521246D01*
X120036768Y-116594138D01*
X119917237Y-116692236D01*
X119892654Y-116722190D01*
X119862587Y-116752257D01*
X119863072Y-116712501D01*
X119850812Y-116588019D01*
X119814502Y-116468321D01*
X119755537Y-116358007D01*
X119676185Y-116261316D01*
X119579494Y-116181964D01*
X119469180Y-116122999D01*
X119349482Y-116086689D01*
X119225000Y-116074429D01*
X119035750Y-116077501D01*
X118877000Y-116236251D01*
X118877000Y-117123001D01*
X118897000Y-117123001D01*
X118897000Y-117377001D01*
X118877000Y-117377001D01*
X118877000Y-117397001D01*
X118623000Y-117397001D01*
X118623000Y-117377001D01*
X117798750Y-117377001D01*
X117710751Y-117465000D01*
X111258120Y-117465000D01*
X111192889Y-117421414D01*
X111022729Y-117350932D01*
X110842089Y-117315000D01*
X110657911Y-117315000D01*
X110477271Y-117350932D01*
X110361078Y-117399060D01*
X110360000Y-117310749D01*
X110201250Y-117151999D01*
X109377000Y-117151999D01*
X109377000Y-117171999D01*
X109123000Y-117171999D01*
X109123000Y-117151999D01*
X108298750Y-117151999D01*
X108140000Y-117310749D01*
X108136928Y-117562499D01*
X108149188Y-117686981D01*
X108185498Y-117806679D01*
X108244463Y-117916993D01*
X108283774Y-117964893D01*
X108203577Y-118114932D01*
X108153752Y-118279183D01*
X108136928Y-118449999D01*
X108136928Y-119049999D01*
X108153752Y-119220815D01*
X108203577Y-119385066D01*
X108284488Y-119536441D01*
X108393377Y-119669122D01*
X108526058Y-119778011D01*
X108677433Y-119858922D01*
X108841684Y-119908747D01*
X109012500Y-119925571D01*
X109487500Y-119925571D01*
X109658316Y-119908747D01*
X109822567Y-119858922D01*
X109973942Y-119778011D01*
X110080448Y-119690603D01*
X110461928Y-120072084D01*
X110461928Y-120211928D01*
X109175000Y-120211928D01*
X109035887Y-120225629D01*
X108902119Y-120266207D01*
X108778838Y-120332102D01*
X108670782Y-120420782D01*
X108582102Y-120528838D01*
X108563098Y-120564391D01*
X108546999Y-120525524D01*
X108444675Y-120372385D01*
X108314441Y-120242151D01*
X108161302Y-120139827D01*
X107991142Y-120069345D01*
X107810502Y-120033413D01*
X107626324Y-120033413D01*
X107445684Y-120069345D01*
X107275524Y-120139827D01*
X107122385Y-120242151D01*
X107117779Y-120246757D01*
X106969952Y-120177244D01*
X106702865Y-120110977D01*
X106427983Y-120098090D01*
X106155867Y-120139078D01*
X105896977Y-120232364D01*
X105781020Y-120294344D01*
X105714040Y-120534435D01*
X106500000Y-121320395D01*
X106514143Y-121306253D01*
X106693748Y-121485858D01*
X106679605Y-121500000D01*
X106693748Y-121514143D01*
X106514143Y-121693748D01*
X106500000Y-121679605D01*
X105714040Y-122465565D01*
X105781020Y-122705656D01*
X105871533Y-122748218D01*
X105838273Y-122761995D01*
X105609465Y-122914880D01*
X105414880Y-123109465D01*
X105261995Y-123338273D01*
X105156686Y-123592510D01*
X105103000Y-123862408D01*
X105103000Y-124137592D01*
X105156686Y-124407490D01*
X105261995Y-124661727D01*
X105414880Y-124890535D01*
X105524345Y-125000000D01*
X105414880Y-125109465D01*
X105261995Y-125338273D01*
X105156686Y-125592510D01*
X105103000Y-125862408D01*
X105103000Y-126137592D01*
X105156686Y-126407490D01*
X105261995Y-126661727D01*
X105414880Y-126890535D01*
X105609465Y-127085120D01*
X105645292Y-127109059D01*
X105613518Y-127112188D01*
X105493820Y-127148498D01*
X105383506Y-127207463D01*
X105286815Y-127286815D01*
X105207463Y-127383506D01*
X105148498Y-127493820D01*
X105112188Y-127613518D01*
X105099928Y-127738000D01*
X105099928Y-129262000D01*
X105112188Y-129386482D01*
X105148498Y-129506180D01*
X105207463Y-129616494D01*
X105286815Y-129713185D01*
X105383506Y-129792537D01*
X105493820Y-129851502D01*
X105613518Y-129887812D01*
X105738000Y-129900072D01*
X106827002Y-129900072D01*
X106827002Y-132678114D01*
X106823566Y-132712999D01*
X106837275Y-132852183D01*
X106877873Y-132986018D01*
X106877874Y-132986019D01*
X106943802Y-133109362D01*
X107032527Y-133217474D01*
X107059618Y-133239707D01*
X108165860Y-134345950D01*
X101654050Y-134345950D01*
X101654050Y-133239609D01*
X102299997Y-133239609D01*
X102486073Y-133580766D01*
X102903409Y-133796513D01*
X103354815Y-133926696D01*
X103822946Y-133966313D01*
X104289811Y-133913842D01*
X104737468Y-133771297D01*
X105093927Y-133580766D01*
X105280003Y-133239609D01*
X103790000Y-131749605D01*
X102299997Y-133239609D01*
X101654050Y-133239609D01*
X101654050Y-132639724D01*
X101779234Y-132873927D01*
X102120391Y-133060003D01*
X103610395Y-131570000D01*
X103969605Y-131570000D01*
X105459609Y-133060003D01*
X105800766Y-132873927D01*
X106016513Y-132456591D01*
X106146696Y-132005185D01*
X106186313Y-131537054D01*
X106133842Y-131070189D01*
X105991297Y-130622532D01*
X105800766Y-130266073D01*
X105459609Y-130079997D01*
X103969605Y-131570000D01*
X103610395Y-131570000D01*
X102120391Y-130079997D01*
X101779234Y-130266073D01*
X101654050Y-130508226D01*
X101654050Y-129900391D01*
X102299997Y-129900391D01*
X103790000Y-131390395D01*
X105280003Y-129900391D01*
X105093927Y-129559234D01*
X104676591Y-129343487D01*
X104225185Y-129213304D01*
X103757054Y-129173687D01*
X103290189Y-129226158D01*
X102842532Y-129368703D01*
X102486073Y-129559234D01*
X102299997Y-129900391D01*
X101654050Y-129900391D01*
X101654050Y-121572017D01*
X105098090Y-121572017D01*
X105139078Y-121844133D01*
X105232364Y-122103023D01*
X105294344Y-122218980D01*
X105534435Y-122285960D01*
X106320395Y-121500000D01*
X105534435Y-120714040D01*
X105294344Y-120781020D01*
X105177244Y-121030048D01*
X105110977Y-121297135D01*
X105098090Y-121572017D01*
X101654050Y-121572017D01*
X101654050Y-120099609D01*
X102299997Y-120099609D01*
X102486073Y-120440766D01*
X102903409Y-120656513D01*
X103354815Y-120786696D01*
X103822946Y-120826313D01*
X104289811Y-120773842D01*
X104737468Y-120631297D01*
X105093927Y-120440766D01*
X105280003Y-120099609D01*
X103790000Y-118609605D01*
X102299997Y-120099609D01*
X101654050Y-120099609D01*
X101654050Y-119499724D01*
X101779234Y-119733927D01*
X102120391Y-119920003D01*
X103610395Y-118430000D01*
X103969605Y-118430000D01*
X105459609Y-119920003D01*
X105800766Y-119733927D01*
X106016513Y-119316591D01*
X106146696Y-118865185D01*
X106186313Y-118397054D01*
X106133842Y-117930189D01*
X105991297Y-117482532D01*
X105800766Y-117126073D01*
X105459609Y-116939997D01*
X103969605Y-118430000D01*
X103610395Y-118430000D01*
X102120391Y-116939997D01*
X101779234Y-117126073D01*
X101654050Y-117368226D01*
X101654050Y-116760391D01*
X102299997Y-116760391D01*
X103790000Y-118250395D01*
X105280003Y-116760391D01*
X105131161Y-116487499D01*
X108136928Y-116487499D01*
X108140000Y-116739249D01*
X108298750Y-116897999D01*
X109123000Y-116897999D01*
X109123000Y-116011249D01*
X109377000Y-116011249D01*
X109377000Y-116897999D01*
X110201250Y-116897999D01*
X110360000Y-116739249D01*
X110360326Y-116712501D01*
X117636928Y-116712501D01*
X117640000Y-116964251D01*
X117798750Y-117123001D01*
X118623000Y-117123001D01*
X118623000Y-116236251D01*
X118464250Y-116077501D01*
X118275000Y-116074429D01*
X118150518Y-116086689D01*
X118030820Y-116122999D01*
X117920506Y-116181964D01*
X117823815Y-116261316D01*
X117744463Y-116358007D01*
X117685498Y-116468321D01*
X117649188Y-116588019D01*
X117636928Y-116712501D01*
X110360326Y-116712501D01*
X110363072Y-116487499D01*
X110350812Y-116363017D01*
X110314502Y-116243319D01*
X110255537Y-116133005D01*
X110176185Y-116036314D01*
X110079494Y-115956962D01*
X109969180Y-115897997D01*
X109849482Y-115861687D01*
X109725000Y-115849427D01*
X109535750Y-115852499D01*
X109377000Y-116011249D01*
X109123000Y-116011249D01*
X108964250Y-115852499D01*
X108775000Y-115849427D01*
X108650518Y-115861687D01*
X108530820Y-115897997D01*
X108420506Y-115956962D01*
X108323815Y-116036314D01*
X108244463Y-116133005D01*
X108185498Y-116243319D01*
X108149188Y-116363017D01*
X108136928Y-116487499D01*
X105131161Y-116487499D01*
X105093927Y-116419234D01*
X104676591Y-116203487D01*
X104225185Y-116073304D01*
X103757054Y-116033687D01*
X103290189Y-116086158D01*
X102842532Y-116228703D01*
X102486073Y-116419234D01*
X102299997Y-116760391D01*
X101654050Y-116760391D01*
X101654050Y-115654050D01*
X126381261Y-115654050D01*
X126350932Y-115727271D01*
G04 #@! TA.AperFunction,Conductor*
D21*
G36*
X126350932Y-115727271D02*
G01*
X126315000Y-115907911D01*
X126315000Y-116092089D01*
X126350932Y-116272729D01*
X126421414Y-116442889D01*
X126436188Y-116465000D01*
X120513557Y-116465000D01*
X120475001Y-116461203D01*
X120436445Y-116465000D01*
X120436440Y-116465000D01*
X120396027Y-116468980D01*
X120321114Y-116476358D01*
X120173141Y-116521246D01*
X120036768Y-116594138D01*
X119917237Y-116692236D01*
X119892654Y-116722190D01*
X119862587Y-116752257D01*
X119863072Y-116712501D01*
X119850812Y-116588019D01*
X119814502Y-116468321D01*
X119755537Y-116358007D01*
X119676185Y-116261316D01*
X119579494Y-116181964D01*
X119469180Y-116122999D01*
X119349482Y-116086689D01*
X119225000Y-116074429D01*
X119035750Y-116077501D01*
X118877000Y-116236251D01*
X118877000Y-117123001D01*
X118897000Y-117123001D01*
X118897000Y-117377001D01*
X118877000Y-117377001D01*
X118877000Y-117397001D01*
X118623000Y-117397001D01*
X118623000Y-117377001D01*
X117798750Y-117377001D01*
X117710751Y-117465000D01*
X111258120Y-117465000D01*
X111192889Y-117421414D01*
X111022729Y-117350932D01*
X110842089Y-117315000D01*
X110657911Y-117315000D01*
X110477271Y-117350932D01*
X110361078Y-117399060D01*
X110360000Y-117310749D01*
X110201250Y-117151999D01*
X109377000Y-117151999D01*
X109377000Y-117171999D01*
X109123000Y-117171999D01*
X109123000Y-117151999D01*
X108298750Y-117151999D01*
X108140000Y-117310749D01*
X108136928Y-117562499D01*
X108149188Y-117686981D01*
X108185498Y-117806679D01*
X108244463Y-117916993D01*
X108283774Y-117964893D01*
X108203577Y-118114932D01*
X108153752Y-118279183D01*
X108136928Y-118449999D01*
X108136928Y-119049999D01*
X108153752Y-119220815D01*
X108203577Y-119385066D01*
X108284488Y-119536441D01*
X108393377Y-119669122D01*
X108526058Y-119778011D01*
X108677433Y-119858922D01*
X108841684Y-119908747D01*
X109012500Y-119925571D01*
X109487500Y-119925571D01*
X109658316Y-119908747D01*
X109822567Y-119858922D01*
X109973942Y-119778011D01*
X110080448Y-119690603D01*
X110461928Y-120072084D01*
X110461928Y-120211928D01*
X109175000Y-120211928D01*
X109035887Y-120225629D01*
X108902119Y-120266207D01*
X108778838Y-120332102D01*
X108670782Y-120420782D01*
X108582102Y-120528838D01*
X108563098Y-120564391D01*
X108546999Y-120525524D01*
X108444675Y-120372385D01*
X108314441Y-120242151D01*
X108161302Y-120139827D01*
X107991142Y-120069345D01*
X107810502Y-120033413D01*
X107626324Y-120033413D01*
X107445684Y-120069345D01*
X107275524Y-120139827D01*
X107122385Y-120242151D01*
X107117779Y-120246757D01*
X106969952Y-120177244D01*
X106702865Y-120110977D01*
X106427983Y-120098090D01*
X106155867Y-120139078D01*
X105896977Y-120232364D01*
X105781020Y-120294344D01*
X105714040Y-120534435D01*
X106500000Y-121320395D01*
X106514143Y-121306253D01*
X106693748Y-121485858D01*
X106679605Y-121500000D01*
X106693748Y-121514143D01*
X106514143Y-121693748D01*
X106500000Y-121679605D01*
X105714040Y-122465565D01*
X105781020Y-122705656D01*
X105871533Y-122748218D01*
X105838273Y-122761995D01*
X105609465Y-122914880D01*
X105414880Y-123109465D01*
X105261995Y-123338273D01*
X105156686Y-123592510D01*
X105103000Y-123862408D01*
X105103000Y-124137592D01*
X105156686Y-124407490D01*
X105261995Y-124661727D01*
X105414880Y-124890535D01*
X105524345Y-125000000D01*
X105414880Y-125109465D01*
X105261995Y-125338273D01*
X105156686Y-125592510D01*
X105103000Y-125862408D01*
X105103000Y-126137592D01*
X105156686Y-126407490D01*
X105261995Y-126661727D01*
X105414880Y-126890535D01*
X105609465Y-127085120D01*
X105645292Y-127109059D01*
X105613518Y-127112188D01*
X105493820Y-127148498D01*
X105383506Y-127207463D01*
X105286815Y-127286815D01*
X105207463Y-127383506D01*
X105148498Y-127493820D01*
X105112188Y-127613518D01*
X105099928Y-127738000D01*
X105099928Y-129262000D01*
X105112188Y-129386482D01*
X105148498Y-129506180D01*
X105207463Y-129616494D01*
X105286815Y-129713185D01*
X105383506Y-129792537D01*
X105493820Y-129851502D01*
X105613518Y-129887812D01*
X105738000Y-129900072D01*
X106827002Y-129900072D01*
X106827002Y-132678114D01*
X106823566Y-132712999D01*
X106837275Y-132852183D01*
X106877873Y-132986018D01*
X106877874Y-132986019D01*
X106943802Y-133109362D01*
X107032527Y-133217474D01*
X107059618Y-133239707D01*
X108165860Y-134345950D01*
X101654050Y-134345950D01*
X101654050Y-133239609D01*
X102299997Y-133239609D01*
X102486073Y-133580766D01*
X102903409Y-133796513D01*
X103354815Y-133926696D01*
X103822946Y-133966313D01*
X104289811Y-133913842D01*
X104737468Y-133771297D01*
X105093927Y-133580766D01*
X105280003Y-133239609D01*
X103790000Y-131749605D01*
X102299997Y-133239609D01*
X101654050Y-133239609D01*
X101654050Y-132639724D01*
X101779234Y-132873927D01*
X102120391Y-133060003D01*
X103610395Y-131570000D01*
X103969605Y-131570000D01*
X105459609Y-133060003D01*
X105800766Y-132873927D01*
X106016513Y-132456591D01*
X106146696Y-132005185D01*
X106186313Y-131537054D01*
X106133842Y-131070189D01*
X105991297Y-130622532D01*
X105800766Y-130266073D01*
X105459609Y-130079997D01*
X103969605Y-131570000D01*
X103610395Y-131570000D01*
X102120391Y-130079997D01*
X101779234Y-130266073D01*
X101654050Y-130508226D01*
X101654050Y-129900391D01*
X102299997Y-129900391D01*
X103790000Y-131390395D01*
X105280003Y-129900391D01*
X105093927Y-129559234D01*
X104676591Y-129343487D01*
X104225185Y-129213304D01*
X103757054Y-129173687D01*
X103290189Y-129226158D01*
X102842532Y-129368703D01*
X102486073Y-129559234D01*
X102299997Y-129900391D01*
X101654050Y-129900391D01*
X101654050Y-121572017D01*
X105098090Y-121572017D01*
X105139078Y-121844133D01*
X105232364Y-122103023D01*
X105294344Y-122218980D01*
X105534435Y-122285960D01*
X106320395Y-121500000D01*
X105534435Y-120714040D01*
X105294344Y-120781020D01*
X105177244Y-121030048D01*
X105110977Y-121297135D01*
X105098090Y-121572017D01*
X101654050Y-121572017D01*
X101654050Y-120099609D01*
X102299997Y-120099609D01*
X102486073Y-120440766D01*
X102903409Y-120656513D01*
X103354815Y-120786696D01*
X103822946Y-120826313D01*
X104289811Y-120773842D01*
X104737468Y-120631297D01*
X105093927Y-120440766D01*
X105280003Y-120099609D01*
X103790000Y-118609605D01*
X102299997Y-120099609D01*
X101654050Y-120099609D01*
X101654050Y-119499724D01*
X101779234Y-119733927D01*
X102120391Y-119920003D01*
X103610395Y-118430000D01*
X103969605Y-118430000D01*
X105459609Y-119920003D01*
X105800766Y-119733927D01*
X106016513Y-119316591D01*
X106146696Y-118865185D01*
X106186313Y-118397054D01*
X106133842Y-117930189D01*
X105991297Y-117482532D01*
X105800766Y-117126073D01*
X105459609Y-116939997D01*
X103969605Y-118430000D01*
X103610395Y-118430000D01*
X102120391Y-116939997D01*
X101779234Y-117126073D01*
X101654050Y-117368226D01*
X101654050Y-116760391D01*
X102299997Y-116760391D01*
X103790000Y-118250395D01*
X105280003Y-116760391D01*
X105131161Y-116487499D01*
X108136928Y-116487499D01*
X108140000Y-116739249D01*
X108298750Y-116897999D01*
X109123000Y-116897999D01*
X109123000Y-116011249D01*
X109377000Y-116011249D01*
X109377000Y-116897999D01*
X110201250Y-116897999D01*
X110360000Y-116739249D01*
X110360326Y-116712501D01*
X117636928Y-116712501D01*
X117640000Y-116964251D01*
X117798750Y-117123001D01*
X118623000Y-117123001D01*
X118623000Y-116236251D01*
X118464250Y-116077501D01*
X118275000Y-116074429D01*
X118150518Y-116086689D01*
X118030820Y-116122999D01*
X117920506Y-116181964D01*
X117823815Y-116261316D01*
X117744463Y-116358007D01*
X117685498Y-116468321D01*
X117649188Y-116588019D01*
X117636928Y-116712501D01*
X110360326Y-116712501D01*
X110363072Y-116487499D01*
X110350812Y-116363017D01*
X110314502Y-116243319D01*
X110255537Y-116133005D01*
X110176185Y-116036314D01*
X110079494Y-115956962D01*
X109969180Y-115897997D01*
X109849482Y-115861687D01*
X109725000Y-115849427D01*
X109535750Y-115852499D01*
X109377000Y-116011249D01*
X109123000Y-116011249D01*
X108964250Y-115852499D01*
X108775000Y-115849427D01*
X108650518Y-115861687D01*
X108530820Y-115897997D01*
X108420506Y-115956962D01*
X108323815Y-116036314D01*
X108244463Y-116133005D01*
X108185498Y-116243319D01*
X108149188Y-116363017D01*
X108136928Y-116487499D01*
X105131161Y-116487499D01*
X105093927Y-116419234D01*
X104676591Y-116203487D01*
X104225185Y-116073304D01*
X103757054Y-116033687D01*
X103290189Y-116086158D01*
X102842532Y-116228703D01*
X102486073Y-116419234D01*
X102299997Y-116760391D01*
X101654050Y-116760391D01*
X101654050Y-115654050D01*
X126381261Y-115654050D01*
X126350932Y-115727271D01*
G37*
G04 #@! TD.AperFunction*
D20*
X109377000Y-129622999D02*
X109397000Y-129622999D01*
X109397000Y-129876999D01*
X109377000Y-129876999D01*
X109377000Y-130763749D01*
X109535750Y-130922499D01*
X109725000Y-130925571D01*
X109815000Y-130916707D01*
X109815000Y-131092089D01*
X109850932Y-131272729D01*
X109921414Y-131442889D01*
X109984126Y-131536744D01*
X109905820Y-131560498D01*
X109795506Y-131619463D01*
X109698815Y-131698815D01*
X109619463Y-131795506D01*
X109560498Y-131905820D01*
X109524188Y-132025518D01*
X109511928Y-132150000D01*
X109515000Y-132714250D01*
X109673750Y-132873000D01*
X110873000Y-132873000D01*
X110873000Y-132853000D01*
X111127000Y-132853000D01*
X111127000Y-132873000D01*
X111147000Y-132873000D01*
X111147000Y-133127000D01*
X111127000Y-133127000D01*
X111127000Y-133147000D01*
X110873000Y-133147000D01*
X110873000Y-133127000D01*
X109673750Y-133127000D01*
X109515000Y-133285750D01*
X109514296Y-133415001D01*
X109243095Y-133415001D01*
X108247001Y-132418908D01*
X108247001Y-130645086D01*
X108323815Y-130738684D01*
X108420506Y-130818036D01*
X108530820Y-130877001D01*
X108650518Y-130913311D01*
X108775000Y-130925571D01*
X108964250Y-130922499D01*
X109123000Y-130763749D01*
X109123000Y-129876999D01*
X109103000Y-129876999D01*
X109103000Y-129622999D01*
X109123000Y-129622999D01*
X109123000Y-129602999D01*
X109377000Y-129602999D01*
X109377000Y-129622999D01*
G04 #@! TA.AperFunction,Conductor*
D21*
G36*
X109377000Y-129622999D02*
G01*
X109397000Y-129622999D01*
X109397000Y-129876999D01*
X109377000Y-129876999D01*
X109377000Y-130763749D01*
X109535750Y-130922499D01*
X109725000Y-130925571D01*
X109815000Y-130916707D01*
X109815000Y-131092089D01*
X109850932Y-131272729D01*
X109921414Y-131442889D01*
X109984126Y-131536744D01*
X109905820Y-131560498D01*
X109795506Y-131619463D01*
X109698815Y-131698815D01*
X109619463Y-131795506D01*
X109560498Y-131905820D01*
X109524188Y-132025518D01*
X109511928Y-132150000D01*
X109515000Y-132714250D01*
X109673750Y-132873000D01*
X110873000Y-132873000D01*
X110873000Y-132853000D01*
X111127000Y-132853000D01*
X111127000Y-132873000D01*
X111147000Y-132873000D01*
X111147000Y-133127000D01*
X111127000Y-133127000D01*
X111127000Y-133147000D01*
X110873000Y-133147000D01*
X110873000Y-133127000D01*
X109673750Y-133127000D01*
X109515000Y-133285750D01*
X109514296Y-133415001D01*
X109243095Y-133415001D01*
X108247001Y-132418908D01*
X108247001Y-130645086D01*
X108323815Y-130738684D01*
X108420506Y-130818036D01*
X108530820Y-130877001D01*
X108650518Y-130913311D01*
X108775000Y-130925571D01*
X108964250Y-130922499D01*
X109123000Y-130763749D01*
X109123000Y-129876999D01*
X109103000Y-129876999D01*
X109103000Y-129622999D01*
X109123000Y-129622999D01*
X109123000Y-129602999D01*
X109377000Y-129602999D01*
X109377000Y-129622999D01*
G37*
G04 #@! TD.AperFunction*
D20*
X108476132Y-126283883D02*
X108476186Y-126284051D01*
X108475629Y-126285887D01*
X108461928Y-126425000D01*
X108461928Y-126575000D01*
X108475629Y-126714113D01*
X108516207Y-126847881D01*
X108580385Y-126967949D01*
X108526058Y-126996987D01*
X108393377Y-127105876D01*
X108284488Y-127238557D01*
X108247001Y-127308691D01*
X108247001Y-126257090D01*
X108294091Y-126210000D01*
X108468079Y-126210000D01*
X108476132Y-126283883D01*
G04 #@! TA.AperFunction,Conductor*
D21*
G36*
X108476132Y-126283883D02*
G01*
X108476186Y-126284051D01*
X108475629Y-126285887D01*
X108461928Y-126425000D01*
X108461928Y-126575000D01*
X108475629Y-126714113D01*
X108516207Y-126847881D01*
X108580385Y-126967949D01*
X108526058Y-126996987D01*
X108393377Y-127105876D01*
X108284488Y-127238557D01*
X108247001Y-127308691D01*
X108247001Y-126257090D01*
X108294091Y-126210000D01*
X108468079Y-126210000D01*
X108476132Y-126283883D01*
G37*
G04 #@! TD.AperFunction*
D20*
X116021708Y-120945070D02*
X115903972Y-121023738D01*
X115773738Y-121153972D01*
X115671414Y-121307111D01*
X115600932Y-121477271D01*
X115565000Y-121657911D01*
X115565000Y-121842089D01*
X115600932Y-122022729D01*
X115671414Y-122192889D01*
X115773738Y-122346028D01*
X115903972Y-122476262D01*
X116057111Y-122578586D01*
X116227271Y-122649068D01*
X116317655Y-122667047D01*
X116307111Y-122671414D01*
X116153972Y-122773738D01*
X116023738Y-122903972D01*
X115921414Y-123057111D01*
X115850932Y-123227271D01*
X115815000Y-123407911D01*
X115815000Y-123592089D01*
X115850932Y-123772729D01*
X115921414Y-123942889D01*
X116023738Y-124096028D01*
X116153972Y-124226262D01*
X116307111Y-124328586D01*
X116477271Y-124399068D01*
X116657911Y-124435000D01*
X116786928Y-124435000D01*
X116786928Y-124575000D01*
X116800629Y-124714113D01*
X116811515Y-124750000D01*
X116800629Y-124785887D01*
X116786928Y-124925000D01*
X116786928Y-125075000D01*
X116800629Y-125214113D01*
X116811515Y-125249999D01*
X116800629Y-125285887D01*
X116786928Y-125425000D01*
X116786928Y-125575000D01*
X116800629Y-125714113D01*
X116811515Y-125750000D01*
X116800629Y-125785887D01*
X116786928Y-125925000D01*
X116786928Y-126075000D01*
X116800629Y-126214113D01*
X116811515Y-126250000D01*
X116800629Y-126285887D01*
X116786928Y-126425000D01*
X116786928Y-126536928D01*
X116675000Y-126536928D01*
X116535887Y-126550629D01*
X116534051Y-126551186D01*
X116533883Y-126551132D01*
X116431750Y-126540000D01*
X116355768Y-126615982D01*
X116278838Y-126657102D01*
X116250000Y-126680769D01*
X116221162Y-126657102D01*
X116144232Y-126615982D01*
X116068250Y-126540000D01*
X115966117Y-126551132D01*
X115965949Y-126551186D01*
X115964113Y-126550629D01*
X115825000Y-126536928D01*
X115675000Y-126536928D01*
X115535887Y-126550629D01*
X115500000Y-126561515D01*
X115464113Y-126550629D01*
X115325000Y-126536928D01*
X115175000Y-126536928D01*
X115035887Y-126550629D01*
X115000000Y-126561515D01*
X114964113Y-126550629D01*
X114825000Y-126536928D01*
X114675000Y-126536928D01*
X114535887Y-126550629D01*
X114500000Y-126561515D01*
X114464113Y-126550629D01*
X114325000Y-126536928D01*
X114175000Y-126536928D01*
X114035887Y-126550629D01*
X114000000Y-126561515D01*
X113964113Y-126550629D01*
X113825000Y-126536928D01*
X113675000Y-126536928D01*
X113535887Y-126550629D01*
X113500000Y-126561515D01*
X113464113Y-126550629D01*
X113325000Y-126536928D01*
X113175000Y-126536928D01*
X113035887Y-126550629D01*
X113000000Y-126561515D01*
X112964113Y-126550629D01*
X112825000Y-126536928D01*
X112675000Y-126536928D01*
X112535887Y-126550629D01*
X112500000Y-126561515D01*
X112464113Y-126550629D01*
X112325000Y-126536928D01*
X112175000Y-126536928D01*
X112035887Y-126550629D01*
X112000000Y-126561515D01*
X111978292Y-126554930D01*
X112096028Y-126476262D01*
X112226262Y-126346028D01*
X112328586Y-126192889D01*
X112399068Y-126022729D01*
X112435000Y-125842089D01*
X112435000Y-125657911D01*
X112399068Y-125477271D01*
X112328586Y-125307111D01*
X112226262Y-125153972D01*
X112096028Y-125023738D01*
X112034990Y-124982954D01*
X112034990Y-120949099D01*
X112035887Y-120949371D01*
X112175000Y-120963072D01*
X112325000Y-120963072D01*
X112464113Y-120949371D01*
X112500000Y-120938485D01*
X112535887Y-120949371D01*
X112675000Y-120963072D01*
X112825000Y-120963072D01*
X112964113Y-120949371D01*
X113000000Y-120938485D01*
X113035887Y-120949371D01*
X113175000Y-120963072D01*
X113325000Y-120963072D01*
X113464113Y-120949371D01*
X113500000Y-120938485D01*
X113535887Y-120949371D01*
X113675000Y-120963072D01*
X113825000Y-120963072D01*
X113964113Y-120949371D01*
X114000000Y-120938485D01*
X114035887Y-120949371D01*
X114175000Y-120963072D01*
X114325000Y-120963072D01*
X114464113Y-120949371D01*
X114500000Y-120938485D01*
X114535887Y-120949371D01*
X114675000Y-120963072D01*
X114825000Y-120963072D01*
X114964113Y-120949371D01*
X115000000Y-120938485D01*
X115035887Y-120949371D01*
X115175000Y-120963072D01*
X115325000Y-120963072D01*
X115464113Y-120949371D01*
X115500000Y-120938485D01*
X115535887Y-120949371D01*
X115675000Y-120963072D01*
X115825000Y-120963072D01*
X115964113Y-120949371D01*
X116000000Y-120938485D01*
X116021708Y-120945070D01*
G04 #@! TA.AperFunction,Conductor*
D21*
G36*
X116021708Y-120945070D02*
G01*
X115903972Y-121023738D01*
X115773738Y-121153972D01*
X115671414Y-121307111D01*
X115600932Y-121477271D01*
X115565000Y-121657911D01*
X115565000Y-121842089D01*
X115600932Y-122022729D01*
X115671414Y-122192889D01*
X115773738Y-122346028D01*
X115903972Y-122476262D01*
X116057111Y-122578586D01*
X116227271Y-122649068D01*
X116317655Y-122667047D01*
X116307111Y-122671414D01*
X116153972Y-122773738D01*
X116023738Y-122903972D01*
X115921414Y-123057111D01*
X115850932Y-123227271D01*
X115815000Y-123407911D01*
X115815000Y-123592089D01*
X115850932Y-123772729D01*
X115921414Y-123942889D01*
X116023738Y-124096028D01*
X116153972Y-124226262D01*
X116307111Y-124328586D01*
X116477271Y-124399068D01*
X116657911Y-124435000D01*
X116786928Y-124435000D01*
X116786928Y-124575000D01*
X116800629Y-124714113D01*
X116811515Y-124750000D01*
X116800629Y-124785887D01*
X116786928Y-124925000D01*
X116786928Y-125075000D01*
X116800629Y-125214113D01*
X116811515Y-125249999D01*
X116800629Y-125285887D01*
X116786928Y-125425000D01*
X116786928Y-125575000D01*
X116800629Y-125714113D01*
X116811515Y-125750000D01*
X116800629Y-125785887D01*
X116786928Y-125925000D01*
X116786928Y-126075000D01*
X116800629Y-126214113D01*
X116811515Y-126250000D01*
X116800629Y-126285887D01*
X116786928Y-126425000D01*
X116786928Y-126536928D01*
X116675000Y-126536928D01*
X116535887Y-126550629D01*
X116534051Y-126551186D01*
X116533883Y-126551132D01*
X116431750Y-126540000D01*
X116355768Y-126615982D01*
X116278838Y-126657102D01*
X116250000Y-126680769D01*
X116221162Y-126657102D01*
X116144232Y-126615982D01*
X116068250Y-126540000D01*
X115966117Y-126551132D01*
X115965949Y-126551186D01*
X115964113Y-126550629D01*
X115825000Y-126536928D01*
X115675000Y-126536928D01*
X115535887Y-126550629D01*
X115500000Y-126561515D01*
X115464113Y-126550629D01*
X115325000Y-126536928D01*
X115175000Y-126536928D01*
X115035887Y-126550629D01*
X115000000Y-126561515D01*
X114964113Y-126550629D01*
X114825000Y-126536928D01*
X114675000Y-126536928D01*
X114535887Y-126550629D01*
X114500000Y-126561515D01*
X114464113Y-126550629D01*
X114325000Y-126536928D01*
X114175000Y-126536928D01*
X114035887Y-126550629D01*
X114000000Y-126561515D01*
X113964113Y-126550629D01*
X113825000Y-126536928D01*
X113675000Y-126536928D01*
X113535887Y-126550629D01*
X113500000Y-126561515D01*
X113464113Y-126550629D01*
X113325000Y-126536928D01*
X113175000Y-126536928D01*
X113035887Y-126550629D01*
X113000000Y-126561515D01*
X112964113Y-126550629D01*
X112825000Y-126536928D01*
X112675000Y-126536928D01*
X112535887Y-126550629D01*
X112500000Y-126561515D01*
X112464113Y-126550629D01*
X112325000Y-126536928D01*
X112175000Y-126536928D01*
X112035887Y-126550629D01*
X112000000Y-126561515D01*
X111978292Y-126554930D01*
X112096028Y-126476262D01*
X112226262Y-126346028D01*
X112328586Y-126192889D01*
X112399068Y-126022729D01*
X112435000Y-125842089D01*
X112435000Y-125657911D01*
X112399068Y-125477271D01*
X112328586Y-125307111D01*
X112226262Y-125153972D01*
X112096028Y-125023738D01*
X112034990Y-124982954D01*
X112034990Y-120949099D01*
X112035887Y-120949371D01*
X112175000Y-120963072D01*
X112325000Y-120963072D01*
X112464113Y-120949371D01*
X112500000Y-120938485D01*
X112535887Y-120949371D01*
X112675000Y-120963072D01*
X112825000Y-120963072D01*
X112964113Y-120949371D01*
X113000000Y-120938485D01*
X113035887Y-120949371D01*
X113175000Y-120963072D01*
X113325000Y-120963072D01*
X113464113Y-120949371D01*
X113500000Y-120938485D01*
X113535887Y-120949371D01*
X113675000Y-120963072D01*
X113825000Y-120963072D01*
X113964113Y-120949371D01*
X114000000Y-120938485D01*
X114035887Y-120949371D01*
X114175000Y-120963072D01*
X114325000Y-120963072D01*
X114464113Y-120949371D01*
X114500000Y-120938485D01*
X114535887Y-120949371D01*
X114675000Y-120963072D01*
X114825000Y-120963072D01*
X114964113Y-120949371D01*
X115000000Y-120938485D01*
X115035887Y-120949371D01*
X115175000Y-120963072D01*
X115325000Y-120963072D01*
X115464113Y-120949371D01*
X115500000Y-120938485D01*
X115535887Y-120949371D01*
X115675000Y-120963072D01*
X115825000Y-120963072D01*
X115964113Y-120949371D01*
X116000000Y-120938485D01*
X116021708Y-120945070D01*
G37*
G04 #@! TD.AperFunction*
D20*
X122361928Y-122500000D02*
X122363405Y-122515001D01*
X121256371Y-122515001D01*
X121216226Y-122439895D01*
X121255537Y-122391995D01*
X121314502Y-122281681D01*
X121350812Y-122161983D01*
X121363072Y-122037501D01*
X121360000Y-121785751D01*
X121201250Y-121627001D01*
X120377000Y-121627001D01*
X120377000Y-121647001D01*
X120123000Y-121647001D01*
X120123000Y-121627001D01*
X120103000Y-121627001D01*
X120103000Y-121373001D01*
X120123000Y-121373001D01*
X120123000Y-120486251D01*
X120377000Y-120486251D01*
X120377000Y-121373001D01*
X121201250Y-121373001D01*
X121360000Y-121214251D01*
X121363072Y-120962501D01*
X121350812Y-120838019D01*
X121314502Y-120718321D01*
X121255537Y-120608007D01*
X121176185Y-120511316D01*
X121079494Y-120431964D01*
X120969180Y-120372999D01*
X120849482Y-120336689D01*
X120725000Y-120324429D01*
X120535750Y-120327501D01*
X120377000Y-120486251D01*
X120123000Y-120486251D01*
X120035000Y-120398251D01*
X120035000Y-119513557D01*
X120038797Y-119475001D01*
X120035000Y-119436445D01*
X120035000Y-119436440D01*
X120029192Y-119377468D01*
X120023642Y-119321114D01*
X119978754Y-119173141D01*
X119945441Y-119110816D01*
X119905862Y-119036768D01*
X119863072Y-118984629D01*
X119863072Y-118972086D01*
X120800158Y-118035000D01*
X122361928Y-118035000D01*
X122361928Y-122500000D01*
G04 #@! TA.AperFunction,Conductor*
D21*
G36*
X122361928Y-122500000D02*
G01*
X122363405Y-122515001D01*
X121256371Y-122515001D01*
X121216226Y-122439895D01*
X121255537Y-122391995D01*
X121314502Y-122281681D01*
X121350812Y-122161983D01*
X121363072Y-122037501D01*
X121360000Y-121785751D01*
X121201250Y-121627001D01*
X120377000Y-121627001D01*
X120377000Y-121647001D01*
X120123000Y-121647001D01*
X120123000Y-121627001D01*
X120103000Y-121627001D01*
X120103000Y-121373001D01*
X120123000Y-121373001D01*
X120123000Y-120486251D01*
X120377000Y-120486251D01*
X120377000Y-121373001D01*
X121201250Y-121373001D01*
X121360000Y-121214251D01*
X121363072Y-120962501D01*
X121350812Y-120838019D01*
X121314502Y-120718321D01*
X121255537Y-120608007D01*
X121176185Y-120511316D01*
X121079494Y-120431964D01*
X120969180Y-120372999D01*
X120849482Y-120336689D01*
X120725000Y-120324429D01*
X120535750Y-120327501D01*
X120377000Y-120486251D01*
X120123000Y-120486251D01*
X120035000Y-120398251D01*
X120035000Y-119513557D01*
X120038797Y-119475001D01*
X120035000Y-119436445D01*
X120035000Y-119436440D01*
X120029192Y-119377468D01*
X120023642Y-119321114D01*
X119978754Y-119173141D01*
X119945441Y-119110816D01*
X119905862Y-119036768D01*
X119863072Y-118984629D01*
X119863072Y-118972086D01*
X120800158Y-118035000D01*
X122361928Y-118035000D01*
X122361928Y-122500000D01*
G37*
G04 #@! TD.AperFunction*
D20*
X138198891Y-118250000D02*
X138172038Y-118272038D01*
X138094225Y-118366854D01*
X138077962Y-118347038D01*
X138071406Y-118341658D01*
X138151185Y-118276185D01*
X138183226Y-118237143D01*
X138198891Y-118250000D01*
G04 #@! TA.AperFunction,Conductor*
D21*
G36*
X138198891Y-118250000D02*
G01*
X138172038Y-118272038D01*
X138094225Y-118366854D01*
X138077962Y-118347038D01*
X138071406Y-118341658D01*
X138151185Y-118276185D01*
X138183226Y-118237143D01*
X138198891Y-118250000D01*
G37*
G04 #@! TD.AperFunction*
D20*
X133672038Y-118227962D02*
X133698891Y-118250000D01*
X133672038Y-118272038D01*
X133614742Y-118341854D01*
X133577962Y-118297038D01*
X133571406Y-118291658D01*
X133651185Y-118226185D01*
X133660882Y-118214369D01*
X133672038Y-118227962D01*
G04 #@! TA.AperFunction,Conductor*
D21*
G36*
X133672038Y-118227962D02*
G01*
X133698891Y-118250000D01*
X133672038Y-118272038D01*
X133614742Y-118341854D01*
X133577962Y-118297038D01*
X133571406Y-118291658D01*
X133651185Y-118226185D01*
X133660882Y-118214369D01*
X133672038Y-118227962D01*
G37*
G04 #@! TD.AperFunction*
D20*
X137127000Y-117123000D02*
X137147000Y-117123000D01*
X137147000Y-117377000D01*
X137127000Y-117377000D01*
X137127000Y-117397000D01*
X136873000Y-117397000D01*
X136873000Y-117377000D01*
X136853000Y-117377000D01*
X136853000Y-117123000D01*
X136873000Y-117123000D01*
X136873000Y-117103000D01*
X137127000Y-117103000D01*
X137127000Y-117123000D01*
G04 #@! TA.AperFunction,Conductor*
D21*
G36*
X137127000Y-117123000D02*
G01*
X137147000Y-117123000D01*
X137147000Y-117377000D01*
X137127000Y-117377000D01*
X137127000Y-117397000D01*
X136873000Y-117397000D01*
X136873000Y-117377000D01*
X136853000Y-117377000D01*
X136853000Y-117123000D01*
X136873000Y-117123000D01*
X136873000Y-117103000D01*
X137127000Y-117103000D01*
X137127000Y-117123000D01*
G37*
G04 #@! TD.AperFunction*
D20*
X142345951Y-116055701D02*
X142324482Y-116049188D01*
X142200000Y-116036928D01*
X141785750Y-116040000D01*
X141627000Y-116198750D01*
X141627000Y-117123000D01*
X141647000Y-117123000D01*
X141647000Y-117377000D01*
X141627000Y-117377000D01*
X141627000Y-117397000D01*
X141373000Y-117397000D01*
X141373000Y-117377000D01*
X141353000Y-117377000D01*
X141353000Y-117123000D01*
X141373000Y-117123000D01*
X141373000Y-116198750D01*
X141214250Y-116040000D01*
X140800000Y-116036928D01*
X140675518Y-116049188D01*
X140555820Y-116085498D01*
X140445506Y-116144463D01*
X140348815Y-116223815D01*
X140316774Y-116262857D01*
X140193387Y-116161595D01*
X140039851Y-116079528D01*
X139873255Y-116028992D01*
X139700001Y-116011928D01*
X139016020Y-116011928D01*
X138658141Y-115654050D01*
X142345951Y-115654050D01*
X142345951Y-116055701D01*
G04 #@! TA.AperFunction,Conductor*
D21*
G36*
X142345951Y-116055701D02*
G01*
X142324482Y-116049188D01*
X142200000Y-116036928D01*
X141785750Y-116040000D01*
X141627000Y-116198750D01*
X141627000Y-117123000D01*
X141647000Y-117123000D01*
X141647000Y-117377000D01*
X141627000Y-117377000D01*
X141627000Y-117397000D01*
X141373000Y-117397000D01*
X141373000Y-117377000D01*
X141353000Y-117377000D01*
X141353000Y-117123000D01*
X141373000Y-117123000D01*
X141373000Y-116198750D01*
X141214250Y-116040000D01*
X140800000Y-116036928D01*
X140675518Y-116049188D01*
X140555820Y-116085498D01*
X140445506Y-116144463D01*
X140348815Y-116223815D01*
X140316774Y-116262857D01*
X140193387Y-116161595D01*
X140039851Y-116079528D01*
X139873255Y-116028992D01*
X139700001Y-116011928D01*
X139016020Y-116011928D01*
X138658141Y-115654050D01*
X142345951Y-115654050D01*
X142345951Y-116055701D01*
G37*
G04 #@! TD.AperFunction*
D20*
X130377000Y-117073000D02*
X132373000Y-117073000D01*
X132373000Y-117053000D01*
X132627000Y-117053000D01*
X132627000Y-117073000D01*
X132647000Y-117073000D01*
X132647000Y-117327000D01*
X132627000Y-117327000D01*
X132627000Y-117347000D01*
X132373000Y-117347000D01*
X132373000Y-117327000D01*
X130377000Y-117327000D01*
X130377000Y-117347000D01*
X130123000Y-117347000D01*
X130123000Y-117327000D01*
X130103000Y-117327000D01*
X130103000Y-117073000D01*
X130123000Y-117073000D01*
X130123000Y-117053000D01*
X130377000Y-117053000D01*
X130377000Y-117073000D01*
G04 #@! TA.AperFunction,Conductor*
D21*
G36*
X130377000Y-117073000D02*
G01*
X132373000Y-117073000D01*
X132373000Y-117053000D01*
X132627000Y-117053000D01*
X132627000Y-117073000D01*
X132647000Y-117073000D01*
X132647000Y-117327000D01*
X132627000Y-117327000D01*
X132627000Y-117347000D01*
X132373000Y-117347000D01*
X132373000Y-117327000D01*
X130377000Y-117327000D01*
X130377000Y-117347000D01*
X130123000Y-117347000D01*
X130123000Y-117327000D01*
X130103000Y-117327000D01*
X130103000Y-117073000D01*
X130123000Y-117073000D01*
X130123000Y-117053000D01*
X130377000Y-117053000D01*
X130377000Y-117073000D01*
G37*
G04 #@! TD.AperFunction*
M02*
