%FSLAX45Y45*%
G04 Gerber Fmt 4.5, Leading zero omitted, Abs format (unit mm)*
G04 Created by KiCad (PCBNEW (5.1.10)-1) date 2022-05-27 15:53:35*
%MOMM*%
%LPD*%
G01*
G04 APERTURE LIST*
%TA.AperFunction,Profile*%
%ADD10C,0.038100*%
%TD*%
%ADD11C,0.200000*%
%ADD12C,0.300000*%
G04 APERTURE END LIST*
D10*
X14300000Y-11500000D02*
X10100000Y-11500000D01*
X14300000Y-13500000D02*
X14300000Y-11500000D01*
X10100000Y-13500000D02*
X14300000Y-13500000D01*
X10100000Y-11500000D02*
X10100000Y-13500000D01*
D11*
D12*
X10384523Y-13967619D02*
X10384523Y-13667619D01*
X10455952Y-13667619D01*
X10498809Y-13681905D01*
X10527381Y-13710476D01*
X10541666Y-13739048D01*
X10555952Y-13796191D01*
X10555952Y-13839048D01*
X10541666Y-13896191D01*
X10527381Y-13924762D01*
X10498809Y-13953334D01*
X10455952Y-13967619D01*
X10384523Y-13967619D01*
X10684523Y-13967619D02*
X10684523Y-13767619D01*
X10684523Y-13824762D02*
X10698809Y-13796191D01*
X10713095Y-13781905D01*
X10741666Y-13767619D01*
X10770238Y-13767619D01*
X10870238Y-13967619D02*
X10870238Y-13767619D01*
X10870238Y-13667619D02*
X10855952Y-13681905D01*
X10870238Y-13696191D01*
X10884523Y-13681905D01*
X10870238Y-13667619D01*
X10870238Y-13696191D01*
X11055952Y-13967619D02*
X11027381Y-13953334D01*
X11013095Y-13924762D01*
X11013095Y-13667619D01*
X11213095Y-13967619D02*
X11184523Y-13953334D01*
X11170238Y-13924762D01*
X11170238Y-13667619D01*
X11555952Y-13967619D02*
X11555952Y-13667619D01*
X11655952Y-13881905D01*
X11755952Y-13667619D01*
X11755952Y-13967619D01*
X12027381Y-13967619D02*
X12027381Y-13810476D01*
X12013095Y-13781905D01*
X11984523Y-13767619D01*
X11927381Y-13767619D01*
X11898809Y-13781905D01*
X12027381Y-13953334D02*
X11998809Y-13967619D01*
X11927381Y-13967619D01*
X11898809Y-13953334D01*
X11884523Y-13924762D01*
X11884523Y-13896191D01*
X11898809Y-13867619D01*
X11927381Y-13853334D01*
X11998809Y-13853334D01*
X12027381Y-13839048D01*
X12170238Y-13767619D02*
X12170238Y-14067619D01*
X12170238Y-13781905D02*
X12198809Y-13767619D01*
X12255952Y-13767619D01*
X12284523Y-13781905D01*
X12298809Y-13796191D01*
X12313095Y-13824762D01*
X12313095Y-13910476D01*
X12298809Y-13939048D01*
X12284523Y-13953334D01*
X12255952Y-13967619D01*
X12198809Y-13967619D01*
X12170238Y-13953334D01*
X12441666Y-13939048D02*
X12455952Y-13953334D01*
X12441666Y-13967619D01*
X12427381Y-13953334D01*
X12441666Y-13939048D01*
X12441666Y-13967619D01*
X12441666Y-13781905D02*
X12455952Y-13796191D01*
X12441666Y-13810476D01*
X12427381Y-13796191D01*
X12441666Y-13781905D01*
X12441666Y-13810476D01*
M02*
