M48
; DRILL file {KiCad (5.1.10)-1} date 05/27/22 15:53:34
; FORMAT={-:-/ absolute / metric / decimal}
; #@! TF.CreationDate,2022-05-27T15:53:34+02:00
; #@! TF.GenerationSoftware,Kicad,Pcbnew,(5.1.10)-1
; #@! TF.FileFunction,Plated,1,2,PTH
FMAT,2
METRIC
T1C0.300
T2C0.920
T3C1.000
T4C2.300
%
G90
G05
T1
X102.75Y-123.0
X105.0Y-127.0
X107.25Y-133.75
X107.718Y-120.968
X108.0Y-123.0
X108.25Y-126.25
X110.75Y-118.25
X110.75Y-131.0
X111.5Y-125.75
X113.25Y-131.0
X113.75Y-123.75
X113.75Y-126.0
X114.75Y-129.75
X114.75Y-131.75
X116.0Y-126.25
X116.5Y-121.75
X116.75Y-117.0
X116.75Y-123.5
X120.75Y-116.25
X120.75Y-119.5
X121.25Y-128.5
X121.5Y-132.25
X121.75Y-122.25
X125.5Y-133.75
X125.75Y-120.75
X127.0Y-129.75
X127.25Y-116.0
X129.0Y-127.5
X129.75Y-115.675
X132.5Y-120.75
X133.0Y-124.75
X134.0Y-121.0
X138.0Y-121.0
X138.75Y-125.75
X140.5Y-115.75
X140.5Y-121.5
T2
X106.5Y-121.5
X106.5Y-124.0
X106.5Y-126.0
X106.5Y-128.5
T3
X111.0Y-133.0
X113.54Y-133.0
X116.08Y-133.0
X118.62Y-133.0
T4
X103.79Y-118.43
X103.79Y-131.57
T0
M30
