%FSLAX45Y45*%
G04 Gerber Fmt 4.5, Leading zero omitted, Abs format (unit mm)*
G04 Created by KiCad (PCBNEW (5.1.10)-1) date 2022-05-27 15:53:35*
%MOMM*%
%LPD*%
G01*
G04 APERTURE LIST*
%TA.AperFunction,Profile*%
%ADD10C,0.038100*%
%TD*%
%ADD11C,0.200000*%
%ADD12C,0.300000*%
G04 APERTURE END LIST*
D10*
X14300000Y-11500000D02*
X10100000Y-11500000D01*
X14300000Y-13500000D02*
X14300000Y-11500000D01*
X10100000Y-13500000D02*
X14300000Y-13500000D01*
X10100000Y-11500000D02*
X10100000Y-13500000D01*
D11*
X10260000Y-12285000D02*
X10290000Y-12315000D01*
X10290000Y-12285000D02*
X10260000Y-12315000D01*
X10485000Y-12685000D02*
X10515000Y-12715000D01*
X10515000Y-12685000D02*
X10485000Y-12715000D01*
X10710000Y-13360000D02*
X10740000Y-13390000D01*
X10740000Y-13360000D02*
X10710000Y-13390000D01*
X10756841Y-12081841D02*
X10786841Y-12111841D01*
X10786841Y-12081841D02*
X10756841Y-12111841D01*
X10785000Y-12285000D02*
X10815000Y-12315000D01*
X10815000Y-12285000D02*
X10785000Y-12315000D01*
X10810000Y-12610000D02*
X10840000Y-12640000D01*
X10840000Y-12610000D02*
X10810000Y-12640000D01*
X11060000Y-11810000D02*
X11090000Y-11840000D01*
X11090000Y-11810000D02*
X11060000Y-11840000D01*
X11060000Y-13085000D02*
X11090000Y-13115000D01*
X11090000Y-13085000D02*
X11060000Y-13115000D01*
X11135000Y-12560000D02*
X11165000Y-12590000D01*
X11165000Y-12560000D02*
X11135000Y-12590000D01*
X11310000Y-13085000D02*
X11340000Y-13115000D01*
X11340000Y-13085000D02*
X11310000Y-13115000D01*
X11360000Y-12360000D02*
X11390000Y-12390000D01*
X11390000Y-12360000D02*
X11360000Y-12390000D01*
X11360000Y-12585000D02*
X11390000Y-12615000D01*
X11390000Y-12585000D02*
X11360000Y-12615000D01*
X11460000Y-12960000D02*
X11490000Y-12990000D01*
X11490000Y-12960000D02*
X11460000Y-12990000D01*
X11460000Y-13160000D02*
X11490000Y-13190000D01*
X11490000Y-13160000D02*
X11460000Y-13190000D01*
X11585000Y-12610000D02*
X11615000Y-12640000D01*
X11615000Y-12610000D02*
X11585000Y-12640000D01*
X11635000Y-12160000D02*
X11665000Y-12190000D01*
X11665000Y-12160000D02*
X11635000Y-12190000D01*
X11660000Y-11685000D02*
X11690000Y-11715000D01*
X11690000Y-11685000D02*
X11660000Y-11715000D01*
X11660000Y-12335000D02*
X11690000Y-12365000D01*
X11690000Y-12335000D02*
X11660000Y-12365000D01*
X12060000Y-11610000D02*
X12090000Y-11640000D01*
X12090000Y-11610000D02*
X12060000Y-11640000D01*
X12060000Y-11935000D02*
X12090000Y-11965000D01*
X12090000Y-11935000D02*
X12060000Y-11965000D01*
X12110000Y-12835000D02*
X12140000Y-12865000D01*
X12140000Y-12835000D02*
X12110000Y-12865000D01*
X12135000Y-13210000D02*
X12165000Y-13240000D01*
X12165000Y-13210000D02*
X12135000Y-13240000D01*
X12160000Y-12210000D02*
X12190000Y-12240000D01*
X12190000Y-12210000D02*
X12160000Y-12240000D01*
X12535000Y-13360000D02*
X12565000Y-13390000D01*
X12565000Y-13360000D02*
X12535000Y-13390000D01*
X12560000Y-12060000D02*
X12590000Y-12090000D01*
X12590000Y-12060000D02*
X12560000Y-12090000D01*
X12685000Y-12960000D02*
X12715000Y-12990000D01*
X12715000Y-12960000D02*
X12685000Y-12990000D01*
X12710000Y-11585000D02*
X12740000Y-11615000D01*
X12740000Y-11585000D02*
X12710000Y-11615000D01*
X12885000Y-12735000D02*
X12915000Y-12765000D01*
X12915000Y-12735000D02*
X12885000Y-12765000D01*
X12960000Y-11552500D02*
X12990000Y-11582500D01*
X12990000Y-11552500D02*
X12960000Y-11582500D01*
X13235000Y-12060000D02*
X13265000Y-12090000D01*
X13265000Y-12060000D02*
X13235000Y-12090000D01*
X13285000Y-12460000D02*
X13315000Y-12490000D01*
X13315000Y-12460000D02*
X13285000Y-12490000D01*
X13385000Y-12085000D02*
X13415000Y-12115000D01*
X13415000Y-12085000D02*
X13385000Y-12115000D01*
X13785000Y-12085000D02*
X13815000Y-12115000D01*
X13815000Y-12085000D02*
X13785000Y-12115000D01*
X13860000Y-12560000D02*
X13890000Y-12590000D01*
X13890000Y-12560000D02*
X13860000Y-12590000D01*
X14035000Y-11560000D02*
X14065000Y-11590000D01*
X14065000Y-11560000D02*
X14035000Y-11590000D01*
X14035000Y-12135000D02*
X14065000Y-12165000D01*
X14065000Y-12135000D02*
X14035000Y-12165000D01*
X10696000Y-12150000D02*
G75*
G03*
X10696000Y-12150000I-46000J0D01*
G01*
X10696000Y-12400000D02*
G75*
G03*
X10696000Y-12400000I-46000J0D01*
G01*
X10696000Y-12600000D02*
G75*
G03*
X10696000Y-12600000I-46000J0D01*
G01*
X10696000Y-12850000D02*
G75*
G03*
X10696000Y-12850000I-46000J0D01*
G01*
X11100000Y-13250000D02*
X11100000Y-13350000D01*
X11050000Y-13300000D02*
X11150000Y-13300000D01*
X11354000Y-13250000D02*
X11354000Y-13350000D01*
X11304000Y-13300000D02*
X11404000Y-13300000D01*
X11608000Y-13250000D02*
X11608000Y-13350000D01*
X11558000Y-13300000D02*
X11658000Y-13300000D01*
X11862000Y-13250000D02*
X11862000Y-13350000D01*
X11812000Y-13300000D02*
X11912000Y-13300000D01*
X10460318Y-11924318D02*
X10460318Y-11761682D01*
X10297682Y-11761682D01*
X10297682Y-11924318D01*
X10460318Y-11924318D01*
X10460318Y-13238318D02*
X10460318Y-13075682D01*
X10297682Y-13075682D01*
X10297682Y-13238318D01*
X10460318Y-13238318D01*
D12*
X10384523Y-13967619D02*
X10384523Y-13667619D01*
X10455952Y-13667619D01*
X10498809Y-13681905D01*
X10527381Y-13710476D01*
X10541666Y-13739048D01*
X10555952Y-13796191D01*
X10555952Y-13839048D01*
X10541666Y-13896191D01*
X10527381Y-13924762D01*
X10498809Y-13953334D01*
X10455952Y-13967619D01*
X10384523Y-13967619D01*
X10684523Y-13967619D02*
X10684523Y-13767619D01*
X10684523Y-13824762D02*
X10698809Y-13796191D01*
X10713095Y-13781905D01*
X10741666Y-13767619D01*
X10770238Y-13767619D01*
X10870238Y-13967619D02*
X10870238Y-13767619D01*
X10870238Y-13667619D02*
X10855952Y-13681905D01*
X10870238Y-13696191D01*
X10884523Y-13681905D01*
X10870238Y-13667619D01*
X10870238Y-13696191D01*
X11055952Y-13967619D02*
X11027381Y-13953334D01*
X11013095Y-13924762D01*
X11013095Y-13667619D01*
X11213095Y-13967619D02*
X11184523Y-13953334D01*
X11170238Y-13924762D01*
X11170238Y-13667619D01*
X11555952Y-13967619D02*
X11555952Y-13667619D01*
X11655952Y-13881905D01*
X11755952Y-13667619D01*
X11755952Y-13967619D01*
X12027381Y-13967619D02*
X12027381Y-13810476D01*
X12013095Y-13781905D01*
X11984523Y-13767619D01*
X11927381Y-13767619D01*
X11898809Y-13781905D01*
X12027381Y-13953334D02*
X11998809Y-13967619D01*
X11927381Y-13967619D01*
X11898809Y-13953334D01*
X11884523Y-13924762D01*
X11884523Y-13896191D01*
X11898809Y-13867619D01*
X11927381Y-13853334D01*
X11998809Y-13853334D01*
X12027381Y-13839048D01*
X12170238Y-13767619D02*
X12170238Y-14067619D01*
X12170238Y-13781905D02*
X12198809Y-13767619D01*
X12255952Y-13767619D01*
X12284523Y-13781905D01*
X12298809Y-13796191D01*
X12313095Y-13824762D01*
X12313095Y-13910476D01*
X12298809Y-13939048D01*
X12284523Y-13953334D01*
X12255952Y-13967619D01*
X12198809Y-13967619D01*
X12170238Y-13953334D01*
X12441666Y-13939048D02*
X12455952Y-13953334D01*
X12441666Y-13967619D01*
X12427381Y-13953334D01*
X12441666Y-13939048D01*
X12441666Y-13967619D01*
X12441666Y-13781905D02*
X12455952Y-13796191D01*
X12441666Y-13810476D01*
X12427381Y-13796191D01*
X12441666Y-13781905D01*
X12441666Y-13810476D01*
X10068095Y-14446905D02*
X10098095Y-14476905D01*
X10098095Y-14446905D02*
X10068095Y-14476905D01*
X10441666Y-14297619D02*
X10470238Y-14297619D01*
X10498809Y-14311905D01*
X10513095Y-14326191D01*
X10527381Y-14354762D01*
X10541666Y-14411905D01*
X10541666Y-14483334D01*
X10527381Y-14540476D01*
X10513095Y-14569048D01*
X10498809Y-14583334D01*
X10470238Y-14597619D01*
X10441666Y-14597619D01*
X10413095Y-14583334D01*
X10398809Y-14569048D01*
X10384523Y-14540476D01*
X10370238Y-14483334D01*
X10370238Y-14411905D01*
X10384523Y-14354762D01*
X10398809Y-14326191D01*
X10413095Y-14311905D01*
X10441666Y-14297619D01*
X10670238Y-14569048D02*
X10684523Y-14583334D01*
X10670238Y-14597619D01*
X10655952Y-14583334D01*
X10670238Y-14569048D01*
X10670238Y-14597619D01*
X10784523Y-14297619D02*
X10970238Y-14297619D01*
X10870238Y-14411905D01*
X10913095Y-14411905D01*
X10941666Y-14426191D01*
X10955952Y-14440476D01*
X10970238Y-14469048D01*
X10970238Y-14540476D01*
X10955952Y-14569048D01*
X10941666Y-14583334D01*
X10913095Y-14597619D01*
X10827381Y-14597619D01*
X10798809Y-14583334D01*
X10784523Y-14569048D01*
X11155952Y-14297619D02*
X11184523Y-14297619D01*
X11213095Y-14311905D01*
X11227381Y-14326191D01*
X11241666Y-14354762D01*
X11255952Y-14411905D01*
X11255952Y-14483334D01*
X11241666Y-14540476D01*
X11227381Y-14569048D01*
X11213095Y-14583334D01*
X11184523Y-14597619D01*
X11155952Y-14597619D01*
X11127381Y-14583334D01*
X11113095Y-14569048D01*
X11098809Y-14540476D01*
X11084523Y-14483334D01*
X11084523Y-14411905D01*
X11098809Y-14354762D01*
X11113095Y-14326191D01*
X11127381Y-14311905D01*
X11155952Y-14297619D01*
X11441666Y-14297619D02*
X11470238Y-14297619D01*
X11498809Y-14311905D01*
X11513095Y-14326191D01*
X11527381Y-14354762D01*
X11541666Y-14411905D01*
X11541666Y-14483334D01*
X11527381Y-14540476D01*
X11513095Y-14569048D01*
X11498809Y-14583334D01*
X11470238Y-14597619D01*
X11441666Y-14597619D01*
X11413095Y-14583334D01*
X11398809Y-14569048D01*
X11384523Y-14540476D01*
X11370238Y-14483334D01*
X11370238Y-14411905D01*
X11384523Y-14354762D01*
X11398809Y-14326191D01*
X11413095Y-14311905D01*
X11441666Y-14297619D01*
X11670238Y-14597619D02*
X11670238Y-14397619D01*
X11670238Y-14426191D02*
X11684523Y-14411905D01*
X11713095Y-14397619D01*
X11755952Y-14397619D01*
X11784523Y-14411905D01*
X11798809Y-14440476D01*
X11798809Y-14597619D01*
X11798809Y-14440476D02*
X11813095Y-14411905D01*
X11841666Y-14397619D01*
X11884523Y-14397619D01*
X11913095Y-14411905D01*
X11927381Y-14440476D01*
X11927381Y-14597619D01*
X12070238Y-14597619D02*
X12070238Y-14397619D01*
X12070238Y-14426191D02*
X12084523Y-14411905D01*
X12113095Y-14397619D01*
X12155952Y-14397619D01*
X12184523Y-14411905D01*
X12198809Y-14440476D01*
X12198809Y-14597619D01*
X12198809Y-14440476D02*
X12213095Y-14411905D01*
X12241666Y-14397619D01*
X12284523Y-14397619D01*
X12313095Y-14411905D01*
X12327381Y-14440476D01*
X12327381Y-14597619D01*
X12913095Y-14283334D02*
X12655952Y-14669048D01*
X13298809Y-14297619D02*
X13327381Y-14297619D01*
X13355952Y-14311905D01*
X13370238Y-14326191D01*
X13384523Y-14354762D01*
X13398809Y-14411905D01*
X13398809Y-14483334D01*
X13384523Y-14540476D01*
X13370238Y-14569048D01*
X13355952Y-14583334D01*
X13327381Y-14597619D01*
X13298809Y-14597619D01*
X13270238Y-14583334D01*
X13255952Y-14569048D01*
X13241666Y-14540476D01*
X13227381Y-14483334D01*
X13227381Y-14411905D01*
X13241666Y-14354762D01*
X13255952Y-14326191D01*
X13270238Y-14311905D01*
X13298809Y-14297619D01*
X13527381Y-14569048D02*
X13541666Y-14583334D01*
X13527381Y-14597619D01*
X13513095Y-14583334D01*
X13527381Y-14569048D01*
X13527381Y-14597619D01*
X13727381Y-14297619D02*
X13755952Y-14297619D01*
X13784523Y-14311905D01*
X13798809Y-14326191D01*
X13813095Y-14354762D01*
X13827381Y-14411905D01*
X13827381Y-14483334D01*
X13813095Y-14540476D01*
X13798809Y-14569048D01*
X13784523Y-14583334D01*
X13755952Y-14597619D01*
X13727381Y-14597619D01*
X13698809Y-14583334D01*
X13684523Y-14569048D01*
X13670238Y-14540476D01*
X13655952Y-14483334D01*
X13655952Y-14411905D01*
X13670238Y-14354762D01*
X13684523Y-14326191D01*
X13698809Y-14311905D01*
X13727381Y-14297619D01*
X14113095Y-14597619D02*
X13941666Y-14597619D01*
X14027381Y-14597619D02*
X14027381Y-14297619D01*
X13998809Y-14340476D01*
X13970238Y-14369048D01*
X13941666Y-14383334D01*
X14398809Y-14597619D02*
X14227381Y-14597619D01*
X14313095Y-14597619D02*
X14313095Y-14297619D01*
X14284523Y-14340476D01*
X14255952Y-14369048D01*
X14227381Y-14383334D01*
X14570238Y-14426191D02*
X14541666Y-14411905D01*
X14527381Y-14397619D01*
X14513095Y-14369048D01*
X14513095Y-14354762D01*
X14527381Y-14326191D01*
X14541666Y-14311905D01*
X14570238Y-14297619D01*
X14627381Y-14297619D01*
X14655952Y-14311905D01*
X14670238Y-14326191D01*
X14684523Y-14354762D01*
X14684523Y-14369048D01*
X14670238Y-14397619D01*
X14655952Y-14411905D01*
X14627381Y-14426191D01*
X14570238Y-14426191D01*
X14541666Y-14440476D01*
X14527381Y-14454762D01*
X14513095Y-14483334D01*
X14513095Y-14540476D01*
X14527381Y-14569048D01*
X14541666Y-14583334D01*
X14570238Y-14597619D01*
X14627381Y-14597619D01*
X14655952Y-14583334D01*
X14670238Y-14569048D01*
X14684523Y-14540476D01*
X14684523Y-14483334D01*
X14670238Y-14454762D01*
X14655952Y-14440476D01*
X14627381Y-14426191D01*
X14798809Y-14297619D02*
X14798809Y-14354762D01*
X14913095Y-14297619D02*
X14913095Y-14354762D01*
X15355952Y-14711905D02*
X15341666Y-14697619D01*
X15313095Y-14654762D01*
X15298809Y-14626191D01*
X15284523Y-14583334D01*
X15270238Y-14511905D01*
X15270238Y-14454762D01*
X15284523Y-14383334D01*
X15298809Y-14340476D01*
X15313095Y-14311905D01*
X15341666Y-14269048D01*
X15355952Y-14254762D01*
X15441666Y-14297619D02*
X15627381Y-14297619D01*
X15527381Y-14411905D01*
X15570238Y-14411905D01*
X15598809Y-14426191D01*
X15613095Y-14440476D01*
X15627381Y-14469048D01*
X15627381Y-14540476D01*
X15613095Y-14569048D01*
X15598809Y-14583334D01*
X15570238Y-14597619D01*
X15484523Y-14597619D01*
X15455952Y-14583334D01*
X15441666Y-14569048D01*
X15884523Y-14297619D02*
X15827381Y-14297619D01*
X15798809Y-14311905D01*
X15784523Y-14326191D01*
X15755952Y-14369048D01*
X15741666Y-14426191D01*
X15741666Y-14540476D01*
X15755952Y-14569048D01*
X15770238Y-14583334D01*
X15798809Y-14597619D01*
X15855952Y-14597619D01*
X15884523Y-14583334D01*
X15898809Y-14569048D01*
X15913095Y-14540476D01*
X15913095Y-14469048D01*
X15898809Y-14440476D01*
X15884523Y-14426191D01*
X15855952Y-14411905D01*
X15798809Y-14411905D01*
X15770238Y-14426191D01*
X15755952Y-14440476D01*
X15741666Y-14469048D01*
X16270238Y-14597619D02*
X16270238Y-14297619D01*
X16398809Y-14597619D02*
X16398809Y-14440476D01*
X16384523Y-14411905D01*
X16355952Y-14397619D01*
X16313095Y-14397619D01*
X16284523Y-14411905D01*
X16270238Y-14426191D01*
X16584523Y-14597619D02*
X16555952Y-14583334D01*
X16541666Y-14569048D01*
X16527381Y-14540476D01*
X16527381Y-14454762D01*
X16541666Y-14426191D01*
X16555952Y-14411905D01*
X16584523Y-14397619D01*
X16627381Y-14397619D01*
X16655952Y-14411905D01*
X16670238Y-14426191D01*
X16684523Y-14454762D01*
X16684523Y-14540476D01*
X16670238Y-14569048D01*
X16655952Y-14583334D01*
X16627381Y-14597619D01*
X16584523Y-14597619D01*
X16855952Y-14597619D02*
X16827381Y-14583334D01*
X16813095Y-14554762D01*
X16813095Y-14297619D01*
X17084523Y-14583334D02*
X17055952Y-14597619D01*
X16998809Y-14597619D01*
X16970238Y-14583334D01*
X16955952Y-14554762D01*
X16955952Y-14440476D01*
X16970238Y-14411905D01*
X16998809Y-14397619D01*
X17055952Y-14397619D01*
X17084523Y-14411905D01*
X17098809Y-14440476D01*
X17098809Y-14469048D01*
X16955952Y-14497619D01*
X17213095Y-14583334D02*
X17241666Y-14597619D01*
X17298809Y-14597619D01*
X17327381Y-14583334D01*
X17341666Y-14554762D01*
X17341666Y-14540476D01*
X17327381Y-14511905D01*
X17298809Y-14497619D01*
X17255952Y-14497619D01*
X17227381Y-14483334D01*
X17213095Y-14454762D01*
X17213095Y-14440476D01*
X17227381Y-14411905D01*
X17255952Y-14397619D01*
X17298809Y-14397619D01*
X17327381Y-14411905D01*
X17441666Y-14711905D02*
X17455952Y-14697619D01*
X17484523Y-14654762D01*
X17498809Y-14626191D01*
X17513095Y-14583334D01*
X17527381Y-14511905D01*
X17527381Y-14454762D01*
X17513095Y-14383334D01*
X17498809Y-14340476D01*
X17484523Y-14311905D01*
X17455952Y-14269048D01*
X17441666Y-14254762D01*
X10098095Y-14857905D02*
G75*
G03*
X10098095Y-14857905I-46000J0D01*
G01*
X10441666Y-14693619D02*
X10470238Y-14693619D01*
X10498809Y-14707905D01*
X10513095Y-14722191D01*
X10527381Y-14750762D01*
X10541666Y-14807905D01*
X10541666Y-14879334D01*
X10527381Y-14936476D01*
X10513095Y-14965048D01*
X10498809Y-14979334D01*
X10470238Y-14993619D01*
X10441666Y-14993619D01*
X10413095Y-14979334D01*
X10398809Y-14965048D01*
X10384523Y-14936476D01*
X10370238Y-14879334D01*
X10370238Y-14807905D01*
X10384523Y-14750762D01*
X10398809Y-14722191D01*
X10413095Y-14707905D01*
X10441666Y-14693619D01*
X10670238Y-14965048D02*
X10684523Y-14979334D01*
X10670238Y-14993619D01*
X10655952Y-14979334D01*
X10670238Y-14965048D01*
X10670238Y-14993619D01*
X10827381Y-14993619D02*
X10884523Y-14993619D01*
X10913095Y-14979334D01*
X10927381Y-14965048D01*
X10955952Y-14922191D01*
X10970238Y-14865048D01*
X10970238Y-14750762D01*
X10955952Y-14722191D01*
X10941666Y-14707905D01*
X10913095Y-14693619D01*
X10855952Y-14693619D01*
X10827381Y-14707905D01*
X10813095Y-14722191D01*
X10798809Y-14750762D01*
X10798809Y-14822191D01*
X10813095Y-14850762D01*
X10827381Y-14865048D01*
X10855952Y-14879334D01*
X10913095Y-14879334D01*
X10941666Y-14865048D01*
X10955952Y-14850762D01*
X10970238Y-14822191D01*
X11084523Y-14722191D02*
X11098809Y-14707905D01*
X11127381Y-14693619D01*
X11198809Y-14693619D01*
X11227381Y-14707905D01*
X11241666Y-14722191D01*
X11255952Y-14750762D01*
X11255952Y-14779334D01*
X11241666Y-14822191D01*
X11070238Y-14993619D01*
X11255952Y-14993619D01*
X11441666Y-14693619D02*
X11470238Y-14693619D01*
X11498809Y-14707905D01*
X11513095Y-14722191D01*
X11527381Y-14750762D01*
X11541666Y-14807905D01*
X11541666Y-14879334D01*
X11527381Y-14936476D01*
X11513095Y-14965048D01*
X11498809Y-14979334D01*
X11470238Y-14993619D01*
X11441666Y-14993619D01*
X11413095Y-14979334D01*
X11398809Y-14965048D01*
X11384523Y-14936476D01*
X11370238Y-14879334D01*
X11370238Y-14807905D01*
X11384523Y-14750762D01*
X11398809Y-14722191D01*
X11413095Y-14707905D01*
X11441666Y-14693619D01*
X11670238Y-14993619D02*
X11670238Y-14793619D01*
X11670238Y-14822191D02*
X11684523Y-14807905D01*
X11713095Y-14793619D01*
X11755952Y-14793619D01*
X11784523Y-14807905D01*
X11798809Y-14836476D01*
X11798809Y-14993619D01*
X11798809Y-14836476D02*
X11813095Y-14807905D01*
X11841666Y-14793619D01*
X11884523Y-14793619D01*
X11913095Y-14807905D01*
X11927381Y-14836476D01*
X11927381Y-14993619D01*
X12070238Y-14993619D02*
X12070238Y-14793619D01*
X12070238Y-14822191D02*
X12084523Y-14807905D01*
X12113095Y-14793619D01*
X12155952Y-14793619D01*
X12184523Y-14807905D01*
X12198809Y-14836476D01*
X12198809Y-14993619D01*
X12198809Y-14836476D02*
X12213095Y-14807905D01*
X12241666Y-14793619D01*
X12284523Y-14793619D01*
X12313095Y-14807905D01*
X12327381Y-14836476D01*
X12327381Y-14993619D01*
X12913095Y-14679334D02*
X12655952Y-15065048D01*
X13298809Y-14693619D02*
X13327381Y-14693619D01*
X13355952Y-14707905D01*
X13370238Y-14722191D01*
X13384523Y-14750762D01*
X13398809Y-14807905D01*
X13398809Y-14879334D01*
X13384523Y-14936476D01*
X13370238Y-14965048D01*
X13355952Y-14979334D01*
X13327381Y-14993619D01*
X13298809Y-14993619D01*
X13270238Y-14979334D01*
X13255952Y-14965048D01*
X13241666Y-14936476D01*
X13227381Y-14879334D01*
X13227381Y-14807905D01*
X13241666Y-14750762D01*
X13255952Y-14722191D01*
X13270238Y-14707905D01*
X13298809Y-14693619D01*
X13527381Y-14965048D02*
X13541666Y-14979334D01*
X13527381Y-14993619D01*
X13513095Y-14979334D01*
X13527381Y-14965048D01*
X13527381Y-14993619D01*
X13727381Y-14693619D02*
X13755952Y-14693619D01*
X13784523Y-14707905D01*
X13798809Y-14722191D01*
X13813095Y-14750762D01*
X13827381Y-14807905D01*
X13827381Y-14879334D01*
X13813095Y-14936476D01*
X13798809Y-14965048D01*
X13784523Y-14979334D01*
X13755952Y-14993619D01*
X13727381Y-14993619D01*
X13698809Y-14979334D01*
X13684523Y-14965048D01*
X13670238Y-14936476D01*
X13655952Y-14879334D01*
X13655952Y-14807905D01*
X13670238Y-14750762D01*
X13684523Y-14722191D01*
X13698809Y-14707905D01*
X13727381Y-14693619D01*
X13927381Y-14693619D02*
X14113095Y-14693619D01*
X14013095Y-14807905D01*
X14055952Y-14807905D01*
X14084523Y-14822191D01*
X14098809Y-14836476D01*
X14113095Y-14865048D01*
X14113095Y-14936476D01*
X14098809Y-14965048D01*
X14084523Y-14979334D01*
X14055952Y-14993619D01*
X13970238Y-14993619D01*
X13941666Y-14979334D01*
X13927381Y-14965048D01*
X14370238Y-14693619D02*
X14313095Y-14693619D01*
X14284523Y-14707905D01*
X14270238Y-14722191D01*
X14241666Y-14765048D01*
X14227381Y-14822191D01*
X14227381Y-14936476D01*
X14241666Y-14965048D01*
X14255952Y-14979334D01*
X14284523Y-14993619D01*
X14341666Y-14993619D01*
X14370238Y-14979334D01*
X14384523Y-14965048D01*
X14398809Y-14936476D01*
X14398809Y-14865048D01*
X14384523Y-14836476D01*
X14370238Y-14822191D01*
X14341666Y-14807905D01*
X14284523Y-14807905D01*
X14255952Y-14822191D01*
X14241666Y-14836476D01*
X14227381Y-14865048D01*
X14513095Y-14722191D02*
X14527381Y-14707905D01*
X14555952Y-14693619D01*
X14627381Y-14693619D01*
X14655952Y-14707905D01*
X14670238Y-14722191D01*
X14684523Y-14750762D01*
X14684523Y-14779334D01*
X14670238Y-14822191D01*
X14498809Y-14993619D01*
X14684523Y-14993619D01*
X14798809Y-14693619D02*
X14798809Y-14750762D01*
X14913095Y-14693619D02*
X14913095Y-14750762D01*
X15355952Y-15107905D02*
X15341666Y-15093619D01*
X15313095Y-15050762D01*
X15298809Y-15022191D01*
X15284523Y-14979334D01*
X15270238Y-14907905D01*
X15270238Y-14850762D01*
X15284523Y-14779334D01*
X15298809Y-14736476D01*
X15313095Y-14707905D01*
X15341666Y-14665048D01*
X15355952Y-14650762D01*
X15598809Y-14793619D02*
X15598809Y-14993619D01*
X15527381Y-14679334D02*
X15455952Y-14893619D01*
X15641666Y-14893619D01*
X15984523Y-14993619D02*
X15984523Y-14693619D01*
X16113095Y-14993619D02*
X16113095Y-14836476D01*
X16098809Y-14807905D01*
X16070238Y-14793619D01*
X16027381Y-14793619D01*
X15998809Y-14807905D01*
X15984523Y-14822191D01*
X16298809Y-14993619D02*
X16270238Y-14979334D01*
X16255952Y-14965048D01*
X16241666Y-14936476D01*
X16241666Y-14850762D01*
X16255952Y-14822191D01*
X16270238Y-14807905D01*
X16298809Y-14793619D01*
X16341666Y-14793619D01*
X16370238Y-14807905D01*
X16384523Y-14822191D01*
X16398809Y-14850762D01*
X16398809Y-14936476D01*
X16384523Y-14965048D01*
X16370238Y-14979334D01*
X16341666Y-14993619D01*
X16298809Y-14993619D01*
X16570238Y-14993619D02*
X16541666Y-14979334D01*
X16527381Y-14950762D01*
X16527381Y-14693619D01*
X16798809Y-14979334D02*
X16770238Y-14993619D01*
X16713095Y-14993619D01*
X16684523Y-14979334D01*
X16670238Y-14950762D01*
X16670238Y-14836476D01*
X16684523Y-14807905D01*
X16713095Y-14793619D01*
X16770238Y-14793619D01*
X16798809Y-14807905D01*
X16813095Y-14836476D01*
X16813095Y-14865048D01*
X16670238Y-14893619D01*
X16927381Y-14979334D02*
X16955952Y-14993619D01*
X17013095Y-14993619D01*
X17041666Y-14979334D01*
X17055952Y-14950762D01*
X17055952Y-14936476D01*
X17041666Y-14907905D01*
X17013095Y-14893619D01*
X16970238Y-14893619D01*
X16941666Y-14879334D01*
X16927381Y-14850762D01*
X16927381Y-14836476D01*
X16941666Y-14807905D01*
X16970238Y-14793619D01*
X17013095Y-14793619D01*
X17041666Y-14807905D01*
X17155952Y-15107905D02*
X17170238Y-15093619D01*
X17198809Y-15050762D01*
X17213095Y-15022191D01*
X17227381Y-14979334D01*
X17241666Y-14907905D01*
X17241666Y-14850762D01*
X17227381Y-14779334D01*
X17213095Y-14736476D01*
X17198809Y-14707905D01*
X17170238Y-14665048D01*
X17155952Y-14650762D01*
X10048095Y-15203905D02*
X10048095Y-15303905D01*
X9998095Y-15253905D02*
X10098095Y-15253905D01*
X10541666Y-15389619D02*
X10370238Y-15389619D01*
X10455952Y-15389619D02*
X10455952Y-15089619D01*
X10427381Y-15132476D01*
X10398809Y-15161048D01*
X10370238Y-15175334D01*
X10670238Y-15361048D02*
X10684523Y-15375334D01*
X10670238Y-15389619D01*
X10655952Y-15375334D01*
X10670238Y-15361048D01*
X10670238Y-15389619D01*
X10870238Y-15089619D02*
X10898809Y-15089619D01*
X10927381Y-15103905D01*
X10941666Y-15118191D01*
X10955952Y-15146762D01*
X10970238Y-15203905D01*
X10970238Y-15275334D01*
X10955952Y-15332476D01*
X10941666Y-15361048D01*
X10927381Y-15375334D01*
X10898809Y-15389619D01*
X10870238Y-15389619D01*
X10841666Y-15375334D01*
X10827381Y-15361048D01*
X10813095Y-15332476D01*
X10798809Y-15275334D01*
X10798809Y-15203905D01*
X10813095Y-15146762D01*
X10827381Y-15118191D01*
X10841666Y-15103905D01*
X10870238Y-15089619D01*
X11155952Y-15089619D02*
X11184523Y-15089619D01*
X11213095Y-15103905D01*
X11227381Y-15118191D01*
X11241666Y-15146762D01*
X11255952Y-15203905D01*
X11255952Y-15275334D01*
X11241666Y-15332476D01*
X11227381Y-15361048D01*
X11213095Y-15375334D01*
X11184523Y-15389619D01*
X11155952Y-15389619D01*
X11127381Y-15375334D01*
X11113095Y-15361048D01*
X11098809Y-15332476D01*
X11084523Y-15275334D01*
X11084523Y-15203905D01*
X11098809Y-15146762D01*
X11113095Y-15118191D01*
X11127381Y-15103905D01*
X11155952Y-15089619D01*
X11441666Y-15089619D02*
X11470238Y-15089619D01*
X11498809Y-15103905D01*
X11513095Y-15118191D01*
X11527381Y-15146762D01*
X11541666Y-15203905D01*
X11541666Y-15275334D01*
X11527381Y-15332476D01*
X11513095Y-15361048D01*
X11498809Y-15375334D01*
X11470238Y-15389619D01*
X11441666Y-15389619D01*
X11413095Y-15375334D01*
X11398809Y-15361048D01*
X11384523Y-15332476D01*
X11370238Y-15275334D01*
X11370238Y-15203905D01*
X11384523Y-15146762D01*
X11398809Y-15118191D01*
X11413095Y-15103905D01*
X11441666Y-15089619D01*
X11670238Y-15389619D02*
X11670238Y-15189619D01*
X11670238Y-15218191D02*
X11684523Y-15203905D01*
X11713095Y-15189619D01*
X11755952Y-15189619D01*
X11784523Y-15203905D01*
X11798809Y-15232476D01*
X11798809Y-15389619D01*
X11798809Y-15232476D02*
X11813095Y-15203905D01*
X11841666Y-15189619D01*
X11884523Y-15189619D01*
X11913095Y-15203905D01*
X11927381Y-15232476D01*
X11927381Y-15389619D01*
X12070238Y-15389619D02*
X12070238Y-15189619D01*
X12070238Y-15218191D02*
X12084523Y-15203905D01*
X12113095Y-15189619D01*
X12155952Y-15189619D01*
X12184523Y-15203905D01*
X12198809Y-15232476D01*
X12198809Y-15389619D01*
X12198809Y-15232476D02*
X12213095Y-15203905D01*
X12241666Y-15189619D01*
X12284523Y-15189619D01*
X12313095Y-15203905D01*
X12327381Y-15232476D01*
X12327381Y-15389619D01*
X12913095Y-15075334D02*
X12655952Y-15461048D01*
X13298809Y-15089619D02*
X13327381Y-15089619D01*
X13355952Y-15103905D01*
X13370238Y-15118191D01*
X13384523Y-15146762D01*
X13398809Y-15203905D01*
X13398809Y-15275334D01*
X13384523Y-15332476D01*
X13370238Y-15361048D01*
X13355952Y-15375334D01*
X13327381Y-15389619D01*
X13298809Y-15389619D01*
X13270238Y-15375334D01*
X13255952Y-15361048D01*
X13241666Y-15332476D01*
X13227381Y-15275334D01*
X13227381Y-15203905D01*
X13241666Y-15146762D01*
X13255952Y-15118191D01*
X13270238Y-15103905D01*
X13298809Y-15089619D01*
X13527381Y-15361048D02*
X13541666Y-15375334D01*
X13527381Y-15389619D01*
X13513095Y-15375334D01*
X13527381Y-15361048D01*
X13527381Y-15389619D01*
X13727381Y-15089619D02*
X13755952Y-15089619D01*
X13784523Y-15103905D01*
X13798809Y-15118191D01*
X13813095Y-15146762D01*
X13827381Y-15203905D01*
X13827381Y-15275334D01*
X13813095Y-15332476D01*
X13798809Y-15361048D01*
X13784523Y-15375334D01*
X13755952Y-15389619D01*
X13727381Y-15389619D01*
X13698809Y-15375334D01*
X13684523Y-15361048D01*
X13670238Y-15332476D01*
X13655952Y-15275334D01*
X13655952Y-15203905D01*
X13670238Y-15146762D01*
X13684523Y-15118191D01*
X13698809Y-15103905D01*
X13727381Y-15089619D01*
X13927381Y-15089619D02*
X14113095Y-15089619D01*
X14013095Y-15203905D01*
X14055952Y-15203905D01*
X14084523Y-15218191D01*
X14098809Y-15232476D01*
X14113095Y-15261048D01*
X14113095Y-15332476D01*
X14098809Y-15361048D01*
X14084523Y-15375334D01*
X14055952Y-15389619D01*
X13970238Y-15389619D01*
X13941666Y-15375334D01*
X13927381Y-15361048D01*
X14255952Y-15389619D02*
X14313095Y-15389619D01*
X14341666Y-15375334D01*
X14355952Y-15361048D01*
X14384523Y-15318191D01*
X14398809Y-15261048D01*
X14398809Y-15146762D01*
X14384523Y-15118191D01*
X14370238Y-15103905D01*
X14341666Y-15089619D01*
X14284523Y-15089619D01*
X14255952Y-15103905D01*
X14241666Y-15118191D01*
X14227381Y-15146762D01*
X14227381Y-15218191D01*
X14241666Y-15246762D01*
X14255952Y-15261048D01*
X14284523Y-15275334D01*
X14341666Y-15275334D01*
X14370238Y-15261048D01*
X14384523Y-15246762D01*
X14398809Y-15218191D01*
X14655952Y-15189619D02*
X14655952Y-15389619D01*
X14584523Y-15075334D02*
X14513095Y-15289619D01*
X14698809Y-15289619D01*
X14798809Y-15089619D02*
X14798809Y-15146762D01*
X14913095Y-15089619D02*
X14913095Y-15146762D01*
X15355952Y-15503905D02*
X15341666Y-15489619D01*
X15313095Y-15446762D01*
X15298809Y-15418191D01*
X15284523Y-15375334D01*
X15270238Y-15303905D01*
X15270238Y-15246762D01*
X15284523Y-15175334D01*
X15298809Y-15132476D01*
X15313095Y-15103905D01*
X15341666Y-15061048D01*
X15355952Y-15046762D01*
X15598809Y-15189619D02*
X15598809Y-15389619D01*
X15527381Y-15075334D02*
X15455952Y-15289619D01*
X15641666Y-15289619D01*
X15984523Y-15389619D02*
X15984523Y-15089619D01*
X16113095Y-15389619D02*
X16113095Y-15232476D01*
X16098809Y-15203905D01*
X16070238Y-15189619D01*
X16027381Y-15189619D01*
X15998809Y-15203905D01*
X15984523Y-15218191D01*
X16298809Y-15389619D02*
X16270238Y-15375334D01*
X16255952Y-15361048D01*
X16241666Y-15332476D01*
X16241666Y-15246762D01*
X16255952Y-15218191D01*
X16270238Y-15203905D01*
X16298809Y-15189619D01*
X16341666Y-15189619D01*
X16370238Y-15203905D01*
X16384523Y-15218191D01*
X16398809Y-15246762D01*
X16398809Y-15332476D01*
X16384523Y-15361048D01*
X16370238Y-15375334D01*
X16341666Y-15389619D01*
X16298809Y-15389619D01*
X16570238Y-15389619D02*
X16541666Y-15375334D01*
X16527381Y-15346762D01*
X16527381Y-15089619D01*
X16798809Y-15375334D02*
X16770238Y-15389619D01*
X16713095Y-15389619D01*
X16684523Y-15375334D01*
X16670238Y-15346762D01*
X16670238Y-15232476D01*
X16684523Y-15203905D01*
X16713095Y-15189619D01*
X16770238Y-15189619D01*
X16798809Y-15203905D01*
X16813095Y-15232476D01*
X16813095Y-15261048D01*
X16670238Y-15289619D01*
X16927381Y-15375334D02*
X16955952Y-15389619D01*
X17013095Y-15389619D01*
X17041666Y-15375334D01*
X17055952Y-15346762D01*
X17055952Y-15332476D01*
X17041666Y-15303905D01*
X17013095Y-15289619D01*
X16970238Y-15289619D01*
X16941666Y-15275334D01*
X16927381Y-15246762D01*
X16927381Y-15232476D01*
X16941666Y-15203905D01*
X16970238Y-15189619D01*
X17013095Y-15189619D01*
X17041666Y-15203905D01*
X17155952Y-15503905D02*
X17170238Y-15489619D01*
X17198809Y-15446762D01*
X17213095Y-15418191D01*
X17227381Y-15375334D01*
X17241666Y-15303905D01*
X17241666Y-15246762D01*
X17227381Y-15175334D01*
X17213095Y-15132476D01*
X17198809Y-15103905D01*
X17170238Y-15061048D01*
X17155952Y-15046762D01*
X10064413Y-15731223D02*
X10064413Y-15568587D01*
X9901777Y-15568587D01*
X9901777Y-15731223D01*
X10064413Y-15731223D01*
X10370238Y-15514191D02*
X10384523Y-15499905D01*
X10413095Y-15485619D01*
X10484523Y-15485619D01*
X10513095Y-15499905D01*
X10527381Y-15514191D01*
X10541666Y-15542762D01*
X10541666Y-15571334D01*
X10527381Y-15614191D01*
X10355952Y-15785619D01*
X10541666Y-15785619D01*
X10670238Y-15757048D02*
X10684523Y-15771334D01*
X10670238Y-15785619D01*
X10655952Y-15771334D01*
X10670238Y-15757048D01*
X10670238Y-15785619D01*
X10784523Y-15485619D02*
X10970238Y-15485619D01*
X10870238Y-15599905D01*
X10913095Y-15599905D01*
X10941666Y-15614191D01*
X10955952Y-15628476D01*
X10970238Y-15657048D01*
X10970238Y-15728476D01*
X10955952Y-15757048D01*
X10941666Y-15771334D01*
X10913095Y-15785619D01*
X10827381Y-15785619D01*
X10798809Y-15771334D01*
X10784523Y-15757048D01*
X11155952Y-15485619D02*
X11184523Y-15485619D01*
X11213095Y-15499905D01*
X11227381Y-15514191D01*
X11241666Y-15542762D01*
X11255952Y-15599905D01*
X11255952Y-15671334D01*
X11241666Y-15728476D01*
X11227381Y-15757048D01*
X11213095Y-15771334D01*
X11184523Y-15785619D01*
X11155952Y-15785619D01*
X11127381Y-15771334D01*
X11113095Y-15757048D01*
X11098809Y-15728476D01*
X11084523Y-15671334D01*
X11084523Y-15599905D01*
X11098809Y-15542762D01*
X11113095Y-15514191D01*
X11127381Y-15499905D01*
X11155952Y-15485619D01*
X11441666Y-15485619D02*
X11470238Y-15485619D01*
X11498809Y-15499905D01*
X11513095Y-15514191D01*
X11527381Y-15542762D01*
X11541666Y-15599905D01*
X11541666Y-15671334D01*
X11527381Y-15728476D01*
X11513095Y-15757048D01*
X11498809Y-15771334D01*
X11470238Y-15785619D01*
X11441666Y-15785619D01*
X11413095Y-15771334D01*
X11398809Y-15757048D01*
X11384523Y-15728476D01*
X11370238Y-15671334D01*
X11370238Y-15599905D01*
X11384523Y-15542762D01*
X11398809Y-15514191D01*
X11413095Y-15499905D01*
X11441666Y-15485619D01*
X11670238Y-15785619D02*
X11670238Y-15585619D01*
X11670238Y-15614191D02*
X11684523Y-15599905D01*
X11713095Y-15585619D01*
X11755952Y-15585619D01*
X11784523Y-15599905D01*
X11798809Y-15628476D01*
X11798809Y-15785619D01*
X11798809Y-15628476D02*
X11813095Y-15599905D01*
X11841666Y-15585619D01*
X11884523Y-15585619D01*
X11913095Y-15599905D01*
X11927381Y-15628476D01*
X11927381Y-15785619D01*
X12070238Y-15785619D02*
X12070238Y-15585619D01*
X12070238Y-15614191D02*
X12084523Y-15599905D01*
X12113095Y-15585619D01*
X12155952Y-15585619D01*
X12184523Y-15599905D01*
X12198809Y-15628476D01*
X12198809Y-15785619D01*
X12198809Y-15628476D02*
X12213095Y-15599905D01*
X12241666Y-15585619D01*
X12284523Y-15585619D01*
X12313095Y-15599905D01*
X12327381Y-15628476D01*
X12327381Y-15785619D01*
X12913095Y-15471334D02*
X12655952Y-15857048D01*
X13298809Y-15485619D02*
X13327381Y-15485619D01*
X13355952Y-15499905D01*
X13370238Y-15514191D01*
X13384523Y-15542762D01*
X13398809Y-15599905D01*
X13398809Y-15671334D01*
X13384523Y-15728476D01*
X13370238Y-15757048D01*
X13355952Y-15771334D01*
X13327381Y-15785619D01*
X13298809Y-15785619D01*
X13270238Y-15771334D01*
X13255952Y-15757048D01*
X13241666Y-15728476D01*
X13227381Y-15671334D01*
X13227381Y-15599905D01*
X13241666Y-15542762D01*
X13255952Y-15514191D01*
X13270238Y-15499905D01*
X13298809Y-15485619D01*
X13527381Y-15757048D02*
X13541666Y-15771334D01*
X13527381Y-15785619D01*
X13513095Y-15771334D01*
X13527381Y-15757048D01*
X13527381Y-15785619D01*
X13727381Y-15485619D02*
X13755952Y-15485619D01*
X13784523Y-15499905D01*
X13798809Y-15514191D01*
X13813095Y-15542762D01*
X13827381Y-15599905D01*
X13827381Y-15671334D01*
X13813095Y-15728476D01*
X13798809Y-15757048D01*
X13784523Y-15771334D01*
X13755952Y-15785619D01*
X13727381Y-15785619D01*
X13698809Y-15771334D01*
X13684523Y-15757048D01*
X13670238Y-15728476D01*
X13655952Y-15671334D01*
X13655952Y-15599905D01*
X13670238Y-15542762D01*
X13684523Y-15514191D01*
X13698809Y-15499905D01*
X13727381Y-15485619D01*
X13970238Y-15785619D02*
X14027381Y-15785619D01*
X14055952Y-15771334D01*
X14070238Y-15757048D01*
X14098809Y-15714191D01*
X14113095Y-15657048D01*
X14113095Y-15542762D01*
X14098809Y-15514191D01*
X14084523Y-15499905D01*
X14055952Y-15485619D01*
X13998809Y-15485619D01*
X13970238Y-15499905D01*
X13955952Y-15514191D01*
X13941666Y-15542762D01*
X13941666Y-15614191D01*
X13955952Y-15642762D01*
X13970238Y-15657048D01*
X13998809Y-15671334D01*
X14055952Y-15671334D01*
X14084523Y-15657048D01*
X14098809Y-15642762D01*
X14113095Y-15614191D01*
X14298809Y-15485619D02*
X14327381Y-15485619D01*
X14355952Y-15499905D01*
X14370238Y-15514191D01*
X14384523Y-15542762D01*
X14398809Y-15599905D01*
X14398809Y-15671334D01*
X14384523Y-15728476D01*
X14370238Y-15757048D01*
X14355952Y-15771334D01*
X14327381Y-15785619D01*
X14298809Y-15785619D01*
X14270238Y-15771334D01*
X14255952Y-15757048D01*
X14241666Y-15728476D01*
X14227381Y-15671334D01*
X14227381Y-15599905D01*
X14241666Y-15542762D01*
X14255952Y-15514191D01*
X14270238Y-15499905D01*
X14298809Y-15485619D01*
X14655952Y-15485619D02*
X14598809Y-15485619D01*
X14570238Y-15499905D01*
X14555952Y-15514191D01*
X14527381Y-15557048D01*
X14513095Y-15614191D01*
X14513095Y-15728476D01*
X14527381Y-15757048D01*
X14541666Y-15771334D01*
X14570238Y-15785619D01*
X14627381Y-15785619D01*
X14655952Y-15771334D01*
X14670238Y-15757048D01*
X14684523Y-15728476D01*
X14684523Y-15657048D01*
X14670238Y-15628476D01*
X14655952Y-15614191D01*
X14627381Y-15599905D01*
X14570238Y-15599905D01*
X14541666Y-15614191D01*
X14527381Y-15628476D01*
X14513095Y-15657048D01*
X14798809Y-15485619D02*
X14798809Y-15542762D01*
X14913095Y-15485619D02*
X14913095Y-15542762D01*
X15355952Y-15899905D02*
X15341666Y-15885619D01*
X15313095Y-15842762D01*
X15298809Y-15814191D01*
X15284523Y-15771334D01*
X15270238Y-15699905D01*
X15270238Y-15642762D01*
X15284523Y-15571334D01*
X15298809Y-15528476D01*
X15313095Y-15499905D01*
X15341666Y-15457048D01*
X15355952Y-15442762D01*
X15455952Y-15514191D02*
X15470238Y-15499905D01*
X15498809Y-15485619D01*
X15570238Y-15485619D01*
X15598809Y-15499905D01*
X15613095Y-15514191D01*
X15627381Y-15542762D01*
X15627381Y-15571334D01*
X15613095Y-15614191D01*
X15441666Y-15785619D01*
X15627381Y-15785619D01*
X15984523Y-15785619D02*
X15984523Y-15485619D01*
X16113095Y-15785619D02*
X16113095Y-15628476D01*
X16098809Y-15599905D01*
X16070238Y-15585619D01*
X16027381Y-15585619D01*
X15998809Y-15599905D01*
X15984523Y-15614191D01*
X16298809Y-15785619D02*
X16270238Y-15771334D01*
X16255952Y-15757048D01*
X16241666Y-15728476D01*
X16241666Y-15642762D01*
X16255952Y-15614191D01*
X16270238Y-15599905D01*
X16298809Y-15585619D01*
X16341666Y-15585619D01*
X16370238Y-15599905D01*
X16384523Y-15614191D01*
X16398809Y-15642762D01*
X16398809Y-15728476D01*
X16384523Y-15757048D01*
X16370238Y-15771334D01*
X16341666Y-15785619D01*
X16298809Y-15785619D01*
X16570238Y-15785619D02*
X16541666Y-15771334D01*
X16527381Y-15742762D01*
X16527381Y-15485619D01*
X16798809Y-15771334D02*
X16770238Y-15785619D01*
X16713095Y-15785619D01*
X16684523Y-15771334D01*
X16670238Y-15742762D01*
X16670238Y-15628476D01*
X16684523Y-15599905D01*
X16713095Y-15585619D01*
X16770238Y-15585619D01*
X16798809Y-15599905D01*
X16813095Y-15628476D01*
X16813095Y-15657048D01*
X16670238Y-15685619D01*
X16927381Y-15771334D02*
X16955952Y-15785619D01*
X17013095Y-15785619D01*
X17041666Y-15771334D01*
X17055952Y-15742762D01*
X17055952Y-15728476D01*
X17041666Y-15699905D01*
X17013095Y-15685619D01*
X16970238Y-15685619D01*
X16941666Y-15671334D01*
X16927381Y-15642762D01*
X16927381Y-15628476D01*
X16941666Y-15599905D01*
X16970238Y-15585619D01*
X17013095Y-15585619D01*
X17041666Y-15599905D01*
X17155952Y-15899905D02*
X17170238Y-15885619D01*
X17198809Y-15842762D01*
X17213095Y-15814191D01*
X17227381Y-15771334D01*
X17241666Y-15699905D01*
X17241666Y-15642762D01*
X17227381Y-15571334D01*
X17213095Y-15528476D01*
X17198809Y-15499905D01*
X17170238Y-15457048D01*
X17155952Y-15442762D01*
M02*
