G04 #@! TF.GenerationSoftware,KiCad,Pcbnew,(5.1.10)-1*
G04 #@! TF.CreationDate,2022-05-27T15:53:32+02:00*
G04 #@! TF.ProjectId,USB_RemoteControl_schematic,5553425f-5265-46d6-9f74-65436f6e7472,1*
G04 #@! TF.SameCoordinates,Original*
G04 #@! TF.FileFunction,Legend,Bot*
G04 #@! TF.FilePolarity,Positive*
%FSLAX46Y46*%
G04 Gerber Fmt 4.6, Leading zero omitted, Abs format (unit mm)*
G04 Created by KiCad (PCBNEW (5.1.10)-1) date 2022-05-27 15:53:32*
%MOMM*%
%LPD*%
G01*
G04 APERTURE LIST*
%ADD10C,0.152400*%
%ADD11C,0.120000*%
%ADD12C,0.150000*%
%ADD13R,1.000000X2.524000*%
%ADD14C,3.500000*%
%ADD15C,1.524000*%
%ADD16R,1.524000X1.524000*%
%ADD17R,1.300000X0.900000*%
%ADD18O,1.700000X1.700000*%
%ADD19R,1.700000X1.700000*%
G04 APERTURE END LIST*
D10*
X137504361Y-124054895D02*
X137504361Y-124635466D01*
X137543066Y-124751580D01*
X137620476Y-124828990D01*
X137736590Y-124867695D01*
X137814000Y-124867695D01*
X136730266Y-124867695D02*
X137117314Y-124867695D01*
X137117314Y-124054895D01*
X135994876Y-124790285D02*
X136033580Y-124828990D01*
X136149695Y-124867695D01*
X136227104Y-124867695D01*
X136343219Y-124828990D01*
X136420628Y-124751580D01*
X136459333Y-124674171D01*
X136498038Y-124519352D01*
X136498038Y-124403238D01*
X136459333Y-124248419D01*
X136420628Y-124171009D01*
X136343219Y-124093600D01*
X136227104Y-124054895D01*
X136149695Y-124054895D01*
X136033580Y-124093600D01*
X135994876Y-124132304D01*
X135414304Y-124054895D02*
X135414304Y-124635466D01*
X135453009Y-124751580D01*
X135530419Y-124828990D01*
X135646533Y-124867695D01*
X135723942Y-124867695D01*
X134640209Y-124867695D02*
X135027257Y-124867695D01*
X135027257Y-124054895D01*
X133904819Y-124790285D02*
X133943523Y-124828990D01*
X134059638Y-124867695D01*
X134137047Y-124867695D01*
X134253161Y-124828990D01*
X134330571Y-124751580D01*
X134369276Y-124674171D01*
X134407980Y-124519352D01*
X134407980Y-124403238D01*
X134369276Y-124248419D01*
X134330571Y-124171009D01*
X134253161Y-124093600D01*
X134137047Y-124054895D01*
X134059638Y-124054895D01*
X133943523Y-124093600D01*
X133904819Y-124132304D01*
X133324247Y-124054895D02*
X133324247Y-124635466D01*
X133362952Y-124751580D01*
X133440361Y-124828990D01*
X133556476Y-124867695D01*
X133633885Y-124867695D01*
X132550152Y-124867695D02*
X132937200Y-124867695D01*
X132937200Y-124054895D01*
X131814761Y-124790285D02*
X131853466Y-124828990D01*
X131969580Y-124867695D01*
X132046990Y-124867695D01*
X132163104Y-124828990D01*
X132240514Y-124751580D01*
X132279219Y-124674171D01*
X132317923Y-124519352D01*
X132317923Y-124403238D01*
X132279219Y-124248419D01*
X132240514Y-124171009D01*
X132163104Y-124093600D01*
X132046990Y-124054895D01*
X131969580Y-124054895D01*
X131853466Y-124093600D01*
X131814761Y-124132304D01*
X131234190Y-124054895D02*
X131234190Y-124635466D01*
X131272895Y-124751580D01*
X131350304Y-124828990D01*
X131466419Y-124867695D01*
X131543828Y-124867695D01*
X130460095Y-124867695D02*
X130847142Y-124867695D01*
X130847142Y-124054895D01*
X129724704Y-124790285D02*
X129763409Y-124828990D01*
X129879523Y-124867695D01*
X129956933Y-124867695D01*
X130073047Y-124828990D01*
X130150457Y-124751580D01*
X130189161Y-124674171D01*
X130227866Y-124519352D01*
X130227866Y-124403238D01*
X130189161Y-124248419D01*
X130150457Y-124171009D01*
X130073047Y-124093600D01*
X129956933Y-124054895D01*
X129879523Y-124054895D01*
X129763409Y-124093600D01*
X129724704Y-124132304D01*
D11*
X122250000Y-131500000D02*
X123250000Y-131500000D01*
X122250000Y-131500000D02*
X122250000Y-118500000D01*
X122250000Y-118500000D02*
X123500000Y-118500000D01*
X112440000Y-125890000D02*
X112440000Y-126120000D01*
X112440000Y-130610000D02*
X112440000Y-130380000D01*
X112440000Y-130610000D02*
X115160000Y-130610000D01*
X115160000Y-130610000D02*
X115160000Y-129300000D01*
X111300000Y-130380000D02*
X112440000Y-130380000D01*
X115160000Y-125890000D02*
X112440000Y-125890000D01*
X115160000Y-127200000D02*
X115160000Y-125890000D01*
X116603733Y-124240000D02*
X116896267Y-124240000D01*
X116603733Y-125260000D02*
X116896267Y-125260000D01*
X113522936Y-117015000D02*
X113977064Y-117015000D01*
X113522936Y-118485000D02*
X113977064Y-118485000D01*
X117265000Y-120977064D02*
X117265000Y-120522936D01*
X118735000Y-120977064D02*
X118735000Y-120522936D01*
X118265000Y-129227064D02*
X118265000Y-128772936D01*
X119735000Y-129227064D02*
X119735000Y-128772936D01*
X113977064Y-122985001D02*
X113522936Y-122985001D01*
X113977064Y-121515001D02*
X113522936Y-121515001D01*
X113977064Y-120735000D02*
X113522936Y-120735000D01*
X113977064Y-119265000D02*
X113522936Y-119265000D01*
X109670000Y-131670000D02*
X109670000Y-133000000D01*
X111000000Y-131670000D02*
X109670000Y-131670000D01*
X112270000Y-131670000D02*
X112270000Y-134330000D01*
X112270000Y-134330000D02*
X119950000Y-134330000D01*
X112270000Y-131670000D02*
X119950000Y-131670000D01*
X119950000Y-131670000D02*
X119950000Y-134330000D01*
X110723752Y-125235000D02*
X110201248Y-125235000D01*
X110723752Y-123765000D02*
X110201248Y-123765000D01*
X110235000Y-128701248D02*
X110235000Y-129223752D01*
X108765000Y-128701248D02*
X108765000Y-129223752D01*
D12*
X114261904Y-124452380D02*
X114261904Y-125261904D01*
X114214285Y-125357142D01*
X114166666Y-125404761D01*
X114071428Y-125452380D01*
X113880952Y-125452380D01*
X113785714Y-125404761D01*
X113738095Y-125357142D01*
X113690476Y-125261904D01*
X113690476Y-124452380D01*
X112690476Y-125452380D02*
X113261904Y-125452380D01*
X112976190Y-125452380D02*
X112976190Y-124452380D01*
X113071428Y-124595238D01*
X113166666Y-124690476D01*
X113261904Y-124738095D01*
X116916666Y-123607142D02*
X116964285Y-123654761D01*
X117107142Y-123702380D01*
X117202380Y-123702380D01*
X117345238Y-123654761D01*
X117440476Y-123559523D01*
X117488095Y-123464285D01*
X117535714Y-123273809D01*
X117535714Y-123130952D01*
X117488095Y-122940476D01*
X117440476Y-122845238D01*
X117345238Y-122750000D01*
X117202380Y-122702380D01*
X117107142Y-122702380D01*
X116964285Y-122750000D01*
X116916666Y-122797619D01*
X116583333Y-122702380D02*
X115964285Y-122702380D01*
X116297619Y-123083333D01*
X116154761Y-123083333D01*
X116059523Y-123130952D01*
X116011904Y-123178571D01*
X115964285Y-123273809D01*
X115964285Y-123511904D01*
X116011904Y-123607142D01*
X116059523Y-123654761D01*
X116154761Y-123702380D01*
X116440476Y-123702380D01*
X116535714Y-123654761D01*
X116583333Y-123607142D01*
X111702380Y-117583333D02*
X111226190Y-117250000D01*
X111702380Y-117011904D02*
X110702380Y-117011904D01*
X110702380Y-117392857D01*
X110750000Y-117488095D01*
X110797619Y-117535714D01*
X110892857Y-117583333D01*
X111035714Y-117583333D01*
X111130952Y-117535714D01*
X111178571Y-117488095D01*
X111226190Y-117392857D01*
X111226190Y-117011904D01*
X110702380Y-118488095D02*
X110702380Y-118011904D01*
X111178571Y-117964285D01*
X111130952Y-118011904D01*
X111083333Y-118107142D01*
X111083333Y-118345238D01*
X111130952Y-118440476D01*
X111178571Y-118488095D01*
X111273809Y-118535714D01*
X111511904Y-118535714D01*
X111607142Y-118488095D01*
X111654761Y-118440476D01*
X111702380Y-118345238D01*
X111702380Y-118107142D01*
X111654761Y-118011904D01*
X111607142Y-117964285D01*
X116952380Y-120833333D02*
X116476190Y-120500000D01*
X116952380Y-120261904D02*
X115952380Y-120261904D01*
X115952380Y-120642857D01*
X116000000Y-120738095D01*
X116047619Y-120785714D01*
X116142857Y-120833333D01*
X116285714Y-120833333D01*
X116380952Y-120785714D01*
X116428571Y-120738095D01*
X116476190Y-120642857D01*
X116476190Y-120261904D01*
X116285714Y-121690476D02*
X116952380Y-121690476D01*
X115904761Y-121452380D02*
X116619047Y-121214285D01*
X116619047Y-121833333D01*
X117952380Y-128833333D02*
X117476190Y-128500000D01*
X117952380Y-128261904D02*
X116952380Y-128261904D01*
X116952380Y-128642857D01*
X117000000Y-128738095D01*
X117047619Y-128785714D01*
X117142857Y-128833333D01*
X117285714Y-128833333D01*
X117380952Y-128785714D01*
X117428571Y-128738095D01*
X117476190Y-128642857D01*
X117476190Y-128261904D01*
X116952380Y-129166666D02*
X116952380Y-129785714D01*
X117333333Y-129452380D01*
X117333333Y-129595238D01*
X117380952Y-129690476D01*
X117428571Y-129738095D01*
X117523809Y-129785714D01*
X117761904Y-129785714D01*
X117857142Y-129738095D01*
X117904761Y-129690476D01*
X117952380Y-129595238D01*
X117952380Y-129309523D01*
X117904761Y-129214285D01*
X117857142Y-129166666D01*
X111702380Y-121583333D02*
X111226190Y-121250000D01*
X111702380Y-121011904D02*
X110702380Y-121011904D01*
X110702380Y-121392857D01*
X110750000Y-121488095D01*
X110797619Y-121535714D01*
X110892857Y-121583333D01*
X111035714Y-121583333D01*
X111130952Y-121535714D01*
X111178571Y-121488095D01*
X111226190Y-121392857D01*
X111226190Y-121011904D01*
X110797619Y-121964285D02*
X110750000Y-122011904D01*
X110702380Y-122107142D01*
X110702380Y-122345238D01*
X110750000Y-122440476D01*
X110797619Y-122488095D01*
X110892857Y-122535714D01*
X110988095Y-122535714D01*
X111130952Y-122488095D01*
X111702380Y-121916666D01*
X111702380Y-122535714D01*
X111702380Y-119833333D02*
X111226190Y-119500000D01*
X111702380Y-119261904D02*
X110702380Y-119261904D01*
X110702380Y-119642857D01*
X110750000Y-119738095D01*
X110797619Y-119785714D01*
X110892857Y-119833333D01*
X111035714Y-119833333D01*
X111130952Y-119785714D01*
X111178571Y-119738095D01*
X111226190Y-119642857D01*
X111226190Y-119261904D01*
X111702380Y-120785714D02*
X111702380Y-120214285D01*
X111702380Y-120500000D02*
X110702380Y-120500000D01*
X110845238Y-120404761D01*
X110940476Y-120309523D01*
X110988095Y-120214285D01*
X109666666Y-123177142D02*
X109714285Y-123224761D01*
X109857142Y-123272380D01*
X109952380Y-123272380D01*
X110095238Y-123224761D01*
X110190476Y-123129523D01*
X110238095Y-123034285D01*
X110285714Y-122843809D01*
X110285714Y-122700952D01*
X110238095Y-122510476D01*
X110190476Y-122415238D01*
X110095238Y-122320000D01*
X109952380Y-122272380D01*
X109857142Y-122272380D01*
X109714285Y-122320000D01*
X109666666Y-122367619D01*
X109285714Y-122367619D02*
X109238095Y-122320000D01*
X109142857Y-122272380D01*
X108904761Y-122272380D01*
X108809523Y-122320000D01*
X108761904Y-122367619D01*
X108714285Y-122462857D01*
X108714285Y-122558095D01*
X108761904Y-122700952D01*
X109333333Y-123272380D01*
X108714285Y-123272380D01*
X109666666Y-126607142D02*
X109714285Y-126654761D01*
X109857142Y-126702380D01*
X109952380Y-126702380D01*
X110095238Y-126654761D01*
X110190476Y-126559523D01*
X110238095Y-126464285D01*
X110285714Y-126273809D01*
X110285714Y-126130952D01*
X110238095Y-125940476D01*
X110190476Y-125845238D01*
X110095238Y-125750000D01*
X109952380Y-125702380D01*
X109857142Y-125702380D01*
X109714285Y-125750000D01*
X109666666Y-125797619D01*
X108714285Y-126702380D02*
X109285714Y-126702380D01*
X109000000Y-126702380D02*
X109000000Y-125702380D01*
X109095238Y-125845238D01*
X109190476Y-125940476D01*
X109285714Y-125988095D01*
%LPC*%
D13*
X142000000Y-131500000D03*
X140500000Y-131500000D03*
X139000000Y-131500000D03*
X136000000Y-131500000D03*
X137500000Y-131500000D03*
X134500000Y-131500000D03*
X131500000Y-131500000D03*
X127000000Y-131500000D03*
X125500000Y-131500000D03*
X133000000Y-131500000D03*
X128500000Y-131500000D03*
X130000000Y-131500000D03*
X124000000Y-131500000D03*
X130250000Y-118500000D03*
X128750000Y-118500000D03*
X133250000Y-118500000D03*
X125750000Y-118500000D03*
X127250000Y-118500000D03*
X131750000Y-118500000D03*
X134750000Y-118500000D03*
X137750000Y-118500000D03*
X136250000Y-118500000D03*
X140750000Y-118500000D03*
X139250000Y-118500000D03*
X142250000Y-118500000D03*
X124250000Y-118500000D03*
D14*
X103790000Y-118430000D03*
D15*
X106500000Y-124000000D03*
D16*
X106500000Y-128500000D03*
D14*
X103790000Y-131570000D03*
D15*
X106500000Y-126000000D03*
X106500000Y-121500000D03*
D10*
G36*
X115800000Y-129116500D02*
G01*
X112675000Y-129116500D01*
X112675000Y-128700000D01*
X111200000Y-128700000D01*
X111200000Y-127800000D01*
X112675000Y-127800000D01*
X112675000Y-127383500D01*
X115800000Y-127383500D01*
X115800000Y-129116500D01*
G37*
D17*
X111850000Y-126750000D03*
X111850000Y-129750000D03*
G36*
G01*
X117075000Y-124987500D02*
X117075000Y-124512500D01*
G75*
G02*
X117312500Y-124275000I237500J0D01*
G01*
X117912500Y-124275000D01*
G75*
G02*
X118150000Y-124512500I0J-237500D01*
G01*
X118150000Y-124987500D01*
G75*
G02*
X117912500Y-125225000I-237500J0D01*
G01*
X117312500Y-125225000D01*
G75*
G02*
X117075000Y-124987500I0J237500D01*
G01*
G37*
G36*
G01*
X115350000Y-124987500D02*
X115350000Y-124512500D01*
G75*
G02*
X115587500Y-124275000I237500J0D01*
G01*
X116187500Y-124275000D01*
G75*
G02*
X116425000Y-124512500I0J-237500D01*
G01*
X116425000Y-124987500D01*
G75*
G02*
X116187500Y-125225000I-237500J0D01*
G01*
X115587500Y-125225000D01*
G75*
G02*
X115350000Y-124987500I0J237500D01*
G01*
G37*
G36*
G01*
X114150000Y-118200001D02*
X114150000Y-117299999D01*
G75*
G02*
X114399999Y-117050000I249999J0D01*
G01*
X115100001Y-117050000D01*
G75*
G02*
X115350000Y-117299999I0J-249999D01*
G01*
X115350000Y-118200001D01*
G75*
G02*
X115100001Y-118450000I-249999J0D01*
G01*
X114399999Y-118450000D01*
G75*
G02*
X114150000Y-118200001I0J249999D01*
G01*
G37*
G36*
G01*
X112150000Y-118200001D02*
X112150000Y-117299999D01*
G75*
G02*
X112399999Y-117050000I249999J0D01*
G01*
X113100001Y-117050000D01*
G75*
G02*
X113350000Y-117299999I0J-249999D01*
G01*
X113350000Y-118200001D01*
G75*
G02*
X113100001Y-118450000I-249999J0D01*
G01*
X112399999Y-118450000D01*
G75*
G02*
X112150000Y-118200001I0J249999D01*
G01*
G37*
G36*
G01*
X118450001Y-120350000D02*
X117549999Y-120350000D01*
G75*
G02*
X117300000Y-120100001I0J249999D01*
G01*
X117300000Y-119399999D01*
G75*
G02*
X117549999Y-119150000I249999J0D01*
G01*
X118450001Y-119150000D01*
G75*
G02*
X118700000Y-119399999I0J-249999D01*
G01*
X118700000Y-120100001D01*
G75*
G02*
X118450001Y-120350000I-249999J0D01*
G01*
G37*
G36*
G01*
X118450001Y-122350000D02*
X117549999Y-122350000D01*
G75*
G02*
X117300000Y-122100001I0J249999D01*
G01*
X117300000Y-121399999D01*
G75*
G02*
X117549999Y-121150000I249999J0D01*
G01*
X118450001Y-121150000D01*
G75*
G02*
X118700000Y-121399999I0J-249999D01*
G01*
X118700000Y-122100001D01*
G75*
G02*
X118450001Y-122350000I-249999J0D01*
G01*
G37*
G36*
G01*
X119450001Y-128600000D02*
X118549999Y-128600000D01*
G75*
G02*
X118300000Y-128350001I0J249999D01*
G01*
X118300000Y-127649999D01*
G75*
G02*
X118549999Y-127400000I249999J0D01*
G01*
X119450001Y-127400000D01*
G75*
G02*
X119700000Y-127649999I0J-249999D01*
G01*
X119700000Y-128350001D01*
G75*
G02*
X119450001Y-128600000I-249999J0D01*
G01*
G37*
G36*
G01*
X119450001Y-130600000D02*
X118549999Y-130600000D01*
G75*
G02*
X118300000Y-130350001I0J249999D01*
G01*
X118300000Y-129649999D01*
G75*
G02*
X118549999Y-129400000I249999J0D01*
G01*
X119450001Y-129400000D01*
G75*
G02*
X119700000Y-129649999I0J-249999D01*
G01*
X119700000Y-130350001D01*
G75*
G02*
X119450001Y-130600000I-249999J0D01*
G01*
G37*
G36*
G01*
X113350000Y-121800000D02*
X113350000Y-122700002D01*
G75*
G02*
X113100001Y-122950001I-249999J0D01*
G01*
X112399999Y-122950001D01*
G75*
G02*
X112150000Y-122700002I0J249999D01*
G01*
X112150000Y-121800000D01*
G75*
G02*
X112399999Y-121550001I249999J0D01*
G01*
X113100001Y-121550001D01*
G75*
G02*
X113350000Y-121800000I0J-249999D01*
G01*
G37*
G36*
G01*
X115350000Y-121800000D02*
X115350000Y-122700002D01*
G75*
G02*
X115100001Y-122950001I-249999J0D01*
G01*
X114399999Y-122950001D01*
G75*
G02*
X114150000Y-122700002I0J249999D01*
G01*
X114150000Y-121800000D01*
G75*
G02*
X114399999Y-121550001I249999J0D01*
G01*
X115100001Y-121550001D01*
G75*
G02*
X115350000Y-121800000I0J-249999D01*
G01*
G37*
G36*
G01*
X113350000Y-119549999D02*
X113350000Y-120450001D01*
G75*
G02*
X113100001Y-120700000I-249999J0D01*
G01*
X112399999Y-120700000D01*
G75*
G02*
X112150000Y-120450001I0J249999D01*
G01*
X112150000Y-119549999D01*
G75*
G02*
X112399999Y-119300000I249999J0D01*
G01*
X113100001Y-119300000D01*
G75*
G02*
X113350000Y-119549999I0J-249999D01*
G01*
G37*
G36*
G01*
X115350000Y-119549999D02*
X115350000Y-120450001D01*
G75*
G02*
X115100001Y-120700000I-249999J0D01*
G01*
X114399999Y-120700000D01*
G75*
G02*
X114150000Y-120450001I0J249999D01*
G01*
X114150000Y-119549999D01*
G75*
G02*
X114399999Y-119300000I249999J0D01*
G01*
X115100001Y-119300000D01*
G75*
G02*
X115350000Y-119549999I0J-249999D01*
G01*
G37*
D18*
X118620000Y-133000000D03*
X116080000Y-133000000D03*
X113540000Y-133000000D03*
D19*
X111000000Y-133000000D03*
G36*
G01*
X110012500Y-124025000D02*
X110012500Y-124975000D01*
G75*
G02*
X109762500Y-125225000I-250000J0D01*
G01*
X109087500Y-125225000D01*
G75*
G02*
X108837500Y-124975000I0J250000D01*
G01*
X108837500Y-124025000D01*
G75*
G02*
X109087500Y-123775000I250000J0D01*
G01*
X109762500Y-123775000D01*
G75*
G02*
X110012500Y-124025000I0J-250000D01*
G01*
G37*
G36*
G01*
X112087500Y-124025000D02*
X112087500Y-124975000D01*
G75*
G02*
X111837500Y-125225000I-250000J0D01*
G01*
X111162500Y-125225000D01*
G75*
G02*
X110912500Y-124975000I0J250000D01*
G01*
X110912500Y-124025000D01*
G75*
G02*
X111162500Y-123775000I250000J0D01*
G01*
X111837500Y-123775000D01*
G75*
G02*
X112087500Y-124025000I0J-250000D01*
G01*
G37*
G36*
G01*
X109025000Y-129412500D02*
X109975000Y-129412500D01*
G75*
G02*
X110225000Y-129662500I0J-250000D01*
G01*
X110225000Y-130337500D01*
G75*
G02*
X109975000Y-130587500I-250000J0D01*
G01*
X109025000Y-130587500D01*
G75*
G02*
X108775000Y-130337500I0J250000D01*
G01*
X108775000Y-129662500D01*
G75*
G02*
X109025000Y-129412500I250000J0D01*
G01*
G37*
G36*
G01*
X109025000Y-127337500D02*
X109975000Y-127337500D01*
G75*
G02*
X110225000Y-127587500I0J-250000D01*
G01*
X110225000Y-128262500D01*
G75*
G02*
X109975000Y-128512500I-250000J0D01*
G01*
X109025000Y-128512500D01*
G75*
G02*
X108775000Y-128262500I0J250000D01*
G01*
X108775000Y-127587500D01*
G75*
G02*
X109025000Y-127337500I250000J0D01*
G01*
G37*
M02*
