G04 #@! TF.GenerationSoftware,KiCad,Pcbnew,(5.1.10)-1*
G04 #@! TF.CreationDate,2022-05-27T15:53:32+02:00*
G04 #@! TF.ProjectId,USB_RemoteControl_schematic,5553425f-5265-46d6-9f74-65436f6e7472,1*
G04 #@! TF.SameCoordinates,Original*
G04 #@! TF.FileFunction,Paste,Bot*
G04 #@! TF.FilePolarity,Positive*
%FSLAX46Y46*%
G04 Gerber Fmt 4.6, Leading zero omitted, Abs format (unit mm)*
G04 Created by KiCad (PCBNEW (5.1.10)-1) date 2022-05-27 15:53:32*
%MOMM*%
%LPD*%
G01*
G04 APERTURE LIST*
%ADD10R,1.000000X2.524000*%
%ADD11C,0.152400*%
%ADD12R,1.300000X0.900000*%
G04 APERTURE END LIST*
D10*
X142000000Y-131500000D03*
X140500000Y-131500000D03*
X139000000Y-131500000D03*
X136000000Y-131500000D03*
X137500000Y-131500000D03*
X134500000Y-131500000D03*
X131500000Y-131500000D03*
X127000000Y-131500000D03*
X125500000Y-131500000D03*
X133000000Y-131500000D03*
X128500000Y-131500000D03*
X130000000Y-131500000D03*
X124000000Y-131500000D03*
X130250000Y-118500000D03*
X128750000Y-118500000D03*
X133250000Y-118500000D03*
X125750000Y-118500000D03*
X127250000Y-118500000D03*
X131750000Y-118500000D03*
X134750000Y-118500000D03*
X137750000Y-118500000D03*
X136250000Y-118500000D03*
X140750000Y-118500000D03*
X139250000Y-118500000D03*
X142250000Y-118500000D03*
X124250000Y-118500000D03*
D11*
G36*
X115800000Y-129116500D02*
G01*
X112675000Y-129116500D01*
X112675000Y-128700000D01*
X111200000Y-128700000D01*
X111200000Y-127800000D01*
X112675000Y-127800000D01*
X112675000Y-127383500D01*
X115800000Y-127383500D01*
X115800000Y-129116500D01*
G37*
D12*
X111850000Y-126750000D03*
X111850000Y-129750000D03*
G36*
G01*
X117075000Y-124987500D02*
X117075000Y-124512500D01*
G75*
G02*
X117312500Y-124275000I237500J0D01*
G01*
X117912500Y-124275000D01*
G75*
G02*
X118150000Y-124512500I0J-237500D01*
G01*
X118150000Y-124987500D01*
G75*
G02*
X117912500Y-125225000I-237500J0D01*
G01*
X117312500Y-125225000D01*
G75*
G02*
X117075000Y-124987500I0J237500D01*
G01*
G37*
G36*
G01*
X115350000Y-124987500D02*
X115350000Y-124512500D01*
G75*
G02*
X115587500Y-124275000I237500J0D01*
G01*
X116187500Y-124275000D01*
G75*
G02*
X116425000Y-124512500I0J-237500D01*
G01*
X116425000Y-124987500D01*
G75*
G02*
X116187500Y-125225000I-237500J0D01*
G01*
X115587500Y-125225000D01*
G75*
G02*
X115350000Y-124987500I0J237500D01*
G01*
G37*
G36*
G01*
X114150000Y-118200001D02*
X114150000Y-117299999D01*
G75*
G02*
X114399999Y-117050000I249999J0D01*
G01*
X115100001Y-117050000D01*
G75*
G02*
X115350000Y-117299999I0J-249999D01*
G01*
X115350000Y-118200001D01*
G75*
G02*
X115100001Y-118450000I-249999J0D01*
G01*
X114399999Y-118450000D01*
G75*
G02*
X114150000Y-118200001I0J249999D01*
G01*
G37*
G36*
G01*
X112150000Y-118200001D02*
X112150000Y-117299999D01*
G75*
G02*
X112399999Y-117050000I249999J0D01*
G01*
X113100001Y-117050000D01*
G75*
G02*
X113350000Y-117299999I0J-249999D01*
G01*
X113350000Y-118200001D01*
G75*
G02*
X113100001Y-118450000I-249999J0D01*
G01*
X112399999Y-118450000D01*
G75*
G02*
X112150000Y-118200001I0J249999D01*
G01*
G37*
G36*
G01*
X118450001Y-120350000D02*
X117549999Y-120350000D01*
G75*
G02*
X117300000Y-120100001I0J249999D01*
G01*
X117300000Y-119399999D01*
G75*
G02*
X117549999Y-119150000I249999J0D01*
G01*
X118450001Y-119150000D01*
G75*
G02*
X118700000Y-119399999I0J-249999D01*
G01*
X118700000Y-120100001D01*
G75*
G02*
X118450001Y-120350000I-249999J0D01*
G01*
G37*
G36*
G01*
X118450001Y-122350000D02*
X117549999Y-122350000D01*
G75*
G02*
X117300000Y-122100001I0J249999D01*
G01*
X117300000Y-121399999D01*
G75*
G02*
X117549999Y-121150000I249999J0D01*
G01*
X118450001Y-121150000D01*
G75*
G02*
X118700000Y-121399999I0J-249999D01*
G01*
X118700000Y-122100001D01*
G75*
G02*
X118450001Y-122350000I-249999J0D01*
G01*
G37*
G36*
G01*
X119450001Y-128600000D02*
X118549999Y-128600000D01*
G75*
G02*
X118300000Y-128350001I0J249999D01*
G01*
X118300000Y-127649999D01*
G75*
G02*
X118549999Y-127400000I249999J0D01*
G01*
X119450001Y-127400000D01*
G75*
G02*
X119700000Y-127649999I0J-249999D01*
G01*
X119700000Y-128350001D01*
G75*
G02*
X119450001Y-128600000I-249999J0D01*
G01*
G37*
G36*
G01*
X119450001Y-130600000D02*
X118549999Y-130600000D01*
G75*
G02*
X118300000Y-130350001I0J249999D01*
G01*
X118300000Y-129649999D01*
G75*
G02*
X118549999Y-129400000I249999J0D01*
G01*
X119450001Y-129400000D01*
G75*
G02*
X119700000Y-129649999I0J-249999D01*
G01*
X119700000Y-130350001D01*
G75*
G02*
X119450001Y-130600000I-249999J0D01*
G01*
G37*
G36*
G01*
X113350000Y-121800000D02*
X113350000Y-122700002D01*
G75*
G02*
X113100001Y-122950001I-249999J0D01*
G01*
X112399999Y-122950001D01*
G75*
G02*
X112150000Y-122700002I0J249999D01*
G01*
X112150000Y-121800000D01*
G75*
G02*
X112399999Y-121550001I249999J0D01*
G01*
X113100001Y-121550001D01*
G75*
G02*
X113350000Y-121800000I0J-249999D01*
G01*
G37*
G36*
G01*
X115350000Y-121800000D02*
X115350000Y-122700002D01*
G75*
G02*
X115100001Y-122950001I-249999J0D01*
G01*
X114399999Y-122950001D01*
G75*
G02*
X114150000Y-122700002I0J249999D01*
G01*
X114150000Y-121800000D01*
G75*
G02*
X114399999Y-121550001I249999J0D01*
G01*
X115100001Y-121550001D01*
G75*
G02*
X115350000Y-121800000I0J-249999D01*
G01*
G37*
G36*
G01*
X113350000Y-119549999D02*
X113350000Y-120450001D01*
G75*
G02*
X113100001Y-120700000I-249999J0D01*
G01*
X112399999Y-120700000D01*
G75*
G02*
X112150000Y-120450001I0J249999D01*
G01*
X112150000Y-119549999D01*
G75*
G02*
X112399999Y-119300000I249999J0D01*
G01*
X113100001Y-119300000D01*
G75*
G02*
X113350000Y-119549999I0J-249999D01*
G01*
G37*
G36*
G01*
X115350000Y-119549999D02*
X115350000Y-120450001D01*
G75*
G02*
X115100001Y-120700000I-249999J0D01*
G01*
X114399999Y-120700000D01*
G75*
G02*
X114150000Y-120450001I0J249999D01*
G01*
X114150000Y-119549999D01*
G75*
G02*
X114399999Y-119300000I249999J0D01*
G01*
X115100001Y-119300000D01*
G75*
G02*
X115350000Y-119549999I0J-249999D01*
G01*
G37*
G36*
G01*
X110012500Y-124025000D02*
X110012500Y-124975000D01*
G75*
G02*
X109762500Y-125225000I-250000J0D01*
G01*
X109087500Y-125225000D01*
G75*
G02*
X108837500Y-124975000I0J250000D01*
G01*
X108837500Y-124025000D01*
G75*
G02*
X109087500Y-123775000I250000J0D01*
G01*
X109762500Y-123775000D01*
G75*
G02*
X110012500Y-124025000I0J-250000D01*
G01*
G37*
G36*
G01*
X112087500Y-124025000D02*
X112087500Y-124975000D01*
G75*
G02*
X111837500Y-125225000I-250000J0D01*
G01*
X111162500Y-125225000D01*
G75*
G02*
X110912500Y-124975000I0J250000D01*
G01*
X110912500Y-124025000D01*
G75*
G02*
X111162500Y-123775000I250000J0D01*
G01*
X111837500Y-123775000D01*
G75*
G02*
X112087500Y-124025000I0J-250000D01*
G01*
G37*
G36*
G01*
X109025000Y-129412500D02*
X109975000Y-129412500D01*
G75*
G02*
X110225000Y-129662500I0J-250000D01*
G01*
X110225000Y-130337500D01*
G75*
G02*
X109975000Y-130587500I-250000J0D01*
G01*
X109025000Y-130587500D01*
G75*
G02*
X108775000Y-130337500I0J250000D01*
G01*
X108775000Y-129662500D01*
G75*
G02*
X109025000Y-129412500I250000J0D01*
G01*
G37*
G36*
G01*
X109025000Y-127337500D02*
X109975000Y-127337500D01*
G75*
G02*
X110225000Y-127587500I0J-250000D01*
G01*
X110225000Y-128262500D01*
G75*
G02*
X109975000Y-128512500I-250000J0D01*
G01*
X109025000Y-128512500D01*
G75*
G02*
X108775000Y-128262500I0J250000D01*
G01*
X108775000Y-127587500D01*
G75*
G02*
X109025000Y-127337500I250000J0D01*
G01*
G37*
M02*
